%TF.GenerationSoftware,KiCad,Pcbnew,9.0.0*%
%TF.CreationDate,2025-03-31T20:13:35-04:00*%
%TF.ProjectId,compulator,636f6d70-756c-4617-946f-722e6b696361,rev?*%
%TF.SameCoordinates,Original*%
%TF.FileFunction,Copper,L1,Top*%
%TF.FilePolarity,Positive*%
%FSLAX46Y46*%
G04 Gerber Fmt 4.6, Leading zero omitted, Abs format (unit mm)*
G04 Created by KiCad (PCBNEW 9.0.0) date 2025-03-31 20:13:35*
%MOMM*%
%LPD*%
G01*
G04 APERTURE LIST*
G04 Aperture macros list*
%AMRoundRect*
0 Rectangle with rounded corners*
0 $1 Rounding radius*
0 $2 $3 $4 $5 $6 $7 $8 $9 X,Y pos of 4 corners*
0 Add a 4 corners polygon primitive as box body*
4,1,4,$2,$3,$4,$5,$6,$7,$8,$9,$2,$3,0*
0 Add four circle primitives for the rounded corners*
1,1,$1+$1,$2,$3*
1,1,$1+$1,$4,$5*
1,1,$1+$1,$6,$7*
1,1,$1+$1,$8,$9*
0 Add four rect primitives between the rounded corners*
20,1,$1+$1,$2,$3,$4,$5,0*
20,1,$1+$1,$4,$5,$6,$7,0*
20,1,$1+$1,$6,$7,$8,$9,0*
20,1,$1+$1,$8,$9,$2,$3,0*%
G04 Aperture macros list end*
%ADD10C,0.300000*%
%TA.AperFunction,NonConductor*%
%ADD11C,0.300000*%
%TD*%
%TA.AperFunction,ComponentPad*%
%ADD12C,1.440000*%
%TD*%
%TA.AperFunction,SMDPad,CuDef*%
%ADD13RoundRect,0.250000X-0.450000X0.262500X-0.450000X-0.262500X0.450000X-0.262500X0.450000X0.262500X0*%
%TD*%
%TA.AperFunction,SMDPad,CuDef*%
%ADD14RoundRect,0.250000X0.450000X-0.262500X0.450000X0.262500X-0.450000X0.262500X-0.450000X-0.262500X0*%
%TD*%
%TA.AperFunction,ComponentPad*%
%ADD15R,1.600000X1.600000*%
%TD*%
%TA.AperFunction,ComponentPad*%
%ADD16C,1.600000*%
%TD*%
%TA.AperFunction,ComponentPad*%
%ADD17R,2.200000X2.200000*%
%TD*%
%TA.AperFunction,ComponentPad*%
%ADD18O,2.200000X2.200000*%
%TD*%
%TA.AperFunction,SMDPad,CuDef*%
%ADD19C,1.000000*%
%TD*%
%TA.AperFunction,SMDPad,CuDef*%
%ADD20RoundRect,0.250000X-0.250000X-0.475000X0.250000X-0.475000X0.250000X0.475000X-0.250000X0.475000X0*%
%TD*%
%TA.AperFunction,ComponentPad*%
%ADD21O,1.600000X1.600000*%
%TD*%
%TA.AperFunction,SMDPad,CuDef*%
%ADD22R,1.000000X3.500000*%
%TD*%
%TA.AperFunction,SMDPad,CuDef*%
%ADD23R,1.500000X3.400000*%
%TD*%
%TA.AperFunction,SMDPad,CuDef*%
%ADD24RoundRect,0.250000X-0.475000X0.250000X-0.475000X-0.250000X0.475000X-0.250000X0.475000X0.250000X0*%
%TD*%
%TA.AperFunction,ComponentPad*%
%ADD25C,1.500000*%
%TD*%
%TA.AperFunction,ComponentPad*%
%ADD26R,1.070000X1.800000*%
%TD*%
%TA.AperFunction,ComponentPad*%
%ADD27O,1.070000X1.800000*%
%TD*%
%TA.AperFunction,ComponentPad*%
%ADD28R,1.700000X1.700000*%
%TD*%
%TA.AperFunction,ComponentPad*%
%ADD29O,1.700000X1.700000*%
%TD*%
%TA.AperFunction,ComponentPad*%
%ADD30C,2.500000*%
%TD*%
%TA.AperFunction,ViaPad*%
%ADD31C,0.600000*%
%TD*%
%TA.AperFunction,Conductor*%
%ADD32C,0.508000*%
%TD*%
%TA.AperFunction,Conductor*%
%ADD33C,0.500000*%
%TD*%
G04 APERTURE END LIST*
D10*
D11*
X173282368Y-119744400D02*
X173139510Y-119815828D01*
X173139510Y-119815828D02*
X172853796Y-119815828D01*
X172853796Y-119815828D02*
X172710939Y-119744400D01*
X172710939Y-119744400D02*
X172639510Y-119672971D01*
X172639510Y-119672971D02*
X172568082Y-119530114D01*
X172568082Y-119530114D02*
X172568082Y-119101542D01*
X172568082Y-119101542D02*
X172639510Y-118958685D01*
X172639510Y-118958685D02*
X172710939Y-118887257D01*
X172710939Y-118887257D02*
X172853796Y-118815828D01*
X172853796Y-118815828D02*
X173139510Y-118815828D01*
X173139510Y-118815828D02*
X173282368Y-118887257D01*
X174139510Y-119815828D02*
X173996653Y-119744400D01*
X173996653Y-119744400D02*
X173925224Y-119672971D01*
X173925224Y-119672971D02*
X173853796Y-119530114D01*
X173853796Y-119530114D02*
X173853796Y-119101542D01*
X173853796Y-119101542D02*
X173925224Y-118958685D01*
X173925224Y-118958685D02*
X173996653Y-118887257D01*
X173996653Y-118887257D02*
X174139510Y-118815828D01*
X174139510Y-118815828D02*
X174353796Y-118815828D01*
X174353796Y-118815828D02*
X174496653Y-118887257D01*
X174496653Y-118887257D02*
X174568082Y-118958685D01*
X174568082Y-118958685D02*
X174639510Y-119101542D01*
X174639510Y-119101542D02*
X174639510Y-119530114D01*
X174639510Y-119530114D02*
X174568082Y-119672971D01*
X174568082Y-119672971D02*
X174496653Y-119744400D01*
X174496653Y-119744400D02*
X174353796Y-119815828D01*
X174353796Y-119815828D02*
X174139510Y-119815828D01*
X175282367Y-119815828D02*
X175282367Y-118815828D01*
X175282367Y-118958685D02*
X175353796Y-118887257D01*
X175353796Y-118887257D02*
X175496653Y-118815828D01*
X175496653Y-118815828D02*
X175710939Y-118815828D01*
X175710939Y-118815828D02*
X175853796Y-118887257D01*
X175853796Y-118887257D02*
X175925225Y-119030114D01*
X175925225Y-119030114D02*
X175925225Y-119815828D01*
X175925225Y-119030114D02*
X175996653Y-118887257D01*
X175996653Y-118887257D02*
X176139510Y-118815828D01*
X176139510Y-118815828D02*
X176353796Y-118815828D01*
X176353796Y-118815828D02*
X176496653Y-118887257D01*
X176496653Y-118887257D02*
X176568082Y-119030114D01*
X176568082Y-119030114D02*
X176568082Y-119815828D01*
X177282367Y-118815828D02*
X177282367Y-120315828D01*
X177282367Y-118887257D02*
X177425225Y-118815828D01*
X177425225Y-118815828D02*
X177710939Y-118815828D01*
X177710939Y-118815828D02*
X177853796Y-118887257D01*
X177853796Y-118887257D02*
X177925225Y-118958685D01*
X177925225Y-118958685D02*
X177996653Y-119101542D01*
X177996653Y-119101542D02*
X177996653Y-119530114D01*
X177996653Y-119530114D02*
X177925225Y-119672971D01*
X177925225Y-119672971D02*
X177853796Y-119744400D01*
X177853796Y-119744400D02*
X177710939Y-119815828D01*
X177710939Y-119815828D02*
X177425225Y-119815828D01*
X177425225Y-119815828D02*
X177282367Y-119744400D01*
X178639510Y-119815828D02*
X178639510Y-118815828D01*
X178639510Y-119101542D02*
X178710939Y-118958685D01*
X178710939Y-118958685D02*
X178782368Y-118887257D01*
X178782368Y-118887257D02*
X178925225Y-118815828D01*
X178925225Y-118815828D02*
X179068082Y-118815828D01*
X180139510Y-119744400D02*
X179996653Y-119815828D01*
X179996653Y-119815828D02*
X179710939Y-119815828D01*
X179710939Y-119815828D02*
X179568081Y-119744400D01*
X179568081Y-119744400D02*
X179496653Y-119601542D01*
X179496653Y-119601542D02*
X179496653Y-119030114D01*
X179496653Y-119030114D02*
X179568081Y-118887257D01*
X179568081Y-118887257D02*
X179710939Y-118815828D01*
X179710939Y-118815828D02*
X179996653Y-118815828D01*
X179996653Y-118815828D02*
X180139510Y-118887257D01*
X180139510Y-118887257D02*
X180210939Y-119030114D01*
X180210939Y-119030114D02*
X180210939Y-119172971D01*
X180210939Y-119172971D02*
X179496653Y-119315828D01*
X180782367Y-119744400D02*
X180925224Y-119815828D01*
X180925224Y-119815828D02*
X181210938Y-119815828D01*
X181210938Y-119815828D02*
X181353795Y-119744400D01*
X181353795Y-119744400D02*
X181425224Y-119601542D01*
X181425224Y-119601542D02*
X181425224Y-119530114D01*
X181425224Y-119530114D02*
X181353795Y-119387257D01*
X181353795Y-119387257D02*
X181210938Y-119315828D01*
X181210938Y-119315828D02*
X180996653Y-119315828D01*
X180996653Y-119315828D02*
X180853795Y-119244400D01*
X180853795Y-119244400D02*
X180782367Y-119101542D01*
X180782367Y-119101542D02*
X180782367Y-119030114D01*
X180782367Y-119030114D02*
X180853795Y-118887257D01*
X180853795Y-118887257D02*
X180996653Y-118815828D01*
X180996653Y-118815828D02*
X181210938Y-118815828D01*
X181210938Y-118815828D02*
X181353795Y-118887257D01*
X181996653Y-119744400D02*
X182139510Y-119815828D01*
X182139510Y-119815828D02*
X182425224Y-119815828D01*
X182425224Y-119815828D02*
X182568081Y-119744400D01*
X182568081Y-119744400D02*
X182639510Y-119601542D01*
X182639510Y-119601542D02*
X182639510Y-119530114D01*
X182639510Y-119530114D02*
X182568081Y-119387257D01*
X182568081Y-119387257D02*
X182425224Y-119315828D01*
X182425224Y-119315828D02*
X182210939Y-119315828D01*
X182210939Y-119315828D02*
X182068081Y-119244400D01*
X182068081Y-119244400D02*
X181996653Y-119101542D01*
X181996653Y-119101542D02*
X181996653Y-119030114D01*
X181996653Y-119030114D02*
X182068081Y-118887257D01*
X182068081Y-118887257D02*
X182210939Y-118815828D01*
X182210939Y-118815828D02*
X182425224Y-118815828D01*
X182425224Y-118815828D02*
X182568081Y-118887257D01*
X183496653Y-119815828D02*
X183353796Y-119744400D01*
X183353796Y-119744400D02*
X183282367Y-119672971D01*
X183282367Y-119672971D02*
X183210939Y-119530114D01*
X183210939Y-119530114D02*
X183210939Y-119101542D01*
X183210939Y-119101542D02*
X183282367Y-118958685D01*
X183282367Y-118958685D02*
X183353796Y-118887257D01*
X183353796Y-118887257D02*
X183496653Y-118815828D01*
X183496653Y-118815828D02*
X183710939Y-118815828D01*
X183710939Y-118815828D02*
X183853796Y-118887257D01*
X183853796Y-118887257D02*
X183925225Y-118958685D01*
X183925225Y-118958685D02*
X183996653Y-119101542D01*
X183996653Y-119101542D02*
X183996653Y-119530114D01*
X183996653Y-119530114D02*
X183925225Y-119672971D01*
X183925225Y-119672971D02*
X183853796Y-119744400D01*
X183853796Y-119744400D02*
X183710939Y-119815828D01*
X183710939Y-119815828D02*
X183496653Y-119815828D01*
X184639510Y-119815828D02*
X184639510Y-118815828D01*
X184639510Y-119101542D02*
X184710939Y-118958685D01*
X184710939Y-118958685D02*
X184782368Y-118887257D01*
X184782368Y-118887257D02*
X184925225Y-118815828D01*
X184925225Y-118815828D02*
X185068082Y-118815828D01*
X186568081Y-118815828D02*
X186925224Y-119815828D01*
X186925224Y-119815828D02*
X187282367Y-118815828D01*
X187782367Y-118458685D02*
X187853795Y-118387257D01*
X187853795Y-118387257D02*
X187996653Y-118315828D01*
X187996653Y-118315828D02*
X188353795Y-118315828D01*
X188353795Y-118315828D02*
X188496653Y-118387257D01*
X188496653Y-118387257D02*
X188568081Y-118458685D01*
X188568081Y-118458685D02*
X188639510Y-118601542D01*
X188639510Y-118601542D02*
X188639510Y-118744400D01*
X188639510Y-118744400D02*
X188568081Y-118958685D01*
X188568081Y-118958685D02*
X187710938Y-119815828D01*
X187710938Y-119815828D02*
X188639510Y-119815828D01*
D12*
%TO.P,P1,1,a*%
%TO.N,VREF*%
X200152000Y-105156000D03*
%TO.P,P1,2,b*%
X200152000Y-102616000D03*
%TO.P,P1,3,c*%
%TO.N,Net-(P1-c)*%
X200152000Y-100076000D03*
%TD*%
D13*
%TO.P,R15,1,+*%
%TO.N,Net-(R14--)*%
X210312000Y-73743500D03*
%TO.P,R15,2,-*%
%TO.N,Net-(D3-K)*%
X210312000Y-75568500D03*
%TD*%
D14*
%TO.P,R8,1,+*%
%TO.N,Net-(R7--)*%
X201168000Y-94364500D03*
%TO.P,R8,2,-*%
%TO.N,Net-(R8--)*%
X201168000Y-92539500D03*
%TD*%
D15*
%TO.P,C4,1,+*%
%TO.N,Net-(C3--)*%
X213995000Y-64730000D03*
D16*
%TO.P,C4,2,-*%
%TO.N,GNDA*%
X213995000Y-62230000D03*
%TD*%
D17*
%TO.P,D3,1,K*%
%TO.N,Net-(D3-K)*%
X219964000Y-90170000D03*
D18*
%TO.P,D3,2,A*%
%TO.N,Net-(D3-A)*%
X219964000Y-97790000D03*
%TD*%
D15*
%TO.P,C3,1,+*%
%TO.N,+9V*%
X186690000Y-62230000D03*
D16*
%TO.P,C3,2,-*%
%TO.N,Net-(C3--)*%
X186690000Y-64730000D03*
%TD*%
D19*
%TO.P,TP5,1,1*%
%TO.N,VREF*%
X185420000Y-74676000D03*
%TD*%
D14*
%TO.P,R4,1,+*%
%TO.N,+9V*%
X205740000Y-112672500D03*
%TO.P,R4,2,-*%
%TO.N,Net-(D2-RA)*%
X205740000Y-110847500D03*
%TD*%
D20*
%TO.P,C8,1,+*%
%TO.N,GNDA*%
X220030000Y-81915000D03*
%TO.P,C8,2,-*%
%TO.N,+9V*%
X221930000Y-81915000D03*
%TD*%
D14*
%TO.P,R7,1,+*%
%TO.N,Net-(R6--)*%
X198120000Y-94364500D03*
%TO.P,R7,2,-*%
%TO.N,Net-(R7--)*%
X198120000Y-92539500D03*
%TD*%
D19*
%TO.P,TP7,1,1*%
%TO.N,GNDA*%
X180340000Y-74676000D03*
%TD*%
%TO.P,TP1,1,1*%
%TO.N,VREF*%
X216535000Y-108585000D03*
%TD*%
D16*
%TO.P,C5,1,+*%
%TO.N,IN*%
X191516000Y-105096000D03*
%TO.P,C5,2,-*%
%TO.N,Net-(C5--)*%
X191516000Y-100096000D03*
%TD*%
D14*
%TO.P,R16,1,+*%
%TO.N,Net-(D3-K)*%
X213360000Y-75568500D03*
%TO.P,R16,2,-*%
%TO.N,GNDA*%
X213360000Y-73743500D03*
%TD*%
D13*
%TO.P,R9,1,+*%
%TO.N,Net-(P1-c)*%
X204216000Y-92539500D03*
%TO.P,R9,2,-*%
%TO.N,Net-(R10-+)*%
X204216000Y-94364500D03*
%TD*%
D14*
%TO.P,R3,1,+*%
%TO.N,Net-(C3--)*%
X195072000Y-71524500D03*
%TO.P,R3,2,-*%
%TO.N,GNDA*%
X195072000Y-69699500D03*
%TD*%
D13*
%TO.P,R2,1,+*%
%TO.N,+9V*%
X192024000Y-69699500D03*
%TO.P,R2,2,-*%
%TO.N,Net-(C3--)*%
X192024000Y-71524500D03*
%TD*%
D15*
%TO.P,U4,1*%
%TO.N,Net-(R6--)*%
X192024000Y-87864000D03*
D21*
%TO.P,U4,2,-*%
%TO.N,Net-(R6-+)*%
X194564000Y-87864000D03*
%TO.P,U4,3,+*%
%TO.N,Net-(C5--)*%
X197104000Y-87864000D03*
%TO.P,U4,4,V+*%
%TO.N,+9V*%
X199644000Y-87864000D03*
%TO.P,U4,5,+*%
%TO.N,Net-(R8--)*%
X202184000Y-87864000D03*
%TO.P,U4,6,-*%
%TO.N,Net-(P1-c)*%
X204724000Y-87864000D03*
%TO.P,U4,7*%
%TO.N,Net-(R10-+)*%
X207264000Y-87864000D03*
%TO.P,U4,8*%
%TO.N,Net-(R13--)*%
X207264000Y-80244000D03*
%TO.P,U4,9,-*%
%TO.N,Net-(R14--)*%
X204724000Y-80244000D03*
%TO.P,U4,10,+*%
%TO.N,Net-(R12-+)*%
X202184000Y-80244000D03*
%TO.P,U4,11,V-*%
%TO.N,GNDA*%
X199644000Y-80244000D03*
%TO.P,U4,12,+*%
%TO.N,Net-(R13--)*%
X197104000Y-80244000D03*
%TO.P,U4,13,-*%
%TO.N,Net-(R18--)*%
X194564000Y-80244000D03*
%TO.P,U4,14*%
%TO.N,Net-(R1-+)*%
X192024000Y-80244000D03*
%TD*%
D13*
%TO.P,R6,1,+*%
%TO.N,Net-(R6-+)*%
X192024000Y-92539500D03*
%TO.P,R6,2,-*%
%TO.N,Net-(R6--)*%
X192024000Y-94364500D03*
%TD*%
D14*
%TO.P,R13,1,+*%
%TO.N,Net-(R13-+)*%
X198120000Y-75568500D03*
%TO.P,R13,2,-*%
%TO.N,Net-(R13--)*%
X198120000Y-73743500D03*
%TD*%
D15*
%TO.P,U1,1*%
%TO.N,VREF*%
X217180000Y-71003000D03*
D21*
%TO.P,U1,2,-*%
X217180000Y-73543000D03*
%TO.P,U1,3,+*%
%TO.N,Net-(C3--)*%
X217180000Y-76083000D03*
%TO.P,U1,4,V-*%
%TO.N,GNDA*%
X217180000Y-78623000D03*
%TO.P,U1,5,+*%
X224800000Y-78623000D03*
%TO.P,U1,6,-*%
%TO.N,Net-(U1B--)*%
X224800000Y-76083000D03*
%TO.P,U1,7*%
X224800000Y-73543000D03*
%TO.P,U1,8,V+*%
%TO.N,+9V*%
X224800000Y-71003000D03*
%TD*%
D22*
%TO.P,J2,1,1*%
%TO.N,J-IN*%
X177530000Y-66710000D03*
%TO.P,J2,2,2*%
%TO.N,GNDA*%
X175530000Y-66710000D03*
D23*
%TO.P,J2,S1,SHIELD*%
%TO.N,unconnected-(J2-SHIELD-PadS1)*%
X179880000Y-60960000D03*
%TO.P,J2,S2,SHIELD*%
%TO.N,unconnected-(J2-SHIELD-PadS1)_0*%
X173180000Y-60960000D03*
%TD*%
D16*
%TO.P,C6,1,+*%
%TO.N,Net-(C6-+)*%
X208280000Y-105096000D03*
%TO.P,C6,2,-*%
%TO.N,Net-(C6--)*%
X208280000Y-100096000D03*
%TD*%
D22*
%TO.P,J1,1,1*%
%TO.N,Net-(D1-A)*%
X201660000Y-66985000D03*
%TO.P,J1,2,2*%
%TO.N,GNDA*%
X199660000Y-66985000D03*
D23*
%TO.P,J1,S1,SHIELD*%
%TO.N,unconnected-(J1-SHIELD-PadS1)_0*%
X204010000Y-61235000D03*
%TO.P,J1,S2,SHIELD*%
%TO.N,unconnected-(J1-SHIELD-PadS1)*%
X197310000Y-61235000D03*
%TD*%
D22*
%TO.P,J3,1,1*%
%TO.N,J-OUT*%
X225790000Y-66985000D03*
%TO.P,J3,2,2*%
%TO.N,GNDA*%
X223790000Y-66985000D03*
D23*
%TO.P,J3,S1,SHIELD*%
%TO.N,unconnected-(J3-SHIELD-PadS1)_0*%
X228140000Y-61235000D03*
%TO.P,J3,S2,SHIELD*%
%TO.N,unconnected-(J3-SHIELD-PadS1)*%
X221440000Y-61235000D03*
%TD*%
D24*
%TO.P,C1,1,+*%
%TO.N,GNDA*%
X188788000Y-69662000D03*
%TO.P,C1,2,-*%
%TO.N,+9V*%
X188788000Y-71562000D03*
%TD*%
D19*
%TO.P,TP4,1,1*%
%TO.N,Net-(R13--)*%
X187960000Y-74676000D03*
%TD*%
D14*
%TO.P,R14,1,+*%
%TO.N,Net-(R13--)*%
X207264000Y-75568500D03*
%TO.P,R14,2,-*%
%TO.N,Net-(R14--)*%
X207264000Y-73743500D03*
%TD*%
D25*
%TO.P,LDR1,1*%
%TO.N,Net-(R7--)*%
X182340000Y-110068000D03*
%TO.P,LDR1,2*%
%TO.N,VREF*%
X178340000Y-110068000D03*
%TO.P,LDR1,3*%
X181590000Y-89068000D03*
%TO.P,LDR1,4*%
%TO.N,Net-(R13-+)*%
X179090000Y-89068000D03*
%TD*%
D19*
%TO.P,TP6,1,1*%
%TO.N,+9V*%
X182880000Y-74676000D03*
%TD*%
D13*
%TO.P,R1,1,+*%
%TO.N,Net-(R1-+)*%
X208788000Y-110847500D03*
%TO.P,R1,2,-*%
%TO.N,Net-(D2-BA)*%
X208788000Y-112672500D03*
%TD*%
%TO.P,R17,1,+*%
%TO.N,VREF*%
X204216000Y-73743500D03*
%TO.P,R17,2,-*%
%TO.N,Net-(R14--)*%
X204216000Y-75568500D03*
%TD*%
D14*
%TO.P,R19,1,+*%
%TO.N,Net-(R18--)*%
X195072000Y-75568500D03*
%TO.P,R19,2,-*%
%TO.N,VREF*%
X195072000Y-73743500D03*
%TD*%
%TO.P,R18,1,+*%
%TO.N,Net-(R1-+)*%
X192024000Y-75568500D03*
%TO.P,R18,2,-*%
%TO.N,Net-(R18--)*%
X192024000Y-73743500D03*
%TD*%
D19*
%TO.P,TP2,1,1*%
%TO.N,Net-(P1-c)*%
X210820000Y-108585000D03*
%TD*%
%TO.P,TP3,1,1*%
%TO.N,Net-(C6--)*%
X177800000Y-74676000D03*
%TD*%
D17*
%TO.P,D1,1,K*%
%TO.N,+9V*%
X207264000Y-68326000D03*
D18*
%TO.P,D1,2,A*%
%TO.N,Net-(D1-A)*%
X207264000Y-60706000D03*
%TD*%
D24*
%TO.P,C7,1,+*%
%TO.N,GNDA*%
X188976000Y-83104000D03*
%TO.P,C7,2,-*%
%TO.N,+9V*%
X188976000Y-85004000D03*
%TD*%
D17*
%TO.P,D4,1,K*%
%TO.N,Net-(D3-A)*%
X216024000Y-97790000D03*
D18*
%TO.P,D4,2,A*%
%TO.N,VREF*%
X216024000Y-90170000D03*
%TD*%
D26*
%TO.P,D2,1,RA*%
%TO.N,Net-(D2-RA)*%
X198120000Y-113030000D03*
D27*
%TO.P,D2,2,K*%
%TO.N,LED*%
X199390000Y-113030000D03*
%TO.P,D2,3,GA*%
%TO.N,unconnected-(D2-GA-Pad3)*%
X200660000Y-113030000D03*
%TO.P,D2,4,BA*%
%TO.N,Net-(D2-BA)*%
X201930000Y-113030000D03*
%TD*%
D14*
%TO.P,R12,1,+*%
%TO.N,Net-(R12-+)*%
X201422000Y-75568500D03*
%TO.P,R12,2,-*%
%TO.N,Net-(R12--)*%
X201422000Y-73743500D03*
%TD*%
D13*
%TO.P,R11,1,+*%
%TO.N,Net-(R10-+)*%
X207264000Y-92539500D03*
%TO.P,R11,2,-*%
%TO.N,Net-(C6-+)*%
X207264000Y-94364500D03*
%TD*%
D28*
%TO.P,J4,1,Pin_1*%
%TO.N,J-IN*%
X193802000Y-119380000D03*
D29*
%TO.P,J4,2,Pin_2*%
%TO.N,IN*%
X196342000Y-119380000D03*
%TO.P,J4,3,Pin_3*%
%TO.N,GNDA*%
X198882000Y-119380000D03*
%TO.P,J4,4,Pin_4*%
%TO.N,LED*%
X201422000Y-119380000D03*
%TO.P,J4,5,Pin_5*%
%TO.N,OUT*%
X203962000Y-119380000D03*
%TO.P,J4,6,Pin_6*%
%TO.N,J-OUT*%
X206502000Y-119380000D03*
%TD*%
D14*
%TO.P,R10,1,+*%
%TO.N,Net-(R10-+)*%
X210312000Y-94364500D03*
%TO.P,R10,2,-*%
%TO.N,Net-(R10--)*%
X210312000Y-92539500D03*
%TD*%
D13*
%TO.P,R5,1,+*%
%TO.N,Net-(C5--)*%
X195072000Y-92539500D03*
%TO.P,R5,2,-*%
%TO.N,VREF*%
X195072000Y-94364500D03*
%TD*%
D30*
%TO.P,COMP1,1,1*%
%TO.N,VREF*%
X225980000Y-85080000D03*
%TO.P,COMP1,2,2*%
%TO.N,Net-(R12--)*%
X220980000Y-85080000D03*
%TO.P,COMP1,3,3*%
%TO.N,Net-(R10--)*%
X215980000Y-85080000D03*
%TD*%
%TO.P,LEVEL1,1,1*%
%TO.N,GNDA*%
X185340000Y-85080000D03*
%TO.P,LEVEL1,2,2*%
%TO.N,OUT*%
X180340000Y-85080000D03*
%TO.P,LEVEL1,3,3*%
%TO.N,Net-(C6--)*%
X175340000Y-85080000D03*
%TD*%
D31*
%TO.N,Net-(C3--)*%
X213106000Y-68834000D03*
%TO.N,GNDA*%
X219095698Y-76065000D03*
X224095698Y-96065000D03*
X189095698Y-86065000D03*
X209095698Y-96065000D03*
X214095698Y-101065000D03*
X174095698Y-101065000D03*
X219095698Y-106065000D03*
X224095698Y-106065000D03*
X174095698Y-111065000D03*
X189095698Y-91065000D03*
X199095698Y-61065000D03*
X179095698Y-76065000D03*
X179095698Y-116065000D03*
X184095698Y-116065000D03*
X189095698Y-101065000D03*
X184095698Y-81065000D03*
X174095698Y-96065000D03*
X219095698Y-111065000D03*
X204095698Y-106065000D03*
X194095698Y-116065000D03*
X179095698Y-66065000D03*
X214095698Y-91065000D03*
X184095698Y-61065000D03*
X219095698Y-96065000D03*
X224095698Y-81065000D03*
X174095698Y-116065000D03*
X194095698Y-106065000D03*
X224095698Y-86065000D03*
X219095698Y-61065000D03*
X189095698Y-61065000D03*
X204095698Y-101065000D03*
X209095698Y-81065000D03*
X209095698Y-91065000D03*
X174095698Y-106065000D03*
X188595000Y-81915000D03*
X179095698Y-101065000D03*
X179095698Y-106065000D03*
X219095698Y-66065000D03*
X209095698Y-61065000D03*
X174095698Y-76065000D03*
X224095698Y-116065000D03*
X214095698Y-116065000D03*
X184095698Y-71065000D03*
X224095698Y-61065000D03*
X199095698Y-96065000D03*
X189095698Y-66065000D03*
X209095698Y-116065000D03*
X174095698Y-91065000D03*
X224095698Y-91065000D03*
X174095698Y-71065000D03*
X174095698Y-81065000D03*
X189095698Y-96065000D03*
X204095698Y-86065000D03*
X174095698Y-66065000D03*
X199095698Y-116065000D03*
X194095698Y-86065000D03*
X209095698Y-66065000D03*
X194095698Y-61065000D03*
X194095698Y-101065000D03*
X224095698Y-101065000D03*
X179095698Y-81065000D03*
X214095698Y-106065000D03*
X209095698Y-86065000D03*
X179095698Y-96065000D03*
X189095698Y-106065000D03*
X219095698Y-101065000D03*
%TO.N,Net-(R7--)*%
X196672300Y-94603800D03*
%TO.N,Net-(R12--)*%
X203008200Y-73871900D03*
%TO.N,Net-(R13-+)*%
X196540800Y-76026800D03*
%TO.N,Net-(R1-+)*%
X210820000Y-110847500D03*
%TO.N,Net-(D2-BA)*%
X207304500Y-112347200D03*
%TD*%
D32*
%TO.N,+9V*%
X221930000Y-73873000D02*
X221930000Y-69158549D01*
X183783380Y-70311000D02*
X182880000Y-71214380D01*
X185994000Y-71562000D02*
X182880000Y-74676000D01*
X190186200Y-83793800D02*
X190186200Y-84836000D01*
X205232000Y-107696000D02*
X198374000Y-107696000D01*
X190186200Y-82236200D02*
X190186200Y-83793800D01*
X221930000Y-69158549D02*
X220526151Y-67754700D01*
X182880000Y-74676000D02*
X182880000Y-74930000D01*
X195072000Y-67310000D02*
X195072000Y-65024000D01*
X183848000Y-70311000D02*
X183783380Y-70311000D01*
X184404000Y-63500000D02*
X184404000Y-69755000D01*
X207264000Y-111148500D02*
X207264000Y-109728000D01*
X190018200Y-85004000D02*
X188976000Y-85004000D01*
X221930000Y-73873000D02*
X224800000Y-71003000D01*
X207835300Y-67754700D02*
X207264000Y-68326000D01*
X192278000Y-62230000D02*
X186690000Y-62230000D01*
X186690000Y-62230000D02*
X185674000Y-62230000D01*
X190186200Y-84836000D02*
X190018200Y-85004000D01*
X198374000Y-107696000D02*
X194056000Y-103378000D01*
X192024000Y-69699500D02*
X190161500Y-71562000D01*
X195072000Y-65024000D02*
X192278000Y-62230000D01*
X189738000Y-103378000D02*
X188341698Y-101981698D01*
X207264000Y-109728000D02*
X205232000Y-107696000D01*
X205740000Y-112672500D02*
X207264000Y-111148500D01*
X185674000Y-62230000D02*
X184404000Y-63500000D01*
X182880000Y-71214380D02*
X182880000Y-74676000D01*
X188341698Y-101981698D02*
X188341698Y-89026302D01*
X182880000Y-74930000D02*
X190186200Y-82236200D01*
X184404000Y-69755000D02*
X183848000Y-70311000D01*
X198628000Y-70866000D02*
X195072000Y-67310000D01*
X194056000Y-103378000D02*
X189738000Y-103378000D01*
X195573800Y-83793800D02*
X199644000Y-87864000D01*
X221930000Y-81915000D02*
X221930000Y-73873000D01*
X207264000Y-68326000D02*
X207264000Y-68580000D01*
X204978000Y-70866000D02*
X198628000Y-70866000D01*
X190186200Y-87181800D02*
X190186200Y-83793800D01*
X190161500Y-71562000D02*
X185994000Y-71562000D01*
X188341698Y-89026302D02*
X190186200Y-87181800D01*
X190186200Y-83793800D02*
X195573800Y-83793800D01*
X220526151Y-67754700D02*
X207835300Y-67754700D01*
X207264000Y-68580000D02*
X204978000Y-70866000D01*
%TO.N,Net-(C3--)*%
X218322700Y-68462700D02*
X213477300Y-68462700D01*
X193548000Y-71524500D02*
X193548000Y-65532000D01*
X210820000Y-71120000D02*
X205725263Y-71120000D01*
X205725263Y-71120000D02*
X204963263Y-71882000D01*
X219710000Y-69850000D02*
X218322700Y-68462700D01*
X195072000Y-71524500D02*
X193548000Y-71524500D01*
X195429500Y-71882000D02*
X195072000Y-71524500D01*
X217180000Y-76083000D02*
X219710000Y-73553000D01*
X193548000Y-65532000D02*
X192746000Y-64730000D01*
X204963263Y-71882000D02*
X195429500Y-71882000D01*
X193548000Y-71524500D02*
X192024000Y-71524500D01*
X213106000Y-68834000D02*
X210820000Y-71120000D01*
X213477300Y-68462700D02*
X213106000Y-68834000D01*
X219710000Y-73553000D02*
X219710000Y-69850000D01*
X192746000Y-64730000D02*
X186690000Y-64730000D01*
%TO.N,GNDA*%
X188976000Y-82296000D02*
X188595000Y-81915000D01*
X188976000Y-83104000D02*
X188976000Y-82296000D01*
%TO.N,IN*%
X196342000Y-119380000D02*
X196342000Y-109922000D01*
X196342000Y-109922000D02*
X191516000Y-105096000D01*
%TO.N,Net-(C5--)*%
X195072000Y-92539500D02*
X193296900Y-94314600D01*
X193296900Y-94314600D02*
X193296900Y-98315100D01*
X197104000Y-89172000D02*
X195072000Y-91204000D01*
X193296900Y-98315100D02*
X191516000Y-100096000D01*
X195072000Y-91204000D02*
X195072000Y-92539500D01*
X197104000Y-87864000D02*
X197104000Y-89172000D01*
%TO.N,Net-(C6-+)*%
X207008100Y-94620400D02*
X207008100Y-103824100D01*
X207264000Y-94364500D02*
X207008100Y-94620400D01*
X207008100Y-103824100D02*
X208280000Y-105096000D01*
D33*
%TO.N,Net-(C6--)*%
X175340000Y-80184000D02*
X176784000Y-78740000D01*
X176784000Y-78740000D02*
X176784000Y-75692000D01*
X175340000Y-85080000D02*
X175340000Y-80184000D01*
X176784000Y-75692000D02*
X177800000Y-74676000D01*
D32*
%TO.N,Net-(D1-A)*%
X204216000Y-70104000D02*
X204724000Y-69596000D01*
X204724000Y-69596000D02*
X204724000Y-65532000D01*
X204724000Y-65532000D02*
X207264000Y-62992000D01*
X201660000Y-69580000D02*
X202184000Y-70104000D01*
X207264000Y-62992000D02*
X207264000Y-60706000D01*
X201660000Y-66985000D02*
X201660000Y-69580000D01*
X202184000Y-70104000D02*
X204216000Y-70104000D01*
%TO.N,Net-(D3-K)*%
X218480100Y-87078100D02*
X218480100Y-84495100D01*
X210312000Y-75568500D02*
X213360000Y-75568500D01*
X219964000Y-90170000D02*
X219964000Y-88562000D01*
X219964000Y-88562000D02*
X218480100Y-87078100D01*
X218480100Y-84495100D02*
X213360000Y-79375000D01*
X213360000Y-79375000D02*
X213360000Y-75568500D01*
%TO.N,VREF*%
X203229700Y-72757200D02*
X196058300Y-72757200D01*
X196596000Y-92340500D02*
X196596000Y-92840500D01*
X218310000Y-92456000D02*
X221361000Y-92456000D01*
X203454000Y-77975300D02*
X203454000Y-84748600D01*
X224212000Y-83312000D02*
X225980000Y-85080000D01*
X196058300Y-72757200D02*
X195072000Y-73743500D01*
X203036200Y-77557500D02*
X203454000Y-77975300D01*
X217180000Y-73543000D02*
X215783000Y-73543000D01*
X199306400Y-90012900D02*
X198923600Y-90012900D01*
X204216000Y-73743500D02*
X203229700Y-72757200D01*
X211125600Y-72136000D02*
X205823500Y-72136000D01*
X200914000Y-87288600D02*
X200914000Y-88405300D01*
X196058300Y-72757200D02*
X186957800Y-72757200D01*
X196596000Y-92840500D02*
X195072000Y-94364500D01*
X200152000Y-105156000D02*
X200152000Y-102616000D01*
D33*
X203962037Y-106992000D02*
X200152000Y-103181963D01*
X208595000Y-109535000D02*
X206052000Y-106992000D01*
D32*
X204216000Y-73743500D02*
X203036200Y-74923300D01*
X178340000Y-110068000D02*
X181590000Y-106818000D01*
X216024000Y-90170000D02*
X218310000Y-92456000D01*
X211633600Y-71628000D02*
X211125600Y-72136000D01*
X218694000Y-83312000D02*
X224212000Y-83312000D01*
X203454000Y-84748600D02*
X200914000Y-87288600D01*
X214630000Y-79248000D02*
X218694000Y-83312000D01*
X225980000Y-86847766D02*
X225980000Y-85080000D01*
D33*
X215585000Y-109535000D02*
X208595000Y-109535000D01*
D32*
X215783000Y-73543000D02*
X214630000Y-72390000D01*
X205823500Y-72136000D02*
X204216000Y-73743500D01*
X198923600Y-90012900D02*
X196596000Y-92340500D01*
X221361000Y-92456000D02*
X222504000Y-91313000D01*
X214630000Y-71003000D02*
X214005000Y-71628000D01*
X200914000Y-88405300D02*
X199306400Y-90012900D01*
X222504000Y-91313000D02*
X222504000Y-90323766D01*
D33*
X206052000Y-106992000D02*
X203962037Y-106992000D01*
D32*
X214005000Y-71628000D02*
X211633600Y-71628000D01*
X186957800Y-72757200D02*
X185420000Y-74295000D01*
X181590000Y-106818000D02*
X181590000Y-89068000D01*
X214630000Y-72390000D02*
X214630000Y-71003000D01*
X214630000Y-72390000D02*
X214630000Y-79248000D01*
X185420000Y-74295000D02*
X185420000Y-74676000D01*
D33*
X216535000Y-108585000D02*
X215585000Y-109535000D01*
D32*
X203036200Y-74923300D02*
X203036200Y-77557500D01*
X217180000Y-71003000D02*
X214630000Y-71003000D01*
D33*
X200152000Y-103181963D02*
X200152000Y-102616000D01*
D32*
X222504000Y-90323766D02*
X225980000Y-86847766D01*
%TO.N,Net-(R7--)*%
X198120000Y-92597200D02*
X199400700Y-92597200D01*
X199400700Y-92597200D02*
X201168000Y-94364500D01*
X196672300Y-94044900D02*
X198120000Y-92597200D01*
X196672300Y-94603800D02*
X196672300Y-94044900D01*
X198120000Y-92597200D02*
X198120000Y-92539500D01*
%TO.N,LED*%
X201422000Y-119380000D02*
X201422000Y-116586000D01*
X199390000Y-114554000D02*
X199390000Y-113030000D01*
X201422000Y-116586000D02*
X199390000Y-114554000D01*
%TO.N,Net-(R6-+)*%
X192024000Y-91712000D02*
X194564000Y-89172000D01*
X192024000Y-92539500D02*
X192024000Y-91712000D01*
X194564000Y-87864000D02*
X194564000Y-89172000D01*
%TO.N,Net-(R6--)*%
X192024000Y-94364500D02*
X190238000Y-96150500D01*
X190982600Y-101365900D02*
X192079500Y-101365900D01*
X198120000Y-95325400D02*
X198120000Y-94364500D01*
X190238000Y-100621300D02*
X190982600Y-101365900D01*
X190855500Y-93196000D02*
X190855500Y-90340500D01*
X190238000Y-96150500D02*
X190238000Y-100621300D01*
X190855500Y-90340500D02*
X192024000Y-89172000D01*
X192024000Y-94364500D02*
X190855500Y-93196000D01*
X192024000Y-87864000D02*
X192024000Y-89172000D01*
X192079500Y-101365900D02*
X198120000Y-95325400D01*
%TO.N,Net-(R8--)*%
X202184000Y-91523500D02*
X202184000Y-87864000D01*
X201168000Y-92539500D02*
X202184000Y-91523500D01*
%TO.N,Net-(P1-c)*%
X202692000Y-96266000D02*
X202692000Y-94063500D01*
X200152000Y-100076000D02*
X202692000Y-97536000D01*
X204216000Y-89680000D02*
X204724000Y-89172000D01*
X204216000Y-92539500D02*
X204216000Y-89680000D01*
X208915000Y-108585000D02*
X210820000Y-108585000D01*
X202692000Y-94063500D02*
X204216000Y-92539500D01*
X204724000Y-87864000D02*
X204724000Y-89172000D01*
X202692000Y-97536000D02*
X202692000Y-96266000D01*
X200152000Y-100076000D02*
X200406000Y-100076000D01*
X200406000Y-100076000D02*
X208915000Y-108585000D01*
%TO.N,Net-(R10-+)*%
X205439000Y-94364500D02*
X207264000Y-92539500D01*
X204216000Y-94364500D02*
X205439000Y-94364500D01*
X208487000Y-92539500D02*
X207264000Y-92539500D01*
X207264000Y-92539500D02*
X207264000Y-89172000D01*
X207264000Y-87864000D02*
X207264000Y-89172000D01*
X210312000Y-94364500D02*
X208487000Y-92539500D01*
D33*
%TO.N,Net-(R10--)*%
X210312000Y-90748000D02*
X210312000Y-92539500D01*
X215980000Y-85080000D02*
X210312000Y-90748000D01*
D32*
%TO.N,Net-(R12--)*%
X202879800Y-73743500D02*
X203008200Y-73871900D01*
X201422000Y-73743500D02*
X202879800Y-73743500D01*
%TO.N,Net-(R12-+)*%
X201422000Y-78174000D02*
X202184000Y-78936000D01*
X201422000Y-75568500D02*
X201422000Y-78174000D01*
X202184000Y-80244000D02*
X202184000Y-78936000D01*
%TO.N,Net-(R13--)*%
X199280000Y-74903500D02*
X199280000Y-76760000D01*
X191480000Y-81498000D02*
X189230000Y-79248000D01*
X207264000Y-75568500D02*
X207264000Y-80244000D01*
X197104000Y-80244000D02*
X195850000Y-81498000D01*
X189230000Y-79248000D02*
X189230000Y-75946000D01*
X197104000Y-80244000D02*
X197104000Y-78936000D01*
X195850000Y-81498000D02*
X191480000Y-81498000D01*
X199280000Y-76760000D02*
X197104000Y-78936000D01*
X189230000Y-75946000D02*
X187960000Y-74676000D01*
X198120000Y-73743500D02*
X199280000Y-74903500D01*
%TO.N,Net-(R13-+)*%
X196540800Y-76026800D02*
X197661700Y-76026800D01*
X197661700Y-76026800D02*
X198120000Y-75568500D01*
%TO.N,Net-(R14--)*%
X210312000Y-73743500D02*
X207264000Y-73743500D01*
X206549000Y-73743500D02*
X204724000Y-75568500D01*
X204724000Y-75568500D02*
X204216000Y-75568500D01*
X207264000Y-73743500D02*
X206549000Y-73743500D01*
X204724000Y-75568500D02*
X204724000Y-80244000D01*
%TO.N,OUT*%
X202656300Y-120685700D02*
X192762700Y-120685700D01*
X192762700Y-120685700D02*
X184404000Y-112327000D01*
X184404000Y-89144000D02*
X180340000Y-85080000D01*
X203962000Y-119380000D02*
X202656300Y-120685700D01*
X184404000Y-112327000D02*
X184404000Y-89144000D01*
%TO.N,J-OUT*%
X227736200Y-106248900D02*
X214605100Y-119380000D01*
X227736200Y-70891200D02*
X227736200Y-106248900D01*
X214605100Y-119380000D02*
X206502000Y-119380000D01*
X225790000Y-66985000D02*
X225790000Y-68945000D01*
X225790000Y-68945000D02*
X227736200Y-70891200D01*
%TO.N,J-IN*%
X183134000Y-86360000D02*
X187325000Y-90551000D01*
D33*
X181737000Y-83312000D02*
X181610000Y-83185000D01*
D32*
X183134000Y-84709000D02*
X183134000Y-86360000D01*
D33*
X173345698Y-86604698D02*
X173345698Y-73144302D01*
X177927000Y-84328000D02*
X177927000Y-86233000D01*
X179070000Y-83185000D02*
X177927000Y-84328000D01*
X176784000Y-87376000D02*
X174117000Y-87376000D01*
X173345698Y-73144302D02*
X177530000Y-68960000D01*
X177927000Y-86233000D02*
X176784000Y-87376000D01*
D32*
X193802000Y-118022000D02*
X193802000Y-119380000D01*
X181737000Y-83312000D02*
X183134000Y-84709000D01*
D33*
X181610000Y-83185000D02*
X179070000Y-83185000D01*
X177530000Y-68960000D02*
X177530000Y-66710000D01*
X174117000Y-87376000D02*
X173345698Y-86604698D01*
D32*
X187325000Y-111545000D02*
X193802000Y-118022000D01*
X187325000Y-90551000D02*
X187325000Y-111545000D01*
%TO.N,Net-(R1-+)*%
X192024000Y-75568500D02*
X192024000Y-80244000D01*
X210820000Y-110847500D02*
X208788000Y-110847500D01*
%TO.N,Net-(D2-RA)*%
X204620500Y-109728000D02*
X205740000Y-110847500D01*
X198120000Y-113030000D02*
X198120000Y-110744000D01*
X198120000Y-110744000D02*
X199136000Y-109728000D01*
X199136000Y-109728000D02*
X204620500Y-109728000D01*
%TO.N,Net-(D2-BA)*%
X208462700Y-112347200D02*
X208788000Y-112672500D01*
X207304500Y-112347200D02*
X208462700Y-112347200D01*
%TO.N,Net-(R18--)*%
X194564000Y-75568500D02*
X193849000Y-75568500D01*
X195072000Y-75568500D02*
X194564000Y-75568500D01*
X194564000Y-75568500D02*
X194564000Y-78936000D01*
X193849000Y-75568500D02*
X192024000Y-73743500D01*
X194564000Y-80244000D02*
X194564000Y-78936000D01*
%TD*%
%TA.AperFunction,Conductor*%
%TO.N,GNDA*%
G36*
X178831313Y-59074685D02*
G01*
X178877068Y-59127489D01*
X178887012Y-59196647D01*
X178885892Y-59203190D01*
X178879500Y-59235326D01*
X178879500Y-62684678D01*
X178894032Y-62757735D01*
X178894033Y-62757739D01*
X178894034Y-62757740D01*
X178949399Y-62840601D01*
X179031863Y-62895701D01*
X179032260Y-62895966D01*
X179032264Y-62895967D01*
X179105321Y-62910499D01*
X179105324Y-62910500D01*
X179105326Y-62910500D01*
X180654676Y-62910500D01*
X180654677Y-62910499D01*
X180727740Y-62895966D01*
X180810601Y-62840601D01*
X180865966Y-62757740D01*
X180880500Y-62684674D01*
X180880500Y-59235326D01*
X180874108Y-59203190D01*
X180880337Y-59133599D01*
X180923200Y-59078422D01*
X180989090Y-59055178D01*
X180995726Y-59055000D01*
X196430107Y-59055000D01*
X196497146Y-59074685D01*
X196542901Y-59127489D01*
X196552845Y-59196647D01*
X196523820Y-59260203D01*
X196472939Y-59292901D01*
X196473544Y-59294360D01*
X196465458Y-59297709D01*
X196465042Y-59297977D01*
X196464476Y-59298115D01*
X196462260Y-59299033D01*
X196379399Y-59354399D01*
X196324033Y-59437260D01*
X196324032Y-59437264D01*
X196309500Y-59510321D01*
X196309500Y-62959678D01*
X196324032Y-63032735D01*
X196324033Y-63032739D01*
X196324034Y-63032740D01*
X196379399Y-63115601D01*
X196462257Y-63170964D01*
X196462260Y-63170966D01*
X196462264Y-63170967D01*
X196535321Y-63185499D01*
X196535324Y-63185500D01*
X196535326Y-63185500D01*
X198084676Y-63185500D01*
X198084677Y-63185499D01*
X198157740Y-63170966D01*
X198240601Y-63115601D01*
X198295966Y-63032740D01*
X198310500Y-62959674D01*
X198310500Y-59510326D01*
X198310500Y-59510323D01*
X198310499Y-59510321D01*
X198295967Y-59437264D01*
X198295966Y-59437260D01*
X198240601Y-59354399D01*
X198157740Y-59299034D01*
X198157739Y-59299033D01*
X198146456Y-59294360D01*
X198147753Y-59291228D01*
X198103791Y-59268233D01*
X198069217Y-59207517D01*
X198072956Y-59137748D01*
X198113822Y-59081076D01*
X198178840Y-59055494D01*
X198189893Y-59055000D01*
X203130107Y-59055000D01*
X203197146Y-59074685D01*
X203242901Y-59127489D01*
X203252845Y-59196647D01*
X203223820Y-59260203D01*
X203172939Y-59292901D01*
X203173544Y-59294360D01*
X203165458Y-59297709D01*
X203165042Y-59297977D01*
X203164476Y-59298115D01*
X203162260Y-59299033D01*
X203079399Y-59354399D01*
X203024033Y-59437260D01*
X203024032Y-59437264D01*
X203009500Y-59510321D01*
X203009500Y-62959678D01*
X203024032Y-63032735D01*
X203024033Y-63032739D01*
X203024034Y-63032740D01*
X203079399Y-63115601D01*
X203162257Y-63170964D01*
X203162260Y-63170966D01*
X203162264Y-63170967D01*
X203235321Y-63185499D01*
X203235324Y-63185500D01*
X203235326Y-63185500D01*
X204784676Y-63185500D01*
X204784677Y-63185499D01*
X204857740Y-63170966D01*
X204940601Y-63115601D01*
X204995966Y-63032740D01*
X205010500Y-62959674D01*
X205010500Y-59510326D01*
X205010500Y-59510323D01*
X205010499Y-59510321D01*
X204995967Y-59437264D01*
X204995966Y-59437260D01*
X204940601Y-59354399D01*
X204857740Y-59299034D01*
X204857739Y-59299033D01*
X204846456Y-59294360D01*
X204847753Y-59291228D01*
X204803791Y-59268233D01*
X204769217Y-59207517D01*
X204772956Y-59137748D01*
X204813822Y-59081076D01*
X204878840Y-59055494D01*
X204889893Y-59055000D01*
X220560107Y-59055000D01*
X220627146Y-59074685D01*
X220672901Y-59127489D01*
X220682845Y-59196647D01*
X220653820Y-59260203D01*
X220602939Y-59292901D01*
X220603544Y-59294360D01*
X220595458Y-59297709D01*
X220595042Y-59297977D01*
X220594476Y-59298115D01*
X220592260Y-59299033D01*
X220509399Y-59354399D01*
X220454033Y-59437260D01*
X220454032Y-59437264D01*
X220439500Y-59510321D01*
X220439500Y-62959678D01*
X220454032Y-63032735D01*
X220454033Y-63032739D01*
X220454034Y-63032740D01*
X220509399Y-63115601D01*
X220592257Y-63170964D01*
X220592260Y-63170966D01*
X220592264Y-63170967D01*
X220665321Y-63185499D01*
X220665324Y-63185500D01*
X220665326Y-63185500D01*
X222214676Y-63185500D01*
X222214677Y-63185499D01*
X222287740Y-63170966D01*
X222370601Y-63115601D01*
X222425966Y-63032740D01*
X222440500Y-62959674D01*
X222440500Y-59510326D01*
X222440500Y-59510323D01*
X222440499Y-59510321D01*
X222425967Y-59437264D01*
X222425966Y-59437260D01*
X222370601Y-59354399D01*
X222287740Y-59299034D01*
X222287739Y-59299033D01*
X222276456Y-59294360D01*
X222277753Y-59291228D01*
X222233791Y-59268233D01*
X222199217Y-59207517D01*
X222202956Y-59137748D01*
X222243822Y-59081076D01*
X222308840Y-59055494D01*
X222319893Y-59055000D01*
X227260107Y-59055000D01*
X227327146Y-59074685D01*
X227372901Y-59127489D01*
X227382845Y-59196647D01*
X227353820Y-59260203D01*
X227302939Y-59292901D01*
X227303544Y-59294360D01*
X227295458Y-59297709D01*
X227295042Y-59297977D01*
X227294476Y-59298115D01*
X227292260Y-59299033D01*
X227209399Y-59354399D01*
X227154033Y-59437260D01*
X227154032Y-59437264D01*
X227139500Y-59510321D01*
X227139500Y-62959678D01*
X227154032Y-63032735D01*
X227154033Y-63032739D01*
X227154034Y-63032740D01*
X227209399Y-63115601D01*
X227292257Y-63170964D01*
X227292260Y-63170966D01*
X227292264Y-63170967D01*
X227365321Y-63185499D01*
X227365324Y-63185500D01*
X227365326Y-63185500D01*
X228914676Y-63185500D01*
X228914677Y-63185499D01*
X228987740Y-63170966D01*
X229042110Y-63134638D01*
X229108787Y-63113760D01*
X229176167Y-63132245D01*
X229222857Y-63184224D01*
X229235000Y-63237740D01*
X229235000Y-121161000D01*
X229215315Y-121228039D01*
X229162511Y-121273794D01*
X229111000Y-121285000D01*
X203069833Y-121285000D01*
X203002794Y-121265315D01*
X202957039Y-121212511D01*
X202947095Y-121143353D01*
X202976120Y-121079797D01*
X202982152Y-121073319D01*
X202995161Y-121060309D01*
X203573409Y-120482060D01*
X203634730Y-120448577D01*
X203699402Y-120451810D01*
X203704299Y-120453402D01*
X203875389Y-120480500D01*
X203875390Y-120480500D01*
X204048610Y-120480500D01*
X204048611Y-120480500D01*
X204219701Y-120453402D01*
X204384445Y-120399873D01*
X204538788Y-120321232D01*
X204678928Y-120219414D01*
X204801414Y-120096928D01*
X204903232Y-119956788D01*
X204981873Y-119802445D01*
X205035402Y-119637701D01*
X205062500Y-119466611D01*
X205062500Y-119293389D01*
X205035402Y-119122299D01*
X204981873Y-118957555D01*
X204903232Y-118803212D01*
X204801414Y-118663072D01*
X204678928Y-118540586D01*
X204538788Y-118438768D01*
X204384445Y-118360127D01*
X204219701Y-118306598D01*
X204219699Y-118306597D01*
X204219698Y-118306597D01*
X204088271Y-118285781D01*
X204048611Y-118279500D01*
X203875389Y-118279500D01*
X203835728Y-118285781D01*
X203704302Y-118306597D01*
X203539552Y-118360128D01*
X203385211Y-118438768D01*
X203305256Y-118496859D01*
X203245072Y-118540586D01*
X203245070Y-118540588D01*
X203245069Y-118540588D01*
X203122588Y-118663069D01*
X203122588Y-118663070D01*
X203122586Y-118663072D01*
X203078859Y-118723256D01*
X203020768Y-118803211D01*
X202942128Y-118957552D01*
X202888597Y-119122302D01*
X202861500Y-119293389D01*
X202861500Y-119466610D01*
X202888598Y-119637704D01*
X202888599Y-119637707D01*
X202890189Y-119642602D01*
X202892179Y-119712443D01*
X202859936Y-119768591D01*
X202596337Y-120032191D01*
X202535014Y-120065676D01*
X202465323Y-120060692D01*
X202409389Y-120018821D01*
X202384972Y-119953356D01*
X202398171Y-119888215D01*
X202402357Y-119880000D01*
X202441873Y-119802445D01*
X202495402Y-119637701D01*
X202522500Y-119466611D01*
X202522500Y-119293389D01*
X202495402Y-119122299D01*
X202441873Y-118957555D01*
X202363232Y-118803212D01*
X202261414Y-118663072D01*
X202138928Y-118540586D01*
X201998788Y-118438768D01*
X201998668Y-118438706D01*
X201994195Y-118436427D01*
X201943404Y-118388448D01*
X201926500Y-118325947D01*
X201926500Y-116519583D01*
X201926500Y-116519581D01*
X201892119Y-116391270D01*
X201867808Y-116349162D01*
X201825701Y-116276230D01*
X199930819Y-114381348D01*
X199916115Y-114354420D01*
X199899523Y-114328602D01*
X199898631Y-114322401D01*
X199897334Y-114320025D01*
X199894500Y-114293667D01*
X199894500Y-114052727D01*
X199914185Y-113985688D01*
X199930812Y-113965053D01*
X199937313Y-113958551D01*
X199959461Y-113946455D01*
X199966989Y-113939933D01*
X199972982Y-113939071D01*
X199998632Y-113925063D01*
X200068324Y-113930042D01*
X200112680Y-113958546D01*
X200159269Y-114005135D01*
X200159273Y-114005138D01*
X200287919Y-114091097D01*
X200287925Y-114091100D01*
X200287926Y-114091101D01*
X200430878Y-114150314D01*
X200556307Y-114175263D01*
X200582630Y-114180499D01*
X200582634Y-114180500D01*
X200582635Y-114180500D01*
X200737366Y-114180500D01*
X200737367Y-114180499D01*
X200889122Y-114150314D01*
X201032074Y-114091101D01*
X201160727Y-114005138D01*
X201180177Y-113985688D01*
X201207319Y-113958547D01*
X201268642Y-113925062D01*
X201338334Y-113930046D01*
X201382681Y-113958547D01*
X201429269Y-114005135D01*
X201429273Y-114005138D01*
X201557919Y-114091097D01*
X201557925Y-114091100D01*
X201557926Y-114091101D01*
X201700878Y-114150314D01*
X201826307Y-114175263D01*
X201852630Y-114180499D01*
X201852634Y-114180500D01*
X201852635Y-114180500D01*
X202007366Y-114180500D01*
X202007367Y-114180499D01*
X202159122Y-114150314D01*
X202302074Y-114091101D01*
X202430727Y-114005138D01*
X202540138Y-113895727D01*
X202626101Y-113767074D01*
X202685314Y-113624122D01*
X202715500Y-113472365D01*
X202715500Y-112587635D01*
X202685314Y-112435878D01*
X202626101Y-112292926D01*
X202626100Y-112292925D01*
X202626097Y-112292919D01*
X202540138Y-112164273D01*
X202540135Y-112164269D01*
X202430730Y-112054864D01*
X202430726Y-112054861D01*
X202302080Y-111968902D01*
X202302071Y-111968897D01*
X202159122Y-111909686D01*
X202159114Y-111909684D01*
X202007369Y-111879500D01*
X202007365Y-111879500D01*
X201852635Y-111879500D01*
X201852630Y-111879500D01*
X201700885Y-111909684D01*
X201700877Y-111909686D01*
X201557928Y-111968897D01*
X201557919Y-111968902D01*
X201429273Y-112054861D01*
X201429269Y-112054864D01*
X201382681Y-112101453D01*
X201321358Y-112134938D01*
X201251666Y-112129954D01*
X201207319Y-112101453D01*
X201160730Y-112054864D01*
X201160726Y-112054861D01*
X201032080Y-111968902D01*
X201032071Y-111968897D01*
X200889122Y-111909686D01*
X200889114Y-111909684D01*
X200737369Y-111879500D01*
X200737365Y-111879500D01*
X200582635Y-111879500D01*
X200582630Y-111879500D01*
X200430885Y-111909684D01*
X200430877Y-111909686D01*
X200287928Y-111968897D01*
X200287919Y-111968902D01*
X200159273Y-112054861D01*
X200159269Y-112054864D01*
X200112681Y-112101453D01*
X200051358Y-112134938D01*
X199981666Y-112129954D01*
X199937319Y-112101453D01*
X199890730Y-112054864D01*
X199890726Y-112054861D01*
X199762080Y-111968902D01*
X199762071Y-111968897D01*
X199619122Y-111909686D01*
X199619114Y-111909684D01*
X199467369Y-111879500D01*
X199467365Y-111879500D01*
X199312635Y-111879500D01*
X199312630Y-111879500D01*
X199160885Y-111909684D01*
X199160877Y-111909686D01*
X199017925Y-111968898D01*
X199003984Y-111978214D01*
X198937306Y-111999090D01*
X198872830Y-111982343D01*
X198847966Y-111967905D01*
X198835601Y-111949399D01*
X198752740Y-111894034D01*
X198704077Y-111884354D01*
X198686234Y-111873993D01*
X198675812Y-111863008D01*
X198662396Y-111855990D01*
X198652252Y-111838176D01*
X198638144Y-111823306D01*
X198635315Y-111808431D01*
X198627823Y-111795274D01*
X198624500Y-111766760D01*
X198624500Y-111004333D01*
X198644185Y-110937294D01*
X198660819Y-110916652D01*
X199308652Y-110268819D01*
X199369975Y-110235334D01*
X199396333Y-110232500D01*
X204360167Y-110232500D01*
X204427206Y-110252185D01*
X204447848Y-110268819D01*
X204753181Y-110574152D01*
X204786666Y-110635475D01*
X204789500Y-110661833D01*
X204789500Y-111157870D01*
X204789501Y-111157876D01*
X204795908Y-111217483D01*
X204846202Y-111352328D01*
X204846206Y-111352335D01*
X204932452Y-111467544D01*
X204932455Y-111467547D01*
X205047664Y-111553793D01*
X205047671Y-111553797D01*
X205182517Y-111604091D01*
X205182516Y-111604091D01*
X205189444Y-111604835D01*
X205242127Y-111610500D01*
X205789167Y-111610499D01*
X205810413Y-111616737D01*
X205832498Y-111618317D01*
X205843279Y-111626387D01*
X205856205Y-111630183D01*
X205870707Y-111646919D01*
X205888432Y-111660188D01*
X205893138Y-111672806D01*
X205901960Y-111682987D01*
X205905111Y-111704905D01*
X205912850Y-111725652D01*
X205909987Y-111738813D01*
X205911904Y-111752146D01*
X205902705Y-111772287D01*
X205897999Y-111793925D01*
X205884728Y-111811651D01*
X205882879Y-111815702D01*
X205876848Y-111822179D01*
X205825848Y-111873180D01*
X205764525Y-111906666D01*
X205738166Y-111909500D01*
X205242129Y-111909500D01*
X205242123Y-111909501D01*
X205182516Y-111915908D01*
X205047671Y-111966202D01*
X205047664Y-111966206D01*
X204932455Y-112052452D01*
X204932452Y-112052455D01*
X204846206Y-112167664D01*
X204846202Y-112167671D01*
X204799486Y-112292926D01*
X204795909Y-112302517D01*
X204789500Y-112362127D01*
X204789500Y-112362134D01*
X204789500Y-112362135D01*
X204789500Y-112982870D01*
X204789501Y-112982876D01*
X204795908Y-113042483D01*
X204846202Y-113177328D01*
X204846206Y-113177335D01*
X204932452Y-113292544D01*
X204932455Y-113292547D01*
X205047664Y-113378793D01*
X205047671Y-113378797D01*
X205182517Y-113429091D01*
X205182516Y-113429091D01*
X205189444Y-113429835D01*
X205242127Y-113435500D01*
X206237872Y-113435499D01*
X206297483Y-113429091D01*
X206432331Y-113378796D01*
X206547546Y-113292546D01*
X206633796Y-113177331D01*
X206684091Y-113042483D01*
X206690500Y-112982873D01*
X206690499Y-112811083D01*
X206710183Y-112744046D01*
X206762987Y-112698291D01*
X206832145Y-112688347D01*
X206895701Y-112717372D01*
X206902180Y-112723404D01*
X206966485Y-112787709D01*
X206966486Y-112787710D01*
X206966488Y-112787711D01*
X207092011Y-112860182D01*
X207092012Y-112860182D01*
X207092015Y-112860184D01*
X207232025Y-112897700D01*
X207232028Y-112897700D01*
X207376972Y-112897700D01*
X207376975Y-112897700D01*
X207516985Y-112860184D01*
X207516986Y-112860182D01*
X207524835Y-112858080D01*
X207524871Y-112858217D01*
X207527197Y-112856723D01*
X207562132Y-112851700D01*
X207713501Y-112851700D01*
X207780540Y-112871385D01*
X207826295Y-112924189D01*
X207837501Y-112975700D01*
X207837501Y-112982876D01*
X207843908Y-113042483D01*
X207894202Y-113177328D01*
X207894206Y-113177335D01*
X207980452Y-113292544D01*
X207980455Y-113292547D01*
X208095664Y-113378793D01*
X208095671Y-113378797D01*
X208230517Y-113429091D01*
X208230516Y-113429091D01*
X208237444Y-113429835D01*
X208290127Y-113435500D01*
X209285872Y-113435499D01*
X209345483Y-113429091D01*
X209480331Y-113378796D01*
X209595546Y-113292546D01*
X209681796Y-113177331D01*
X209732091Y-113042483D01*
X209738500Y-112982873D01*
X209738499Y-112362128D01*
X209732091Y-112302517D01*
X209728511Y-112292919D01*
X209681797Y-112167671D01*
X209681793Y-112167664D01*
X209595547Y-112052455D01*
X209595544Y-112052452D01*
X209480335Y-111966206D01*
X209480328Y-111966202D01*
X209345482Y-111915908D01*
X209345483Y-111915908D01*
X209285883Y-111909501D01*
X209285881Y-111909500D01*
X209285873Y-111909500D01*
X209285865Y-111909500D01*
X208746807Y-111909500D01*
X208704997Y-111902239D01*
X208694481Y-111898472D01*
X208686793Y-111894034D01*
X208657430Y-111877081D01*
X208567391Y-111852955D01*
X208562597Y-111851238D01*
X208538306Y-111833545D01*
X208512653Y-111817908D01*
X208510361Y-111813190D01*
X208506120Y-111810101D01*
X208495249Y-111782081D01*
X208482124Y-111755061D01*
X208482746Y-111749853D01*
X208480849Y-111744962D01*
X208486851Y-111715518D01*
X208490419Y-111685686D01*
X208493759Y-111681640D01*
X208494807Y-111676501D01*
X208515774Y-111654977D01*
X208534905Y-111631808D01*
X208539901Y-111630210D01*
X208543562Y-111626453D01*
X208572836Y-111619682D01*
X208601457Y-111610534D01*
X208604349Y-111610499D01*
X209285872Y-111610499D01*
X209345483Y-111604091D01*
X209480331Y-111553796D01*
X209595546Y-111467546D01*
X209644847Y-111401688D01*
X209700780Y-111359818D01*
X209744113Y-111352000D01*
X210562368Y-111352000D01*
X210599400Y-111359365D01*
X210599665Y-111358380D01*
X210607513Y-111360482D01*
X210607515Y-111360484D01*
X210747525Y-111398000D01*
X210747528Y-111398000D01*
X210892472Y-111398000D01*
X210892475Y-111398000D01*
X211032485Y-111360484D01*
X211158015Y-111288009D01*
X211260509Y-111185515D01*
X211332984Y-111059985D01*
X211370500Y-110919975D01*
X211370500Y-110775025D01*
X211332984Y-110635015D01*
X211318813Y-110610471D01*
X211260511Y-110509488D01*
X211260506Y-110509482D01*
X211158017Y-110406993D01*
X211158011Y-110406988D01*
X211032488Y-110334517D01*
X211032489Y-110334517D01*
X211021006Y-110331440D01*
X210892475Y-110297000D01*
X210747525Y-110297000D01*
X210607515Y-110334516D01*
X210607513Y-110334517D01*
X210599665Y-110336620D01*
X210599400Y-110335634D01*
X210562368Y-110343000D01*
X209744113Y-110343000D01*
X209677074Y-110323315D01*
X209644847Y-110293311D01*
X209600305Y-110233811D01*
X209575887Y-110168347D01*
X209590738Y-110100074D01*
X209640143Y-110050668D01*
X209699571Y-110035500D01*
X215650890Y-110035500D01*
X215650892Y-110035500D01*
X215778186Y-110001392D01*
X215892314Y-109935500D01*
X216455995Y-109371819D01*
X216517318Y-109338334D01*
X216543676Y-109335500D01*
X216608920Y-109335500D01*
X216706462Y-109316096D01*
X216753913Y-109306658D01*
X216890495Y-109250084D01*
X217013416Y-109167951D01*
X217117951Y-109063416D01*
X217200084Y-108940495D01*
X217256658Y-108803913D01*
X217285500Y-108658918D01*
X217285500Y-108511082D01*
X217285500Y-108511079D01*
X217256659Y-108366092D01*
X217256658Y-108366091D01*
X217256658Y-108366087D01*
X217203114Y-108236819D01*
X217200087Y-108229511D01*
X217200080Y-108229498D01*
X217117951Y-108106584D01*
X217117948Y-108106580D01*
X217013419Y-108002051D01*
X217013415Y-108002048D01*
X216890501Y-107919919D01*
X216890488Y-107919912D01*
X216753917Y-107863343D01*
X216753907Y-107863340D01*
X216608920Y-107834500D01*
X216608918Y-107834500D01*
X216461082Y-107834500D01*
X216461080Y-107834500D01*
X216316092Y-107863340D01*
X216316082Y-107863343D01*
X216179511Y-107919912D01*
X216179498Y-107919919D01*
X216056584Y-108002048D01*
X216056580Y-108002051D01*
X215952051Y-108106580D01*
X215952048Y-108106584D01*
X215869919Y-108229498D01*
X215869912Y-108229511D01*
X215813343Y-108366082D01*
X215813340Y-108366092D01*
X215784500Y-108511079D01*
X215784500Y-108576324D01*
X215764815Y-108643363D01*
X215748181Y-108664005D01*
X215414005Y-108998181D01*
X215352682Y-109031666D01*
X215326324Y-109034500D01*
X211631725Y-109034500D01*
X211564686Y-109014815D01*
X211518931Y-108962011D01*
X211508987Y-108892853D01*
X211517164Y-108863048D01*
X211541656Y-108803917D01*
X211541658Y-108803913D01*
X211570500Y-108658918D01*
X211570500Y-108511082D01*
X211570500Y-108511079D01*
X211541659Y-108366092D01*
X211541658Y-108366091D01*
X211541658Y-108366087D01*
X211488114Y-108236819D01*
X211485087Y-108229511D01*
X211485080Y-108229498D01*
X211402951Y-108106584D01*
X211402948Y-108106580D01*
X211298419Y-108002051D01*
X211298415Y-108002048D01*
X211175501Y-107919919D01*
X211175488Y-107919912D01*
X211038917Y-107863343D01*
X211038907Y-107863340D01*
X210893920Y-107834500D01*
X210893918Y-107834500D01*
X210746082Y-107834500D01*
X210746080Y-107834500D01*
X210601092Y-107863340D01*
X210601082Y-107863343D01*
X210464511Y-107919912D01*
X210464498Y-107919919D01*
X210341584Y-108002048D01*
X210341580Y-108002051D01*
X210299453Y-108044180D01*
X210238130Y-108077666D01*
X210211771Y-108080500D01*
X209175333Y-108080500D01*
X209108294Y-108060815D01*
X209087652Y-108044181D01*
X201158819Y-100115348D01*
X201147394Y-100094425D01*
X201132297Y-100075975D01*
X201129329Y-100061341D01*
X201125334Y-100054025D01*
X201123313Y-100041844D01*
X201122500Y-100034779D01*
X201122500Y-99980414D01*
X201107654Y-99905785D01*
X201107075Y-99900746D01*
X201112192Y-99871114D01*
X201114872Y-99841170D01*
X201118255Y-99836006D01*
X201118966Y-99831895D01*
X201125916Y-99824316D01*
X201142579Y-99798890D01*
X203095700Y-97845770D01*
X203162119Y-97730730D01*
X203174717Y-97683713D01*
X203196500Y-97602419D01*
X203196500Y-96199581D01*
X203196500Y-95071954D01*
X203216185Y-95004915D01*
X203268989Y-94959160D01*
X203338147Y-94949216D01*
X203401703Y-94978241D01*
X203408181Y-94984273D01*
X203408455Y-94984547D01*
X203523664Y-95070793D01*
X203523671Y-95070797D01*
X203658517Y-95121091D01*
X203658516Y-95121091D01*
X203665444Y-95121835D01*
X203718127Y-95127500D01*
X204713872Y-95127499D01*
X204773483Y-95121091D01*
X204908331Y-95070796D01*
X205023546Y-94984546D01*
X205072847Y-94918688D01*
X205128780Y-94876818D01*
X205172113Y-94869000D01*
X205505416Y-94869000D01*
X205505419Y-94869000D01*
X205633730Y-94834619D01*
X205675837Y-94810308D01*
X205748770Y-94768201D01*
X206101822Y-94415148D01*
X206163142Y-94381665D01*
X206232833Y-94386649D01*
X206288767Y-94428520D01*
X206313184Y-94493985D01*
X206313500Y-94502830D01*
X206313500Y-94674869D01*
X206313501Y-94674876D01*
X206319908Y-94734483D01*
X206370202Y-94869328D01*
X206370203Y-94869329D01*
X206370204Y-94869331D01*
X206456454Y-94984546D01*
X206456457Y-94984548D01*
X206462722Y-94990813D01*
X206461179Y-94992355D01*
X206495778Y-95038565D01*
X206503600Y-95081908D01*
X206503600Y-103890519D01*
X206537981Y-104018830D01*
X206553379Y-104045500D01*
X206577745Y-104087703D01*
X206604398Y-104133868D01*
X206604400Y-104133871D01*
X207221383Y-104750854D01*
X207254868Y-104812177D01*
X207255320Y-104862725D01*
X207229500Y-104992536D01*
X207229500Y-105199469D01*
X207269868Y-105402412D01*
X207269870Y-105402420D01*
X207349058Y-105593596D01*
X207464024Y-105765657D01*
X207610342Y-105911975D01*
X207610345Y-105911977D01*
X207782402Y-106026941D01*
X207973580Y-106106130D01*
X208176530Y-106146499D01*
X208176534Y-106146500D01*
X208176535Y-106146500D01*
X208383466Y-106146500D01*
X208383467Y-106146499D01*
X208586420Y-106106130D01*
X208777598Y-106026941D01*
X208949655Y-105911977D01*
X209095977Y-105765655D01*
X209210941Y-105593598D01*
X209290130Y-105402420D01*
X209330500Y-105199465D01*
X209330500Y-104992535D01*
X209290130Y-104789580D01*
X209210941Y-104598402D01*
X209095977Y-104426345D01*
X209095975Y-104426342D01*
X208949657Y-104280024D01*
X208863626Y-104222541D01*
X208777598Y-104165059D01*
X208586420Y-104085870D01*
X208586412Y-104085868D01*
X208383469Y-104045500D01*
X208383465Y-104045500D01*
X208176535Y-104045500D01*
X208112676Y-104058201D01*
X208046725Y-104071320D01*
X207977134Y-104065091D01*
X207934854Y-104037383D01*
X207548919Y-103651448D01*
X207515434Y-103590125D01*
X207512600Y-103563767D01*
X207512600Y-101078653D01*
X207532285Y-101011614D01*
X207585089Y-100965859D01*
X207654247Y-100955915D01*
X207705490Y-100975551D01*
X207782400Y-101026940D01*
X207782401Y-101026940D01*
X207782402Y-101026941D01*
X207973580Y-101106130D01*
X208176530Y-101146499D01*
X208176534Y-101146500D01*
X208176535Y-101146500D01*
X208383466Y-101146500D01*
X208383467Y-101146499D01*
X208586420Y-101106130D01*
X208777598Y-101026941D01*
X208949655Y-100911977D01*
X209095977Y-100765655D01*
X209210941Y-100593598D01*
X209290130Y-100402420D01*
X209330500Y-100199465D01*
X209330500Y-99992535D01*
X209290130Y-99789580D01*
X209210941Y-99598402D01*
X209095977Y-99426345D01*
X209095975Y-99426342D01*
X208949657Y-99280024D01*
X208786395Y-99170937D01*
X208777598Y-99165059D01*
X208718305Y-99140499D01*
X208586420Y-99085870D01*
X208586412Y-99085868D01*
X208383469Y-99045500D01*
X208383465Y-99045500D01*
X208176535Y-99045500D01*
X208176530Y-99045500D01*
X207973587Y-99085868D01*
X207973579Y-99085870D01*
X207782403Y-99165058D01*
X207705490Y-99216449D01*
X207638812Y-99237326D01*
X207571432Y-99218841D01*
X207524742Y-99166861D01*
X207512600Y-99113346D01*
X207512600Y-96665321D01*
X214673500Y-96665321D01*
X214673500Y-98914678D01*
X214688032Y-98987735D01*
X214688033Y-98987739D01*
X214688034Y-98987740D01*
X214743399Y-99070601D01*
X214807373Y-99113346D01*
X214826260Y-99125966D01*
X214826264Y-99125967D01*
X214899321Y-99140499D01*
X214899324Y-99140500D01*
X214899326Y-99140500D01*
X217148676Y-99140500D01*
X217148677Y-99140499D01*
X217221740Y-99125966D01*
X217304601Y-99070601D01*
X217359966Y-98987740D01*
X217374500Y-98914674D01*
X217374500Y-97683713D01*
X218613500Y-97683713D01*
X218613500Y-97896287D01*
X218646754Y-98106243D01*
X218658517Y-98142447D01*
X218712444Y-98308414D01*
X218808951Y-98497820D01*
X218933890Y-98669786D01*
X219084213Y-98820109D01*
X219256179Y-98945048D01*
X219256181Y-98945049D01*
X219256184Y-98945051D01*
X219445588Y-99041557D01*
X219647757Y-99107246D01*
X219857713Y-99140500D01*
X219857714Y-99140500D01*
X220070286Y-99140500D01*
X220070287Y-99140500D01*
X220280243Y-99107246D01*
X220482412Y-99041557D01*
X220671816Y-98945051D01*
X220713627Y-98914674D01*
X220843786Y-98820109D01*
X220843788Y-98820106D01*
X220843792Y-98820104D01*
X220994104Y-98669792D01*
X220994106Y-98669788D01*
X220994109Y-98669786D01*
X221119048Y-98497820D01*
X221119047Y-98497820D01*
X221119051Y-98497816D01*
X221215557Y-98308412D01*
X221281246Y-98106243D01*
X221314500Y-97896287D01*
X221314500Y-97683713D01*
X221281246Y-97473757D01*
X221215557Y-97271588D01*
X221119051Y-97082184D01*
X221119049Y-97082181D01*
X221119048Y-97082179D01*
X220994109Y-96910213D01*
X220843786Y-96759890D01*
X220671820Y-96634951D01*
X220482414Y-96538444D01*
X220482413Y-96538443D01*
X220482412Y-96538443D01*
X220280243Y-96472754D01*
X220280241Y-96472753D01*
X220280240Y-96472753D01*
X220118957Y-96447208D01*
X220070287Y-96439500D01*
X219857713Y-96439500D01*
X219809042Y-96447208D01*
X219647760Y-96472753D01*
X219445585Y-96538444D01*
X219256179Y-96634951D01*
X219084213Y-96759890D01*
X218933890Y-96910213D01*
X218808951Y-97082179D01*
X218712444Y-97271585D01*
X218646753Y-97473760D01*
X218626376Y-97602416D01*
X218613500Y-97683713D01*
X217374500Y-97683713D01*
X217374500Y-96665326D01*
X217374500Y-96665323D01*
X217374499Y-96665321D01*
X217359967Y-96592264D01*
X217359966Y-96592260D01*
X217304601Y-96509399D01*
X217221740Y-96454034D01*
X217221739Y-96454033D01*
X217221735Y-96454032D01*
X217148677Y-96439500D01*
X217148674Y-96439500D01*
X214899326Y-96439500D01*
X214899323Y-96439500D01*
X214826264Y-96454032D01*
X214826260Y-96454033D01*
X214743399Y-96509399D01*
X214688033Y-96592260D01*
X214688032Y-96592264D01*
X214673500Y-96665321D01*
X207512600Y-96665321D01*
X207512600Y-95251499D01*
X207532285Y-95184460D01*
X207585089Y-95138705D01*
X207636600Y-95127499D01*
X207761871Y-95127499D01*
X207761872Y-95127499D01*
X207821483Y-95121091D01*
X207956331Y-95070796D01*
X208071546Y-94984546D01*
X208157796Y-94869331D01*
X208208091Y-94734483D01*
X208214500Y-94674873D01*
X208214499Y-94054128D01*
X208208091Y-93994517D01*
X208161566Y-93869778D01*
X208157797Y-93859671D01*
X208157793Y-93859664D01*
X208071547Y-93744455D01*
X208071544Y-93744452D01*
X207956335Y-93658206D01*
X207956328Y-93658202D01*
X207821482Y-93607908D01*
X207821483Y-93607908D01*
X207761883Y-93601501D01*
X207761881Y-93601500D01*
X207761873Y-93601500D01*
X207761865Y-93601500D01*
X207214832Y-93601500D01*
X207193586Y-93595261D01*
X207171498Y-93593682D01*
X207160714Y-93585609D01*
X207147793Y-93581815D01*
X207133293Y-93565081D01*
X207115565Y-93551810D01*
X207110857Y-93539189D01*
X207102038Y-93529011D01*
X207098886Y-93507093D01*
X207091148Y-93486346D01*
X207094010Y-93473185D01*
X207092094Y-93459853D01*
X207101293Y-93439709D01*
X207106000Y-93418073D01*
X207119268Y-93400347D01*
X207121119Y-93396297D01*
X207127151Y-93389819D01*
X207178152Y-93338818D01*
X207239475Y-93305333D01*
X207265833Y-93302499D01*
X207761871Y-93302499D01*
X207761872Y-93302499D01*
X207821483Y-93296091D01*
X207956331Y-93245796D01*
X208071546Y-93159546D01*
X208120847Y-93093688D01*
X208124502Y-93090951D01*
X208126400Y-93086797D01*
X208152214Y-93070206D01*
X208176780Y-93051818D01*
X208182409Y-93050802D01*
X208185178Y-93049023D01*
X208220113Y-93044000D01*
X208226667Y-93044000D01*
X208293706Y-93063685D01*
X208314348Y-93080319D01*
X209325181Y-94091152D01*
X209358666Y-94152475D01*
X209361500Y-94178833D01*
X209361500Y-94674870D01*
X209361501Y-94674876D01*
X209367908Y-94734483D01*
X209418202Y-94869328D01*
X209418206Y-94869335D01*
X209504452Y-94984544D01*
X209504455Y-94984547D01*
X209619664Y-95070793D01*
X209619671Y-95070797D01*
X209754517Y-95121091D01*
X209754516Y-95121091D01*
X209761444Y-95121835D01*
X209814127Y-95127500D01*
X210809872Y-95127499D01*
X210869483Y-95121091D01*
X211004331Y-95070796D01*
X211119546Y-94984546D01*
X211205796Y-94869331D01*
X211256091Y-94734483D01*
X211262500Y-94674873D01*
X211262499Y-94054128D01*
X211256091Y-93994517D01*
X211209566Y-93869778D01*
X211205797Y-93859671D01*
X211205793Y-93859664D01*
X211119547Y-93744455D01*
X211119544Y-93744452D01*
X211004335Y-93658206D01*
X211004328Y-93658202D01*
X210869482Y-93607908D01*
X210869483Y-93607908D01*
X210809883Y-93601501D01*
X210809881Y-93601500D01*
X210809873Y-93601500D01*
X210809865Y-93601500D01*
X210313833Y-93601500D01*
X210284392Y-93592855D01*
X210254406Y-93586332D01*
X210249390Y-93582577D01*
X210246794Y-93581815D01*
X210226152Y-93565181D01*
X210175151Y-93514180D01*
X210141666Y-93452857D01*
X210146650Y-93383165D01*
X210188522Y-93327232D01*
X210253986Y-93302815D01*
X210262832Y-93302499D01*
X210809871Y-93302499D01*
X210809872Y-93302499D01*
X210869483Y-93296091D01*
X211004331Y-93245796D01*
X211119546Y-93159546D01*
X211205796Y-93044331D01*
X211256091Y-92909483D01*
X211262500Y-92849873D01*
X211262499Y-92229128D01*
X211256091Y-92169517D01*
X211243515Y-92135800D01*
X211205797Y-92034671D01*
X211205793Y-92034664D01*
X211119547Y-91919455D01*
X211119544Y-91919452D01*
X211004335Y-91833206D01*
X211004329Y-91833203D01*
X210893166Y-91791741D01*
X210837233Y-91749869D01*
X210812816Y-91684405D01*
X210812500Y-91675559D01*
X210812500Y-91006675D01*
X210832185Y-90939636D01*
X210848814Y-90918999D01*
X215269930Y-86497882D01*
X215331251Y-86464399D01*
X215399308Y-86469266D01*
X215399375Y-86469062D01*
X215400199Y-86469329D01*
X215400943Y-86469383D01*
X215403693Y-86470465D01*
X215404004Y-86470566D01*
X215404008Y-86470568D01*
X215553660Y-86519193D01*
X215628631Y-86543553D01*
X215861903Y-86580500D01*
X215861908Y-86580500D01*
X216098097Y-86580500D01*
X216331368Y-86543553D01*
X216341330Y-86540316D01*
X216555992Y-86470568D01*
X216766433Y-86363343D01*
X216957510Y-86224517D01*
X217124517Y-86057510D01*
X217263343Y-85866433D01*
X217370568Y-85655992D01*
X217443553Y-85431368D01*
X217462524Y-85311591D01*
X217480500Y-85198097D01*
X217480500Y-84961902D01*
X217443553Y-84728631D01*
X217401719Y-84599881D01*
X217370568Y-84504008D01*
X217370566Y-84504005D01*
X217370566Y-84504003D01*
X217315767Y-84396455D01*
X217305299Y-84375911D01*
X217292404Y-84307244D01*
X217318680Y-84242503D01*
X217375786Y-84202246D01*
X217445592Y-84199254D01*
X217503466Y-84231937D01*
X217939281Y-84667752D01*
X217972766Y-84729075D01*
X217975600Y-84755433D01*
X217975600Y-87144519D01*
X218009981Y-87272830D01*
X218018471Y-87287535D01*
X218064005Y-87366402D01*
X218076398Y-87387868D01*
X218076400Y-87387871D01*
X219296348Y-88607819D01*
X219329833Y-88669142D01*
X219324849Y-88738834D01*
X219282977Y-88794767D01*
X219217513Y-88819184D01*
X219208667Y-88819500D01*
X218839323Y-88819500D01*
X218766264Y-88834032D01*
X218766260Y-88834033D01*
X218683399Y-88889399D01*
X218628033Y-88972260D01*
X218628032Y-88972264D01*
X218613500Y-89045321D01*
X218613500Y-91294678D01*
X218628032Y-91367735D01*
X218628033Y-91367739D01*
X218646405Y-91395235D01*
X218683399Y-91450601D01*
X218758112Y-91500522D01*
X218766260Y-91505966D01*
X218766264Y-91505967D01*
X218839321Y-91520499D01*
X218839324Y-91520500D01*
X218839326Y-91520500D01*
X221088676Y-91520500D01*
X221088677Y-91520499D01*
X221161740Y-91505966D01*
X221244601Y-91450601D01*
X221299966Y-91367740D01*
X221314500Y-91294674D01*
X221314500Y-89045326D01*
X221314500Y-89045323D01*
X221314499Y-89045321D01*
X221299967Y-88972264D01*
X221299966Y-88972260D01*
X221284605Y-88949270D01*
X221244601Y-88889399D01*
X221177555Y-88844601D01*
X221161739Y-88834033D01*
X221161735Y-88834032D01*
X221088677Y-88819500D01*
X221088674Y-88819500D01*
X220592500Y-88819500D01*
X220525461Y-88799815D01*
X220479706Y-88747011D01*
X220468500Y-88695500D01*
X220468500Y-88495583D01*
X220468500Y-88495581D01*
X220434657Y-88369276D01*
X220434120Y-88367271D01*
X220367701Y-88252230D01*
X219020919Y-86905448D01*
X218987434Y-86844125D01*
X218984600Y-86817767D01*
X218984600Y-84428683D01*
X218984600Y-84428681D01*
X218950219Y-84300370D01*
X218909302Y-84229500D01*
X218883801Y-84185330D01*
X218726652Y-84028181D01*
X218693167Y-83966858D01*
X218698151Y-83897166D01*
X218740023Y-83841233D01*
X218805487Y-83816816D01*
X218814333Y-83816500D01*
X219822111Y-83816500D01*
X219889150Y-83836185D01*
X219934905Y-83888989D01*
X219944849Y-83958147D01*
X219915824Y-84021703D01*
X219909792Y-84028181D01*
X219835485Y-84102487D01*
X219835485Y-84102488D01*
X219835483Y-84102490D01*
X219830970Y-84108702D01*
X219696657Y-84293566D01*
X219589433Y-84504003D01*
X219516446Y-84728631D01*
X219479500Y-84961902D01*
X219479500Y-85198097D01*
X219516446Y-85431368D01*
X219589433Y-85655996D01*
X219639624Y-85754500D01*
X219696657Y-85866433D01*
X219835483Y-86057510D01*
X220002490Y-86224517D01*
X220193567Y-86363343D01*
X220292991Y-86414002D01*
X220404003Y-86470566D01*
X220404005Y-86470566D01*
X220404008Y-86470568D01*
X220488078Y-86497884D01*
X220628631Y-86543553D01*
X220861903Y-86580500D01*
X220861908Y-86580500D01*
X221098097Y-86580500D01*
X221331368Y-86543553D01*
X221341330Y-86540316D01*
X221555992Y-86470568D01*
X221766433Y-86363343D01*
X221957510Y-86224517D01*
X222124517Y-86057510D01*
X222263343Y-85866433D01*
X222370568Y-85655992D01*
X222443553Y-85431368D01*
X222462524Y-85311591D01*
X222480500Y-85198097D01*
X222480500Y-84961902D01*
X222443553Y-84728631D01*
X222401719Y-84599881D01*
X222370568Y-84504008D01*
X222370566Y-84504005D01*
X222370566Y-84504003D01*
X222298312Y-84362197D01*
X222263343Y-84293567D01*
X222124517Y-84102490D01*
X222050208Y-84028181D01*
X222016723Y-83966858D01*
X222021707Y-83897166D01*
X222063579Y-83841233D01*
X222129043Y-83816816D01*
X222137889Y-83816500D01*
X223951667Y-83816500D01*
X224018706Y-83836185D01*
X224039348Y-83852819D01*
X224560495Y-84373966D01*
X224593980Y-84435289D01*
X224590745Y-84499965D01*
X224516447Y-84728627D01*
X224516447Y-84728630D01*
X224479500Y-84961902D01*
X224479500Y-85198097D01*
X224516446Y-85431368D01*
X224589433Y-85655996D01*
X224639624Y-85754500D01*
X224696657Y-85866433D01*
X224835483Y-86057510D01*
X225002490Y-86224517D01*
X225193567Y-86363343D01*
X225404008Y-86470568D01*
X225404011Y-86470569D01*
X225407795Y-86472497D01*
X225418859Y-86482946D01*
X225432703Y-86489269D01*
X225443743Y-86506448D01*
X225458591Y-86520471D01*
X225462832Y-86536152D01*
X225470477Y-86548047D01*
X225475500Y-86582982D01*
X225475500Y-86587433D01*
X225455815Y-86654472D01*
X225439181Y-86675114D01*
X222100300Y-90013994D01*
X222100298Y-90013997D01*
X222060056Y-90083700D01*
X222060055Y-90083701D01*
X222033882Y-90129033D01*
X222033881Y-90129034D01*
X222022073Y-90173103D01*
X221999500Y-90257347D01*
X221999500Y-90257349D01*
X221999500Y-91052667D01*
X221979815Y-91119706D01*
X221963181Y-91140348D01*
X221188348Y-91915181D01*
X221127025Y-91948666D01*
X221100667Y-91951500D01*
X218570333Y-91951500D01*
X218503294Y-91931815D01*
X218482652Y-91915181D01*
X217324463Y-90756992D01*
X217290978Y-90695669D01*
X217294212Y-90630995D01*
X217341246Y-90486243D01*
X217374500Y-90276287D01*
X217374500Y-90063713D01*
X217341246Y-89853757D01*
X217275557Y-89651588D01*
X217179051Y-89462184D01*
X217179049Y-89462181D01*
X217179048Y-89462179D01*
X217054109Y-89290213D01*
X216903786Y-89139890D01*
X216731820Y-89014951D01*
X216542414Y-88918444D01*
X216542413Y-88918443D01*
X216542412Y-88918443D01*
X216340243Y-88852754D01*
X216340241Y-88852753D01*
X216340240Y-88852753D01*
X216178957Y-88827208D01*
X216130287Y-88819500D01*
X215917713Y-88819500D01*
X215869042Y-88827208D01*
X215707760Y-88852753D01*
X215505585Y-88918444D01*
X215316179Y-89014951D01*
X215144213Y-89139890D01*
X214993890Y-89290213D01*
X214868951Y-89462179D01*
X214772444Y-89651585D01*
X214706753Y-89853760D01*
X214673500Y-90063713D01*
X214673500Y-90276286D01*
X214706490Y-90484581D01*
X214706754Y-90486243D01*
X214753786Y-90630993D01*
X214772444Y-90688414D01*
X214868951Y-90877820D01*
X214993890Y-91049786D01*
X215144213Y-91200109D01*
X215316179Y-91325048D01*
X215316181Y-91325049D01*
X215316184Y-91325051D01*
X215505588Y-91421557D01*
X215707757Y-91487246D01*
X215917713Y-91520500D01*
X215917714Y-91520500D01*
X216130286Y-91520500D01*
X216130287Y-91520500D01*
X216340243Y-91487246D01*
X216484995Y-91440212D01*
X216554834Y-91438218D01*
X216610992Y-91470463D01*
X218000230Y-92859701D01*
X218115270Y-92926119D01*
X218243581Y-92960500D01*
X218243584Y-92960500D01*
X221427416Y-92960500D01*
X221427419Y-92960500D01*
X221555730Y-92926119D01*
X221597837Y-92901808D01*
X221670770Y-92859701D01*
X222907701Y-91622770D01*
X222974119Y-91507730D01*
X222980904Y-91482405D01*
X222987690Y-91457082D01*
X222987690Y-91457081D01*
X222998988Y-91414916D01*
X223008500Y-91379419D01*
X223008500Y-90584098D01*
X223028185Y-90517059D01*
X223044819Y-90496417D01*
X224709669Y-88831567D01*
X226383700Y-87157536D01*
X226450119Y-87042496D01*
X226467178Y-86978830D01*
X226484500Y-86914185D01*
X226484500Y-86582982D01*
X226504185Y-86515943D01*
X226552205Y-86472497D01*
X226555988Y-86470569D01*
X226555992Y-86470568D01*
X226766433Y-86363343D01*
X226957510Y-86224517D01*
X227020019Y-86162008D01*
X227081342Y-86128523D01*
X227151034Y-86133507D01*
X227206967Y-86175379D01*
X227231384Y-86240843D01*
X227231700Y-86249689D01*
X227231700Y-105988567D01*
X227212015Y-106055606D01*
X227195381Y-106076248D01*
X214432448Y-118839181D01*
X214371125Y-118872666D01*
X214344767Y-118875500D01*
X207556051Y-118875500D01*
X207489012Y-118855815D01*
X207445565Y-118807791D01*
X207443232Y-118803212D01*
X207443230Y-118803209D01*
X207443229Y-118803207D01*
X207413672Y-118762526D01*
X207341414Y-118663072D01*
X207218928Y-118540586D01*
X207078788Y-118438768D01*
X206924445Y-118360127D01*
X206759701Y-118306598D01*
X206759699Y-118306597D01*
X206759698Y-118306597D01*
X206628271Y-118285781D01*
X206588611Y-118279500D01*
X206415389Y-118279500D01*
X206375728Y-118285781D01*
X206244302Y-118306597D01*
X206079552Y-118360128D01*
X205925211Y-118438768D01*
X205845256Y-118496859D01*
X205785072Y-118540586D01*
X205785070Y-118540588D01*
X205785069Y-118540588D01*
X205662588Y-118663069D01*
X205662588Y-118663070D01*
X205662586Y-118663072D01*
X205618859Y-118723256D01*
X205560768Y-118803211D01*
X205482128Y-118957552D01*
X205428597Y-119122302D01*
X205401500Y-119293389D01*
X205401500Y-119466610D01*
X205424474Y-119611667D01*
X205428598Y-119637701D01*
X205482127Y-119802445D01*
X205560768Y-119956788D01*
X205662586Y-120096928D01*
X205785072Y-120219414D01*
X205925212Y-120321232D01*
X206079555Y-120399873D01*
X206244299Y-120453402D01*
X206415389Y-120480500D01*
X206415390Y-120480500D01*
X206588610Y-120480500D01*
X206588611Y-120480500D01*
X206759701Y-120453402D01*
X206924445Y-120399873D01*
X207078788Y-120321232D01*
X207218928Y-120219414D01*
X207341414Y-120096928D01*
X207443232Y-119956788D01*
X207445565Y-119952208D01*
X207493536Y-119901412D01*
X207556051Y-119884500D01*
X214671516Y-119884500D01*
X214671519Y-119884500D01*
X214799830Y-119850119D01*
X214841937Y-119825808D01*
X214914870Y-119783701D01*
X228139901Y-106558670D01*
X228182008Y-106485737D01*
X228206319Y-106443630D01*
X228240700Y-106315319D01*
X228240700Y-70824781D01*
X228206319Y-70696470D01*
X228139900Y-70581430D01*
X228045970Y-70487500D01*
X227324388Y-69765918D01*
X226543948Y-68985477D01*
X226510463Y-68924154D01*
X226515447Y-68854462D01*
X226523419Y-68838887D01*
X226525963Y-68832744D01*
X226525966Y-68832740D01*
X226540500Y-68759674D01*
X226540500Y-65210326D01*
X226540500Y-65210323D01*
X226540499Y-65210321D01*
X226525967Y-65137264D01*
X226525966Y-65137260D01*
X226470601Y-65054399D01*
X226387740Y-64999034D01*
X226387739Y-64999033D01*
X226387735Y-64999032D01*
X226314677Y-64984500D01*
X226314674Y-64984500D01*
X225265326Y-64984500D01*
X225265323Y-64984500D01*
X225192264Y-64999032D01*
X225192260Y-64999033D01*
X225109399Y-65054399D01*
X225054033Y-65137260D01*
X225054032Y-65137264D01*
X225039500Y-65210321D01*
X225039500Y-68759678D01*
X225054032Y-68832735D01*
X225054033Y-68832739D01*
X225054034Y-68832740D01*
X225109399Y-68915601D01*
X225175848Y-68960000D01*
X225192260Y-68970966D01*
X225192264Y-68970967D01*
X225203673Y-68973237D01*
X225215331Y-68979335D01*
X225228398Y-68980910D01*
X225245695Y-68995218D01*
X225265584Y-69005622D01*
X225273313Y-69018063D01*
X225282236Y-69025445D01*
X225294223Y-69051725D01*
X225297628Y-69057205D01*
X225298510Y-69059973D01*
X225319881Y-69139730D01*
X225322214Y-69143770D01*
X225328906Y-69155362D01*
X225328908Y-69155366D01*
X225386294Y-69254763D01*
X225386300Y-69254771D01*
X227195381Y-71063851D01*
X227228866Y-71125174D01*
X227231700Y-71151532D01*
X227231700Y-83910311D01*
X227212015Y-83977350D01*
X227159211Y-84023105D01*
X227090053Y-84033049D01*
X227026497Y-84004024D01*
X227020019Y-83997992D01*
X226957512Y-83935485D01*
X226957510Y-83935483D01*
X226766433Y-83796657D01*
X226737901Y-83782119D01*
X226555996Y-83689433D01*
X226331368Y-83616446D01*
X226098097Y-83579500D01*
X226098092Y-83579500D01*
X225861908Y-83579500D01*
X225861903Y-83579500D01*
X225628630Y-83616447D01*
X225628627Y-83616447D01*
X225399965Y-83690745D01*
X225330124Y-83692740D01*
X225273966Y-83660495D01*
X224521772Y-82908301D01*
X224521770Y-82908299D01*
X224488388Y-82889026D01*
X224448838Y-82866191D01*
X224448837Y-82866191D01*
X224406730Y-82841881D01*
X224406731Y-82841881D01*
X224374652Y-82833285D01*
X224278419Y-82807500D01*
X224278416Y-82807500D01*
X222737056Y-82807500D01*
X222670017Y-82787815D01*
X222624262Y-82735011D01*
X222614318Y-82665853D01*
X222620874Y-82640167D01*
X222674091Y-82497482D01*
X222679715Y-82445171D01*
X222680500Y-82437873D01*
X222680499Y-81392128D01*
X222674091Y-81332517D01*
X222662938Y-81302615D01*
X222623797Y-81197671D01*
X222623793Y-81197664D01*
X222537548Y-81082457D01*
X222537546Y-81082454D01*
X222484188Y-81042509D01*
X222442318Y-80986577D01*
X222434500Y-80943244D01*
X222434500Y-78373000D01*
X223523391Y-78373000D01*
X224484314Y-78373000D01*
X224479920Y-78377394D01*
X224427259Y-78468606D01*
X224400000Y-78570339D01*
X224400000Y-78675661D01*
X224427259Y-78777394D01*
X224479920Y-78868606D01*
X224484314Y-78873000D01*
X223523391Y-78873000D01*
X223532009Y-78927413D01*
X223595244Y-79122029D01*
X223688140Y-79304349D01*
X223808417Y-79469894D01*
X223808417Y-79469895D01*
X223953104Y-79614582D01*
X224118650Y-79734859D01*
X224300968Y-79827754D01*
X224495578Y-79890988D01*
X224550000Y-79899607D01*
X224550000Y-78938686D01*
X224554394Y-78943080D01*
X224645606Y-78995741D01*
X224747339Y-79023000D01*
X224852661Y-79023000D01*
X224954394Y-78995741D01*
X225045606Y-78943080D01*
X225050000Y-78938686D01*
X225050000Y-79899606D01*
X225104421Y-79890988D01*
X225299031Y-79827754D01*
X225481349Y-79734859D01*
X225646894Y-79614582D01*
X225646895Y-79614582D01*
X225791582Y-79469895D01*
X225791582Y-79469894D01*
X225911859Y-79304349D01*
X226004755Y-79122029D01*
X226067990Y-78927413D01*
X226076609Y-78873000D01*
X225115686Y-78873000D01*
X225120080Y-78868606D01*
X225172741Y-78777394D01*
X225200000Y-78675661D01*
X225200000Y-78570339D01*
X225172741Y-78468606D01*
X225120080Y-78377394D01*
X225115686Y-78373000D01*
X226076609Y-78373000D01*
X226067990Y-78318586D01*
X226004755Y-78123970D01*
X225911859Y-77941650D01*
X225791582Y-77776105D01*
X225791582Y-77776104D01*
X225646895Y-77631417D01*
X225481349Y-77511140D01*
X225299031Y-77418244D01*
X225104417Y-77355009D01*
X225058411Y-77347723D01*
X224995276Y-77317794D01*
X224958345Y-77258482D01*
X224959343Y-77188619D01*
X224997953Y-77130387D01*
X225053616Y-77103633D01*
X225106420Y-77093130D01*
X225297598Y-77013941D01*
X225469655Y-76898977D01*
X225615977Y-76752655D01*
X225730941Y-76580598D01*
X225810130Y-76389420D01*
X225850500Y-76186465D01*
X225850500Y-75979535D01*
X225850499Y-75979532D01*
X225850499Y-75979530D01*
X225830477Y-75878872D01*
X225810130Y-75776580D01*
X225730941Y-75585402D01*
X225615977Y-75413345D01*
X225615975Y-75413342D01*
X225469657Y-75267024D01*
X225301130Y-75154419D01*
X225297598Y-75152059D01*
X225106420Y-75072870D01*
X225106412Y-75072868D01*
X224903469Y-75032500D01*
X224903465Y-75032500D01*
X224696535Y-75032500D01*
X224696530Y-75032500D01*
X224493587Y-75072868D01*
X224493579Y-75072870D01*
X224302403Y-75152058D01*
X224130342Y-75267024D01*
X223984024Y-75413342D01*
X223869058Y-75585403D01*
X223789870Y-75776579D01*
X223789868Y-75776587D01*
X223749500Y-75979530D01*
X223749500Y-76186469D01*
X223789868Y-76389412D01*
X223789870Y-76389420D01*
X223869058Y-76580596D01*
X223984024Y-76752657D01*
X224130342Y-76898975D01*
X224130345Y-76898977D01*
X224302402Y-77013941D01*
X224493580Y-77093130D01*
X224523696Y-77099120D01*
X224546381Y-77103633D01*
X224608292Y-77136017D01*
X224642866Y-77196733D01*
X224639127Y-77266502D01*
X224598261Y-77323175D01*
X224541589Y-77347723D01*
X224495581Y-77355010D01*
X224300968Y-77418244D01*
X224118650Y-77511140D01*
X223953105Y-77631417D01*
X223953104Y-77631417D01*
X223808417Y-77776104D01*
X223808417Y-77776105D01*
X223688140Y-77941650D01*
X223595244Y-78123970D01*
X223532009Y-78318586D01*
X223523391Y-78373000D01*
X222434500Y-78373000D01*
X222434500Y-74133332D01*
X222454185Y-74066293D01*
X222470814Y-74045656D01*
X223780238Y-72736231D01*
X223841559Y-72702748D01*
X223911251Y-72707732D01*
X223967184Y-72749604D01*
X223991601Y-72815068D01*
X223976749Y-72883341D01*
X223971020Y-72892804D01*
X223869058Y-73045403D01*
X223789870Y-73236579D01*
X223789868Y-73236587D01*
X223749500Y-73439530D01*
X223749500Y-73646469D01*
X223789868Y-73849412D01*
X223789870Y-73849420D01*
X223856762Y-74010912D01*
X223869059Y-74040598D01*
X223910493Y-74102609D01*
X223984024Y-74212657D01*
X224130342Y-74358975D01*
X224130345Y-74358977D01*
X224302402Y-74473941D01*
X224493580Y-74553130D01*
X224671670Y-74588554D01*
X224696530Y-74593499D01*
X224696534Y-74593500D01*
X224696535Y-74593500D01*
X224903466Y-74593500D01*
X224903467Y-74593499D01*
X225106420Y-74553130D01*
X225297598Y-74473941D01*
X225469655Y-74358977D01*
X225615977Y-74212655D01*
X225730941Y-74040598D01*
X225810130Y-73849420D01*
X225850500Y-73646465D01*
X225850500Y-73439535D01*
X225810130Y-73236580D01*
X225730941Y-73045402D01*
X225615977Y-72873345D01*
X225615975Y-72873342D01*
X225469657Y-72727024D01*
X225375982Y-72664433D01*
X225297598Y-72612059D01*
X225283255Y-72606118D01*
X225106420Y-72532870D01*
X225106412Y-72532868D01*
X224903469Y-72492500D01*
X224903465Y-72492500D01*
X224696535Y-72492500D01*
X224696530Y-72492500D01*
X224493587Y-72532868D01*
X224493579Y-72532870D01*
X224302403Y-72612058D01*
X224149804Y-72714020D01*
X224083126Y-72734897D01*
X224015746Y-72716412D01*
X223969057Y-72664433D01*
X223957881Y-72595462D01*
X223985767Y-72531399D01*
X223993219Y-72523250D01*
X224454856Y-72061613D01*
X224516177Y-72028130D01*
X224566724Y-72027679D01*
X224623468Y-72038966D01*
X224696532Y-72053500D01*
X224696535Y-72053500D01*
X224903466Y-72053500D01*
X224903467Y-72053499D01*
X225106420Y-72013130D01*
X225297598Y-71933941D01*
X225469655Y-71818977D01*
X225615977Y-71672655D01*
X225730941Y-71500598D01*
X225810130Y-71309420D01*
X225850500Y-71106465D01*
X225850500Y-70899535D01*
X225810130Y-70696580D01*
X225730941Y-70505402D01*
X225615977Y-70333345D01*
X225615975Y-70333342D01*
X225469657Y-70187024D01*
X225315430Y-70083974D01*
X225297598Y-70072059D01*
X225280003Y-70064771D01*
X225106420Y-69992870D01*
X225106412Y-69992868D01*
X224903469Y-69952500D01*
X224903465Y-69952500D01*
X224696535Y-69952500D01*
X224696530Y-69952500D01*
X224493587Y-69992868D01*
X224493579Y-69992870D01*
X224302403Y-70072058D01*
X224130342Y-70187024D01*
X223984024Y-70333342D01*
X223869058Y-70505403D01*
X223789870Y-70696579D01*
X223789868Y-70696587D01*
X223749500Y-70899530D01*
X223749500Y-71106466D01*
X223775319Y-71236272D01*
X223769092Y-71305864D01*
X223741383Y-71348144D01*
X222646181Y-72443347D01*
X222584858Y-72476832D01*
X222515166Y-72471848D01*
X222459233Y-72429976D01*
X222434816Y-72364512D01*
X222434500Y-72355666D01*
X222434500Y-69092132D01*
X222434500Y-69092130D01*
X222400119Y-68963819D01*
X222333700Y-68848779D01*
X222267765Y-68782844D01*
X222790000Y-68782844D01*
X222796401Y-68842372D01*
X222796403Y-68842379D01*
X222846645Y-68977086D01*
X222846649Y-68977093D01*
X222932809Y-69092187D01*
X222932812Y-69092190D01*
X223047906Y-69178350D01*
X223047913Y-69178354D01*
X223182620Y-69228596D01*
X223182627Y-69228598D01*
X223242155Y-69234999D01*
X223242172Y-69235000D01*
X223540000Y-69235000D01*
X224040000Y-69235000D01*
X224337828Y-69235000D01*
X224337844Y-69234999D01*
X224397372Y-69228598D01*
X224397379Y-69228596D01*
X224532086Y-69178354D01*
X224532093Y-69178350D01*
X224647187Y-69092190D01*
X224647190Y-69092187D01*
X224733350Y-68977093D01*
X224733354Y-68977086D01*
X224783596Y-68842379D01*
X224783598Y-68842372D01*
X224789999Y-68782844D01*
X224790000Y-68782827D01*
X224790000Y-67235000D01*
X224040000Y-67235000D01*
X224040000Y-69235000D01*
X223540000Y-69235000D01*
X223540000Y-67235000D01*
X222790000Y-67235000D01*
X222790000Y-68782844D01*
X222267765Y-68782844D01*
X222239770Y-68754849D01*
X220835921Y-67350999D01*
X220762988Y-67308891D01*
X220732043Y-67291025D01*
X220732042Y-67291024D01*
X220720885Y-67284583D01*
X220720882Y-67284581D01*
X220688803Y-67275985D01*
X220592570Y-67250200D01*
X220592567Y-67250200D01*
X208725986Y-67250200D01*
X208658947Y-67230515D01*
X208613192Y-67177711D01*
X208604369Y-67150392D01*
X208599967Y-67128263D01*
X208599966Y-67128260D01*
X208565064Y-67076025D01*
X208544601Y-67045399D01*
X208461740Y-66990034D01*
X208461739Y-66990033D01*
X208461735Y-66990032D01*
X208388677Y-66975500D01*
X208388674Y-66975500D01*
X206139326Y-66975500D01*
X206139323Y-66975500D01*
X206066264Y-66990032D01*
X206066260Y-66990033D01*
X205983399Y-67045399D01*
X205928033Y-67128260D01*
X205928032Y-67128264D01*
X205913500Y-67201321D01*
X205913500Y-69165667D01*
X205893815Y-69232706D01*
X205877181Y-69253348D01*
X205440181Y-69690348D01*
X205378858Y-69723833D01*
X205309166Y-69718849D01*
X205253233Y-69676977D01*
X205228816Y-69611513D01*
X205228500Y-69602667D01*
X205228500Y-65792332D01*
X205248185Y-65725293D01*
X205264819Y-65704651D01*
X207157917Y-63811553D01*
X207362459Y-63607011D01*
X207667700Y-63301770D01*
X207734119Y-63186730D01*
X207749925Y-63127740D01*
X207768500Y-63058419D01*
X207768500Y-62127682D01*
X212695000Y-62127682D01*
X212695000Y-62332317D01*
X212727009Y-62534417D01*
X212790244Y-62729031D01*
X212883141Y-62911350D01*
X212883147Y-62911359D01*
X212915523Y-62955921D01*
X212915524Y-62955922D01*
X213595000Y-62276446D01*
X213595000Y-62282661D01*
X213622259Y-62384394D01*
X213674920Y-62475606D01*
X213749394Y-62550080D01*
X213840606Y-62602741D01*
X213942339Y-62630000D01*
X213948553Y-62630000D01*
X213269076Y-63309474D01*
X213313650Y-63341859D01*
X213495968Y-63434755D01*
X213504629Y-63437569D01*
X213562304Y-63477007D01*
X213589502Y-63541366D01*
X213577587Y-63610212D01*
X213530342Y-63661688D01*
X213466310Y-63679500D01*
X213170323Y-63679500D01*
X213097264Y-63694032D01*
X213097260Y-63694033D01*
X213014399Y-63749399D01*
X212959033Y-63832260D01*
X212959032Y-63832264D01*
X212944500Y-63905321D01*
X212944500Y-65554678D01*
X212959032Y-65627735D01*
X212959033Y-65627739D01*
X212959034Y-65627740D01*
X213014399Y-65710601D01*
X213059852Y-65740971D01*
X213097260Y-65765966D01*
X213097264Y-65765967D01*
X213170321Y-65780499D01*
X213170324Y-65780500D01*
X213170326Y-65780500D01*
X214819676Y-65780500D01*
X214819677Y-65780499D01*
X214892740Y-65765966D01*
X214975601Y-65710601D01*
X215030966Y-65627740D01*
X215045500Y-65554674D01*
X215045500Y-65187155D01*
X222790000Y-65187155D01*
X222790000Y-66735000D01*
X223540000Y-66735000D01*
X224040000Y-66735000D01*
X224790000Y-66735000D01*
X224790000Y-65187172D01*
X224789999Y-65187155D01*
X224783598Y-65127627D01*
X224783596Y-65127620D01*
X224733354Y-64992913D01*
X224733350Y-64992906D01*
X224647190Y-64877812D01*
X224647187Y-64877809D01*
X224532093Y-64791649D01*
X224532086Y-64791645D01*
X224397379Y-64741403D01*
X224397372Y-64741401D01*
X224337844Y-64735000D01*
X224040000Y-64735000D01*
X224040000Y-66735000D01*
X223540000Y-66735000D01*
X223540000Y-64735000D01*
X223242155Y-64735000D01*
X223182627Y-64741401D01*
X223182620Y-64741403D01*
X223047913Y-64791645D01*
X223047906Y-64791649D01*
X222932812Y-64877809D01*
X222932809Y-64877812D01*
X222846649Y-64992906D01*
X222846645Y-64992913D01*
X222796403Y-65127620D01*
X222796401Y-65127627D01*
X222790000Y-65187155D01*
X215045500Y-65187155D01*
X215045500Y-63905326D01*
X215045500Y-63905323D01*
X215045499Y-63905321D01*
X215030967Y-63832264D01*
X215030966Y-63832260D01*
X215008782Y-63799059D01*
X214975601Y-63749399D01*
X214892740Y-63694034D01*
X214892739Y-63694033D01*
X214892735Y-63694032D01*
X214819677Y-63679500D01*
X214819674Y-63679500D01*
X214523690Y-63679500D01*
X214456651Y-63659815D01*
X214410896Y-63607011D01*
X214400952Y-63537853D01*
X214429977Y-63474297D01*
X214485371Y-63437569D01*
X214494031Y-63434755D01*
X214676349Y-63341859D01*
X214720921Y-63309474D01*
X214041447Y-62630000D01*
X214047661Y-62630000D01*
X214149394Y-62602741D01*
X214240606Y-62550080D01*
X214315080Y-62475606D01*
X214367741Y-62384394D01*
X214395000Y-62282661D01*
X214395000Y-62276447D01*
X215074474Y-62955921D01*
X215106859Y-62911349D01*
X215199755Y-62729031D01*
X215262990Y-62534417D01*
X215295000Y-62332317D01*
X215295000Y-62127682D01*
X215262990Y-61925582D01*
X215199755Y-61730968D01*
X215106859Y-61548650D01*
X215074474Y-61504077D01*
X215074474Y-61504076D01*
X214395000Y-62183551D01*
X214395000Y-62177339D01*
X214367741Y-62075606D01*
X214315080Y-61984394D01*
X214240606Y-61909920D01*
X214149394Y-61857259D01*
X214047661Y-61830000D01*
X214041446Y-61830000D01*
X214720922Y-61150524D01*
X214720921Y-61150523D01*
X214676359Y-61118147D01*
X214676350Y-61118141D01*
X214494031Y-61025244D01*
X214299417Y-60962009D01*
X214097317Y-60930000D01*
X213892683Y-60930000D01*
X213690582Y-60962009D01*
X213495968Y-61025244D01*
X213313644Y-61118143D01*
X213269077Y-61150523D01*
X213269077Y-61150524D01*
X213948554Y-61830000D01*
X213942339Y-61830000D01*
X213840606Y-61857259D01*
X213749394Y-61909920D01*
X213674920Y-61984394D01*
X213622259Y-62075606D01*
X213595000Y-62177339D01*
X213595000Y-62183553D01*
X212915524Y-61504077D01*
X212915523Y-61504077D01*
X212883143Y-61548644D01*
X212790244Y-61730968D01*
X212727009Y-61925582D01*
X212695000Y-62127682D01*
X207768500Y-62127682D01*
X207768500Y-62040632D01*
X207788185Y-61973593D01*
X207836204Y-61930148D01*
X207971816Y-61861051D01*
X208077604Y-61784192D01*
X208143786Y-61736109D01*
X208143788Y-61736106D01*
X208143792Y-61736104D01*
X208294104Y-61585792D01*
X208294106Y-61585788D01*
X208294109Y-61585786D01*
X208419048Y-61413820D01*
X208419047Y-61413820D01*
X208419051Y-61413816D01*
X208515557Y-61224412D01*
X208581246Y-61022243D01*
X208614500Y-60812287D01*
X208614500Y-60599713D01*
X208581246Y-60389757D01*
X208515557Y-60187588D01*
X208419051Y-59998184D01*
X208419049Y-59998181D01*
X208419048Y-59998179D01*
X208294109Y-59826213D01*
X208143786Y-59675890D01*
X207971820Y-59550951D01*
X207782414Y-59454444D01*
X207782413Y-59454443D01*
X207782412Y-59454443D01*
X207580243Y-59388754D01*
X207580241Y-59388753D01*
X207580240Y-59388753D01*
X207418957Y-59363208D01*
X207370287Y-59355500D01*
X207157713Y-59355500D01*
X207109042Y-59363208D01*
X206947760Y-59388753D01*
X206745585Y-59454444D01*
X206556179Y-59550951D01*
X206384213Y-59675890D01*
X206233890Y-59826213D01*
X206108951Y-59998179D01*
X206012444Y-60187585D01*
X205946753Y-60389760D01*
X205913500Y-60599713D01*
X205913500Y-60812287D01*
X205946754Y-61022243D01*
X206002572Y-61194033D01*
X206012444Y-61224414D01*
X206108951Y-61413820D01*
X206233890Y-61585786D01*
X206384213Y-61736109D01*
X206556182Y-61861050D01*
X206556184Y-61861051D01*
X206691795Y-61930148D01*
X206742590Y-61978121D01*
X206759500Y-62040632D01*
X206759500Y-62731667D01*
X206739815Y-62798706D01*
X206723181Y-62819348D01*
X204320301Y-65222227D01*
X204320295Y-65222236D01*
X204278190Y-65295160D01*
X204278191Y-65295161D01*
X204253882Y-65337265D01*
X204253881Y-65337270D01*
X204219500Y-65465581D01*
X204219500Y-65465583D01*
X204219500Y-69335667D01*
X204210855Y-69365107D01*
X204204332Y-69395094D01*
X204200577Y-69400109D01*
X204199815Y-69402706D01*
X204183181Y-69423348D01*
X204043348Y-69563181D01*
X203982025Y-69596666D01*
X203955667Y-69599500D01*
X202444333Y-69599500D01*
X202377294Y-69579815D01*
X202356652Y-69563181D01*
X202200819Y-69407348D01*
X202167334Y-69346025D01*
X202164500Y-69319667D01*
X202164500Y-69091277D01*
X202184185Y-69024238D01*
X202236989Y-68978483D01*
X202248806Y-68974666D01*
X202257738Y-68970966D01*
X202257740Y-68970966D01*
X202340601Y-68915601D01*
X202395966Y-68832740D01*
X202410500Y-68759674D01*
X202410500Y-65210326D01*
X202410500Y-65210323D01*
X202410499Y-65210321D01*
X202395967Y-65137264D01*
X202395966Y-65137260D01*
X202340601Y-65054399D01*
X202257740Y-64999034D01*
X202257739Y-64999033D01*
X202257735Y-64999032D01*
X202184677Y-64984500D01*
X202184674Y-64984500D01*
X201135326Y-64984500D01*
X201135323Y-64984500D01*
X201062264Y-64999032D01*
X201062260Y-64999033D01*
X200979399Y-65054399D01*
X200924033Y-65137260D01*
X200924032Y-65137264D01*
X200909500Y-65210321D01*
X200909500Y-68759678D01*
X200924032Y-68832735D01*
X200924033Y-68832739D01*
X200924034Y-68832740D01*
X200979399Y-68915601D01*
X201045848Y-68960000D01*
X201062260Y-68970966D01*
X201073544Y-68975640D01*
X201072400Y-68978400D01*
X201117600Y-69002043D01*
X201152176Y-69062758D01*
X201155500Y-69091277D01*
X201155500Y-69646419D01*
X201189881Y-69774730D01*
X201199119Y-69790730D01*
X201208222Y-69806496D01*
X201208223Y-69806500D01*
X201208224Y-69806500D01*
X201228073Y-69840881D01*
X201256298Y-69889768D01*
X201256300Y-69889771D01*
X201516348Y-70149819D01*
X201549833Y-70211142D01*
X201544849Y-70280834D01*
X201502977Y-70336767D01*
X201437513Y-70361184D01*
X201428667Y-70361500D01*
X198888332Y-70361500D01*
X198821293Y-70341815D01*
X198800651Y-70325181D01*
X197258315Y-68782844D01*
X198660000Y-68782844D01*
X198666401Y-68842372D01*
X198666403Y-68842379D01*
X198716645Y-68977086D01*
X198716649Y-68977093D01*
X198802809Y-69092187D01*
X198802812Y-69092190D01*
X198917906Y-69178350D01*
X198917913Y-69178354D01*
X199052620Y-69228596D01*
X199052627Y-69228598D01*
X199112155Y-69234999D01*
X199112172Y-69235000D01*
X199410000Y-69235000D01*
X199910000Y-69235000D01*
X200207828Y-69235000D01*
X200207844Y-69234999D01*
X200267372Y-69228598D01*
X200267379Y-69228596D01*
X200402086Y-69178354D01*
X200402093Y-69178350D01*
X200517187Y-69092190D01*
X200517190Y-69092187D01*
X200603350Y-68977093D01*
X200603354Y-68977086D01*
X200653596Y-68842379D01*
X200653598Y-68842372D01*
X200659999Y-68782844D01*
X200660000Y-68782827D01*
X200660000Y-67235000D01*
X199910000Y-67235000D01*
X199910000Y-69235000D01*
X199410000Y-69235000D01*
X199410000Y-67235000D01*
X198660000Y-67235000D01*
X198660000Y-68782844D01*
X197258315Y-68782844D01*
X195746790Y-67271319D01*
X195612819Y-67137348D01*
X195579334Y-67076025D01*
X195576500Y-67049667D01*
X195576500Y-65187155D01*
X198660000Y-65187155D01*
X198660000Y-66735000D01*
X199410000Y-66735000D01*
X199910000Y-66735000D01*
X200660000Y-66735000D01*
X200660000Y-65187172D01*
X200659999Y-65187155D01*
X200653598Y-65127627D01*
X200653596Y-65127620D01*
X200603354Y-64992913D01*
X200603350Y-64992906D01*
X200517190Y-64877812D01*
X200517187Y-64877809D01*
X200402093Y-64791649D01*
X200402086Y-64791645D01*
X200267379Y-64741403D01*
X200267372Y-64741401D01*
X200207844Y-64735000D01*
X199910000Y-64735000D01*
X199910000Y-66735000D01*
X199410000Y-66735000D01*
X199410000Y-64735000D01*
X199112155Y-64735000D01*
X199052627Y-64741401D01*
X199052620Y-64741403D01*
X198917913Y-64791645D01*
X198917906Y-64791649D01*
X198802812Y-64877809D01*
X198802809Y-64877812D01*
X198716649Y-64992906D01*
X198716645Y-64992913D01*
X198666403Y-65127620D01*
X198666401Y-65127627D01*
X198660000Y-65187155D01*
X195576500Y-65187155D01*
X195576500Y-64957583D01*
X195576500Y-64957581D01*
X195542119Y-64829270D01*
X195513326Y-64779399D01*
X195475701Y-64714230D01*
X192587770Y-61826299D01*
X192562320Y-61811605D01*
X192514838Y-61784191D01*
X192514837Y-61784191D01*
X192472730Y-61759881D01*
X192472731Y-61759881D01*
X192440652Y-61751285D01*
X192344419Y-61725500D01*
X192344416Y-61725500D01*
X187864500Y-61725500D01*
X187797461Y-61705815D01*
X187751706Y-61653011D01*
X187740500Y-61601500D01*
X187740500Y-61405323D01*
X187740499Y-61405321D01*
X187725967Y-61332264D01*
X187725966Y-61332260D01*
X187670601Y-61249399D01*
X187587740Y-61194034D01*
X187587739Y-61194033D01*
X187587735Y-61194032D01*
X187514677Y-61179500D01*
X187514674Y-61179500D01*
X185865326Y-61179500D01*
X185865323Y-61179500D01*
X185792264Y-61194032D01*
X185792260Y-61194033D01*
X185709399Y-61249399D01*
X185654033Y-61332260D01*
X185654032Y-61332264D01*
X185639500Y-61405321D01*
X185639500Y-61621799D01*
X185619815Y-61688838D01*
X185567011Y-61734593D01*
X185547598Y-61741572D01*
X185516341Y-61749947D01*
X185479268Y-61759881D01*
X185479267Y-61759882D01*
X185364233Y-61826296D01*
X185364228Y-61826300D01*
X184000301Y-63190227D01*
X184000295Y-63190236D01*
X183958190Y-63263160D01*
X183958191Y-63263161D01*
X183933882Y-63305265D01*
X183924077Y-63341859D01*
X183899500Y-63433581D01*
X183899500Y-63433583D01*
X183899500Y-69494666D01*
X183879815Y-69561705D01*
X183863181Y-69582347D01*
X183633401Y-69812127D01*
X183593174Y-69839006D01*
X183588652Y-69840878D01*
X183473613Y-69907296D01*
X183473608Y-69907300D01*
X182476301Y-70904607D01*
X182476295Y-70904616D01*
X182434190Y-70977540D01*
X182434191Y-70977541D01*
X182409882Y-71019645D01*
X182401834Y-71049682D01*
X182375500Y-71147961D01*
X182375500Y-71147963D01*
X182375500Y-74067770D01*
X182355815Y-74134809D01*
X182339181Y-74155451D01*
X182297051Y-74197580D01*
X182297048Y-74197584D01*
X182214919Y-74320498D01*
X182214912Y-74320511D01*
X182158343Y-74457082D01*
X182158340Y-74457092D01*
X182129500Y-74602079D01*
X182129500Y-74602082D01*
X182129500Y-74749918D01*
X182129500Y-74749920D01*
X182129499Y-74749920D01*
X182158340Y-74894907D01*
X182158343Y-74894917D01*
X182214912Y-75031488D01*
X182214919Y-75031501D01*
X182297048Y-75154415D01*
X182297051Y-75154419D01*
X182401580Y-75258948D01*
X182401588Y-75258954D01*
X182524494Y-75341077D01*
X182524498Y-75341079D01*
X182524505Y-75341084D01*
X182524508Y-75341085D01*
X182524511Y-75341087D01*
X182592377Y-75369197D01*
X182632606Y-75396077D01*
X189195583Y-81959054D01*
X189229068Y-82020377D01*
X189226000Y-82063277D01*
X189226000Y-82980000D01*
X189206315Y-83047039D01*
X189153511Y-83092794D01*
X189102000Y-83104000D01*
X188976000Y-83104000D01*
X188976000Y-83230000D01*
X188956315Y-83297039D01*
X188903511Y-83342794D01*
X188852000Y-83354000D01*
X187751001Y-83354000D01*
X187751001Y-83403986D01*
X187761494Y-83506697D01*
X187816641Y-83673119D01*
X187816643Y-83673124D01*
X187908684Y-83822345D01*
X188032654Y-83946315D01*
X188181875Y-84038356D01*
X188181880Y-84038358D01*
X188274140Y-84068930D01*
X188331585Y-84108702D01*
X188358408Y-84173218D01*
X188346093Y-84241994D01*
X188298550Y-84293194D01*
X188278471Y-84302817D01*
X188258674Y-84310201D01*
X188258664Y-84310206D01*
X188143455Y-84396452D01*
X188143452Y-84396455D01*
X188057206Y-84511664D01*
X188057202Y-84511671D01*
X188008377Y-84642581D01*
X188006909Y-84646517D01*
X188000500Y-84706127D01*
X188000500Y-84706134D01*
X188000500Y-84706135D01*
X188000500Y-85301870D01*
X188000501Y-85301876D01*
X188006908Y-85361483D01*
X188057202Y-85496328D01*
X188057206Y-85496335D01*
X188143452Y-85611544D01*
X188143455Y-85611547D01*
X188258664Y-85697793D01*
X188258671Y-85697797D01*
X188393517Y-85748091D01*
X188393516Y-85748091D01*
X188400444Y-85748835D01*
X188453127Y-85754500D01*
X189498872Y-85754499D01*
X189498874Y-85754498D01*
X189498887Y-85754498D01*
X189535504Y-85750561D01*
X189544444Y-85749600D01*
X189613204Y-85762005D01*
X189664341Y-85809615D01*
X189681700Y-85872889D01*
X189681700Y-86921467D01*
X189662015Y-86988506D01*
X189645381Y-87009148D01*
X187937999Y-88716529D01*
X187937993Y-88716538D01*
X187895888Y-88789462D01*
X187895889Y-88789463D01*
X187871580Y-88831567D01*
X187860176Y-88874129D01*
X187837198Y-88959883D01*
X187837198Y-88959885D01*
X187837198Y-90050365D01*
X187817513Y-90117404D01*
X187764709Y-90163159D01*
X187695551Y-90173103D01*
X187631995Y-90144078D01*
X187625517Y-90138046D01*
X184227217Y-86739746D01*
X184193732Y-86678423D01*
X184198716Y-86608731D01*
X184240588Y-86552798D01*
X184306052Y-86528381D01*
X184374325Y-86543233D01*
X184376898Y-86544678D01*
X184564331Y-86652893D01*
X184564340Y-86652897D01*
X184776269Y-86740681D01*
X184997862Y-86800057D01*
X185225289Y-86829998D01*
X185225306Y-86830000D01*
X185454694Y-86830000D01*
X185454710Y-86829998D01*
X185682137Y-86800057D01*
X185903730Y-86740681D01*
X186115659Y-86652897D01*
X186115668Y-86652893D01*
X186314327Y-86538197D01*
X186314334Y-86538192D01*
X186388064Y-86481617D01*
X185551058Y-85644612D01*
X185571591Y-85639111D01*
X185708408Y-85560119D01*
X185820119Y-85448408D01*
X185899111Y-85311591D01*
X185904612Y-85291059D01*
X186741617Y-86128064D01*
X186798192Y-86054334D01*
X186798197Y-86054327D01*
X186912893Y-85855668D01*
X186912897Y-85855659D01*
X187000681Y-85643730D01*
X187060057Y-85422137D01*
X187089998Y-85194710D01*
X187090000Y-85194694D01*
X187090000Y-84965305D01*
X187089998Y-84965289D01*
X187060057Y-84737862D01*
X187000681Y-84516269D01*
X186912897Y-84304340D01*
X186912893Y-84304330D01*
X186798194Y-84105666D01*
X186741618Y-84031934D01*
X186741617Y-84031934D01*
X185904612Y-84868939D01*
X185899111Y-84848409D01*
X185820119Y-84711592D01*
X185708408Y-84599881D01*
X185571591Y-84520889D01*
X185551057Y-84515387D01*
X186388064Y-83678381D01*
X186388064Y-83678380D01*
X186314331Y-83621805D01*
X186314324Y-83621799D01*
X186115669Y-83507106D01*
X186115659Y-83507102D01*
X185903730Y-83419318D01*
X185682137Y-83359942D01*
X185454710Y-83330001D01*
X185454694Y-83330000D01*
X185225306Y-83330000D01*
X185225289Y-83330001D01*
X184997862Y-83359942D01*
X184776269Y-83419318D01*
X184564340Y-83507102D01*
X184564330Y-83507106D01*
X184365673Y-83621801D01*
X184365659Y-83621810D01*
X184291934Y-83678380D01*
X185128940Y-84515387D01*
X185108409Y-84520889D01*
X184971592Y-84599881D01*
X184859881Y-84711592D01*
X184780889Y-84848409D01*
X184775387Y-84868941D01*
X183938380Y-84031934D01*
X183881810Y-84105659D01*
X183881801Y-84105673D01*
X183767106Y-84304330D01*
X183767101Y-84304340D01*
X183743137Y-84362197D01*
X183722549Y-84387744D01*
X183702886Y-84414011D01*
X183700736Y-84414812D01*
X183699296Y-84416600D01*
X183668161Y-84426962D01*
X183637422Y-84438428D01*
X183635179Y-84437940D01*
X183633002Y-84438665D01*
X183601203Y-84430548D01*
X183569149Y-84423576D01*
X183566700Y-84421742D01*
X183565302Y-84421386D01*
X183540895Y-84402425D01*
X183443770Y-84305300D01*
X182952486Y-83814015D01*
X182046770Y-82908298D01*
X182043141Y-82905513D01*
X182042001Y-82905179D01*
X182024271Y-82890891D01*
X182021840Y-82889026D01*
X181936827Y-82804013D01*
X187751000Y-82804013D01*
X187751000Y-82854000D01*
X188726000Y-82854000D01*
X188726000Y-82104000D01*
X188451029Y-82104000D01*
X188451012Y-82104001D01*
X188348302Y-82114494D01*
X188181880Y-82169641D01*
X188181875Y-82169643D01*
X188032654Y-82261684D01*
X187908684Y-82385654D01*
X187816643Y-82534875D01*
X187816641Y-82534880D01*
X187761494Y-82701302D01*
X187761493Y-82701309D01*
X187751000Y-82804013D01*
X181936827Y-82804013D01*
X181917316Y-82784502D01*
X181917314Y-82784500D01*
X181831597Y-82735011D01*
X181803187Y-82718608D01*
X181738625Y-82701309D01*
X181675892Y-82684500D01*
X179135892Y-82684500D01*
X179004107Y-82684500D01*
X178876812Y-82718608D01*
X178762686Y-82784500D01*
X178762683Y-82784502D01*
X177526502Y-84020683D01*
X177526500Y-84020686D01*
X177460608Y-84134812D01*
X177426500Y-84262108D01*
X177426500Y-85974324D01*
X177406815Y-86041363D01*
X177390181Y-86062005D01*
X176613005Y-86839181D01*
X176551682Y-86872666D01*
X176525324Y-86875500D01*
X174375676Y-86875500D01*
X174308637Y-86855815D01*
X174287995Y-86839181D01*
X173882517Y-86433703D01*
X173849032Y-86372380D01*
X173846198Y-86346022D01*
X173846198Y-85958394D01*
X173865883Y-85891355D01*
X173918687Y-85845600D01*
X173987845Y-85835656D01*
X174051401Y-85864681D01*
X174070515Y-85885507D01*
X174195483Y-86057510D01*
X174362490Y-86224517D01*
X174553567Y-86363343D01*
X174652991Y-86414002D01*
X174764003Y-86470566D01*
X174764005Y-86470566D01*
X174764008Y-86470568D01*
X174848078Y-86497884D01*
X174988631Y-86543553D01*
X175221903Y-86580500D01*
X175221908Y-86580500D01*
X175458097Y-86580500D01*
X175691368Y-86543553D01*
X175701330Y-86540316D01*
X175915992Y-86470568D01*
X176126433Y-86363343D01*
X176317510Y-86224517D01*
X176484517Y-86057510D01*
X176623343Y-85866433D01*
X176730568Y-85655992D01*
X176803553Y-85431368D01*
X176822524Y-85311591D01*
X176840500Y-85198097D01*
X176840500Y-84961902D01*
X176803553Y-84728631D01*
X176761719Y-84599881D01*
X176730568Y-84504008D01*
X176730566Y-84504005D01*
X176730566Y-84504003D01*
X176658312Y-84362197D01*
X176623343Y-84293567D01*
X176484517Y-84102490D01*
X176317510Y-83935483D01*
X176126433Y-83796657D01*
X175982968Y-83723558D01*
X175911651Y-83687220D01*
X175912263Y-83686018D01*
X175862633Y-83646011D01*
X175840578Y-83579714D01*
X175840500Y-83575307D01*
X175840500Y-80442676D01*
X175860185Y-80375637D01*
X175876819Y-80354995D01*
X176496955Y-79734859D01*
X177184499Y-79047315D01*
X177250392Y-78933186D01*
X177284500Y-78805893D01*
X177284500Y-78674108D01*
X177284500Y-75950676D01*
X177304185Y-75883637D01*
X177320819Y-75862995D01*
X177645242Y-75538572D01*
X179830979Y-75538572D01*
X179866328Y-75562192D01*
X180048306Y-75637569D01*
X180048318Y-75637572D01*
X180241504Y-75675999D01*
X180241508Y-75676000D01*
X180438492Y-75676000D01*
X180438495Y-75675999D01*
X180631681Y-75637572D01*
X180631693Y-75637569D01*
X180813676Y-75562190D01*
X180813680Y-75562187D01*
X180849019Y-75538573D01*
X180849020Y-75538572D01*
X180340001Y-75029553D01*
X180340000Y-75029553D01*
X179830979Y-75538572D01*
X177645242Y-75538572D01*
X177720995Y-75462819D01*
X177782318Y-75429334D01*
X177808676Y-75426500D01*
X177873920Y-75426500D01*
X177972024Y-75406985D01*
X178018913Y-75397658D01*
X178042404Y-75387927D01*
X178066853Y-75377801D01*
X178155488Y-75341087D01*
X178155488Y-75341086D01*
X178155495Y-75341084D01*
X178278416Y-75258951D01*
X178382951Y-75154416D01*
X178465084Y-75031495D01*
X178521658Y-74894913D01*
X178539702Y-74804204D01*
X178550500Y-74749920D01*
X178550500Y-74602079D01*
X178550499Y-74602077D01*
X178549213Y-74595608D01*
X178545612Y-74577504D01*
X179340000Y-74577504D01*
X179340000Y-74774495D01*
X179378427Y-74967681D01*
X179378430Y-74967693D01*
X179453808Y-75149673D01*
X179453809Y-75149675D01*
X179477425Y-75185019D01*
X179986446Y-74676000D01*
X179986446Y-74675999D01*
X180693553Y-74675999D01*
X180693553Y-74676000D01*
X181202572Y-75185020D01*
X181202573Y-75185019D01*
X181226187Y-75149680D01*
X181226190Y-75149676D01*
X181301569Y-74967693D01*
X181301572Y-74967681D01*
X181339999Y-74774495D01*
X181340000Y-74774492D01*
X181340000Y-74577508D01*
X181339999Y-74577504D01*
X181301572Y-74384318D01*
X181301569Y-74384306D01*
X181226192Y-74202328D01*
X181202572Y-74166979D01*
X180693553Y-74675999D01*
X179986446Y-74675999D01*
X179477426Y-74166978D01*
X179477426Y-74166979D01*
X179453813Y-74202318D01*
X179453809Y-74202325D01*
X179378429Y-74384310D01*
X179378427Y-74384318D01*
X179340000Y-74577504D01*
X178545612Y-74577504D01*
X178521659Y-74457092D01*
X178521658Y-74457091D01*
X178521658Y-74457087D01*
X178506946Y-74421569D01*
X178465087Y-74320511D01*
X178465080Y-74320498D01*
X178382951Y-74197584D01*
X178382948Y-74197580D01*
X178278419Y-74093051D01*
X178278415Y-74093048D01*
X178155501Y-74010919D01*
X178155492Y-74010914D01*
X178066850Y-73974198D01*
X178066848Y-73974197D01*
X178018917Y-73954343D01*
X178018907Y-73954340D01*
X177873920Y-73925500D01*
X177873918Y-73925500D01*
X177726082Y-73925500D01*
X177726080Y-73925500D01*
X177581092Y-73954340D01*
X177581082Y-73954343D01*
X177444511Y-74010912D01*
X177444498Y-74010919D01*
X177321584Y-74093048D01*
X177321580Y-74093051D01*
X177217051Y-74197580D01*
X177217048Y-74197584D01*
X177134919Y-74320498D01*
X177134912Y-74320511D01*
X177078343Y-74457082D01*
X177078340Y-74457092D01*
X177049500Y-74602079D01*
X177049500Y-74667324D01*
X177029815Y-74734363D01*
X177013181Y-74755005D01*
X176383502Y-75384683D01*
X176383500Y-75384686D01*
X176317608Y-75498812D01*
X176283500Y-75626108D01*
X176283500Y-78481324D01*
X176263815Y-78548363D01*
X176247181Y-78569005D01*
X174939502Y-79876683D01*
X174939500Y-79876686D01*
X174873608Y-79990812D01*
X174839500Y-80118108D01*
X174839500Y-83575307D01*
X174819815Y-83642346D01*
X174768250Y-83687026D01*
X174768349Y-83687220D01*
X174767569Y-83687617D01*
X174767011Y-83688101D01*
X174764318Y-83689273D01*
X174553566Y-83796657D01*
X174476267Y-83852819D01*
X174362490Y-83935483D01*
X174362488Y-83935485D01*
X174362487Y-83935485D01*
X174195484Y-84102488D01*
X174070516Y-84274491D01*
X174015185Y-84317156D01*
X173945572Y-84323135D01*
X173883777Y-84290529D01*
X173849420Y-84229690D01*
X173846198Y-84201605D01*
X173846198Y-73813426D01*
X179830978Y-73813426D01*
X180340000Y-74322446D01*
X180340001Y-74322446D01*
X180849020Y-73813426D01*
X180813675Y-73789809D01*
X180813673Y-73789808D01*
X180631693Y-73714430D01*
X180631681Y-73714427D01*
X180438495Y-73676000D01*
X180241504Y-73676000D01*
X180048318Y-73714427D01*
X180048310Y-73714429D01*
X179866325Y-73789809D01*
X179866318Y-73789813D01*
X179830979Y-73813426D01*
X179830978Y-73813426D01*
X173846198Y-73813426D01*
X173846198Y-73402978D01*
X173865883Y-73335939D01*
X173882517Y-73315297D01*
X175900980Y-71296834D01*
X177930500Y-69267314D01*
X177996392Y-69153186D01*
X178030500Y-69025892D01*
X178030500Y-68894107D01*
X178030500Y-68817072D01*
X178050185Y-68750033D01*
X178102989Y-68704278D01*
X178124239Y-68697415D01*
X178127738Y-68695966D01*
X178127740Y-68695966D01*
X178210601Y-68640601D01*
X178265966Y-68557740D01*
X178280500Y-68484674D01*
X178280500Y-64935326D01*
X178280500Y-64935323D01*
X178280499Y-64935321D01*
X178265967Y-64862264D01*
X178265966Y-64862260D01*
X178210601Y-64779399D01*
X178127740Y-64724034D01*
X178127739Y-64724033D01*
X178127735Y-64724032D01*
X178054677Y-64709500D01*
X178054674Y-64709500D01*
X177005326Y-64709500D01*
X177005323Y-64709500D01*
X176932264Y-64724032D01*
X176932260Y-64724033D01*
X176849399Y-64779399D01*
X176794033Y-64862260D01*
X176794032Y-64862264D01*
X176779500Y-64935321D01*
X176779500Y-68484678D01*
X176794032Y-68557735D01*
X176794033Y-68557739D01*
X176794034Y-68557740D01*
X176849399Y-68640601D01*
X176898922Y-68673691D01*
X176943726Y-68727301D01*
X176952435Y-68796626D01*
X176922280Y-68859654D01*
X176917712Y-68864473D01*
X173038384Y-72743802D01*
X172945200Y-72836985D01*
X172945198Y-72836988D01*
X172879306Y-72951114D01*
X172845198Y-73078410D01*
X172845198Y-86670589D01*
X172879306Y-86797885D01*
X172896713Y-86828034D01*
X172945198Y-86912012D01*
X173809686Y-87776500D01*
X173923814Y-87842392D01*
X174051108Y-87876500D01*
X174051110Y-87876500D01*
X176849890Y-87876500D01*
X176849892Y-87876500D01*
X176977186Y-87842392D01*
X177091314Y-87776500D01*
X178327500Y-86540314D01*
X178393392Y-86426186D01*
X178427500Y-86298893D01*
X178427500Y-86167108D01*
X178427500Y-84586676D01*
X178447185Y-84519637D01*
X178463819Y-84498995D01*
X178712800Y-84250014D01*
X178971866Y-83990947D01*
X179033187Y-83957464D01*
X179102878Y-83962448D01*
X179158812Y-84004319D01*
X179183229Y-84069784D01*
X179168377Y-84138057D01*
X179159863Y-84151515D01*
X179056659Y-84293563D01*
X178949433Y-84504003D01*
X178876446Y-84728631D01*
X178839500Y-84961902D01*
X178839500Y-85198097D01*
X178876446Y-85431368D01*
X178949433Y-85655996D01*
X178999624Y-85754500D01*
X179056657Y-85866433D01*
X179195483Y-86057510D01*
X179362490Y-86224517D01*
X179553567Y-86363343D01*
X179652991Y-86414002D01*
X179764003Y-86470566D01*
X179764005Y-86470566D01*
X179764008Y-86470568D01*
X179848078Y-86497884D01*
X179988631Y-86543553D01*
X180221903Y-86580500D01*
X180221908Y-86580500D01*
X180458097Y-86580500D01*
X180691368Y-86543553D01*
X180701330Y-86540316D01*
X180915992Y-86470568D01*
X180915997Y-86470565D01*
X180920033Y-86469254D01*
X180989874Y-86467259D01*
X181046033Y-86499504D01*
X183863181Y-89316652D01*
X183896666Y-89377975D01*
X183899500Y-89404333D01*
X183899500Y-112393419D01*
X183933881Y-112521730D01*
X183936058Y-112525500D01*
X183971928Y-112587630D01*
X184000298Y-112636769D01*
X189060451Y-117696922D01*
X189093936Y-117758245D01*
X189088952Y-117827937D01*
X189047080Y-117883870D01*
X188981616Y-117908287D01*
X188972770Y-117908603D01*
X172209000Y-117908603D01*
X172141961Y-117888918D01*
X172096206Y-117836114D01*
X172085000Y-117784603D01*
X172085000Y-110166543D01*
X177339499Y-110166543D01*
X177377947Y-110359829D01*
X177377950Y-110359839D01*
X177453364Y-110541907D01*
X177453371Y-110541920D01*
X177562860Y-110705781D01*
X177562863Y-110705785D01*
X177702214Y-110845136D01*
X177702218Y-110845139D01*
X177866079Y-110954628D01*
X177866092Y-110954635D01*
X177996208Y-111008530D01*
X178048165Y-111030051D01*
X178048169Y-111030051D01*
X178048170Y-111030052D01*
X178241456Y-111068500D01*
X178241459Y-111068500D01*
X178438543Y-111068500D01*
X178568582Y-111042632D01*
X178631835Y-111030051D01*
X178813914Y-110954632D01*
X178977782Y-110845139D01*
X179117139Y-110705782D01*
X179226632Y-110541914D01*
X179302051Y-110359835D01*
X179327119Y-110233811D01*
X179340500Y-110166543D01*
X181339499Y-110166543D01*
X181377947Y-110359829D01*
X181377950Y-110359839D01*
X181453364Y-110541907D01*
X181453371Y-110541920D01*
X181562860Y-110705781D01*
X181562863Y-110705785D01*
X181702214Y-110845136D01*
X181702218Y-110845139D01*
X181866079Y-110954628D01*
X181866092Y-110954635D01*
X181996208Y-111008530D01*
X182048165Y-111030051D01*
X182048169Y-111030051D01*
X182048170Y-111030052D01*
X182241456Y-111068500D01*
X182241459Y-111068500D01*
X182438543Y-111068500D01*
X182568582Y-111042632D01*
X182631835Y-111030051D01*
X182813914Y-110954632D01*
X182977782Y-110845139D01*
X183117139Y-110705782D01*
X183226632Y-110541914D01*
X183302051Y-110359835D01*
X183327119Y-110233811D01*
X183340500Y-110166543D01*
X183340500Y-109969456D01*
X183302052Y-109776170D01*
X183302051Y-109776169D01*
X183302051Y-109776165D01*
X183281798Y-109727270D01*
X183226635Y-109594092D01*
X183226628Y-109594079D01*
X183117139Y-109430218D01*
X183117136Y-109430214D01*
X182977785Y-109290863D01*
X182977781Y-109290860D01*
X182813920Y-109181371D01*
X182813907Y-109181364D01*
X182631839Y-109105950D01*
X182631829Y-109105947D01*
X182438543Y-109067500D01*
X182438541Y-109067500D01*
X182241459Y-109067500D01*
X182241457Y-109067500D01*
X182048170Y-109105947D01*
X182048160Y-109105950D01*
X181866092Y-109181364D01*
X181866079Y-109181371D01*
X181702218Y-109290860D01*
X181702214Y-109290863D01*
X181562863Y-109430214D01*
X181562860Y-109430218D01*
X181453371Y-109594079D01*
X181453364Y-109594092D01*
X181377950Y-109776160D01*
X181377947Y-109776170D01*
X181339500Y-109969456D01*
X181339500Y-109969459D01*
X181339500Y-110166541D01*
X181339500Y-110166543D01*
X181339499Y-110166543D01*
X179340500Y-110166543D01*
X179340500Y-109974915D01*
X179340500Y-109969459D01*
X179322025Y-109876584D01*
X179321907Y-109875953D01*
X179325328Y-109841812D01*
X179328385Y-109807658D01*
X179328818Y-109806996D01*
X179328875Y-109806432D01*
X179330669Y-109804171D01*
X179356094Y-109765376D01*
X180610391Y-108511079D01*
X181993701Y-107127770D01*
X182035808Y-107054837D01*
X182060119Y-107012730D01*
X182094500Y-106884419D01*
X182094500Y-90000474D01*
X182114185Y-89933435D01*
X182149607Y-89897373D01*
X182227782Y-89845139D01*
X182367139Y-89705782D01*
X182476632Y-89541914D01*
X182552051Y-89359835D01*
X182566612Y-89286635D01*
X182590500Y-89166543D01*
X182590500Y-88969456D01*
X182552052Y-88776170D01*
X182552051Y-88776169D01*
X182552051Y-88776165D01*
X182549900Y-88770971D01*
X182476635Y-88594092D01*
X182476628Y-88594079D01*
X182367139Y-88430218D01*
X182367136Y-88430214D01*
X182227785Y-88290863D01*
X182227781Y-88290860D01*
X182063920Y-88181371D01*
X182063907Y-88181364D01*
X181881839Y-88105950D01*
X181881829Y-88105947D01*
X181688543Y-88067500D01*
X181688541Y-88067500D01*
X181491459Y-88067500D01*
X181491457Y-88067500D01*
X181298170Y-88105947D01*
X181298160Y-88105950D01*
X181116092Y-88181364D01*
X181116079Y-88181371D01*
X180952218Y-88290860D01*
X180952214Y-88290863D01*
X180812863Y-88430214D01*
X180812860Y-88430218D01*
X180703371Y-88594079D01*
X180703364Y-88594092D01*
X180627950Y-88776160D01*
X180627947Y-88776170D01*
X180589500Y-88969456D01*
X180589500Y-88969459D01*
X180589500Y-89166541D01*
X180589500Y-89166543D01*
X180589499Y-89166543D01*
X180627947Y-89359829D01*
X180627950Y-89359839D01*
X180703364Y-89541907D01*
X180703371Y-89541920D01*
X180812860Y-89705781D01*
X180812863Y-89705785D01*
X180952215Y-89845137D01*
X180952218Y-89845139D01*
X181030391Y-89897372D01*
X181075195Y-89950983D01*
X181085500Y-90000474D01*
X181085500Y-106557666D01*
X181065815Y-106624705D01*
X181049181Y-106645347D01*
X178642622Y-109051905D01*
X178581299Y-109085390D01*
X178530750Y-109085841D01*
X178438544Y-109067500D01*
X178438541Y-109067500D01*
X178241459Y-109067500D01*
X178241457Y-109067500D01*
X178048170Y-109105947D01*
X178048160Y-109105950D01*
X177866092Y-109181364D01*
X177866079Y-109181371D01*
X177702218Y-109290860D01*
X177702214Y-109290863D01*
X177562863Y-109430214D01*
X177562860Y-109430218D01*
X177453371Y-109594079D01*
X177453364Y-109594092D01*
X177377950Y-109776160D01*
X177377947Y-109776170D01*
X177339500Y-109969456D01*
X177339500Y-109969459D01*
X177339500Y-110166541D01*
X177339500Y-110166543D01*
X177339499Y-110166543D01*
X172085000Y-110166543D01*
X172085000Y-89166543D01*
X178089499Y-89166543D01*
X178127947Y-89359829D01*
X178127950Y-89359839D01*
X178203364Y-89541907D01*
X178203371Y-89541920D01*
X178312860Y-89705781D01*
X178312863Y-89705785D01*
X178452214Y-89845136D01*
X178452218Y-89845139D01*
X178616079Y-89954628D01*
X178616092Y-89954635D01*
X178759404Y-90013996D01*
X178798165Y-90030051D01*
X178798169Y-90030051D01*
X178798170Y-90030052D01*
X178991456Y-90068500D01*
X178991459Y-90068500D01*
X179188543Y-90068500D01*
X179378421Y-90030730D01*
X179381835Y-90030051D01*
X179563914Y-89954632D01*
X179727782Y-89845139D01*
X179867139Y-89705782D01*
X179976632Y-89541914D01*
X180052051Y-89359835D01*
X180066612Y-89286635D01*
X180090500Y-89166543D01*
X180090500Y-88969456D01*
X180052052Y-88776170D01*
X180052051Y-88776169D01*
X180052051Y-88776165D01*
X180049900Y-88770971D01*
X179976635Y-88594092D01*
X179976628Y-88594079D01*
X179867139Y-88430218D01*
X179867136Y-88430214D01*
X179727785Y-88290863D01*
X179727781Y-88290860D01*
X179563920Y-88181371D01*
X179563907Y-88181364D01*
X179381839Y-88105950D01*
X179381829Y-88105947D01*
X179188543Y-88067500D01*
X179188541Y-88067500D01*
X178991459Y-88067500D01*
X178991457Y-88067500D01*
X178798170Y-88105947D01*
X178798160Y-88105950D01*
X178616092Y-88181364D01*
X178616079Y-88181371D01*
X178452218Y-88290860D01*
X178452214Y-88290863D01*
X178312863Y-88430214D01*
X178312860Y-88430218D01*
X178203371Y-88594079D01*
X178203364Y-88594092D01*
X178127950Y-88776160D01*
X178127947Y-88776170D01*
X178089500Y-88969456D01*
X178089500Y-88969459D01*
X178089500Y-89166541D01*
X178089500Y-89166543D01*
X178089499Y-89166543D01*
X172085000Y-89166543D01*
X172085000Y-68507844D01*
X174530000Y-68507844D01*
X174536401Y-68567372D01*
X174536403Y-68567379D01*
X174586645Y-68702086D01*
X174586649Y-68702093D01*
X174672809Y-68817187D01*
X174672812Y-68817190D01*
X174787906Y-68903350D01*
X174787913Y-68903354D01*
X174922620Y-68953596D01*
X174922627Y-68953598D01*
X174982155Y-68959999D01*
X174982172Y-68960000D01*
X175280000Y-68960000D01*
X175780000Y-68960000D01*
X176077828Y-68960000D01*
X176077844Y-68959999D01*
X176137372Y-68953598D01*
X176137379Y-68953596D01*
X176272086Y-68903354D01*
X176272093Y-68903350D01*
X176387187Y-68817190D01*
X176387190Y-68817187D01*
X176473350Y-68702093D01*
X176473354Y-68702086D01*
X176523596Y-68567379D01*
X176523598Y-68567372D01*
X176529999Y-68507844D01*
X176530000Y-68507827D01*
X176530000Y-66960000D01*
X175780000Y-66960000D01*
X175780000Y-68960000D01*
X175280000Y-68960000D01*
X175280000Y-66960000D01*
X174530000Y-66960000D01*
X174530000Y-68507844D01*
X172085000Y-68507844D01*
X172085000Y-64912155D01*
X174530000Y-64912155D01*
X174530000Y-66460000D01*
X175280000Y-66460000D01*
X175780000Y-66460000D01*
X176530000Y-66460000D01*
X176530000Y-64912172D01*
X176529999Y-64912155D01*
X176523598Y-64852627D01*
X176523596Y-64852620D01*
X176473354Y-64717913D01*
X176473350Y-64717906D01*
X176387190Y-64602812D01*
X176387187Y-64602809D01*
X176272093Y-64516649D01*
X176272086Y-64516645D01*
X176137379Y-64466403D01*
X176137372Y-64466401D01*
X176077844Y-64460000D01*
X175780000Y-64460000D01*
X175780000Y-66460000D01*
X175280000Y-66460000D01*
X175280000Y-64460000D01*
X174982155Y-64460000D01*
X174922627Y-64466401D01*
X174922620Y-64466403D01*
X174787913Y-64516645D01*
X174787906Y-64516649D01*
X174672812Y-64602809D01*
X174672809Y-64602812D01*
X174586649Y-64717906D01*
X174586645Y-64717913D01*
X174536403Y-64852620D01*
X174536401Y-64852627D01*
X174530000Y-64912155D01*
X172085000Y-64912155D01*
X172085000Y-62962740D01*
X172104685Y-62895701D01*
X172157489Y-62849946D01*
X172226647Y-62840002D01*
X172277890Y-62859638D01*
X172332256Y-62895964D01*
X172332258Y-62895964D01*
X172332260Y-62895966D01*
X172332262Y-62895966D01*
X172332264Y-62895967D01*
X172405321Y-62910499D01*
X172405324Y-62910500D01*
X172405326Y-62910500D01*
X173954676Y-62910500D01*
X173954677Y-62910499D01*
X174027740Y-62895966D01*
X174110601Y-62840601D01*
X174165966Y-62757740D01*
X174180500Y-62684674D01*
X174180500Y-59235326D01*
X174174108Y-59203190D01*
X174180337Y-59133599D01*
X174223200Y-59078422D01*
X174289090Y-59055178D01*
X174295726Y-59055000D01*
X178764274Y-59055000D01*
X178831313Y-59074685D01*
G37*
%TD.AperFunction*%
%TA.AperFunction,Conductor*%
G36*
X188034703Y-102388620D02*
G01*
X188041181Y-102394652D01*
X189428230Y-103781701D01*
X189543270Y-103848119D01*
X189671581Y-103882500D01*
X191077169Y-103882500D01*
X191144208Y-103902185D01*
X191189963Y-103954989D01*
X191199907Y-104024147D01*
X191170882Y-104087703D01*
X191124622Y-104121061D01*
X191018403Y-104165058D01*
X190846342Y-104280024D01*
X190700024Y-104426342D01*
X190585058Y-104598403D01*
X190505870Y-104789579D01*
X190505868Y-104789587D01*
X190465500Y-104992530D01*
X190465500Y-105199469D01*
X190505868Y-105402412D01*
X190505870Y-105402420D01*
X190585058Y-105593596D01*
X190700024Y-105765657D01*
X190846342Y-105911975D01*
X190846345Y-105911977D01*
X191018402Y-106026941D01*
X191209580Y-106106130D01*
X191412530Y-106146499D01*
X191412534Y-106146500D01*
X191412535Y-106146500D01*
X191619466Y-106146500D01*
X191645539Y-106141313D01*
X191749273Y-106120679D01*
X191818862Y-106126906D01*
X191861144Y-106154615D01*
X195801181Y-110094652D01*
X195834666Y-110155975D01*
X195837500Y-110182333D01*
X195837500Y-118325947D01*
X195817815Y-118392986D01*
X195769805Y-118436427D01*
X195765213Y-118438767D01*
X195765212Y-118438768D01*
X195625072Y-118540586D01*
X195625070Y-118540588D01*
X195625069Y-118540588D01*
X195502588Y-118663069D01*
X195502588Y-118663070D01*
X195502586Y-118663072D01*
X195458859Y-118723256D01*
X195400768Y-118803211D01*
X195322128Y-118957552D01*
X195268597Y-119122302D01*
X195241500Y-119293389D01*
X195241500Y-119466610D01*
X195264474Y-119611667D01*
X195268598Y-119637701D01*
X195316037Y-119783703D01*
X195322128Y-119802447D01*
X195400768Y-119956788D01*
X195420767Y-119984314D01*
X195444247Y-120050121D01*
X195428422Y-120118175D01*
X195378316Y-120166869D01*
X195320449Y-120181200D01*
X195026500Y-120181200D01*
X194959461Y-120161515D01*
X194913706Y-120108711D01*
X194902500Y-120057200D01*
X194902500Y-118505323D01*
X194902499Y-118505321D01*
X194887967Y-118432264D01*
X194887966Y-118432260D01*
X194832601Y-118349399D01*
X194749740Y-118294034D01*
X194749739Y-118294033D01*
X194749735Y-118294032D01*
X194676677Y-118279500D01*
X194676674Y-118279500D01*
X194430500Y-118279500D01*
X194363461Y-118259815D01*
X194317706Y-118207011D01*
X194306500Y-118155500D01*
X194306500Y-117955583D01*
X194306500Y-117955581D01*
X194272119Y-117827270D01*
X194205701Y-117712230D01*
X187865819Y-111372348D01*
X187832334Y-111311025D01*
X187829500Y-111284667D01*
X187829500Y-102482333D01*
X187849185Y-102415294D01*
X187901989Y-102369539D01*
X187971147Y-102359595D01*
X188034703Y-102388620D01*
G37*
%TD.AperFunction*%
%TA.AperFunction,Conductor*%
G36*
X193862706Y-103902185D02*
G01*
X193883348Y-103918819D01*
X198064230Y-108099701D01*
X198064231Y-108099702D01*
X198064233Y-108099703D01*
X198121750Y-108132910D01*
X198179270Y-108166119D01*
X198307581Y-108200500D01*
X204971667Y-108200500D01*
X205038706Y-108220185D01*
X205059348Y-108236819D01*
X206723181Y-109900652D01*
X206737884Y-109927579D01*
X206754477Y-109953398D01*
X206755368Y-109959598D01*
X206756666Y-109961975D01*
X206759500Y-109988333D01*
X206759500Y-110140046D01*
X206739815Y-110207085D01*
X206687011Y-110252840D01*
X206617853Y-110262784D01*
X206554297Y-110233759D01*
X206547819Y-110227727D01*
X206547544Y-110227452D01*
X206432335Y-110141206D01*
X206432328Y-110141202D01*
X206297482Y-110090908D01*
X206297483Y-110090908D01*
X206237883Y-110084501D01*
X206237881Y-110084500D01*
X206237873Y-110084500D01*
X206237865Y-110084500D01*
X205741833Y-110084500D01*
X205674794Y-110064815D01*
X205654152Y-110048181D01*
X204930272Y-109324301D01*
X204930270Y-109324299D01*
X204899712Y-109306656D01*
X204857338Y-109282191D01*
X204857337Y-109282191D01*
X204815230Y-109257881D01*
X204815231Y-109257881D01*
X204783152Y-109249285D01*
X204686919Y-109223500D01*
X199069581Y-109223500D01*
X198979387Y-109247667D01*
X198941265Y-109257882D01*
X198899161Y-109282191D01*
X198826236Y-109324295D01*
X198826227Y-109324301D01*
X197716298Y-110434230D01*
X197700041Y-110462389D01*
X197693169Y-110474293D01*
X197691308Y-110477517D01*
X197654125Y-110541920D01*
X197649881Y-110549270D01*
X197615500Y-110677581D01*
X197615500Y-110677583D01*
X197615500Y-111766760D01*
X197595815Y-111833799D01*
X197543011Y-111879554D01*
X197515694Y-111888377D01*
X197487262Y-111894033D01*
X197487260Y-111894033D01*
X197404399Y-111949399D01*
X197349033Y-112032260D01*
X197349032Y-112032264D01*
X197334500Y-112105321D01*
X197334500Y-113954678D01*
X197349032Y-114027735D01*
X197349033Y-114027739D01*
X197365729Y-114052727D01*
X197404399Y-114110601D01*
X197487260Y-114165966D01*
X197487264Y-114165967D01*
X197560321Y-114180499D01*
X197560324Y-114180500D01*
X197560326Y-114180500D01*
X198679676Y-114180500D01*
X198737308Y-114169036D01*
X198806900Y-114175263D01*
X198862077Y-114218126D01*
X198885322Y-114284015D01*
X198885500Y-114290653D01*
X198885500Y-114620419D01*
X198919881Y-114748730D01*
X198944191Y-114790837D01*
X198986299Y-114863770D01*
X198986301Y-114863772D01*
X200881181Y-116758652D01*
X200914666Y-116819975D01*
X200917500Y-116846333D01*
X200917500Y-118325947D01*
X200897815Y-118392986D01*
X200849805Y-118436427D01*
X200845213Y-118438767D01*
X200845212Y-118438768D01*
X200705072Y-118540586D01*
X200705070Y-118540588D01*
X200705069Y-118540588D01*
X200582588Y-118663069D01*
X200582588Y-118663070D01*
X200582586Y-118663072D01*
X200538859Y-118723256D01*
X200480768Y-118803211D01*
X200402128Y-118957550D01*
X200401487Y-118959522D01*
X200401102Y-118960712D01*
X200401099Y-118960720D01*
X200400381Y-118961769D01*
X200400266Y-118962048D01*
X200400207Y-118962023D01*
X200361657Y-119018393D01*
X200297297Y-119045587D01*
X200228451Y-119033668D01*
X200176979Y-118986420D01*
X200165239Y-118960711D01*
X200133096Y-118861784D01*
X200036620Y-118672442D01*
X199911727Y-118500540D01*
X199911723Y-118500535D01*
X199761464Y-118350276D01*
X199761459Y-118350272D01*
X199589557Y-118225379D01*
X199400215Y-118128903D01*
X199198124Y-118063241D01*
X199132000Y-118052768D01*
X199132000Y-118946988D01*
X199074993Y-118914075D01*
X198947826Y-118880000D01*
X198816174Y-118880000D01*
X198689007Y-118914075D01*
X198632000Y-118946988D01*
X198632000Y-118052768D01*
X198631999Y-118052768D01*
X198565875Y-118063241D01*
X198363784Y-118128903D01*
X198174442Y-118225379D01*
X198002540Y-118350272D01*
X198002535Y-118350276D01*
X197852276Y-118500535D01*
X197852272Y-118500540D01*
X197727379Y-118672442D01*
X197630904Y-118861783D01*
X197598760Y-118960712D01*
X197559322Y-119018388D01*
X197494964Y-119045586D01*
X197426117Y-119033671D01*
X197374642Y-118986427D01*
X197362898Y-118960711D01*
X197361873Y-118957555D01*
X197283232Y-118803212D01*
X197181414Y-118663072D01*
X197058928Y-118540586D01*
X196918788Y-118438768D01*
X196918668Y-118438706D01*
X196914195Y-118436427D01*
X196863404Y-118388448D01*
X196846500Y-118325947D01*
X196846500Y-109855583D01*
X196846500Y-109855581D01*
X196812119Y-109727270D01*
X196769430Y-109653331D01*
X196745701Y-109612230D01*
X192574615Y-105441144D01*
X192541130Y-105379821D01*
X192540679Y-105329274D01*
X192557861Y-105242891D01*
X192566500Y-105199467D01*
X192566500Y-104992534D01*
X192566499Y-104992530D01*
X192540679Y-104862725D01*
X192526130Y-104789580D01*
X192446941Y-104598402D01*
X192331977Y-104426345D01*
X192331975Y-104426342D01*
X192185657Y-104280024D01*
X192099626Y-104222541D01*
X192013598Y-104165059D01*
X191907377Y-104121060D01*
X191852975Y-104077220D01*
X191830910Y-104010926D01*
X191848189Y-103943226D01*
X191899327Y-103895616D01*
X191954831Y-103882500D01*
X193795667Y-103882500D01*
X193862706Y-103902185D01*
G37*
%TD.AperFunction*%
%TA.AperFunction,Conductor*%
G36*
X195380506Y-84317985D02*
G01*
X195401148Y-84334619D01*
X197910764Y-86844235D01*
X197944249Y-86905558D01*
X197939265Y-86975250D01*
X197897393Y-87031183D01*
X197831929Y-87055600D01*
X197763656Y-87040748D01*
X197754193Y-87035019D01*
X197684581Y-86988506D01*
X197601598Y-86933059D01*
X197556032Y-86914185D01*
X197410420Y-86853870D01*
X197410412Y-86853868D01*
X197207469Y-86813500D01*
X197207465Y-86813500D01*
X197000535Y-86813500D01*
X197000530Y-86813500D01*
X196797587Y-86853868D01*
X196797579Y-86853870D01*
X196606403Y-86933058D01*
X196434342Y-87048024D01*
X196288024Y-87194342D01*
X196173058Y-87366403D01*
X196093870Y-87557579D01*
X196093868Y-87557587D01*
X196053500Y-87760530D01*
X196053500Y-87967469D01*
X196093868Y-88170412D01*
X196093870Y-88170420D01*
X196143758Y-88290861D01*
X196173059Y-88361598D01*
X196218906Y-88430214D01*
X196288024Y-88533657D01*
X196434340Y-88679973D01*
X196434343Y-88679975D01*
X196434345Y-88679977D01*
X196544391Y-88753507D01*
X196549481Y-88759596D01*
X196556703Y-88762895D01*
X196571564Y-88786020D01*
X196589196Y-88807117D01*
X196591148Y-88816493D01*
X196594477Y-88821673D01*
X196599500Y-88856608D01*
X196599500Y-88911667D01*
X196579815Y-88978706D01*
X196563181Y-88999348D01*
X194668300Y-90894228D01*
X194668298Y-90894231D01*
X194633388Y-90954699D01*
X194633387Y-90954701D01*
X194601881Y-91009270D01*
X194567500Y-91137581D01*
X194567500Y-91137583D01*
X194567500Y-91677052D01*
X194547815Y-91744091D01*
X194495011Y-91789846D01*
X194486833Y-91793234D01*
X194379671Y-91833202D01*
X194379664Y-91833206D01*
X194264455Y-91919452D01*
X194264452Y-91919455D01*
X194178206Y-92034664D01*
X194178202Y-92034671D01*
X194127908Y-92169517D01*
X194125330Y-92193500D01*
X194121501Y-92229123D01*
X194121500Y-92229135D01*
X194121500Y-92725166D01*
X194101815Y-92792205D01*
X194085181Y-92812847D01*
X193070599Y-93827428D01*
X193009276Y-93860913D01*
X192939584Y-93855929D01*
X192883652Y-93814058D01*
X192831546Y-93744454D01*
X192808709Y-93727358D01*
X192716335Y-93658206D01*
X192716328Y-93658202D01*
X192581482Y-93607908D01*
X192581483Y-93607908D01*
X192521883Y-93601501D01*
X192521881Y-93601500D01*
X192521873Y-93601500D01*
X192521865Y-93601500D01*
X192025833Y-93601500D01*
X191996392Y-93592855D01*
X191966406Y-93586332D01*
X191961390Y-93582577D01*
X191958794Y-93581815D01*
X191938152Y-93565181D01*
X191887151Y-93514180D01*
X191853666Y-93452857D01*
X191858650Y-93383165D01*
X191900522Y-93327232D01*
X191965986Y-93302815D01*
X191974832Y-93302499D01*
X192521871Y-93302499D01*
X192521872Y-93302499D01*
X192581483Y-93296091D01*
X192716331Y-93245796D01*
X192831546Y-93159546D01*
X192917796Y-93044331D01*
X192968091Y-92909483D01*
X192974500Y-92849873D01*
X192974499Y-92229128D01*
X192968091Y-92169517D01*
X192955515Y-92135800D01*
X192917797Y-92034671D01*
X192917793Y-92034664D01*
X192831547Y-91919455D01*
X192773663Y-91876122D01*
X192731792Y-91820187D01*
X192726809Y-91750496D01*
X192760292Y-91689177D01*
X194967700Y-89481770D01*
X195034119Y-89366730D01*
X195034119Y-89366729D01*
X195035968Y-89359829D01*
X195038343Y-89350967D01*
X195038344Y-89350960D01*
X195047537Y-89316652D01*
X195068500Y-89238419D01*
X195068500Y-88856608D01*
X195088185Y-88789569D01*
X195123607Y-88753507D01*
X195233655Y-88679977D01*
X195379977Y-88533655D01*
X195494941Y-88361598D01*
X195574130Y-88170420D01*
X195614500Y-87967465D01*
X195614500Y-87760535D01*
X195574130Y-87557580D01*
X195494941Y-87366402D01*
X195379977Y-87194345D01*
X195379975Y-87194342D01*
X195233657Y-87048024D01*
X195111287Y-86966260D01*
X195061598Y-86933059D01*
X195016032Y-86914185D01*
X194870420Y-86853870D01*
X194870412Y-86853868D01*
X194667469Y-86813500D01*
X194667465Y-86813500D01*
X194460535Y-86813500D01*
X194460530Y-86813500D01*
X194257587Y-86853868D01*
X194257579Y-86853870D01*
X194066403Y-86933058D01*
X193894342Y-87048024D01*
X193748024Y-87194342D01*
X193633058Y-87366403D01*
X193553870Y-87557579D01*
X193553868Y-87557587D01*
X193513500Y-87760530D01*
X193513500Y-87967469D01*
X193553868Y-88170412D01*
X193553870Y-88170420D01*
X193603758Y-88290861D01*
X193633059Y-88361598D01*
X193678906Y-88430214D01*
X193748024Y-88533657D01*
X193894340Y-88679973D01*
X193894343Y-88679975D01*
X193894345Y-88679977D01*
X194004391Y-88753507D01*
X194009481Y-88759596D01*
X194016703Y-88762895D01*
X194031564Y-88786020D01*
X194049196Y-88807117D01*
X194051148Y-88816493D01*
X194054477Y-88821673D01*
X194059500Y-88856608D01*
X194059500Y-88911667D01*
X194039815Y-88978706D01*
X194023181Y-88999348D01*
X191620300Y-91402228D01*
X191620294Y-91402236D01*
X191591387Y-91452306D01*
X191540821Y-91500522D01*
X191472214Y-91513746D01*
X191407349Y-91487778D01*
X191366820Y-91430864D01*
X191360000Y-91390307D01*
X191360000Y-90600833D01*
X191379685Y-90533794D01*
X191396319Y-90513152D01*
X191908997Y-90000474D01*
X192427701Y-89481770D01*
X192494120Y-89366729D01*
X192528500Y-89238418D01*
X192528500Y-89105581D01*
X192528500Y-89038500D01*
X192548185Y-88971461D01*
X192600989Y-88925706D01*
X192652500Y-88914500D01*
X192848676Y-88914500D01*
X192848677Y-88914499D01*
X192921740Y-88899966D01*
X193004601Y-88844601D01*
X193059966Y-88761740D01*
X193074500Y-88688674D01*
X193074500Y-87039326D01*
X193074500Y-87039323D01*
X193074499Y-87039321D01*
X193059967Y-86966264D01*
X193059966Y-86966260D01*
X193037782Y-86933059D01*
X193004601Y-86883399D01*
X192938423Y-86839181D01*
X192921739Y-86828033D01*
X192921735Y-86828032D01*
X192848677Y-86813500D01*
X192848674Y-86813500D01*
X191199326Y-86813500D01*
X191199323Y-86813500D01*
X191126264Y-86828032D01*
X191126260Y-86828033D01*
X191043399Y-86883399D01*
X190988033Y-86966260D01*
X190988032Y-86966264D01*
X190973500Y-87039321D01*
X190973500Y-88688678D01*
X190988032Y-88761735D01*
X190988033Y-88761739D01*
X191000753Y-88780776D01*
X191043399Y-88844601D01*
X191110445Y-88889399D01*
X191126260Y-88899966D01*
X191126264Y-88899967D01*
X191199321Y-88914499D01*
X191199324Y-88914500D01*
X191199326Y-88914500D01*
X191268667Y-88914500D01*
X191335706Y-88934185D01*
X191381461Y-88986989D01*
X191391405Y-89056147D01*
X191362380Y-89119703D01*
X191356348Y-89126181D01*
X190451800Y-90030728D01*
X190451798Y-90030730D01*
X190409740Y-90103580D01*
X190409738Y-90103582D01*
X190385383Y-90145764D01*
X190385382Y-90145765D01*
X190378057Y-90173103D01*
X190351000Y-90274081D01*
X190351000Y-93262419D01*
X190385381Y-93390730D01*
X190409691Y-93432837D01*
X190451799Y-93505770D01*
X190451801Y-93505772D01*
X191037181Y-94091152D01*
X191070666Y-94152475D01*
X191073500Y-94178833D01*
X191073500Y-94550166D01*
X191053815Y-94617205D01*
X191037181Y-94637847D01*
X189834302Y-95840725D01*
X189834301Y-95840726D01*
X189834299Y-95840730D01*
X189821846Y-95862300D01*
X189767881Y-95955770D01*
X189733500Y-96084081D01*
X189733500Y-100687719D01*
X189735360Y-100694660D01*
X189767880Y-100816029D01*
X189767881Y-100816030D01*
X189775849Y-100829830D01*
X189775851Y-100829837D01*
X189775853Y-100829837D01*
X189834299Y-100931070D01*
X190578900Y-101675670D01*
X190672830Y-101769600D01*
X190787870Y-101836019D01*
X190916181Y-101870400D01*
X190916184Y-101870400D01*
X192145916Y-101870400D01*
X192145919Y-101870400D01*
X192274230Y-101836019D01*
X192316337Y-101811708D01*
X192389270Y-101769601D01*
X198523701Y-95635170D01*
X198565808Y-95562237D01*
X198590119Y-95520130D01*
X198624500Y-95391819D01*
X198624500Y-95226947D01*
X198644185Y-95159908D01*
X198696989Y-95114153D01*
X198705168Y-95110765D01*
X198721068Y-95104835D01*
X198782538Y-95081908D01*
X198812326Y-95070798D01*
X198812326Y-95070797D01*
X198812331Y-95070796D01*
X198927546Y-94984546D01*
X199013796Y-94869331D01*
X199064091Y-94734483D01*
X199070500Y-94674873D01*
X199070499Y-94054128D01*
X199064091Y-93994517D01*
X199017566Y-93869778D01*
X199013797Y-93859671D01*
X199013793Y-93859664D01*
X198927547Y-93744455D01*
X198927544Y-93744452D01*
X198812335Y-93658206D01*
X198812328Y-93658202D01*
X198677482Y-93607908D01*
X198677483Y-93607908D01*
X198617883Y-93601501D01*
X198617881Y-93601500D01*
X198617873Y-93601500D01*
X198617865Y-93601500D01*
X198128532Y-93601500D01*
X198107286Y-93595261D01*
X198085198Y-93593682D01*
X198074414Y-93585609D01*
X198061493Y-93581815D01*
X198046993Y-93565081D01*
X198029265Y-93551810D01*
X198024557Y-93539189D01*
X198015738Y-93529011D01*
X198012586Y-93507093D01*
X198004848Y-93486346D01*
X198007710Y-93473185D01*
X198005794Y-93459853D01*
X198014993Y-93439709D01*
X198019700Y-93418073D01*
X198032968Y-93400347D01*
X198034819Y-93396297D01*
X198040851Y-93389819D01*
X198091852Y-93338818D01*
X198153175Y-93305333D01*
X198179533Y-93302499D01*
X198617871Y-93302499D01*
X198617872Y-93302499D01*
X198677483Y-93296091D01*
X198812331Y-93245796D01*
X198927546Y-93159546D01*
X198933651Y-93151391D01*
X198937307Y-93148653D01*
X198939206Y-93144497D01*
X198965023Y-93127905D01*
X198989584Y-93109519D01*
X198995213Y-93108503D01*
X198997984Y-93106723D01*
X199032919Y-93101700D01*
X199140367Y-93101700D01*
X199207406Y-93121385D01*
X199228048Y-93138019D01*
X200181181Y-94091152D01*
X200214666Y-94152475D01*
X200217500Y-94178833D01*
X200217500Y-94674870D01*
X200217501Y-94674876D01*
X200223908Y-94734483D01*
X200274202Y-94869328D01*
X200274206Y-94869335D01*
X200360452Y-94984544D01*
X200360455Y-94984547D01*
X200475664Y-95070793D01*
X200475671Y-95070797D01*
X200610517Y-95121091D01*
X200610516Y-95121091D01*
X200617444Y-95121835D01*
X200670127Y-95127500D01*
X201665872Y-95127499D01*
X201725483Y-95121091D01*
X201860331Y-95070796D01*
X201975546Y-94984546D01*
X201975548Y-94984542D01*
X201975819Y-94984273D01*
X201976159Y-94984087D01*
X201982645Y-94979232D01*
X201983343Y-94980164D01*
X202037142Y-94950788D01*
X202106834Y-94955772D01*
X202162767Y-94997644D01*
X202187184Y-95063108D01*
X202187500Y-95071954D01*
X202187500Y-97275666D01*
X202167815Y-97342705D01*
X202151181Y-97363347D01*
X200429109Y-99085418D01*
X200367786Y-99118903D01*
X200317236Y-99119354D01*
X200247588Y-99105500D01*
X200247586Y-99105500D01*
X200056414Y-99105500D01*
X200056412Y-99105500D01*
X199868921Y-99142794D01*
X199868911Y-99142797D01*
X199692299Y-99215951D01*
X199533339Y-99322164D01*
X199398164Y-99457339D01*
X199291951Y-99616299D01*
X199218797Y-99792911D01*
X199218794Y-99792921D01*
X199181500Y-99980411D01*
X199181500Y-99980414D01*
X199181500Y-100171586D01*
X199181500Y-100171588D01*
X199181499Y-100171588D01*
X199218794Y-100359078D01*
X199218797Y-100359088D01*
X199291951Y-100535700D01*
X199398164Y-100694660D01*
X199533339Y-100829835D01*
X199692299Y-100936048D01*
X199810653Y-100985071D01*
X199868916Y-101009204D01*
X199868920Y-101009204D01*
X199868921Y-101009205D01*
X200056411Y-101046500D01*
X200056414Y-101046500D01*
X200247588Y-101046500D01*
X200373729Y-101021408D01*
X200435084Y-101009204D01*
X200493346Y-100985070D01*
X200562812Y-100977601D01*
X200625292Y-101008875D01*
X200628479Y-101011950D01*
X205896348Y-106279819D01*
X205929833Y-106341142D01*
X205924849Y-106410834D01*
X205882977Y-106466767D01*
X205817513Y-106491184D01*
X205808667Y-106491500D01*
X204220713Y-106491500D01*
X204153674Y-106471815D01*
X204133032Y-106455181D01*
X200980467Y-103302616D01*
X200946982Y-103241293D01*
X200951966Y-103171601D01*
X200965042Y-103146049D01*
X201012046Y-103075704D01*
X201085204Y-102899084D01*
X201122500Y-102711586D01*
X201122500Y-102520414D01*
X201122500Y-102520411D01*
X201085205Y-102332921D01*
X201085204Y-102332920D01*
X201085204Y-102332916D01*
X201068036Y-102291468D01*
X201012048Y-102156299D01*
X200905835Y-101997339D01*
X200770660Y-101862164D01*
X200611700Y-101755951D01*
X200435088Y-101682797D01*
X200435078Y-101682794D01*
X200247588Y-101645500D01*
X200247586Y-101645500D01*
X200056414Y-101645500D01*
X200056412Y-101645500D01*
X199868921Y-101682794D01*
X199868911Y-101682797D01*
X199692299Y-101755951D01*
X199533339Y-101862164D01*
X199398164Y-101997339D01*
X199291951Y-102156299D01*
X199218797Y-102332911D01*
X199218794Y-102332921D01*
X199181500Y-102520411D01*
X199181500Y-102520414D01*
X199181500Y-102711586D01*
X199181500Y-102711588D01*
X199181499Y-102711588D01*
X199218794Y-102899078D01*
X199218797Y-102899088D01*
X199291951Y-103075700D01*
X199398164Y-103234660D01*
X199533336Y-103369832D01*
X199533339Y-103369834D01*
X199533342Y-103369837D01*
X199592392Y-103409292D01*
X199637195Y-103462902D01*
X199647500Y-103512393D01*
X199647500Y-104259605D01*
X199627815Y-104326644D01*
X199592391Y-104362707D01*
X199533342Y-104402162D01*
X199533338Y-104402165D01*
X199398164Y-104537339D01*
X199291951Y-104696299D01*
X199218797Y-104872911D01*
X199218794Y-104872921D01*
X199181500Y-105060411D01*
X199181500Y-105060414D01*
X199181500Y-105251586D01*
X199181500Y-105251588D01*
X199181499Y-105251588D01*
X199218794Y-105439078D01*
X199218797Y-105439088D01*
X199291951Y-105615700D01*
X199398164Y-105774660D01*
X199533339Y-105909835D01*
X199692299Y-106016048D01*
X199837637Y-106076248D01*
X199868916Y-106089204D01*
X199868920Y-106089204D01*
X199868921Y-106089205D01*
X200056411Y-106126500D01*
X200056414Y-106126500D01*
X200247588Y-106126500D01*
X200373729Y-106101408D01*
X200435084Y-106089204D01*
X200554045Y-106039929D01*
X200611700Y-106016048D01*
X200611701Y-106016047D01*
X200611704Y-106016046D01*
X200770658Y-105909837D01*
X200905837Y-105774658D01*
X201012046Y-105615704D01*
X201021204Y-105593596D01*
X201048625Y-105527394D01*
X201085204Y-105439084D01*
X201097408Y-105377729D01*
X201122500Y-105251588D01*
X201122500Y-105159639D01*
X201142185Y-105092600D01*
X201194989Y-105046845D01*
X201264147Y-105036901D01*
X201327703Y-105065926D01*
X201334181Y-105071958D01*
X203242042Y-106979819D01*
X203275527Y-107041142D01*
X203270543Y-107110834D01*
X203228671Y-107166767D01*
X203163207Y-107191184D01*
X203154361Y-107191500D01*
X198634333Y-107191500D01*
X198567294Y-107171815D01*
X198546652Y-107155181D01*
X194365772Y-102974301D01*
X194365770Y-102974299D01*
X194340320Y-102959605D01*
X194292838Y-102932191D01*
X194292837Y-102932191D01*
X194250730Y-102907881D01*
X194250731Y-102907881D01*
X194217877Y-102899078D01*
X194122419Y-102873500D01*
X194122416Y-102873500D01*
X189998333Y-102873500D01*
X189931294Y-102853815D01*
X189910652Y-102837181D01*
X188882517Y-101809046D01*
X188849032Y-101747723D01*
X188846198Y-101721365D01*
X188846198Y-89286635D01*
X188865883Y-89219596D01*
X188882517Y-89198954D01*
X189719875Y-88361596D01*
X190589901Y-87491570D01*
X190646301Y-87393881D01*
X190656319Y-87376530D01*
X190690700Y-87248219D01*
X190690700Y-84422300D01*
X190710385Y-84355261D01*
X190763189Y-84309506D01*
X190814700Y-84298300D01*
X195313467Y-84298300D01*
X195380506Y-84317985D01*
G37*
%TD.AperFunction*%
%TA.AperFunction,Conductor*%
G36*
X214068539Y-72152185D02*
G01*
X214114294Y-72204989D01*
X214125500Y-72256500D01*
X214125500Y-72623721D01*
X214105815Y-72690760D01*
X214053011Y-72736515D01*
X213983853Y-72746459D01*
X213963588Y-72741684D01*
X213962698Y-72741494D01*
X213859986Y-72731000D01*
X213610000Y-72731000D01*
X213610000Y-73619500D01*
X213590315Y-73686539D01*
X213537511Y-73732294D01*
X213486000Y-73743500D01*
X213360000Y-73743500D01*
X213360000Y-73869500D01*
X213340315Y-73936539D01*
X213287511Y-73982294D01*
X213236000Y-73993500D01*
X212160001Y-73993500D01*
X212160001Y-74055986D01*
X212170494Y-74158697D01*
X212225641Y-74325119D01*
X212225643Y-74325124D01*
X212317684Y-74474345D01*
X212441654Y-74598315D01*
X212590877Y-74690356D01*
X212591924Y-74690845D01*
X212592522Y-74691371D01*
X212597025Y-74694149D01*
X212596550Y-74694917D01*
X212644368Y-74737012D01*
X212663526Y-74804204D01*
X212643317Y-74871087D01*
X212627573Y-74890550D01*
X212621142Y-74897033D01*
X212552454Y-74948454D01*
X212497992Y-75021205D01*
X212491930Y-75027318D01*
X212468574Y-75040196D01*
X212447220Y-75056182D01*
X212435870Y-75058229D01*
X212430745Y-75061056D01*
X212423070Y-75060539D01*
X212403887Y-75064000D01*
X211268113Y-75064000D01*
X211201074Y-75044315D01*
X211168847Y-75014312D01*
X211119546Y-74948454D01*
X211096709Y-74931358D01*
X211004335Y-74862206D01*
X211004328Y-74862202D01*
X210869482Y-74811908D01*
X210869483Y-74811908D01*
X210809883Y-74805501D01*
X210809881Y-74805500D01*
X210809873Y-74805500D01*
X210809864Y-74805500D01*
X209814129Y-74805500D01*
X209814123Y-74805501D01*
X209754516Y-74811908D01*
X209619671Y-74862202D01*
X209619664Y-74862206D01*
X209504455Y-74948452D01*
X209504452Y-74948455D01*
X209418206Y-75063664D01*
X209418202Y-75063671D01*
X209367910Y-75198513D01*
X209367909Y-75198517D01*
X209361500Y-75258127D01*
X209361500Y-75258134D01*
X209361500Y-75258135D01*
X209361500Y-75878870D01*
X209361501Y-75878876D01*
X209367908Y-75938483D01*
X209418202Y-76073328D01*
X209418206Y-76073335D01*
X209504452Y-76188544D01*
X209504455Y-76188547D01*
X209619664Y-76274793D01*
X209619671Y-76274797D01*
X209754517Y-76325091D01*
X209754516Y-76325091D01*
X209761444Y-76325835D01*
X209814127Y-76331500D01*
X210809872Y-76331499D01*
X210869483Y-76325091D01*
X211004331Y-76274796D01*
X211119546Y-76188546D01*
X211168847Y-76122688D01*
X211224780Y-76080818D01*
X211268113Y-76073000D01*
X212403887Y-76073000D01*
X212470926Y-76092685D01*
X212503152Y-76122687D01*
X212552454Y-76188546D01*
X212593946Y-76219607D01*
X212667664Y-76274793D01*
X212667673Y-76274798D01*
X212747574Y-76304598D01*
X212774826Y-76314763D01*
X212774832Y-76314765D01*
X212830766Y-76356635D01*
X212855184Y-76422099D01*
X212855500Y-76430947D01*
X212855500Y-79441419D01*
X212867134Y-79484837D01*
X212889881Y-79569731D01*
X212903603Y-79593496D01*
X212903604Y-79593500D01*
X212956294Y-79684763D01*
X212956300Y-79684771D01*
X216828062Y-83556533D01*
X216861547Y-83617856D01*
X216856563Y-83687548D01*
X216814691Y-83743481D01*
X216749227Y-83767898D01*
X216684086Y-83754699D01*
X216555996Y-83689433D01*
X216331368Y-83616446D01*
X216098097Y-83579500D01*
X216098092Y-83579500D01*
X215861908Y-83579500D01*
X215861903Y-83579500D01*
X215628631Y-83616446D01*
X215404003Y-83689433D01*
X215193566Y-83796657D01*
X215116267Y-83852819D01*
X215002490Y-83935483D01*
X215002488Y-83935485D01*
X215002487Y-83935485D01*
X214835485Y-84102487D01*
X214835485Y-84102488D01*
X214835483Y-84102490D01*
X214830970Y-84108702D01*
X214696657Y-84293566D01*
X214589433Y-84504003D01*
X214516446Y-84728631D01*
X214479500Y-84961902D01*
X214479500Y-85198097D01*
X214516446Y-85431368D01*
X214537556Y-85496335D01*
X214589432Y-85655992D01*
X214589433Y-85655995D01*
X214590938Y-85660625D01*
X214589656Y-85661041D01*
X214596458Y-85724435D01*
X214565168Y-85786907D01*
X214562114Y-85790070D01*
X210004686Y-90347500D01*
X209911502Y-90440683D01*
X209911500Y-90440686D01*
X209845608Y-90554812D01*
X209811500Y-90682108D01*
X209811500Y-91675560D01*
X209791815Y-91742599D01*
X209739011Y-91788354D01*
X209730833Y-91791742D01*
X209619671Y-91833202D01*
X209619664Y-91833206D01*
X209504455Y-91919452D01*
X209504452Y-91919455D01*
X209418206Y-92034664D01*
X209418202Y-92034671D01*
X209367908Y-92169517D01*
X209365330Y-92193500D01*
X209361501Y-92229123D01*
X209361500Y-92229135D01*
X209361500Y-92401167D01*
X209341815Y-92468206D01*
X209289011Y-92513961D01*
X209219853Y-92523905D01*
X209156297Y-92494880D01*
X209149819Y-92488848D01*
X208796771Y-92135800D01*
X208796770Y-92135799D01*
X208722119Y-92092700D01*
X208681730Y-92069381D01*
X208553419Y-92035000D01*
X208553416Y-92035000D01*
X208220113Y-92035000D01*
X208153074Y-92015315D01*
X208120847Y-91985312D01*
X208071546Y-91919454D01*
X208013662Y-91876122D01*
X207956335Y-91833206D01*
X207956329Y-91833203D01*
X207849166Y-91793233D01*
X207793233Y-91751361D01*
X207768816Y-91685897D01*
X207768500Y-91677051D01*
X207768500Y-88856608D01*
X207788185Y-88789569D01*
X207823607Y-88753507D01*
X207933655Y-88679977D01*
X208079977Y-88533655D01*
X208194941Y-88361598D01*
X208274130Y-88170420D01*
X208314500Y-87967465D01*
X208314500Y-87760535D01*
X208274130Y-87557580D01*
X208194941Y-87366402D01*
X208079977Y-87194345D01*
X208079975Y-87194342D01*
X207933657Y-87048024D01*
X207811287Y-86966260D01*
X207761598Y-86933059D01*
X207716032Y-86914185D01*
X207570420Y-86853870D01*
X207570412Y-86853868D01*
X207367469Y-86813500D01*
X207367465Y-86813500D01*
X207160535Y-86813500D01*
X207160530Y-86813500D01*
X206957587Y-86853868D01*
X206957579Y-86853870D01*
X206766403Y-86933058D01*
X206594342Y-87048024D01*
X206448024Y-87194342D01*
X206333058Y-87366403D01*
X206253870Y-87557579D01*
X206253868Y-87557587D01*
X206213500Y-87760530D01*
X206213500Y-87967469D01*
X206253868Y-88170412D01*
X206253870Y-88170420D01*
X206303758Y-88290861D01*
X206333059Y-88361598D01*
X206378906Y-88430214D01*
X206448024Y-88533657D01*
X206594340Y-88679973D01*
X206594343Y-88679975D01*
X206594345Y-88679977D01*
X206704391Y-88753507D01*
X206749196Y-88807117D01*
X206759500Y-88856608D01*
X206759500Y-91677052D01*
X206739815Y-91744091D01*
X206687011Y-91789846D01*
X206678833Y-91793234D01*
X206571671Y-91833202D01*
X206571664Y-91833206D01*
X206456455Y-91919452D01*
X206456452Y-91919455D01*
X206370206Y-92034664D01*
X206370202Y-92034671D01*
X206319908Y-92169517D01*
X206317330Y-92193500D01*
X206313501Y-92229123D01*
X206313500Y-92229135D01*
X206313500Y-92725166D01*
X206293815Y-92792205D01*
X206277181Y-92812847D01*
X205266348Y-93823681D01*
X205239420Y-93838384D01*
X205213602Y-93854977D01*
X205207401Y-93855868D01*
X205205025Y-93857166D01*
X205178667Y-93860000D01*
X205172113Y-93860000D01*
X205105074Y-93840315D01*
X205072847Y-93810312D01*
X205023546Y-93744454D01*
X205000709Y-93727358D01*
X204908335Y-93658206D01*
X204908328Y-93658202D01*
X204773482Y-93607908D01*
X204773483Y-93607908D01*
X204713883Y-93601501D01*
X204713881Y-93601500D01*
X204713873Y-93601500D01*
X204713865Y-93601500D01*
X204166831Y-93601500D01*
X204145585Y-93595261D01*
X204123497Y-93593682D01*
X204112713Y-93585609D01*
X204099792Y-93581815D01*
X204085292Y-93565081D01*
X204067564Y-93551810D01*
X204062856Y-93539189D01*
X204054037Y-93529011D01*
X204050885Y-93507093D01*
X204043147Y-93486346D01*
X204046009Y-93473185D01*
X204044093Y-93459853D01*
X204053292Y-93439709D01*
X204057999Y-93418073D01*
X204071267Y-93400347D01*
X204073118Y-93396297D01*
X204079150Y-93389819D01*
X204130151Y-93338818D01*
X204191474Y-93305333D01*
X204217832Y-93302499D01*
X204713871Y-93302499D01*
X204713872Y-93302499D01*
X204773483Y-93296091D01*
X204908331Y-93245796D01*
X205023546Y-93159546D01*
X205109796Y-93044331D01*
X205160091Y-92909483D01*
X205166500Y-92849873D01*
X205166499Y-92229128D01*
X205160091Y-92169517D01*
X205147515Y-92135800D01*
X205109797Y-92034671D01*
X205109793Y-92034664D01*
X205023547Y-91919455D01*
X205023544Y-91919452D01*
X204908335Y-91833206D01*
X204908329Y-91833203D01*
X204801166Y-91793233D01*
X204745233Y-91751361D01*
X204720816Y-91685897D01*
X204720500Y-91677051D01*
X204720500Y-89940332D01*
X204740185Y-89873293D01*
X204756819Y-89852651D01*
X204903689Y-89705781D01*
X205127700Y-89481770D01*
X205194119Y-89366730D01*
X205194119Y-89366729D01*
X205195968Y-89359829D01*
X205198343Y-89350967D01*
X205198344Y-89350960D01*
X205207537Y-89316652D01*
X205228500Y-89238419D01*
X205228500Y-88856608D01*
X205248185Y-88789569D01*
X205283607Y-88753507D01*
X205393655Y-88679977D01*
X205539977Y-88533655D01*
X205654941Y-88361598D01*
X205734130Y-88170420D01*
X205774500Y-87967465D01*
X205774500Y-87760535D01*
X205734130Y-87557580D01*
X205654941Y-87366402D01*
X205539977Y-87194345D01*
X205539975Y-87194342D01*
X205393657Y-87048024D01*
X205271287Y-86966260D01*
X205221598Y-86933059D01*
X205176032Y-86914185D01*
X205030420Y-86853870D01*
X205030412Y-86853868D01*
X204827469Y-86813500D01*
X204827465Y-86813500D01*
X204620535Y-86813500D01*
X204620530Y-86813500D01*
X204417587Y-86853868D01*
X204417579Y-86853870D01*
X204226403Y-86933058D01*
X204054342Y-87048024D01*
X203908024Y-87194342D01*
X203793058Y-87366403D01*
X203713870Y-87557579D01*
X203713868Y-87557587D01*
X203673500Y-87760530D01*
X203673500Y-87967469D01*
X203713868Y-88170412D01*
X203713870Y-88170420D01*
X203763758Y-88290861D01*
X203793059Y-88361598D01*
X203838906Y-88430214D01*
X203908024Y-88533657D01*
X204054340Y-88679973D01*
X204054343Y-88679975D01*
X204054345Y-88679977D01*
X204164391Y-88753507D01*
X204169481Y-88759596D01*
X204176703Y-88762895D01*
X204191564Y-88786020D01*
X204209196Y-88807117D01*
X204211148Y-88816493D01*
X204214477Y-88821673D01*
X204219500Y-88856608D01*
X204219500Y-88911667D01*
X204199815Y-88978706D01*
X204183181Y-88999348D01*
X203812301Y-89370227D01*
X203812299Y-89370229D01*
X203802289Y-89387568D01*
X203794960Y-89400263D01*
X203790010Y-89408837D01*
X203747901Y-89481772D01*
X203745881Y-89485270D01*
X203711500Y-89613581D01*
X203711500Y-89613583D01*
X203711500Y-91677052D01*
X203691815Y-91744091D01*
X203639011Y-91789846D01*
X203630833Y-91793234D01*
X203523671Y-91833202D01*
X203523664Y-91833206D01*
X203408455Y-91919452D01*
X203408452Y-91919455D01*
X203322206Y-92034664D01*
X203322202Y-92034671D01*
X203271908Y-92169517D01*
X203269330Y-92193500D01*
X203265501Y-92229123D01*
X203265500Y-92229135D01*
X203265500Y-92725166D01*
X203245815Y-92792205D01*
X203229181Y-92812847D01*
X202288300Y-93753728D01*
X202288298Y-93753731D01*
X202255755Y-93810099D01*
X202255752Y-93810104D01*
X202249135Y-93821564D01*
X202198566Y-93869778D01*
X202129958Y-93882998D01*
X202065095Y-93857028D01*
X202042485Y-93833873D01*
X201975546Y-93744454D01*
X201952709Y-93727358D01*
X201860335Y-93658206D01*
X201860328Y-93658202D01*
X201725482Y-93607908D01*
X201725483Y-93607908D01*
X201665883Y-93601501D01*
X201665881Y-93601500D01*
X201665873Y-93601500D01*
X201665865Y-93601500D01*
X201169833Y-93601500D01*
X201140392Y-93592855D01*
X201110406Y-93586332D01*
X201105390Y-93582577D01*
X201102794Y-93581815D01*
X201082152Y-93565181D01*
X201031151Y-93514180D01*
X200997666Y-93452857D01*
X201002650Y-93383165D01*
X201044522Y-93327232D01*
X201109986Y-93302815D01*
X201118832Y-93302499D01*
X201665871Y-93302499D01*
X201665872Y-93302499D01*
X201725483Y-93296091D01*
X201860331Y-93245796D01*
X201975546Y-93159546D01*
X202061796Y-93044331D01*
X202112091Y-92909483D01*
X202118500Y-92849873D01*
X202118499Y-92353831D01*
X202138183Y-92286793D01*
X202154813Y-92266156D01*
X202587701Y-91833270D01*
X202629808Y-91760337D01*
X202654119Y-91718230D01*
X202688500Y-91589919D01*
X202688500Y-88856608D01*
X202708185Y-88789569D01*
X202743607Y-88753507D01*
X202853655Y-88679977D01*
X202999977Y-88533655D01*
X203114941Y-88361598D01*
X203194130Y-88170420D01*
X203234500Y-87967465D01*
X203234500Y-87760535D01*
X203194130Y-87557580D01*
X203114941Y-87366402D01*
X202999977Y-87194345D01*
X202999975Y-87194342D01*
X202853657Y-87048024D01*
X202731287Y-86966260D01*
X202681598Y-86933059D01*
X202636032Y-86914185D01*
X202490420Y-86853870D01*
X202490412Y-86853868D01*
X202360776Y-86828082D01*
X202298865Y-86795697D01*
X202264291Y-86734982D01*
X202268030Y-86665212D01*
X202297284Y-86618786D01*
X203857700Y-85058370D01*
X203924119Y-84943330D01*
X203935081Y-84902418D01*
X203958500Y-84815019D01*
X203958500Y-81227922D01*
X203978185Y-81160883D01*
X204030989Y-81115128D01*
X204100147Y-81105184D01*
X204151388Y-81124819D01*
X204226402Y-81174941D01*
X204417580Y-81254130D01*
X204620530Y-81294499D01*
X204620534Y-81294500D01*
X204620535Y-81294500D01*
X204827466Y-81294500D01*
X204827467Y-81294499D01*
X205030420Y-81254130D01*
X205221598Y-81174941D01*
X205393655Y-81059977D01*
X205539977Y-80913655D01*
X205654941Y-80741598D01*
X205734130Y-80550420D01*
X205774500Y-80347465D01*
X205774500Y-80140535D01*
X205774499Y-80140530D01*
X206213500Y-80140530D01*
X206213500Y-80347469D01*
X206253868Y-80550412D01*
X206253870Y-80550420D01*
X206333059Y-80741598D01*
X206342442Y-80755641D01*
X206448024Y-80913657D01*
X206594342Y-81059975D01*
X206594345Y-81059977D01*
X206766402Y-81174941D01*
X206957580Y-81254130D01*
X207160530Y-81294499D01*
X207160534Y-81294500D01*
X207160535Y-81294500D01*
X207367466Y-81294500D01*
X207367467Y-81294499D01*
X207570420Y-81254130D01*
X207761598Y-81174941D01*
X207933655Y-81059977D01*
X208079977Y-80913655D01*
X208194941Y-80741598D01*
X208274130Y-80550420D01*
X208314500Y-80347465D01*
X208314500Y-80140535D01*
X208274130Y-79937580D01*
X208194941Y-79746402D01*
X208079977Y-79574345D01*
X208079975Y-79574342D01*
X207933658Y-79428025D01*
X207933654Y-79428022D01*
X207823609Y-79354492D01*
X207778804Y-79300880D01*
X207768500Y-79251390D01*
X207768500Y-76430947D01*
X207788185Y-76363908D01*
X207840989Y-76318153D01*
X207849168Y-76314765D01*
X207849174Y-76314763D01*
X207919500Y-76288533D01*
X207956326Y-76274798D01*
X207956326Y-76274797D01*
X207956331Y-76274796D01*
X208071546Y-76188546D01*
X208157796Y-76073331D01*
X208208091Y-75938483D01*
X208214500Y-75878873D01*
X208214499Y-75258128D01*
X208208091Y-75198517D01*
X208191642Y-75154416D01*
X208157797Y-75063671D01*
X208157793Y-75063664D01*
X208071547Y-74948455D01*
X208071544Y-74948452D01*
X207956335Y-74862206D01*
X207956328Y-74862202D01*
X207821482Y-74811908D01*
X207821483Y-74811908D01*
X207761883Y-74805501D01*
X207761881Y-74805500D01*
X207761873Y-74805500D01*
X207761864Y-74805500D01*
X206766129Y-74805500D01*
X206766123Y-74805501D01*
X206706516Y-74811908D01*
X206571671Y-74862202D01*
X206571664Y-74862206D01*
X206456455Y-74948452D01*
X206456452Y-74948455D01*
X206370206Y-75063664D01*
X206370202Y-75063671D01*
X206319910Y-75198513D01*
X206319909Y-75198517D01*
X206313500Y-75258127D01*
X206313500Y-75258134D01*
X206313500Y-75258135D01*
X206313500Y-75878870D01*
X206313501Y-75878876D01*
X206319908Y-75938483D01*
X206370202Y-76073328D01*
X206370206Y-76073335D01*
X206456452Y-76188544D01*
X206456455Y-76188547D01*
X206571664Y-76274793D01*
X206571673Y-76274798D01*
X206651574Y-76304598D01*
X206678826Y-76314763D01*
X206678832Y-76314765D01*
X206734766Y-76356635D01*
X206759184Y-76422099D01*
X206759500Y-76430947D01*
X206759500Y-79251390D01*
X206739815Y-79318429D01*
X206704391Y-79354492D01*
X206594345Y-79428022D01*
X206594341Y-79428025D01*
X206448024Y-79574342D01*
X206333058Y-79746403D01*
X206253870Y-79937579D01*
X206253868Y-79937587D01*
X206213500Y-80140530D01*
X205774499Y-80140530D01*
X205734130Y-79937580D01*
X205654941Y-79746402D01*
X205539977Y-79574345D01*
X205539975Y-79574342D01*
X205393658Y-79428025D01*
X205393654Y-79428022D01*
X205283609Y-79354492D01*
X205238804Y-79300880D01*
X205228500Y-79251390D01*
X205228500Y-75828832D01*
X205248185Y-75761793D01*
X205264814Y-75741156D01*
X206504036Y-74501933D01*
X206565357Y-74468450D01*
X206635045Y-74473433D01*
X206654739Y-74480779D01*
X206706513Y-74500090D01*
X206706516Y-74500091D01*
X206713444Y-74500835D01*
X206766127Y-74506500D01*
X207761872Y-74506499D01*
X207821483Y-74500091D01*
X207956331Y-74449796D01*
X208071546Y-74363546D01*
X208120847Y-74297688D01*
X208176780Y-74255818D01*
X208220113Y-74248000D01*
X209355887Y-74248000D01*
X209422926Y-74267685D01*
X209455152Y-74297687D01*
X209504454Y-74363546D01*
X209524565Y-74378601D01*
X209619664Y-74449793D01*
X209619671Y-74449797D01*
X209754517Y-74500091D01*
X209754516Y-74500091D01*
X209761444Y-74500835D01*
X209814127Y-74506500D01*
X210809872Y-74506499D01*
X210869483Y-74500091D01*
X211004331Y-74449796D01*
X211119546Y-74363546D01*
X211205796Y-74248331D01*
X211256091Y-74113483D01*
X211262500Y-74053873D01*
X211262499Y-73433128D01*
X211262272Y-73431013D01*
X212160000Y-73431013D01*
X212160000Y-73493500D01*
X213110000Y-73493500D01*
X213110000Y-72731000D01*
X212860029Y-72731000D01*
X212860012Y-72731001D01*
X212757302Y-72741494D01*
X212590880Y-72796641D01*
X212590875Y-72796643D01*
X212441654Y-72888684D01*
X212317684Y-73012654D01*
X212225643Y-73161875D01*
X212225641Y-73161880D01*
X212170494Y-73328302D01*
X212170493Y-73328309D01*
X212160000Y-73431013D01*
X211262272Y-73431013D01*
X211256091Y-73373517D01*
X211250939Y-73359705D01*
X211205797Y-73238671D01*
X211205793Y-73238664D01*
X211119547Y-73123455D01*
X211119544Y-73123452D01*
X211004335Y-73037206D01*
X211004328Y-73037202D01*
X210869482Y-72986908D01*
X210869483Y-72986908D01*
X210809883Y-72980501D01*
X210809881Y-72980500D01*
X210809873Y-72980500D01*
X210809864Y-72980500D01*
X209814129Y-72980500D01*
X209814123Y-72980501D01*
X209754516Y-72986908D01*
X209619671Y-73037202D01*
X209619664Y-73037206D01*
X209504456Y-73123452D01*
X209504455Y-73123453D01*
X209504454Y-73123454D01*
X209455152Y-73189311D01*
X209399220Y-73231182D01*
X209355887Y-73239000D01*
X208220113Y-73239000D01*
X208153074Y-73219315D01*
X208120847Y-73189312D01*
X208071546Y-73123454D01*
X208048709Y-73106358D01*
X207956335Y-73037206D01*
X207956328Y-73037202D01*
X207821482Y-72986908D01*
X207821483Y-72986908D01*
X207761883Y-72980501D01*
X207761881Y-72980500D01*
X207761873Y-72980500D01*
X207761864Y-72980500D01*
X206766129Y-72980500D01*
X206766123Y-72980501D01*
X206706516Y-72986908D01*
X206571671Y-73037202D01*
X206571664Y-73037206D01*
X206456456Y-73123452D01*
X206456455Y-73123453D01*
X206456454Y-73123454D01*
X206407153Y-73189311D01*
X206370200Y-73238674D01*
X206366540Y-73245377D01*
X206354653Y-73257549D01*
X206347455Y-73271513D01*
X206319713Y-73293331D01*
X206312165Y-73297689D01*
X206312163Y-73297689D01*
X206239236Y-73339795D01*
X206239227Y-73339801D01*
X205371838Y-74207189D01*
X205310515Y-74240674D01*
X205240823Y-74235690D01*
X205184890Y-74193818D01*
X205160473Y-74128354D01*
X205160868Y-74106252D01*
X205162288Y-74093051D01*
X205166500Y-74053873D01*
X205166499Y-73557831D01*
X205186183Y-73490793D01*
X205202813Y-73470156D01*
X205996151Y-72676819D01*
X206057474Y-72643334D01*
X206083832Y-72640500D01*
X211192016Y-72640500D01*
X211192019Y-72640500D01*
X211320330Y-72606119D01*
X211362437Y-72581808D01*
X211435370Y-72539701D01*
X211806251Y-72168818D01*
X211867574Y-72135334D01*
X211893932Y-72132500D01*
X214001500Y-72132500D01*
X214068539Y-72152185D01*
G37*
%TD.AperFunction*%
%TA.AperFunction,Conductor*%
G36*
X186749392Y-72086185D02*
G01*
X186795147Y-72138989D01*
X186805091Y-72208147D01*
X186776066Y-72271703D01*
X186744353Y-72297887D01*
X186648033Y-72353497D01*
X186648027Y-72353501D01*
X185016301Y-73985227D01*
X185016297Y-73985233D01*
X184976332Y-74054452D01*
X184945133Y-74087784D01*
X184946287Y-74089190D01*
X184941576Y-74093055D01*
X184837051Y-74197580D01*
X184837048Y-74197584D01*
X184754919Y-74320498D01*
X184754912Y-74320511D01*
X184698343Y-74457082D01*
X184698340Y-74457092D01*
X184669500Y-74602079D01*
X184669500Y-74602082D01*
X184669500Y-74749918D01*
X184669500Y-74749920D01*
X184669499Y-74749920D01*
X184698340Y-74894907D01*
X184698343Y-74894917D01*
X184754912Y-75031488D01*
X184754919Y-75031501D01*
X184837048Y-75154415D01*
X184837051Y-75154419D01*
X184941580Y-75258948D01*
X184941584Y-75258951D01*
X185064498Y-75341080D01*
X185064511Y-75341087D01*
X185197270Y-75396077D01*
X185201087Y-75397658D01*
X185201091Y-75397658D01*
X185201092Y-75397659D01*
X185346079Y-75426500D01*
X185346082Y-75426500D01*
X185493920Y-75426500D01*
X185592024Y-75406985D01*
X185638913Y-75397658D01*
X185775495Y-75341084D01*
X185898416Y-75258951D01*
X186002951Y-75154416D01*
X186085084Y-75031495D01*
X186141658Y-74894913D01*
X186159702Y-74804204D01*
X186170500Y-74749920D01*
X186170500Y-74602079D01*
X186141659Y-74457092D01*
X186141658Y-74457091D01*
X186141658Y-74457087D01*
X186123492Y-74413231D01*
X186116023Y-74343762D01*
X186147298Y-74281282D01*
X186150342Y-74278127D01*
X187130452Y-73298019D01*
X187191775Y-73264534D01*
X187218133Y-73261700D01*
X190953885Y-73261700D01*
X191020924Y-73281385D01*
X191066679Y-73334189D01*
X191077174Y-73398955D01*
X191073501Y-73433117D01*
X191073500Y-73433136D01*
X191073500Y-74053870D01*
X191073501Y-74053876D01*
X191079908Y-74113483D01*
X191130202Y-74248328D01*
X191130206Y-74248335D01*
X191216452Y-74363544D01*
X191216455Y-74363547D01*
X191331664Y-74449793D01*
X191331671Y-74449797D01*
X191376618Y-74466561D01*
X191466517Y-74500091D01*
X191526127Y-74506500D01*
X192022166Y-74506499D01*
X192051612Y-74515145D01*
X192081593Y-74521667D01*
X192086606Y-74525419D01*
X192089205Y-74526183D01*
X192109847Y-74542818D01*
X192160848Y-74593819D01*
X192194333Y-74655142D01*
X192189349Y-74724834D01*
X192147477Y-74780767D01*
X192082013Y-74805184D01*
X192073167Y-74805500D01*
X191526129Y-74805500D01*
X191526123Y-74805501D01*
X191466516Y-74811908D01*
X191331671Y-74862202D01*
X191331664Y-74862206D01*
X191216455Y-74948452D01*
X191216452Y-74948455D01*
X191130206Y-75063664D01*
X191130202Y-75063671D01*
X191079910Y-75198513D01*
X191079909Y-75198517D01*
X191073500Y-75258127D01*
X191073500Y-75258134D01*
X191073500Y-75258135D01*
X191073500Y-75878870D01*
X191073501Y-75878876D01*
X191079908Y-75938483D01*
X191130202Y-76073328D01*
X191130206Y-76073335D01*
X191216452Y-76188544D01*
X191216455Y-76188547D01*
X191331664Y-76274793D01*
X191331673Y-76274798D01*
X191411574Y-76304598D01*
X191438826Y-76314763D01*
X191438832Y-76314765D01*
X191494766Y-76356635D01*
X191519184Y-76422099D01*
X191519500Y-76430947D01*
X191519500Y-79251390D01*
X191499815Y-79318429D01*
X191464391Y-79354492D01*
X191354345Y-79428022D01*
X191354341Y-79428025D01*
X191208024Y-79574342D01*
X191093058Y-79746403D01*
X191013870Y-79937579D01*
X191013868Y-79937587D01*
X190995946Y-80027687D01*
X190963561Y-80089598D01*
X190902845Y-80124172D01*
X190833076Y-80120433D01*
X190786648Y-80091177D01*
X189770819Y-79075348D01*
X189737334Y-79014025D01*
X189734500Y-78987667D01*
X189734500Y-75879583D01*
X189734500Y-75879581D01*
X189700119Y-75751270D01*
X189633701Y-75636230D01*
X188746819Y-74749348D01*
X188713334Y-74688025D01*
X188710500Y-74661667D01*
X188710500Y-74602079D01*
X188681659Y-74457092D01*
X188681658Y-74457091D01*
X188681658Y-74457087D01*
X188666946Y-74421569D01*
X188625087Y-74320511D01*
X188625080Y-74320498D01*
X188542951Y-74197584D01*
X188542948Y-74197580D01*
X188438419Y-74093051D01*
X188438415Y-74093048D01*
X188315501Y-74010919D01*
X188315488Y-74010912D01*
X188178917Y-73954343D01*
X188178907Y-73954340D01*
X188033920Y-73925500D01*
X188033918Y-73925500D01*
X187886082Y-73925500D01*
X187886080Y-73925500D01*
X187741092Y-73954340D01*
X187741082Y-73954343D01*
X187604511Y-74010912D01*
X187604498Y-74010919D01*
X187481584Y-74093048D01*
X187481580Y-74093051D01*
X187377051Y-74197580D01*
X187377048Y-74197584D01*
X187294919Y-74320498D01*
X187294912Y-74320511D01*
X187238343Y-74457082D01*
X187238340Y-74457092D01*
X187209500Y-74602079D01*
X187209500Y-74602082D01*
X187209500Y-74749918D01*
X187209500Y-74749920D01*
X187209499Y-74749920D01*
X187238340Y-74894907D01*
X187238343Y-74894917D01*
X187294912Y-75031488D01*
X187294919Y-75031501D01*
X187377048Y-75154415D01*
X187377051Y-75154419D01*
X187481580Y-75258948D01*
X187481584Y-75258951D01*
X187604498Y-75341080D01*
X187604511Y-75341087D01*
X187737270Y-75396077D01*
X187741087Y-75397658D01*
X187741091Y-75397658D01*
X187741092Y-75397659D01*
X187886079Y-75426500D01*
X187886082Y-75426500D01*
X187945667Y-75426500D01*
X188012706Y-75446185D01*
X188033348Y-75462819D01*
X188689181Y-76118652D01*
X188722666Y-76179975D01*
X188725500Y-76206333D01*
X188725500Y-79314419D01*
X188759881Y-79442730D01*
X188784191Y-79484837D01*
X188826299Y-79557770D01*
X191170230Y-81901701D01*
X191285271Y-81968120D01*
X191379197Y-81993286D01*
X191379199Y-81993287D01*
X191379200Y-81993287D01*
X191388413Y-81995755D01*
X191413581Y-82002500D01*
X195916416Y-82002500D01*
X195916419Y-82002500D01*
X196044730Y-81968119D01*
X196086837Y-81943808D01*
X196159770Y-81901701D01*
X196758856Y-81302613D01*
X196820177Y-81269130D01*
X196870724Y-81268679D01*
X196931544Y-81280776D01*
X197000532Y-81294500D01*
X197000535Y-81294500D01*
X197207466Y-81294500D01*
X197207467Y-81294499D01*
X197410420Y-81254130D01*
X197601598Y-81174941D01*
X197773655Y-81059977D01*
X197919977Y-80913655D01*
X198034941Y-80741598D01*
X198114130Y-80550420D01*
X198124633Y-80497616D01*
X198157017Y-80435707D01*
X198217732Y-80401133D01*
X198287502Y-80404872D01*
X198344174Y-80445738D01*
X198368723Y-80502411D01*
X198376009Y-80548417D01*
X198439244Y-80743031D01*
X198532140Y-80925349D01*
X198652417Y-81090894D01*
X198652417Y-81090895D01*
X198797104Y-81235582D01*
X198962650Y-81355859D01*
X199144968Y-81448754D01*
X199339578Y-81511988D01*
X199394000Y-81520607D01*
X199394000Y-80559686D01*
X199398394Y-80564080D01*
X199489606Y-80616741D01*
X199591339Y-80644000D01*
X199696661Y-80644000D01*
X199798394Y-80616741D01*
X199889606Y-80564080D01*
X199894000Y-80559686D01*
X199894000Y-81520606D01*
X199948421Y-81511988D01*
X200143031Y-81448754D01*
X200325349Y-81355859D01*
X200490894Y-81235582D01*
X200490895Y-81235582D01*
X200635582Y-81090895D01*
X200635582Y-81090894D01*
X200755859Y-80925349D01*
X200848755Y-80743031D01*
X200911988Y-80548422D01*
X200919275Y-80502413D01*
X200949204Y-80439278D01*
X201008515Y-80402346D01*
X201078377Y-80403342D01*
X201136611Y-80441951D01*
X201163366Y-80497617D01*
X201173868Y-80550414D01*
X201173870Y-80550420D01*
X201253059Y-80741598D01*
X201262442Y-80755641D01*
X201368024Y-80913657D01*
X201514342Y-81059975D01*
X201514345Y-81059977D01*
X201686402Y-81174941D01*
X201877580Y-81254130D01*
X202080530Y-81294499D01*
X202080534Y-81294500D01*
X202080535Y-81294500D01*
X202287466Y-81294500D01*
X202287467Y-81294499D01*
X202490420Y-81254130D01*
X202681598Y-81174941D01*
X202756610Y-81124819D01*
X202823286Y-81103942D01*
X202890667Y-81122426D01*
X202937357Y-81174405D01*
X202949500Y-81227922D01*
X202949500Y-84488266D01*
X202929815Y-84555305D01*
X202913181Y-84575947D01*
X200510302Y-86978825D01*
X200510301Y-86978826D01*
X200495077Y-87005197D01*
X200495062Y-87005222D01*
X200492912Y-87008944D01*
X200442335Y-87057148D01*
X200373725Y-87070356D01*
X200316649Y-87050023D01*
X200191287Y-86966260D01*
X200141598Y-86933059D01*
X200096032Y-86914185D01*
X199950420Y-86853870D01*
X199950412Y-86853868D01*
X199747469Y-86813500D01*
X199747465Y-86813500D01*
X199540535Y-86813500D01*
X199476676Y-86826201D01*
X199410725Y-86839320D01*
X199341134Y-86833091D01*
X199298854Y-86805383D01*
X195883572Y-83390101D01*
X195883570Y-83390099D01*
X195831337Y-83359942D01*
X195810638Y-83347991D01*
X195810637Y-83347991D01*
X195768530Y-83323681D01*
X195768531Y-83323681D01*
X195736452Y-83315085D01*
X195640219Y-83289300D01*
X195640216Y-83289300D01*
X190814700Y-83289300D01*
X190747661Y-83269615D01*
X190701906Y-83216811D01*
X190690700Y-83165300D01*
X190690700Y-82169783D01*
X190690700Y-82169781D01*
X190656319Y-82041470D01*
X190613970Y-81968119D01*
X190589903Y-81926433D01*
X190589899Y-81926428D01*
X183641345Y-74977874D01*
X183639644Y-74974758D01*
X183636626Y-74972887D01*
X183623021Y-74944317D01*
X183607860Y-74916551D01*
X183607663Y-74912065D01*
X183606587Y-74909804D01*
X183606880Y-74894162D01*
X183606021Y-74874515D01*
X183606565Y-74870239D01*
X183630500Y-74749918D01*
X183630500Y-74682461D01*
X183631495Y-74674655D01*
X183642471Y-74649564D01*
X183650185Y-74623294D01*
X183658450Y-74613037D01*
X183659498Y-74610642D01*
X183661400Y-74609375D01*
X183666819Y-74602652D01*
X186166652Y-72102819D01*
X186227975Y-72069334D01*
X186254333Y-72066500D01*
X186682353Y-72066500D01*
X186749392Y-72086185D01*
G37*
%TD.AperFunction*%
%TA.AperFunction,Conductor*%
G36*
X220332857Y-68278885D02*
G01*
X220353499Y-68295519D01*
X221389181Y-69331200D01*
X221422666Y-69392523D01*
X221425500Y-69418881D01*
X221425500Y-80943244D01*
X221405815Y-81010283D01*
X221375812Y-81042509D01*
X221352482Y-81059975D01*
X221322456Y-81082452D01*
X221322451Y-81082457D01*
X221236206Y-81197664D01*
X221236201Y-81197674D01*
X221228817Y-81217471D01*
X221186945Y-81273404D01*
X221121480Y-81297820D01*
X221053207Y-81282967D01*
X221003803Y-81233561D01*
X220994930Y-81213140D01*
X220964358Y-81120880D01*
X220964356Y-81120875D01*
X220872315Y-80971654D01*
X220748345Y-80847684D01*
X220599124Y-80755643D01*
X220599119Y-80755641D01*
X220432697Y-80700494D01*
X220432690Y-80700493D01*
X220329986Y-80690000D01*
X220280000Y-80690000D01*
X220280000Y-81791000D01*
X220260315Y-81858039D01*
X220207511Y-81903794D01*
X220156000Y-81915000D01*
X220030000Y-81915000D01*
X220030000Y-82041000D01*
X220010315Y-82108039D01*
X219957511Y-82153794D01*
X219906000Y-82165000D01*
X219030001Y-82165000D01*
X219030001Y-82439986D01*
X219040494Y-82542697D01*
X219074227Y-82644496D01*
X219075206Y-82672960D01*
X219079259Y-82701147D01*
X219076391Y-82707425D01*
X219076629Y-82714324D01*
X219062065Y-82738795D01*
X219050234Y-82764703D01*
X219044426Y-82768435D01*
X219040897Y-82774366D01*
X219015414Y-82787079D01*
X218991456Y-82802477D01*
X218981760Y-82803871D01*
X218978377Y-82805559D01*
X218956521Y-82807500D01*
X218954333Y-82807500D01*
X218887294Y-82787815D01*
X218866652Y-82771181D01*
X217485484Y-81390013D01*
X219030000Y-81390013D01*
X219030000Y-81665000D01*
X219780000Y-81665000D01*
X219780000Y-80690000D01*
X219779999Y-80689999D01*
X219730029Y-80690000D01*
X219730011Y-80690001D01*
X219627302Y-80700494D01*
X219460880Y-80755641D01*
X219460875Y-80755643D01*
X219311654Y-80847684D01*
X219187684Y-80971654D01*
X219095643Y-81120875D01*
X219095641Y-81120880D01*
X219040494Y-81287302D01*
X219040493Y-81287309D01*
X219030000Y-81390013D01*
X217485484Y-81390013D01*
X215170819Y-79075348D01*
X215156115Y-79048420D01*
X215139523Y-79022602D01*
X215138631Y-79016401D01*
X215137334Y-79014025D01*
X215134500Y-78987667D01*
X215134500Y-73907333D01*
X215154185Y-73840294D01*
X215206989Y-73794539D01*
X215276147Y-73784595D01*
X215339703Y-73813620D01*
X215346181Y-73819652D01*
X215473230Y-73946701D01*
X215539965Y-73985230D01*
X215588270Y-74013119D01*
X215716581Y-74047500D01*
X216187391Y-74047500D01*
X216254430Y-74067185D01*
X216290493Y-74102609D01*
X216364024Y-74212657D01*
X216510342Y-74358975D01*
X216510345Y-74358977D01*
X216682402Y-74473941D01*
X216873580Y-74553130D01*
X217051670Y-74588554D01*
X217076530Y-74593499D01*
X217076534Y-74593500D01*
X217076535Y-74593500D01*
X217283466Y-74593500D01*
X217283467Y-74593499D01*
X217486420Y-74553130D01*
X217677598Y-74473941D01*
X217768458Y-74413231D01*
X217830191Y-74371983D01*
X217896868Y-74351105D01*
X217964248Y-74369590D01*
X218010938Y-74421569D01*
X218022114Y-74490539D01*
X217994228Y-74554602D01*
X217986762Y-74562766D01*
X217525144Y-75024383D01*
X217463821Y-75057868D01*
X217413272Y-75058319D01*
X217283469Y-75032500D01*
X217283465Y-75032500D01*
X217076535Y-75032500D01*
X217076530Y-75032500D01*
X216873587Y-75072868D01*
X216873579Y-75072870D01*
X216682403Y-75152058D01*
X216510342Y-75267024D01*
X216364024Y-75413342D01*
X216249058Y-75585403D01*
X216169870Y-75776579D01*
X216169868Y-75776587D01*
X216129500Y-75979530D01*
X216129500Y-76186469D01*
X216169868Y-76389412D01*
X216169870Y-76389420D01*
X216249058Y-76580596D01*
X216364024Y-76752657D01*
X216510342Y-76898975D01*
X216510345Y-76898977D01*
X216682402Y-77013941D01*
X216873580Y-77093130D01*
X216903696Y-77099120D01*
X216926381Y-77103633D01*
X216988292Y-77136017D01*
X217022866Y-77196733D01*
X217019127Y-77266502D01*
X216978261Y-77323175D01*
X216921589Y-77347723D01*
X216875581Y-77355010D01*
X216680968Y-77418244D01*
X216498650Y-77511140D01*
X216333105Y-77631417D01*
X216333104Y-77631417D01*
X216188417Y-77776104D01*
X216188417Y-77776105D01*
X216068140Y-77941650D01*
X215975244Y-78123970D01*
X215912009Y-78318586D01*
X215903391Y-78373000D01*
X216864314Y-78373000D01*
X216859920Y-78377394D01*
X216807259Y-78468606D01*
X216780000Y-78570339D01*
X216780000Y-78675661D01*
X216807259Y-78777394D01*
X216859920Y-78868606D01*
X216864314Y-78873000D01*
X215903391Y-78873000D01*
X215912009Y-78927413D01*
X215975244Y-79122029D01*
X216068140Y-79304349D01*
X216188417Y-79469894D01*
X216188417Y-79469895D01*
X216333104Y-79614582D01*
X216498650Y-79734859D01*
X216680968Y-79827754D01*
X216875578Y-79890988D01*
X216930000Y-79899607D01*
X216930000Y-78938686D01*
X216934394Y-78943080D01*
X217025606Y-78995741D01*
X217127339Y-79023000D01*
X217232661Y-79023000D01*
X217334394Y-78995741D01*
X217425606Y-78943080D01*
X217430000Y-78938686D01*
X217430000Y-79899606D01*
X217484421Y-79890988D01*
X217679031Y-79827754D01*
X217861349Y-79734859D01*
X218026894Y-79614582D01*
X218026895Y-79614582D01*
X218171582Y-79469895D01*
X218171582Y-79469894D01*
X218291859Y-79304349D01*
X218384755Y-79122029D01*
X218447990Y-78927413D01*
X218456609Y-78873000D01*
X217495686Y-78873000D01*
X217500080Y-78868606D01*
X217552741Y-78777394D01*
X217580000Y-78675661D01*
X217580000Y-78570339D01*
X217552741Y-78468606D01*
X217500080Y-78377394D01*
X217495686Y-78373000D01*
X218456609Y-78373000D01*
X218447990Y-78318586D01*
X218384755Y-78123970D01*
X218291859Y-77941650D01*
X218171582Y-77776105D01*
X218171582Y-77776104D01*
X218026895Y-77631417D01*
X217861349Y-77511140D01*
X217679031Y-77418244D01*
X217484417Y-77355009D01*
X217438411Y-77347723D01*
X217375276Y-77317794D01*
X217338345Y-77258482D01*
X217339343Y-77188619D01*
X217377953Y-77130387D01*
X217433616Y-77103633D01*
X217486420Y-77093130D01*
X217677598Y-77013941D01*
X217849655Y-76898977D01*
X217995977Y-76752655D01*
X218110941Y-76580598D01*
X218190130Y-76389420D01*
X218230500Y-76186465D01*
X218230500Y-75979535D01*
X218230500Y-75979534D01*
X218230500Y-75979532D01*
X218214543Y-75899314D01*
X218204679Y-75849725D01*
X218210906Y-75780136D01*
X218238613Y-75737856D01*
X220113700Y-73862770D01*
X220180119Y-73747730D01*
X220214500Y-73619419D01*
X220214500Y-69783581D01*
X220180119Y-69655270D01*
X220113700Y-69540230D01*
X220019770Y-69446300D01*
X219533469Y-68959999D01*
X219044352Y-68470881D01*
X219010867Y-68409558D01*
X219015851Y-68339866D01*
X219057723Y-68283933D01*
X219123187Y-68259516D01*
X219132033Y-68259200D01*
X220265818Y-68259200D01*
X220332857Y-68278885D01*
G37*
%TD.AperFunction*%
%TA.AperFunction,Conductor*%
G36*
X200418924Y-73281385D02*
G01*
X200464679Y-73334189D01*
X200475174Y-73398955D01*
X200471501Y-73433117D01*
X200471500Y-73433136D01*
X200471500Y-74053870D01*
X200471501Y-74053876D01*
X200477908Y-74113483D01*
X200528202Y-74248328D01*
X200528206Y-74248335D01*
X200614452Y-74363544D01*
X200614455Y-74363547D01*
X200729664Y-74449793D01*
X200729671Y-74449797D01*
X200864517Y-74500091D01*
X200864516Y-74500091D01*
X200871444Y-74500835D01*
X200924127Y-74506500D01*
X201919872Y-74506499D01*
X201979483Y-74500091D01*
X202114331Y-74449796D01*
X202229546Y-74363546D01*
X202278847Y-74297688D01*
X202282502Y-74294951D01*
X202284400Y-74290797D01*
X202310214Y-74274206D01*
X202334780Y-74255818D01*
X202340409Y-74254802D01*
X202343178Y-74253023D01*
X202378113Y-74248000D01*
X202554414Y-74248000D01*
X202621453Y-74267685D01*
X202642095Y-74284319D01*
X202670185Y-74312409D01*
X202697247Y-74328033D01*
X202745462Y-74378601D01*
X202758684Y-74447208D01*
X202732716Y-74512072D01*
X202722928Y-74523101D01*
X202632498Y-74613531D01*
X202632495Y-74613536D01*
X202590390Y-74686460D01*
X202590391Y-74686461D01*
X202566082Y-74728565D01*
X202560361Y-74749918D01*
X202531700Y-74856881D01*
X202531700Y-74856883D01*
X202531700Y-74979522D01*
X202512015Y-75046561D01*
X202459211Y-75092316D01*
X202390053Y-75102260D01*
X202326497Y-75073235D01*
X202308434Y-75053834D01*
X202269685Y-75002073D01*
X202229546Y-74948454D01*
X202229544Y-74948453D01*
X202229544Y-74948452D01*
X202114335Y-74862206D01*
X202114328Y-74862202D01*
X201979482Y-74811908D01*
X201979483Y-74811908D01*
X201919883Y-74805501D01*
X201919881Y-74805500D01*
X201919873Y-74805500D01*
X201919864Y-74805500D01*
X200924129Y-74805500D01*
X200924123Y-74805501D01*
X200864516Y-74811908D01*
X200729671Y-74862202D01*
X200729664Y-74862206D01*
X200614455Y-74948452D01*
X200614452Y-74948455D01*
X200528206Y-75063664D01*
X200528202Y-75063671D01*
X200477910Y-75198513D01*
X200477909Y-75198517D01*
X200471500Y-75258127D01*
X200471500Y-75258134D01*
X200471500Y-75258135D01*
X200471500Y-75878870D01*
X200471501Y-75878876D01*
X200477908Y-75938483D01*
X200528202Y-76073328D01*
X200528206Y-76073335D01*
X200614452Y-76188544D01*
X200614455Y-76188547D01*
X200729664Y-76274793D01*
X200729673Y-76274798D01*
X200809574Y-76304598D01*
X200836826Y-76314763D01*
X200836832Y-76314765D01*
X200892766Y-76356635D01*
X200917184Y-76422099D01*
X200917500Y-76430947D01*
X200917500Y-78240419D01*
X200951881Y-78368730D01*
X200976191Y-78410837D01*
X201018299Y-78483770D01*
X201018301Y-78483772D01*
X201643181Y-79108652D01*
X201657884Y-79135579D01*
X201674477Y-79161398D01*
X201675368Y-79167598D01*
X201676666Y-79169975D01*
X201679500Y-79196333D01*
X201679500Y-79251390D01*
X201659815Y-79318429D01*
X201624391Y-79354492D01*
X201514345Y-79428022D01*
X201514341Y-79428025D01*
X201368024Y-79574342D01*
X201253058Y-79746403D01*
X201173870Y-79937579D01*
X201173868Y-79937584D01*
X201163366Y-79990383D01*
X201130980Y-80052293D01*
X201070264Y-80086867D01*
X201000495Y-80083126D01*
X200943823Y-80042259D01*
X200919275Y-79985586D01*
X200911988Y-79939577D01*
X200848755Y-79744968D01*
X200755859Y-79562650D01*
X200635582Y-79397105D01*
X200635582Y-79397104D01*
X200490895Y-79252417D01*
X200325349Y-79132140D01*
X200143029Y-79039244D01*
X199948413Y-78976009D01*
X199894000Y-78967390D01*
X199894000Y-79928314D01*
X199889606Y-79923920D01*
X199798394Y-79871259D01*
X199696661Y-79844000D01*
X199591339Y-79844000D01*
X199489606Y-79871259D01*
X199398394Y-79923920D01*
X199394000Y-79928314D01*
X199394000Y-78967390D01*
X199339586Y-78976009D01*
X199144970Y-79039244D01*
X198962650Y-79132140D01*
X198797105Y-79252417D01*
X198797104Y-79252417D01*
X198652417Y-79397104D01*
X198652417Y-79397105D01*
X198532140Y-79562650D01*
X198439244Y-79744968D01*
X198376010Y-79939581D01*
X198368723Y-79985589D01*
X198338793Y-80048723D01*
X198279481Y-80085654D01*
X198209619Y-80084656D01*
X198151386Y-80046046D01*
X198124633Y-79990381D01*
X198114131Y-79937587D01*
X198114130Y-79937580D01*
X198034941Y-79746402D01*
X197919977Y-79574345D01*
X197919975Y-79574342D01*
X197773658Y-79428025D01*
X197773654Y-79428022D01*
X197663609Y-79354492D01*
X197658518Y-79348400D01*
X197651297Y-79345103D01*
X197636433Y-79321975D01*
X197618804Y-79300880D01*
X197616852Y-79291505D01*
X197613523Y-79286325D01*
X197608500Y-79251390D01*
X197608500Y-79196333D01*
X197628185Y-79129294D01*
X197644819Y-79108652D01*
X198629501Y-78123970D01*
X199683701Y-77069770D01*
X199725808Y-76996837D01*
X199750119Y-76954730D01*
X199784500Y-76826419D01*
X199784500Y-74837081D01*
X199750119Y-74708770D01*
X199725808Y-74666662D01*
X199683701Y-74593730D01*
X199106818Y-74016847D01*
X199073333Y-73955524D01*
X199070499Y-73929166D01*
X199070499Y-73433129D01*
X199070499Y-73433128D01*
X199066825Y-73398953D01*
X199079231Y-73330195D01*
X199126842Y-73279058D01*
X199190115Y-73261700D01*
X200351885Y-73261700D01*
X200418924Y-73281385D01*
G37*
%TD.AperFunction*%
%TA.AperFunction,Conductor*%
G36*
X192084706Y-62754185D02*
G01*
X192105348Y-62770819D01*
X194531181Y-65196652D01*
X194564666Y-65257975D01*
X194567500Y-65284333D01*
X194567500Y-67376418D01*
X194601880Y-67504729D01*
X194613871Y-67525496D01*
X194613872Y-67525500D01*
X194613873Y-67525500D01*
X194668299Y-67619770D01*
X195523849Y-68475320D01*
X195557334Y-68536642D01*
X195552350Y-68606333D01*
X195510478Y-68662267D01*
X195445014Y-68686684D01*
X195436168Y-68687000D01*
X195322000Y-68687000D01*
X195322000Y-69449500D01*
X196271997Y-69449500D01*
X196297332Y-69424165D01*
X196358655Y-69390680D01*
X196428347Y-69395664D01*
X196472695Y-69424165D01*
X198214349Y-71165819D01*
X198247834Y-71227142D01*
X198242850Y-71296834D01*
X198200978Y-71352767D01*
X198135514Y-71377184D01*
X198126668Y-71377500D01*
X196146499Y-71377500D01*
X196079460Y-71357815D01*
X196033705Y-71305011D01*
X196022499Y-71253500D01*
X196022499Y-71214129D01*
X196022498Y-71214123D01*
X196016091Y-71154516D01*
X195965797Y-71019671D01*
X195965793Y-71019664D01*
X195879547Y-70904455D01*
X195872973Y-70899534D01*
X195818157Y-70858498D01*
X195776287Y-70802564D01*
X195771303Y-70732872D01*
X195804789Y-70671550D01*
X195835090Y-70650335D01*
X195834975Y-70650149D01*
X195838189Y-70648166D01*
X195840081Y-70646842D01*
X195841126Y-70646354D01*
X195990345Y-70554315D01*
X196114315Y-70430345D01*
X196206356Y-70281124D01*
X196206358Y-70281119D01*
X196261505Y-70114697D01*
X196261506Y-70114690D01*
X196271999Y-70011986D01*
X196272000Y-70011973D01*
X196272000Y-69949500D01*
X195196000Y-69949500D01*
X195128961Y-69929815D01*
X195083206Y-69877011D01*
X195072000Y-69825500D01*
X195072000Y-69699500D01*
X194946000Y-69699500D01*
X194878961Y-69679815D01*
X194833206Y-69627011D01*
X194822000Y-69575500D01*
X194822000Y-68687000D01*
X194572029Y-68687000D01*
X194572012Y-68687001D01*
X194469302Y-68697494D01*
X194302880Y-68752641D01*
X194302871Y-68752646D01*
X194241596Y-68790440D01*
X194174203Y-68808880D01*
X194107540Y-68787957D01*
X194062771Y-68734314D01*
X194052500Y-68684901D01*
X194052500Y-65465583D01*
X194052500Y-65465581D01*
X194018119Y-65337270D01*
X194018115Y-65337263D01*
X194000334Y-65306464D01*
X194000334Y-65306465D01*
X193951703Y-65222233D01*
X193951699Y-65222228D01*
X193055772Y-64326301D01*
X193055770Y-64326299D01*
X193030320Y-64311605D01*
X192982838Y-64284191D01*
X192982837Y-64284191D01*
X192940730Y-64259881D01*
X192940731Y-64259881D01*
X192908652Y-64251285D01*
X192812419Y-64225500D01*
X192812416Y-64225500D01*
X187682609Y-64225500D01*
X187615570Y-64205815D01*
X187579507Y-64170391D01*
X187505975Y-64060342D01*
X187359657Y-63914024D01*
X187237287Y-63832260D01*
X187187598Y-63799059D01*
X186996420Y-63719870D01*
X186996412Y-63719868D01*
X186793469Y-63679500D01*
X186793465Y-63679500D01*
X186586535Y-63679500D01*
X186586530Y-63679500D01*
X186383587Y-63719868D01*
X186383579Y-63719870D01*
X186192403Y-63799058D01*
X186020342Y-63914024D01*
X185874024Y-64060342D01*
X185759058Y-64232403D01*
X185679870Y-64423579D01*
X185679868Y-64423587D01*
X185639500Y-64626530D01*
X185639500Y-64833469D01*
X185679868Y-65036412D01*
X185679870Y-65036420D01*
X185759058Y-65227596D01*
X185874024Y-65399657D01*
X186020342Y-65545975D01*
X186020345Y-65545977D01*
X186192402Y-65660941D01*
X186383580Y-65740130D01*
X186586530Y-65780499D01*
X186586534Y-65780500D01*
X186586535Y-65780500D01*
X186793466Y-65780500D01*
X186793467Y-65780499D01*
X186996420Y-65740130D01*
X187187598Y-65660941D01*
X187359655Y-65545977D01*
X187505977Y-65399655D01*
X187568245Y-65306464D01*
X187579507Y-65289609D01*
X187633119Y-65244804D01*
X187682609Y-65234500D01*
X192485667Y-65234500D01*
X192552706Y-65254185D01*
X192573348Y-65270819D01*
X193007181Y-65704652D01*
X193040666Y-65765975D01*
X193043500Y-65792333D01*
X193043500Y-68992046D01*
X193023815Y-69059085D01*
X192971011Y-69104840D01*
X192901853Y-69114784D01*
X192838297Y-69085759D01*
X192831819Y-69079727D01*
X192831544Y-69079452D01*
X192716335Y-68993206D01*
X192716328Y-68993202D01*
X192581482Y-68942908D01*
X192581483Y-68942908D01*
X192521883Y-68936501D01*
X192521881Y-68936500D01*
X192521873Y-68936500D01*
X192521864Y-68936500D01*
X191526129Y-68936500D01*
X191526123Y-68936501D01*
X191466516Y-68942908D01*
X191331671Y-68993202D01*
X191331664Y-68993206D01*
X191216455Y-69079452D01*
X191216452Y-69079455D01*
X191130206Y-69194664D01*
X191130202Y-69194671D01*
X191079908Y-69329517D01*
X191073501Y-69389116D01*
X191073500Y-69389135D01*
X191073500Y-69885166D01*
X191053815Y-69952205D01*
X191037181Y-69972847D01*
X189988848Y-71021181D01*
X189961920Y-71035884D01*
X189936102Y-71052477D01*
X189929901Y-71053368D01*
X189927525Y-71054666D01*
X189901167Y-71057500D01*
X189759756Y-71057500D01*
X189692717Y-71037815D01*
X189660490Y-71007812D01*
X189641057Y-70981853D01*
X189620546Y-70954454D01*
X189620544Y-70954453D01*
X189620544Y-70954452D01*
X189505335Y-70868206D01*
X189505329Y-70868203D01*
X189485529Y-70860818D01*
X189429596Y-70818946D01*
X189405179Y-70753482D01*
X189420031Y-70685209D01*
X189469437Y-70635804D01*
X189489860Y-70626930D01*
X189582117Y-70596359D01*
X189582124Y-70596356D01*
X189731345Y-70504315D01*
X189855315Y-70380345D01*
X189947356Y-70231124D01*
X189947358Y-70231119D01*
X190002505Y-70064697D01*
X190002506Y-70064690D01*
X190012999Y-69961986D01*
X190013000Y-69961973D01*
X190013000Y-69912000D01*
X187563001Y-69912000D01*
X187563001Y-69961986D01*
X187573494Y-70064697D01*
X187628641Y-70231119D01*
X187628643Y-70231124D01*
X187720684Y-70380345D01*
X187844654Y-70504315D01*
X187993875Y-70596356D01*
X187993880Y-70596358D01*
X188086140Y-70626930D01*
X188143585Y-70666702D01*
X188170408Y-70731218D01*
X188158093Y-70799994D01*
X188110550Y-70851194D01*
X188090471Y-70860817D01*
X188070674Y-70868201D01*
X188070664Y-70868206D01*
X187955455Y-70954452D01*
X187915510Y-71007812D01*
X187859576Y-71049682D01*
X187816244Y-71057500D01*
X185927581Y-71057500D01*
X185799270Y-71091881D01*
X185799269Y-71091881D01*
X185799267Y-71091882D01*
X185784913Y-71100170D01*
X185774010Y-71106465D01*
X185749413Y-71120666D01*
X185684231Y-71158298D01*
X185684228Y-71158300D01*
X183596181Y-73246348D01*
X183534858Y-73279833D01*
X183465166Y-73274849D01*
X183409233Y-73232977D01*
X183384816Y-73167513D01*
X183384500Y-73158667D01*
X183384500Y-71474712D01*
X183404185Y-71407673D01*
X183420815Y-71387035D01*
X183997981Y-70809868D01*
X183998016Y-70809842D01*
X183998027Y-70809822D01*
X183998032Y-70809817D01*
X183998191Y-70809711D01*
X184026296Y-70788685D01*
X184037700Y-70782466D01*
X184042730Y-70781119D01*
X184084837Y-70756808D01*
X184157770Y-70714701D01*
X184807701Y-70064770D01*
X184864128Y-69967034D01*
X184874119Y-69949730D01*
X184908500Y-69821419D01*
X184908500Y-69362013D01*
X187563000Y-69362013D01*
X187563000Y-69412000D01*
X188538000Y-69412000D01*
X189038000Y-69412000D01*
X190012999Y-69412000D01*
X190012999Y-69362028D01*
X190012998Y-69362013D01*
X190002505Y-69259302D01*
X189947358Y-69092880D01*
X189947356Y-69092875D01*
X189855315Y-68943654D01*
X189731345Y-68819684D01*
X189582124Y-68727643D01*
X189582119Y-68727641D01*
X189415697Y-68672494D01*
X189415690Y-68672493D01*
X189312986Y-68662000D01*
X189038000Y-68662000D01*
X189038000Y-69412000D01*
X188538000Y-69412000D01*
X188538000Y-68662000D01*
X188263029Y-68662000D01*
X188263012Y-68662001D01*
X188160302Y-68672494D01*
X187993880Y-68727641D01*
X187993875Y-68727643D01*
X187844654Y-68819684D01*
X187720684Y-68943654D01*
X187628643Y-69092875D01*
X187628641Y-69092880D01*
X187573494Y-69259302D01*
X187573493Y-69259309D01*
X187563000Y-69362013D01*
X184908500Y-69362013D01*
X184908500Y-63760333D01*
X184928185Y-63693294D01*
X184944819Y-63672652D01*
X185183890Y-63433581D01*
X185481385Y-63136085D01*
X185542706Y-63102602D01*
X185612397Y-63107586D01*
X185668331Y-63149457D01*
X185672166Y-63154878D01*
X185709397Y-63210599D01*
X185709398Y-63210599D01*
X185709399Y-63210601D01*
X185788062Y-63263161D01*
X185792260Y-63265966D01*
X185792264Y-63265967D01*
X185865321Y-63280499D01*
X185865324Y-63280500D01*
X185865326Y-63280500D01*
X187514676Y-63280500D01*
X187514677Y-63280499D01*
X187587740Y-63265966D01*
X187670601Y-63210601D01*
X187725966Y-63127740D01*
X187740500Y-63054674D01*
X187740500Y-62858500D01*
X187760185Y-62791461D01*
X187812989Y-62745706D01*
X187864500Y-62734500D01*
X192017667Y-62734500D01*
X192084706Y-62754185D01*
G37*
%TD.AperFunction*%
%TD*%
M02*
