M48
; DRILL file {KiCad 9.0.0} date 2025-03-31T20:13:27-0400
; FORMAT={-:-/ absolute / metric / decimal}
; #@! TF.CreationDate,2025-03-31T20:13:27-04:00
; #@! TF.GenerationSoftware,Kicad,Pcbnew,9.0.0
; #@! TF.FileFunction,Plated,1,2,PTH
FMAT,2
METRIC
; #@! TA.AperFunction,Plated,PTH,ViaDrill
T1C0.300
; #@! TA.AperFunction,Plated,PTH,ComponentDrill
T2C0.800
; #@! TA.AperFunction,Plated,PTH,ComponentDrill
T3C0.900
; #@! TA.AperFunction,Plated,PTH,ComponentDrill
T4C1.000
; #@! TA.AperFunction,Plated,PTH,ComponentDrill
T5C1.100
; #@! TA.AperFunction,Plated,PTH,ComponentDrill
T6C1.200
%
G90
G05
T1
X174.096Y-66.065
X174.096Y-71.065
X174.096Y-76.065
X174.096Y-81.065
X174.096Y-91.065
X174.096Y-96.065
X174.096Y-101.065
X174.096Y-106.065
X174.096Y-111.065
X174.096Y-116.065
X179.096Y-66.065
X179.096Y-76.065
X179.096Y-81.065
X179.096Y-96.065
X179.096Y-101.065
X179.096Y-106.065
X179.096Y-116.065
X184.096Y-61.065
X184.096Y-71.065
X184.096Y-81.065
X184.096Y-116.065
X188.595Y-81.915
X189.096Y-61.065
X189.096Y-66.065
X189.096Y-86.065
X189.096Y-91.065
X189.096Y-96.065
X189.096Y-101.065
X189.096Y-106.065
X194.096Y-61.065
X194.096Y-86.065
X194.096Y-101.065
X194.096Y-106.065
X194.096Y-116.065
X196.541Y-76.027
X196.672Y-94.604
X199.096Y-61.065
X199.096Y-96.065
X199.096Y-116.065
X203.008Y-73.872
X204.096Y-86.065
X204.096Y-101.065
X204.096Y-106.065
X207.304Y-112.347
X209.096Y-61.065
X209.096Y-66.065
X209.096Y-81.065
X209.096Y-86.065
X209.096Y-91.065
X209.096Y-96.065
X209.096Y-116.065
X210.82Y-110.847
X213.106Y-68.834
X214.096Y-91.065
X214.096Y-101.065
X214.096Y-106.065
X214.096Y-116.065
X219.096Y-61.065
X219.096Y-66.065
X219.096Y-76.065
X219.096Y-96.065
X219.096Y-101.065
X219.096Y-106.065
X219.096Y-111.065
X224.096Y-61.065
X224.096Y-81.065
X224.096Y-86.065
X224.096Y-91.065
X224.096Y-96.065
X224.096Y-101.065
X224.096Y-106.065
X224.096Y-116.065
T2
X178.34Y-110.068
X179.09Y-89.068
X181.59Y-89.068
X182.34Y-110.068
X186.69Y-62.23
X186.69Y-64.73
X191.516Y-100.096
X191.516Y-105.096
X192.024Y-80.244
X192.024Y-87.864
X194.564Y-80.244
X194.564Y-87.864
X197.104Y-80.244
X197.104Y-87.864
X199.644Y-80.244
X199.644Y-87.864
X200.152Y-100.076
X200.152Y-102.616
X200.152Y-105.156
X202.184Y-80.244
X202.184Y-87.864
X204.724Y-80.244
X204.724Y-87.864
X207.264Y-80.244
X207.264Y-87.864
X208.28Y-100.096
X208.28Y-105.096
X213.995Y-62.23
X213.995Y-64.73
X217.18Y-71.003
X217.18Y-73.543
X217.18Y-76.083
X217.18Y-78.623
X224.8Y-71.003
X224.8Y-73.543
X224.8Y-76.083
X224.8Y-78.623
T3
X198.12Y-113.03
X199.39Y-113.03
X200.66Y-113.03
X201.93Y-113.03
T4
X193.802Y-119.38
X196.342Y-119.38
X198.882Y-119.38
X201.422Y-119.38
X203.962Y-119.38
X206.502Y-119.38
T5
X207.264Y-60.706
X207.264Y-68.326
X216.024Y-90.17
X216.024Y-97.79
X219.964Y-90.17
X219.964Y-97.79
T6
X175.34Y-85.08
X180.34Y-85.08
X185.34Y-85.08
X215.98Y-85.08
X220.98Y-85.08
X225.98Y-85.08
M30
