%TF.GenerationSoftware,KiCad,Pcbnew,9.0.0*%
%TF.CreationDate,2025-03-31T20:13:35-04:00*%
%TF.ProjectId,compulator,636f6d70-756c-4617-946f-722e6b696361,rev?*%
%TF.SameCoordinates,Original*%
%TF.FileFunction,Soldermask,Top*%
%TF.FilePolarity,Negative*%
%FSLAX46Y46*%
G04 Gerber Fmt 4.6, Leading zero omitted, Abs format (unit mm)*
G04 Created by KiCad (PCBNEW 9.0.0) date 2025-03-31 20:13:35*
%MOMM*%
%LPD*%
G01*
G04 APERTURE LIST*
G04 Aperture macros list*
%AMRoundRect*
0 Rectangle with rounded corners*
0 $1 Rounding radius*
0 $2 $3 $4 $5 $6 $7 $8 $9 X,Y pos of 4 corners*
0 Add a 4 corners polygon primitive as box body*
4,1,4,$2,$3,$4,$5,$6,$7,$8,$9,$2,$3,0*
0 Add four circle primitives for the rounded corners*
1,1,$1+$1,$2,$3*
1,1,$1+$1,$4,$5*
1,1,$1+$1,$6,$7*
1,1,$1+$1,$8,$9*
0 Add four rect primitives between the rounded corners*
20,1,$1+$1,$2,$3,$4,$5,0*
20,1,$1+$1,$4,$5,$6,$7,0*
20,1,$1+$1,$6,$7,$8,$9,0*
20,1,$1+$1,$8,$9,$2,$3,0*%
G04 Aperture macros list end*
%ADD10C,0.300000*%
%ADD11C,1.440000*%
%ADD12RoundRect,0.250000X-0.450000X0.262500X-0.450000X-0.262500X0.450000X-0.262500X0.450000X0.262500X0*%
%ADD13RoundRect,0.250000X0.450000X-0.262500X0.450000X0.262500X-0.450000X0.262500X-0.450000X-0.262500X0*%
%ADD14R,1.600000X1.600000*%
%ADD15C,1.600000*%
%ADD16R,2.200000X2.200000*%
%ADD17O,2.200000X2.200000*%
%ADD18C,1.000000*%
%ADD19RoundRect,0.250000X-0.250000X-0.475000X0.250000X-0.475000X0.250000X0.475000X-0.250000X0.475000X0*%
%ADD20O,1.600000X1.600000*%
%ADD21RoundRect,0.102000X0.500000X1.750000X-0.500000X1.750000X-0.500000X-1.750000X0.500000X-1.750000X0*%
%ADD22RoundRect,0.102000X0.750000X1.700000X-0.750000X1.700000X-0.750000X-1.700000X0.750000X-1.700000X0*%
%ADD23RoundRect,0.250000X-0.475000X0.250000X-0.475000X-0.250000X0.475000X-0.250000X0.475000X0.250000X0*%
%ADD24C,1.500000*%
%ADD25R,1.070000X1.800000*%
%ADD26O,1.070000X1.800000*%
%ADD27R,1.700000X1.700000*%
%ADD28O,1.700000X1.700000*%
%ADD29C,2.500000*%
G04 APERTURE END LIST*
D10*
X173282368Y-119744400D02*
X173139510Y-119815828D01*
X173139510Y-119815828D02*
X172853796Y-119815828D01*
X172853796Y-119815828D02*
X172710939Y-119744400D01*
X172710939Y-119744400D02*
X172639510Y-119672971D01*
X172639510Y-119672971D02*
X172568082Y-119530114D01*
X172568082Y-119530114D02*
X172568082Y-119101542D01*
X172568082Y-119101542D02*
X172639510Y-118958685D01*
X172639510Y-118958685D02*
X172710939Y-118887257D01*
X172710939Y-118887257D02*
X172853796Y-118815828D01*
X172853796Y-118815828D02*
X173139510Y-118815828D01*
X173139510Y-118815828D02*
X173282368Y-118887257D01*
X174139510Y-119815828D02*
X173996653Y-119744400D01*
X173996653Y-119744400D02*
X173925224Y-119672971D01*
X173925224Y-119672971D02*
X173853796Y-119530114D01*
X173853796Y-119530114D02*
X173853796Y-119101542D01*
X173853796Y-119101542D02*
X173925224Y-118958685D01*
X173925224Y-118958685D02*
X173996653Y-118887257D01*
X173996653Y-118887257D02*
X174139510Y-118815828D01*
X174139510Y-118815828D02*
X174353796Y-118815828D01*
X174353796Y-118815828D02*
X174496653Y-118887257D01*
X174496653Y-118887257D02*
X174568082Y-118958685D01*
X174568082Y-118958685D02*
X174639510Y-119101542D01*
X174639510Y-119101542D02*
X174639510Y-119530114D01*
X174639510Y-119530114D02*
X174568082Y-119672971D01*
X174568082Y-119672971D02*
X174496653Y-119744400D01*
X174496653Y-119744400D02*
X174353796Y-119815828D01*
X174353796Y-119815828D02*
X174139510Y-119815828D01*
X175282367Y-119815828D02*
X175282367Y-118815828D01*
X175282367Y-118958685D02*
X175353796Y-118887257D01*
X175353796Y-118887257D02*
X175496653Y-118815828D01*
X175496653Y-118815828D02*
X175710939Y-118815828D01*
X175710939Y-118815828D02*
X175853796Y-118887257D01*
X175853796Y-118887257D02*
X175925225Y-119030114D01*
X175925225Y-119030114D02*
X175925225Y-119815828D01*
X175925225Y-119030114D02*
X175996653Y-118887257D01*
X175996653Y-118887257D02*
X176139510Y-118815828D01*
X176139510Y-118815828D02*
X176353796Y-118815828D01*
X176353796Y-118815828D02*
X176496653Y-118887257D01*
X176496653Y-118887257D02*
X176568082Y-119030114D01*
X176568082Y-119030114D02*
X176568082Y-119815828D01*
X177282367Y-118815828D02*
X177282367Y-120315828D01*
X177282367Y-118887257D02*
X177425225Y-118815828D01*
X177425225Y-118815828D02*
X177710939Y-118815828D01*
X177710939Y-118815828D02*
X177853796Y-118887257D01*
X177853796Y-118887257D02*
X177925225Y-118958685D01*
X177925225Y-118958685D02*
X177996653Y-119101542D01*
X177996653Y-119101542D02*
X177996653Y-119530114D01*
X177996653Y-119530114D02*
X177925225Y-119672971D01*
X177925225Y-119672971D02*
X177853796Y-119744400D01*
X177853796Y-119744400D02*
X177710939Y-119815828D01*
X177710939Y-119815828D02*
X177425225Y-119815828D01*
X177425225Y-119815828D02*
X177282367Y-119744400D01*
X178639510Y-119815828D02*
X178639510Y-118815828D01*
X178639510Y-119101542D02*
X178710939Y-118958685D01*
X178710939Y-118958685D02*
X178782368Y-118887257D01*
X178782368Y-118887257D02*
X178925225Y-118815828D01*
X178925225Y-118815828D02*
X179068082Y-118815828D01*
X180139510Y-119744400D02*
X179996653Y-119815828D01*
X179996653Y-119815828D02*
X179710939Y-119815828D01*
X179710939Y-119815828D02*
X179568081Y-119744400D01*
X179568081Y-119744400D02*
X179496653Y-119601542D01*
X179496653Y-119601542D02*
X179496653Y-119030114D01*
X179496653Y-119030114D02*
X179568081Y-118887257D01*
X179568081Y-118887257D02*
X179710939Y-118815828D01*
X179710939Y-118815828D02*
X179996653Y-118815828D01*
X179996653Y-118815828D02*
X180139510Y-118887257D01*
X180139510Y-118887257D02*
X180210939Y-119030114D01*
X180210939Y-119030114D02*
X180210939Y-119172971D01*
X180210939Y-119172971D02*
X179496653Y-119315828D01*
X180782367Y-119744400D02*
X180925224Y-119815828D01*
X180925224Y-119815828D02*
X181210938Y-119815828D01*
X181210938Y-119815828D02*
X181353795Y-119744400D01*
X181353795Y-119744400D02*
X181425224Y-119601542D01*
X181425224Y-119601542D02*
X181425224Y-119530114D01*
X181425224Y-119530114D02*
X181353795Y-119387257D01*
X181353795Y-119387257D02*
X181210938Y-119315828D01*
X181210938Y-119315828D02*
X180996653Y-119315828D01*
X180996653Y-119315828D02*
X180853795Y-119244400D01*
X180853795Y-119244400D02*
X180782367Y-119101542D01*
X180782367Y-119101542D02*
X180782367Y-119030114D01*
X180782367Y-119030114D02*
X180853795Y-118887257D01*
X180853795Y-118887257D02*
X180996653Y-118815828D01*
X180996653Y-118815828D02*
X181210938Y-118815828D01*
X181210938Y-118815828D02*
X181353795Y-118887257D01*
X181996653Y-119744400D02*
X182139510Y-119815828D01*
X182139510Y-119815828D02*
X182425224Y-119815828D01*
X182425224Y-119815828D02*
X182568081Y-119744400D01*
X182568081Y-119744400D02*
X182639510Y-119601542D01*
X182639510Y-119601542D02*
X182639510Y-119530114D01*
X182639510Y-119530114D02*
X182568081Y-119387257D01*
X182568081Y-119387257D02*
X182425224Y-119315828D01*
X182425224Y-119315828D02*
X182210939Y-119315828D01*
X182210939Y-119315828D02*
X182068081Y-119244400D01*
X182068081Y-119244400D02*
X181996653Y-119101542D01*
X181996653Y-119101542D02*
X181996653Y-119030114D01*
X181996653Y-119030114D02*
X182068081Y-118887257D01*
X182068081Y-118887257D02*
X182210939Y-118815828D01*
X182210939Y-118815828D02*
X182425224Y-118815828D01*
X182425224Y-118815828D02*
X182568081Y-118887257D01*
X183496653Y-119815828D02*
X183353796Y-119744400D01*
X183353796Y-119744400D02*
X183282367Y-119672971D01*
X183282367Y-119672971D02*
X183210939Y-119530114D01*
X183210939Y-119530114D02*
X183210939Y-119101542D01*
X183210939Y-119101542D02*
X183282367Y-118958685D01*
X183282367Y-118958685D02*
X183353796Y-118887257D01*
X183353796Y-118887257D02*
X183496653Y-118815828D01*
X183496653Y-118815828D02*
X183710939Y-118815828D01*
X183710939Y-118815828D02*
X183853796Y-118887257D01*
X183853796Y-118887257D02*
X183925225Y-118958685D01*
X183925225Y-118958685D02*
X183996653Y-119101542D01*
X183996653Y-119101542D02*
X183996653Y-119530114D01*
X183996653Y-119530114D02*
X183925225Y-119672971D01*
X183925225Y-119672971D02*
X183853796Y-119744400D01*
X183853796Y-119744400D02*
X183710939Y-119815828D01*
X183710939Y-119815828D02*
X183496653Y-119815828D01*
X184639510Y-119815828D02*
X184639510Y-118815828D01*
X184639510Y-119101542D02*
X184710939Y-118958685D01*
X184710939Y-118958685D02*
X184782368Y-118887257D01*
X184782368Y-118887257D02*
X184925225Y-118815828D01*
X184925225Y-118815828D02*
X185068082Y-118815828D01*
X186568081Y-118815828D02*
X186925224Y-119815828D01*
X186925224Y-119815828D02*
X187282367Y-118815828D01*
X187782367Y-118458685D02*
X187853795Y-118387257D01*
X187853795Y-118387257D02*
X187996653Y-118315828D01*
X187996653Y-118315828D02*
X188353795Y-118315828D01*
X188353795Y-118315828D02*
X188496653Y-118387257D01*
X188496653Y-118387257D02*
X188568081Y-118458685D01*
X188568081Y-118458685D02*
X188639510Y-118601542D01*
X188639510Y-118601542D02*
X188639510Y-118744400D01*
X188639510Y-118744400D02*
X188568081Y-118958685D01*
X188568081Y-118958685D02*
X187710938Y-119815828D01*
X187710938Y-119815828D02*
X188639510Y-119815828D01*
D11*
%TO.C,P1*%
X200152000Y-105156000D03*
X200152000Y-102616000D03*
X200152000Y-100076000D03*
%TD*%
D12*
%TO.C,R15*%
X210312000Y-73743500D03*
X210312000Y-75568500D03*
%TD*%
D13*
%TO.C,R8*%
X201168000Y-94364500D03*
X201168000Y-92539500D03*
%TD*%
D14*
%TO.C,C4*%
X213995000Y-64730000D03*
D15*
X213995000Y-62230000D03*
%TD*%
D16*
%TO.C,D3*%
X219964000Y-90170000D03*
D17*
X219964000Y-97790000D03*
%TD*%
D14*
%TO.C,C3*%
X186690000Y-62230000D03*
D15*
X186690000Y-64730000D03*
%TD*%
D18*
%TO.C,TP5*%
X185420000Y-74676000D03*
%TD*%
D13*
%TO.C,R4*%
X205740000Y-112672500D03*
X205740000Y-110847500D03*
%TD*%
D19*
%TO.C,C8*%
X220030000Y-81915000D03*
X221930000Y-81915000D03*
%TD*%
D13*
%TO.C,R7*%
X198120000Y-94364500D03*
X198120000Y-92539500D03*
%TD*%
D18*
%TO.C,TP7*%
X180340000Y-74676000D03*
%TD*%
%TO.C,TP1*%
X216535000Y-108585000D03*
%TD*%
D15*
%TO.C,C5*%
X191516000Y-105096000D03*
X191516000Y-100096000D03*
%TD*%
D13*
%TO.C,R16*%
X213360000Y-75568500D03*
X213360000Y-73743500D03*
%TD*%
D12*
%TO.C,R9*%
X204216000Y-92539500D03*
X204216000Y-94364500D03*
%TD*%
D13*
%TO.C,R3*%
X195072000Y-71524500D03*
X195072000Y-69699500D03*
%TD*%
D12*
%TO.C,R2*%
X192024000Y-69699500D03*
X192024000Y-71524500D03*
%TD*%
D14*
%TO.C,U4*%
X192024000Y-87864000D03*
D20*
X194564000Y-87864000D03*
X197104000Y-87864000D03*
X199644000Y-87864000D03*
X202184000Y-87864000D03*
X204724000Y-87864000D03*
X207264000Y-87864000D03*
X207264000Y-80244000D03*
X204724000Y-80244000D03*
X202184000Y-80244000D03*
X199644000Y-80244000D03*
X197104000Y-80244000D03*
X194564000Y-80244000D03*
X192024000Y-80244000D03*
%TD*%
D12*
%TO.C,R6*%
X192024000Y-92539500D03*
X192024000Y-94364500D03*
%TD*%
D13*
%TO.C,R13*%
X198120000Y-75568500D03*
X198120000Y-73743500D03*
%TD*%
D14*
%TO.C,U1*%
X217180000Y-71003000D03*
D20*
X217180000Y-73543000D03*
X217180000Y-76083000D03*
X217180000Y-78623000D03*
X224800000Y-78623000D03*
X224800000Y-76083000D03*
X224800000Y-73543000D03*
X224800000Y-71003000D03*
%TD*%
D21*
%TO.C,J2*%
X177530000Y-66710000D03*
X175530000Y-66710000D03*
D22*
X179880000Y-60960000D03*
X173180000Y-60960000D03*
%TD*%
D15*
%TO.C,C6*%
X208280000Y-105096000D03*
X208280000Y-100096000D03*
%TD*%
D21*
%TO.C,J1*%
X201660000Y-66985000D03*
X199660000Y-66985000D03*
D22*
X204010000Y-61235000D03*
X197310000Y-61235000D03*
%TD*%
D21*
%TO.C,J3*%
X225790000Y-66985000D03*
X223790000Y-66985000D03*
D22*
X228140000Y-61235000D03*
X221440000Y-61235000D03*
%TD*%
D23*
%TO.C,C1*%
X188788000Y-69662000D03*
X188788000Y-71562000D03*
%TD*%
D18*
%TO.C,TP4*%
X187960000Y-74676000D03*
%TD*%
D13*
%TO.C,R14*%
X207264000Y-75568500D03*
X207264000Y-73743500D03*
%TD*%
D24*
%TO.C,LDR1*%
X182340000Y-110068000D03*
X178340000Y-110068000D03*
X181590000Y-89068000D03*
X179090000Y-89068000D03*
%TD*%
D18*
%TO.C,TP6*%
X182880000Y-74676000D03*
%TD*%
D12*
%TO.C,R1*%
X208788000Y-110847500D03*
X208788000Y-112672500D03*
%TD*%
%TO.C,R17*%
X204216000Y-73743500D03*
X204216000Y-75568500D03*
%TD*%
D13*
%TO.C,R19*%
X195072000Y-75568500D03*
X195072000Y-73743500D03*
%TD*%
%TO.C,R18*%
X192024000Y-75568500D03*
X192024000Y-73743500D03*
%TD*%
D18*
%TO.C,TP2*%
X210820000Y-108585000D03*
%TD*%
%TO.C,TP3*%
X177800000Y-74676000D03*
%TD*%
D16*
%TO.C,D1*%
X207264000Y-68326000D03*
D17*
X207264000Y-60706000D03*
%TD*%
D23*
%TO.C,C7*%
X188976000Y-83104000D03*
X188976000Y-85004000D03*
%TD*%
D16*
%TO.C,D4*%
X216024000Y-97790000D03*
D17*
X216024000Y-90170000D03*
%TD*%
D25*
%TO.C,D2*%
X198120000Y-113030000D03*
D26*
X199390000Y-113030000D03*
X200660000Y-113030000D03*
X201930000Y-113030000D03*
%TD*%
D13*
%TO.C,R12*%
X201422000Y-75568500D03*
X201422000Y-73743500D03*
%TD*%
D12*
%TO.C,R11*%
X207264000Y-92539500D03*
X207264000Y-94364500D03*
%TD*%
D27*
%TO.C,J4*%
X193802000Y-119380000D03*
D28*
X196342000Y-119380000D03*
X198882000Y-119380000D03*
X201422000Y-119380000D03*
X203962000Y-119380000D03*
X206502000Y-119380000D03*
%TD*%
D13*
%TO.C,R10*%
X210312000Y-94364500D03*
X210312000Y-92539500D03*
%TD*%
D12*
%TO.C,R5*%
X195072000Y-92539500D03*
X195072000Y-94364500D03*
%TD*%
D29*
%TO.C,COMP1*%
X225980000Y-85080000D03*
X220980000Y-85080000D03*
X215980000Y-85080000D03*
%TD*%
%TO.C,LEVEL1*%
X185340000Y-85080000D03*
X180340000Y-85080000D03*
X175340000Y-85080000D03*
%TD*%
M02*
