  0
SECTION
  2
HEADER
  9
$ACADVER
  1
AC1032
  9
$ACADMAINTVER
 90
      155
  9
$DWGCODEPAGE
  3
ANSI_1252
  9
$REQUIREDVERSIONS
160
                 0
  9
$INSBASE
 10
0.0
 20
0.0
 30
0.0
  9
$EXTMIN
 10
1.000000000000000E+20
 20
1.000000000000000E+20
 30
1.000000000000000E+20
  9
$EXTMAX
 10
-1.000000000000000E+20
 20
-1.000000000000000E+20
 30
-1.000000000000000E+20
  9
$LIMMIN
 10
0.0
 20
0.0
  9
$LIMMAX
 10
12.0
 20
9.0
  9
$ORTHOMODE
 70
     0
  9
$REGENMODE
 70
     1
  9
$FILLMODE
 70
     1
  9
$QTEXTMODE
 70
     0
  9
$MIRRTEXT
 70
     0
  9
$LTSCALE
 40
1.0
  9
$ATTMODE
 70
     1
  9
$TEXTSIZE
 40
0.2
  9
$TRACEWID
 40
0.05
  9
$TEXTSTYLE
  7
Standard
  9
$CLAYER
  8
0
  9
$CELTYPE
  6
ByLayer
  9
$CECOLOR
 62
   256
  9
$CELTSCALE
 40
1.0
  9
$DISPSILH
 70
     0
  9
$DIMSCALE
 40
1.0
  9
$DIMASZ
 40
0.18
  9
$DIMEXO
 40
0.0625
  9
$DIMDLI
 40
0.38
  9
$DIMRND
 40
0.0
  9
$DIMDLE
 40
0.0
  9
$DIMEXE
 40
0.18
  9
$DIMTP
 40
0.0
  9
$DIMTM
 40
0.0
  9
$DIMTXT
 40
0.18
  9
$DIMCEN
 40
0.09
  9
$DIMTSZ
 40
0.0
  9
$DIMTOL
 70
     0
  9
$DIMLIM
 70
     0
  9
$DIMTIH
 70
     1
  9
$DIMTOH
 70
     1
  9
$DIMSE1
 70
     0
  9
$DIMSE2
 70
     0
  9
$DIMTAD
 70
     0
  9
$DIMZIN
 70
     0
  9
$DIMBLK
  1

  9
$DIMASO
 70
     1
  9
$DIMSHO
 70
     1
  9
$DIMPOST
  1

  9
$DIMAPOST
  1

  9
$DIMALT
 70
     0
  9
$DIMALTD
 70
     2
  9
$DIMALTF
 40
25.4
  9
$DIMLFAC
 40
1.0
  9
$DIMTOFL
 70
     0
  9
$DIMTVP
 40
0.0
  9
$DIMTIX
 70
     0
  9
$DIMSOXD
 70
     0
  9
$DIMSAH
 70
     0
  9
$DIMBLK1
  1

  9
$DIMBLK2
  1

  9
$DIMSTYLE
  2
Standard
  9
$DIMCLRD
 70
     0
  9
$DIMCLRE
 70
     0
  9
$DIMCLRT
 70
     0
  9
$DIMTFAC
 40
1.0
  9
$DIMGAP
 40
0.09
  9
$DIMJUST
 70
     0
  9
$DIMSD1
 70
     0
  9
$DIMSD2
 70
     0
  9
$DIMTOLJ
 70
     1
  9
$DIMTZIN
 70
     0
  9
$DIMALTZ
 70
     0
  9
$DIMALTTZ
 70
     0
  9
$DIMUPT
 70
     0
  9
$DIMDEC
 70
     4
  9
$DIMTDEC
 70
     4
  9
$DIMALTU
 70
     2
  9
$DIMALTTD
 70
     2
  9
$DIMTXSTY
  7
Standard
  9
$DIMAUNIT
 70
     0
  9
$DIMADEC
 70
     0
  9
$DIMALTRND
 40
0.0
  9
$DIMAZIN
 70
     0
  9
$DIMDSEP
 70
    46
  9
$DIMATFIT
 70
     3
  9
$DIMFRAC
 70
     0
  9
$DIMLDRBLK
  1

  9
$DIMLUNIT
 70
     2
  9
$DIMLWD
 70
    -2
  9
$DIMLWE
 70
    -2
  9
$DIMTMOVE
 70
     0
  9
$DIMFXL
 40
1.0
  9
$DIMFXLON
 70
     0
  9
$DIMJOGANG
 40
0.7853981633974483
  9
$DIMTFILL
 70
     0
  9
$DIMTFILLCLR
 70
     0
  9
$DIMARCSYM
 70
     0
  9
$DIMLTYPE
  6

  9
$DIMLTEX1
  6

  9
$DIMLTEX2
  6

  9
$DIMTXTDIRECTION
 70
     0
  9
$LUNITS
 70
     2
  9
$LUPREC
 70
     4
  9
$SKETCHINC
 40
0.1
  9
$FILLETRAD
 40
0.0
  9
$AUNITS
 70
     0
  9
$AUPREC
 70
     0
  9
$MENU
  1
.
  9
$ELEVATION
 40
0.0
  9
$PELEVATION
 40
0.0
  9
$THICKNESS
 40
0.0
  9
$LIMCHECK
 70
     0
  9
$CHAMFERA
 40
0.0
  9
$CHAMFERB
 40
0.0
  9
$CHAMFERC
 40
0.0
  9
$CHAMFERD
 40
0.0
  9
$SKPOLY
 70
     0
  9
$TDCREATE
 40
2459442.858518519
  9
$TDUCREATE
 40
2459443.025185185
  9
$TDUPDATE
 40
2459442.858518519
  9
$TDUUPDATE
 40
2459443.025185185
  9
$TDINDWG
 40
0.0000000000
  9
$TDUSRTIMER
 40
0.0000000000
  9
$USRTIMER
 70
     1
  9
$ANGBASE
 50
0.0
  9
$ANGDIR
 70
     0
  9
$PDMODE
 70
     0
  9
$PDSIZE
 40
0.0
  9
$PLINEWID
 40
0.0
  9
$SPLFRAME
 70
     0
  9
$SPLINETYPE
 70
     6
  9
$SPLINESEGS
 70
     8
  9
$HANDSEED
  5
BA
  9
$SURFTAB1
 70
     6
  9
$SURFTAB2
 70
     6
  9
$SURFTYPE
 70
     6
  9
$SURFU
 70
     6
  9
$SURFV
 70
     6
  9
$UCSBASE
  2

  9
$UCSNAME
  2

  9
$UCSORG
 10
0.0
 20
0.0
 30
0.0
  9
$UCSXDIR
 10
1.0
 20
0.0
 30
0.0
  9
$UCSYDIR
 10
0.0
 20
1.0
 30
0.0
  9
$UCSORTHOREF
  2

  9
$UCSORTHOVIEW
 70
     0
  9
$UCSORGTOP
 10
0.0
 20
0.0
 30
0.0
  9
$UCSORGBOTTOM
 10
0.0
 20
0.0
 30
0.0
  9
$UCSORGLEFT
 10
0.0
 20
0.0
 30
0.0
  9
$UCSORGRIGHT
 10
0.0
 20
0.0
 30
0.0
  9
$UCSORGFRONT
 10
0.0
 20
0.0
 30
0.0
  9
$UCSORGBACK
 10
0.0
 20
0.0
 30
0.0
  9
$PUCSBASE
  2

  9
$PUCSNAME
  2

  9
$PUCSORG
 10
0.0
 20
0.0
 30
0.0
  9
$PUCSXDIR
 10
1.0
 20
0.0
 30
0.0
  9
$PUCSYDIR
 10
0.0
 20
1.0
 30
0.0
  9
$PUCSORTHOREF
  2

  9
$PUCSORTHOVIEW
 70
     0
  9
$PUCSORGTOP
 10
0.0
 20
0.0
 30
0.0
  9
$PUCSORGBOTTOM
 10
0.0
 20
0.0
 30
0.0
  9
$PUCSORGLEFT
 10
0.0
 20
0.0
 30
0.0
  9
$PUCSORGRIGHT
 10
0.0
 20
0.0
 30
0.0
  9
$PUCSORGFRONT
 10
0.0
 20
0.0
 30
0.0
  9
$PUCSORGBACK
 10
0.0
 20
0.0
 30
0.0
  9
$USERI1
 70
     0
  9
$USERI2
 70
     0
  9
$USERI3
 70
     0
  9
$USERI4
 70
     0
  9
$USERI5
 70
     0
  9
$USERR1
 40
0.0
  9
$USERR2
 40
0.0
  9
$USERR3
 40
0.0
  9
$USERR4
 40
0.0
  9
$USERR5
 40
0.0
  9
$WORLDVIEW
 70
     1
  9
$SHADEDGE
 70
     3
  9
$SHADEDIF
 70
    70
  9
$TILEMODE
 70
     1
  9
$MAXACTVP
 70
    64
  9
$PINSBASE
 10
0.0
 20
0.0
 30
0.0
  9
$PLIMCHECK
 70
     0
  9
$PEXTMIN
 10
1.000000000000000E+20
 20
1.000000000000000E+20
 30
1.000000000000000E+20
  9
$PEXTMAX
 10
-1.000000000000000E+20
 20
-1.000000000000000E+20
 30
-1.000000000000000E+20
  9
$PLIMMIN
 10
0.0
 20
0.0
  9
$PLIMMAX
 10
12.0
 20
9.0
  9
$UNITMODE
 70
     0
  9
$VISRETAIN
 70
     1
  9
$PLINEGEN
 70
     0
  9
$PSLTSCALE
 70
     1
  9
$TREEDEPTH
 70
  3020
  9
$CMLSTYLE
  2
Standard
  9
$CMLJUST
 70
     0
  9
$CMLSCALE
 40
1.0
  9
$PROXYGRAPHICS
 70
     1
  9
$MEASUREMENT
 70
     0
  9
$CELWEIGHT
370
    -1
  9
$ENDCAPS
280
     0
  9
$JOINSTYLE
280
     0
  9
$LWDISPLAY
290
     1
  9
$INSUNITS
 70
     0
  9
$HYPERLINKBASE
  1

  9
$STYLESHEET
  1

  9
$XEDIT
290
     1
  9
$CEPSNTYPE
380
     0
  9
$PSTYLEMODE
290
     1
  9
$FINGERPRINTGUID
  2
{E4F371DA-25DB-EE47-BA6D-35C03C3DC14B}
  9
$VERSIONGUID
  2
{16374BD2-4FE7-B643-8D77-87CD5E02E22A}
  9
$EXTNAMES
290
     1
  9
$PSVPSCALE
 40
0.0
  9
$OLESTARTUP
290
     0
  9
$SORTENTS
280
   127
  9
$INDEXCTL
280
     0
  9
$HIDETEXT
280
     1
  9
$XCLIPFRAME
280
     2
  9
$HALOGAP
280
     0
  9
$OBSCOLOR
 70
   257
  9
$OBSLTYPE
280
     0
  9
$INTERSECTIONDISPLAY
280
     0
  9
$INTERSECTIONCOLOR
 70
   257
  9
$DIMASSOC
280
     2
  9
$PROJECTNAME
  1

  9
$CAMERADISPLAY
290
     0
  9
$LENSLENGTH
 40
50.0
  9
$CAMERAHEIGHT
 40
0.0
  9
$STEPSPERSEC
 40
2.0
  9
$STEPSIZE
 40
6.0
  9
$3DDWFPREC
 40
2.0
  9
$PSOLWIDTH
 40
0.25
  9
$PSOLHEIGHT
 40
4.0
  9
$LOFTANG1
 40
1.570796326794896
  9
$LOFTANG2
 40
1.570796326794896
  9
$LOFTMAG1
 40
0.0
  9
$LOFTMAG2
 40
0.0
  9
$LOFTPARAM
 70
     7
  9
$LOFTNORMALS
280
     1
  9
$LATITUDE
 40
37.795
  9
$LONGITUDE
 40
-122.394
  9
$NORTHDIRECTION
 40
0.0
  9
$TIMEZONE
 70
 -8000
  9
$LIGHTGLYPHDISPLAY
280
     1
  9
$TILEMODELIGHTSYNCH
280
     1
  9
$CMATERIAL
347
11
  9
$SOLIDHIST
280
     0
  9
$SHOWHIST
280
     1
  9
$DWFFRAME
280
     2
  9
$DGNFRAME
280
     0
  9
$REALWORLDSCALE
290
     1
  9
$INTERFERECOLOR
 62
     1
  9
$INTERFEREOBJVS
345
33
  9
$INTERFEREVPVS
346
30
  9
$CSHADOW
280
     0
  9
$SHADOWPLANELOCATION
 40
0.0
  0
ENDSEC
  0
SECTION
  2
CLASSES
  0
CLASS
  1
ACDBDICTIONARYWDFLT
  2
AcDbDictionaryWithDefault
  3
ObjectDBX Classes
 90
        0
 91
        1
280
     0
281
     0
  0
CLASS
  1
MATERIAL
  2
AcDbMaterial
  3
ObjectDBX Classes
 90
     1153
 91
        3
280
     0
281
     0
  0
CLASS
  1
VISUALSTYLE
  2
AcDbVisualStyle
  3
ObjectDBX Classes
 90
     4095
 91
       24
280
     0
281
     0
  0
CLASS
  1
SCALE
  2
AcDbScale
  3
ObjectDBX Classes
 90
     1153
 91
       17
280
     0
281
     0
  0
CLASS
  1
TABLESTYLE
  2
AcDbTableStyle
  3
ObjectDBX Classes
 90
     4095
 91
        1
280
     0
281
     0
  0
CLASS
  1
MLEADERSTYLE
  2
AcDbMLeaderStyle
  3
ACDB_MLEADERSTYLE_CLASS
 90
     4095
 91
        1
280
     0
281
     0
  0
CLASS
  1
ACDBSECTIONVIEWSTYLE
  2
AcDbSectionViewStyle
  3
ObjectDBX Classes
 90
     1025
 91
        1
280
     0
281
     0
  0
CLASS
  1
ACDBDETAILVIEWSTYLE
  2
AcDbDetailViewStyle
  3
ObjectDBX Classes
 90
     1025
 91
        1
280
     0
281
     0
  0
CLASS
  1
DICTIONARYVAR
  2
AcDbDictionaryVar
  3
ObjectDBX Classes
 90
        0
 91
        5
280
     0
281
     0
  0
CLASS
  1
CELLSTYLEMAP
  2
AcDbCellStyleMap
  3
ObjectDBX Classes
 90
     1152
 91
        1
280
     0
281
     0
  0
ENDSEC
  0
SECTION
  2
TABLES
  0
TABLE
  2
VPORT
  5
8
330
0
100
AcDbSymbolTable
 70
     1
  0
VPORT
  5
57
330
8
100
AcDbSymbolTableRecord
100
AcDbViewportTableRecord
  2
*Active
 70
     0
 10
0.0
 20
0.0
 11
1.0
 21
1.0
 12
0.0
 22
0.0
 13
0.0
 23
0.0
 14
1.0
 24
1.0
 15
0.0
 25
0.0
 16
0.0
 26
0.0
 36
1.0
 17
28.47631115383047
 27
46.56036631266124
 37
0.0
 40
56.59701446533512
 41
1.026408818602869
 42
50.0
 43
0.0
 44
0.0
 50
0.0
 51
0.0
 71
     0
 72
   100
 73
     1
 74
     0
 75
     1
 76
     0
 77
     0
 78
     0
281
     0
 65
     1
110
0.0
120
0.0
130
0.0
111
1.0
121
0.0
131
0.0
112
0.0
122
1.0
132
0.0
 79
     0
146
0.0
 60
     3
 61
     5
292
     1
282
     1
141
0.0
142
0.0
 63
   250
421
  3355443
  0
ENDTAB
  0
TABLE
  2
LTYPE
  5
5
330
0
100
AcDbSymbolTable
 70
     1
  0
LTYPE
  5
5B
330
5
100
AcDbSymbolTableRecord
100
AcDbLinetypeTableRecord
  2
ByBlock
 70
     0
  3

 72
    65
 73
     0
 40
0.0
  0
LTYPE
  5
5C
330
5
100
AcDbSymbolTableRecord
100
AcDbLinetypeTableRecord
  2
ByLayer
 70
     0
  3

 72
    65
 73
     0
 40
0.0
  0
LTYPE
  5
5D
330
5
100
AcDbSymbolTableRecord
100
AcDbLinetypeTableRecord
  2
Continuous
 70
     0
  3
Solid line
 72
    65
 73
     0
 40
0.0
  0
ENDTAB
  0
TABLE
  2
LAYER
  5
2
330
0
100
AcDbSymbolTable
 70
     2
  0
LAYER
  5
54
330
2
100
AcDbSymbolTableRecord
100
AcDbLayerTableRecord
  2
0
 70
     0
 62
     7
  6
Continuous
370
    -3
390
F
347
21
348
0
  0
LAYER
  5
78
330
2
100
AcDbSymbolTableRecord
100
AcDbLayerTableRecord
  2
Layer 2
 70
     0
 62
     7
  6
Continuous
370
     0
390
F
347
21
348
0
  0
ENDTAB
  0
TABLE
  2
STYLE
  5
3
330
0
100
AcDbSymbolTable
 70
     2
  0
STYLE
  5
55
330
3
100
AcDbSymbolTableRecord
100
AcDbTextStyleTableRecord
  2
Standard
 70
     0
 40
0.0
 41
1.0
 50
0.0
 71
     0
 42
0.2
  3
txt
  4

  0
STYLE
  5
5A
330
3
100
AcDbSymbolTableRecord
100
AcDbTextStyleTableRecord
  2
Annotative
 70
     0
 40
0.0
 41
1.0
 50
0.0
 71
     0
 42
0.2
  3
txt
  4

1001
AcadAnnotative
1000
AnnotativeData
1002
{
1070
     1
1070
     1
1002
}
  0
ENDTAB
  0
TABLE
  2
VIEW
  5
6
330
0
100
AcDbSymbolTable
 70
     0
  0
ENDTAB
  0
TABLE
  2
UCS
  5
7
330
0
100
AcDbSymbolTable
 70
     0
  0
ENDTAB
  0
TABLE
  2
APPID
  5
9
330
0
100
AcDbSymbolTable
 70
     2
  0
APPID
  5
56
330
9
100
AcDbSymbolTableRecord
100
AcDbRegAppTableRecord
  2
ACAD
 70
     0
  0
APPID
  5
5E
330
9
100
AcDbSymbolTableRecord
100
AcDbRegAppTableRecord
  2
AcadAnnotative
 70
     0
  0
ENDTAB
  0
TABLE
  2
DIMSTYLE
  5
A
330
0
100
AcDbSymbolTable
 70
     2
100
AcDbDimStyleTable
 71
     0
  0
DIMSTYLE
105
58
330
A
100
AcDbSymbolTableRecord
100
AcDbDimStyleTableRecord
  2
Standard
 70
     0
340
55
  0
DIMSTYLE
105
59
330
A
100
AcDbSymbolTableRecord
100
AcDbDimStyleTableRecord
  2
Annotative
 70
     0
340
55
1001
AcadAnnotative
1000
AnnotativeData
1002
{
1070
     1
1070
     1
1002
}
  0
ENDTAB
  0
TABLE
  2
BLOCK_RECORD
  5
1
330
0
100
AcDbSymbolTable
 70
     3
  0
BLOCK_RECORD
  5
70
330
1
100
AcDbSymbolTableRecord
100
AcDbBlockTableRecord
  2
*Model_Space
340
73
 70
     0
280
     1
281
     0
  0
BLOCK_RECORD
  5
6C
330
1
100
AcDbSymbolTableRecord
100
AcDbBlockTableRecord
  2
*Paper_Space
340
6F
 70
     0
280
     1
281
     0
  0
BLOCK_RECORD
  5
74
330
1
100
AcDbSymbolTableRecord
100
AcDbBlockTableRecord
  2
*Paper_Space0
340
77
 70
     0
280
     1
281
     0
  0
BLOCK_RECORD
  5
79
330
1
100
AcDbSymbolTableRecord
100
AcDbBlockTableRecord
  2
Block_0
340
0
102
{BLKREFS
331
7A
102
}
 70
     0
280
     1
281
     0
  0
BLOCK_RECORD
  5
AA
330
1
100
AcDbSymbolTableRecord
100
AcDbBlockTableRecord
  2
Block_1
340
0
102
{BLKREFS
331
AB
102
}
 70
     0
280
     1
281
     0
  0
ENDTAB
  0
ENDSEC
  0
SECTION
  2
BLOCKS
  0
BLOCK
  5
71
330
70
100
AcDbEntity
  8
0
100
AcDbBlockBegin
  2
*Model_Space
 70
     0
 10
0.0
 20
0.0
 30
0.0
  3
*Model_Space
  1

  0
ENDBLK
  5
72
330
70
100
AcDbEntity
  8
0
100
AcDbBlockEnd
  0
BLOCK
  5
6D
330
6C
100
AcDbEntity
 67
     1
  8
0
100
AcDbBlockBegin
  2
*Paper_Space
 70
     0
 10
0.0
 20
0.0
 30
0.0
  3
*Paper_Space
  1

  0
ENDBLK
  5
6E
330
6C
100
AcDbEntity
 67
     1
  8
0
100
AcDbBlockEnd
  0
BLOCK
  5
75
330
74
100
AcDbEntity
 67
     1
  8
0
100
AcDbBlockBegin
  2
*Paper_Space0
 70
     0
 10
0.0
 20
0.0
 30
0.0
  3
*Paper_Space0
  1

  0
ENDBLK
  5
76
330
74
100
AcDbEntity
 67
     1
  8
0
100
AcDbBlockEnd
  0
BLOCK
  5
7B
330
79
100
AcDbEntity
  8
0
100
AcDbBlockBegin
  2
Block_0
 70
     0
 10
0.0
 20
0.0
 30
0.0
  3
Block_0
  1

  0
SPLINE
  5
7D
330
79
100
AcDbEntity
  8
Layer 2
100
AcDbSpline
210
0.0
220
0.0
230
1.0
 70
     9
 71
     3
 72
    26
 73
    22
 74
     0
 42
0.0000000001
 43
0.0000000001
 40
0.0
 40
0.0
 40
0.0
 40
0.0
 40
1.0
 40
1.0
 40
1.0
 40
2.0
 40
2.0
 40
2.0
 40
3.0
 40
3.0
 40
3.0
 40
4.0
 40
4.0
 40
4.0
 40
5.0
 40
5.0
 40
5.0
 40
6.0
 40
6.0
 40
6.0
 40
7.0
 40
7.0
 40
7.0
 40
7.0
 10
26.832763671875
 20
48.73602294921875
 30
0.0
 10
26.92718505859375
 20
48.19122314453125
 30
0.0
 10
27.05120849609375
 20
47.64605712890625
 30
0.0
 10
27.04046630859375
 20
47.09320068359375
 30
0.0
 10
27.03399658203125
 20
46.7601318359375
 30
0.0
 10
26.96282958984375
 20
46.42388916015625
 30
0.0
 10
26.827392578125
 20
46.12152099609375
 30
0.0
 10
26.827392578125
 20
46.12152099609375
 30
0.0
 10
28.21136474609375
 20
46.12152099609375
 30
0.0
 10
28.21136474609375
 20
46.12152099609375
 30
0.0
 10
28.224609375
 20
46.41448974609375
 30
0.0
 10
28.2542724609375
 20
46.7064208984375
 30
0.0
 10
28.25933837890625
 20
46.9591064453125
 30
0.0
 10
28.3046875
 20
49.21051025390625
 30
0.0
 10
28.48455810546875
 20
51.41143798828125
 30
0.0
 10
28.65045166015625
 20
53.5982666015625
 30
0.0
 10
28.65045166015625
 20
53.5982666015625
 30
0.0
 10
26.6202392578125
 20
53.5982666015625
 30
0.0
 10
26.6202392578125
 20
53.5982666015625
 30
0.0
 10
26.53900146484375
 20
51.96905517578125
 30
0.0
 10
26.5535888671875
 20
50.345947265625
 30
0.0
 10
26.832763671875
 20
48.73602294921875
 30
0.0
  0
SPLINE
  5
7E
330
79
100
AcDbEntity
  8
Layer 2
100
AcDbSpline
210
0.0
220
0.0
230
1.0
 70
     9
 71
     3
 72
    20
 73
    16
 74
     0
 42
0.0000000001
 43
0.0000000001
 40
0.0
 40
0.0
 40
0.0
 40
0.0
 40
1.0
 40
1.0
 40
1.0
 40
2.0
 40
2.0
 40
2.0
 40
3.0
 40
3.0
 40
3.0
 40
4.0
 40
4.0
 40
4.0
 40
5.0
 40
5.0
 40
5.0
 40
5.0
 10
28.4853515625
 20
33.27557373046875
 30
0.0
 10
28.42987060546875
 20
33.440185546875
 30
0.0
 10
28.381103515625
 20
33.6265869140625
 30
0.0
 10
28.1771240234375
 20
33.5120849609375
 30
0.0
 10
27.986083984375
 20
33.40484619140625
 30
0.0
 10
27.968017578125
 20
33.19586181640625
 30
0.0
 10
27.95428466796875
 20
33.00189208984375
 30
0.0
 10
27.9427490234375
 20
32.83917236328125
 30
0.0
 10
27.93109130859375
 20
32.67645263671875
 30
0.0
 10
27.91949462890625
 20
32.51373291015625
 30
0.0
 10
27.91949462890625
 20
32.51373291015625
 30
0.0
 10
28.96954345703125
 20
32.51373291015625
 30
0.0
 10
28.96954345703125
 20
32.51373291015625
 30
0.0
 10
28.77813720703125
 20
32.70867919921875
 30
0.0
 10
28.60009765625
 20
32.93505859375
 30
0.0
 10
28.4853515625
 20
33.27557373046875
 30
0.0
  0
SPLINE
  5
7F
330
79
100
AcDbEntity
  8
Layer 2
100
AcDbSpline
210
0.0
220
0.0
230
1.0
 70
     9
 71
     3
 72
    17
 73
    13
 74
     0
 42
0.0000000001
 43
0.0000000001
 40
0.0
 40
0.0
 40
0.0
 40
0.0
 40
1.0
 40
1.0
 40
1.0
 40
2.0
 40
2.0
 40
2.0
 40
3.0
 40
3.0
 40
3.0
 40
4.0
 40
4.0
 40
4.0
 40
4.0
 10
12.73504638671875
 20
32.51129150390625
 30
0.0
 10
12.73504638671875
 20
32.51129150390625
 30
0.0
 10
13.41314697265625
 20
32.51129150390625
 30
0.0
 10
13.41314697265625
 20
32.51129150390625
 30
0.0
 10
14.057861328125
 20
35.06756591796875
 30
0.0
 10
14.62554931640625
 20
37.39044189453125
 30
0.0
 10
14.82806396484375
 20
39.99273681640625
 30
0.0
 10
14.82806396484375
 20
39.99273681640625
 30
0.0
 10
13.67236328125
 20
39.99273681640625
 30
0.0
 10
13.67236328125
 20
39.99273681640625
 30
0.0
 10
13.45196533203125
 20
37.48846435546875
 30
0.0
 10
13.1324462890625
 20
34.99365234375
 30
0.0
 10
12.73504638671875
 20
32.51129150390625
 30
0.0
  0
SPLINE
  5
80
330
79
100
AcDbEntity
  8
Layer 2
100
AcDbSpline
210
0.0
220
0.0
230
1.0
 70
     9
 71
     3
 72
    50
 73
    46
 74
     0
 42
0.0000000001
 43
0.0000000001
 40
0.0
 40
0.0
 40
0.0
 40
0.0
 40
1.0
 40
1.0
 40
1.0
 40
2.0
 40
2.0
 40
2.0
 40
3.0
 40
3.0
 40
3.0
 40
4.0
 40
4.0
 40
4.0
 40
5.0
 40
5.0
 40
5.0
 40
6.0
 40
6.0
 40
6.0
 40
7.0
 40
7.0
 40
7.0
 40
8.0
 40
8.0
 40
8.0
 40
9.0
 40
9.0
 40
9.0
 40
10.0
 40
10.0
 40
10.0
 40
11.0
 40
11.0
 40
11.0
 40
12.0
 40
12.0
 40
12.0
 40
13.0
 40
13.0
 40
13.0
 40
14.0
 40
14.0
 40
14.0
 40
15.0
 40
15.0
 40
15.0
 40
15.0
 10
18.4710693359375
 20
46.254638671875
 30
0.0
 10
18.00897216796875
 20
46.34515380859375
 30
0.0
 10
17.51544189453125
 20
46.45233154296875
 30
0.0
 10
17.19122314453125
 20
46.79376220703125
 30
0.0
 10
16.81341552734375
 20
47.19158935546874
 30
0.0
 10
16.7705078125
 20
47.793212890625
 30
0.0
 10
16.76629638671875
 20
48.34185791015625
 30
0.0
 10
16.75115966796875
 20
50.3236083984375
 30
0.0
 10
16.97503662109375
 20
52.29522705078125
 30
0.0
 10
17.2955322265625
 20
54.253173828125
 30
0.0
 10
16.7769775390625
 20
53.85028076171875
 30
0.0
 10
16.13360595703125
 20
53.60064697265625
 30
0.0
 10
15.426025390625
 20
53.60064697265625
 30
0.0
 10
15.426025390625
 20
53.60064697265625
 30
0.0
 10
14.62054443359375
 20
53.60064697265625
 30
0.0
 10
14.62054443359375
 20
53.60064697265625
 30
0.0
 10
14.37493896484375
 20
51.7691650390625
 30
0.0
 10
14.2435302734375
 20
49.929443359375
 30
0.0
 10
14.4166259765625
 20
48.093994140625
 30
0.0
 10
14.46661376953125
 20
47.56451416015624
 30
0.0
 10
14.5238037109375
 20
46.97052001953125
 30
0.0
 10
14.18682861328125
 20
46.55908203125
 30
0.0
 10
14.01251220703125
 20
46.34625244140624
 30
0.0
 10
13.75775146484375
 20
46.22589111328125
 30
0.0
 10
13.501220703125
 20
46.119140625
 30
0.0
 10
13.501220703125
 20
46.119140625
 30
0.0
 10
15.426025390625
 20
46.119140625
 30
0.0
 10
15.426025390625
 20
46.119140625
 30
0.0
 10
15.9395751953125
 20
46.119140625
 30
0.0
 10
16.41619873046875
 20
45.98077392578125
 30
0.0
 10
16.84130859375
 20
45.7574462890625
 30
0.0
 10
17.73419189453125
 20
45.70257568359375
 30
0.0
 10
18.853271484375
 20
45.2718505859375
 30
0.0
 10
20.02435302734375
 20
45.03759765625
 30
0.0
 10
22.068359375
 20
44.6287841796875
 30
0.0
 10
23.1671142578125
 20
44.74249267578125
 30
0.0
 10
23.82086181640625
 20
44.3740234375
 30
0.0
 10
23.95361328125
 20
44.65106201171875
 30
0.0
 10
24.1248779296875
 20
44.90429687499999
 30
0.0
 10
24.330810546875
 20
45.1275634765625
 30
0.0
 10
24.1082763671875
 20
45.15631103515625
 30
0.0
 10
23.88714599609375
 20
45.19403076171875
 30
0.0
 10
23.67474365234375
 20
45.235595703125
 30
0.0
 10
21.940185546875
 20
45.5753173828125
 30
0.0
 10
20.20562744140625
 20
45.91497802734375
 30
0.0
 10
18.4710693359375
 20
46.254638671875
 30
0.0
  0
SPLINE
  5
81
330
79
100
AcDbEntity
  8
Layer 2
100
AcDbSpline
210
0.0
220
0.0
230
1.0
 70
     9
 71
     3
 72
    14
 73
    10
 74
     0
 42
0.0000000001
 43
0.0000000001
 40
0.0
 40
0.0
 40
0.0
 40
0.0
 40
1.0
 40
1.0
 40
1.0
 40
2.0
 40
2.0
 40
2.0
 40
3.0
 40
3.0
 40
3.0
 40
3.0
 10
29.03936767578125
 20
25.73046875
 30
0.0
 10
29.218505859375
 20
25.68707275390625
 30
0.0
 10
29.5743408203125
 20
25.6466064453125
 30
0.0
 10
30.00616455078125
 20
26.38140869140625
 30
0.0
 10
30.00616455078125
 20
26.38140869140625
 30
0.0
 10
27.5142822265625
 20
26.38140869140625
 30
0.0
 10
27.5142822265625
 20
26.38140869140625
 30
0.0
 10
27.78497314453125
 20
25.8062744140625
 30
0.0
 10
28.43011474609375
 20
25.8780517578125
 30
0.0
 10
29.03936767578125
 20
25.73046875
 30
0.0
  0
SPLINE
  5
82
330
79
100
AcDbEntity
  8
Layer 2
100
AcDbSpline
210
0.0
220
0.0
230
1.0
 70
     9
 71
     3
 72
    26
 73
    22
 74
     0
 42
0.0000000001
 43
0.0000000001
 40
0.0
 40
0.0
 40
0.0
 40
0.0
 40
1.0
 40
1.0
 40
1.0
 40
2.0
 40
2.0
 40
2.0
 40
3.0
 40
3.0
 40
3.0
 40
4.0
 40
4.0
 40
4.0
 40
5.0
 40
5.0
 40
5.0
 40
6.0
 40
6.0
 40
6.0
 40
7.0
 40
7.0
 40
7.0
 40
7.0
 10
18.433349609375
 20
30.00189208984375
 30
0.0
 10
18.70648193359375
 20
31.7047119140625
 30
0.0
 10
18.76165771484375
 20
33.44244384765625
 30
0.0
 10
18.582763671875
 20
35.15777587890625
 30
0.0
 10
18.56048583984375
 20
35.3714599609375
 30
0.0
 10
18.61102294921875
 20
35.9005126953125
 30
0.0
 10
18.28948974609375
 20
35.8905029296875
 30
0.0
 10
18.04718017578125
 20
35.88299560546875
 30
0.0
 10
17.80841064453125
 20
35.5936279296875
 30
0.0
 10
17.69482421875
 20
35.408447265625
 30
0.0
 10
17.49578857421875
 20
35.08416748046875
 30
0.0
 10
17.45672607421875
 20
34.64727783203125
 30
0.0
 10
17.38299560546875
 20
34.2802734375
 30
0.0
 10
17.29278564453125
 20
33.83135986328125
 30
0.0
 10
17.21734619140625
 20
33.37945556640625
 30
0.0
 10
17.1568603515625
 20
32.925537109375
 30
0.0
 10
17.11700439453125
 20
32.6265869140625
 30
0.0
 10
17.09710693359375
 20
32.3255615234375
 30
0.0
 10
17.07025146484375
 20
32.025146484375
 30
0.0
 10
17.7724609375
 20
31.57611083984375
 30
0.0
 10
18.2774658203125
 20
30.85223388671875
 30
0.0
 10
18.433349609375
 20
30.00189208984375
 30
0.0
  0
SPLINE
  5
83
330
79
100
AcDbEntity
  8
Layer 2
100
AcDbSpline
210
0.0
220
0.0
230
1.0
 70
     9
 71
     3
 72
    20
 73
    16
 74
     0
 42
0.0000000001
 43
0.0000000001
 40
0.0
 40
0.0
 40
0.0
 40
0.0
 40
1.0
 40
1.0
 40
1.0
 40
2.0
 40
2.0
 40
2.0
 40
3.0
 40
3.0
 40
3.0
 40
4.0
 40
4.0
 40
4.0
 40
5.0
 40
5.0
 40
5.0
 40
5.0
 10
22.500244140625
 20
49.10723876953125
 30
0.0
 10
22.58087158203125
 20
50.42364501953125
 30
0.0
 10
22.501220703125
 20
51.77093505859375
 30
0.0
 10
22.50152587890625
 20
53.090087890625
 30
0.0
 10
22.50164794921875
 20
53.818115234375
 30
0.0
 10
22.35760498046875
 20
55.88031005859375
 30
0.0
 10
21.830078125
 20
55.06976318359375
 30
0.0
 10
21.1419677734375
 20
53.62237548828125
 30
0.0
 10
20.6998291015625
 20
52.0538330078125
 30
0.0
 10
20.5767822265625
 20
50.4559326171875
 30
0.0
 10
20.52313232421875
 20
49.8660888671875
 30
0.0
 10
20.53411865234375
 20
49.1885986328125
 30
0.0
 10
20.87567138671875
 20
48.6785888671875
 30
0.0
 10
21.3636474609375
 20
47.9498291015625
 30
0.0
 10
22.4461669921875
 20
48.22412109375
 30
0.0
 10
22.500244140625
 20
49.10723876953125
 30
0.0
  0
SPLINE
  5
84
330
79
100
AcDbEntity
  8
Layer 2
100
AcDbSpline
210
0.0
220
0.0
230
1.0
 70
     9
 71
     3
 72
    26
 73
    22
 74
     0
 42
0.0000000001
 43
0.0000000001
 40
0.0
 40
0.0
 40
0.0
 40
0.0
 40
1.0
 40
1.0
 40
1.0
 40
2.0
 40
2.0
 40
2.0
 40
3.0
 40
3.0
 40
3.0
 40
4.0
 40
4.0
 40
4.0
 40
5.0
 40
5.0
 40
5.0
 40
6.0
 40
6.0
 40
6.0
 40
7.0
 40
7.0
 40
7.0
 40
7.0
 10
45.10125732421875
 20
39.9903564453125
 30
0.0
 10
44.8856201171875
 20
39.16290283203125
 30
0.0
 10
44.85491943359375
 20
38.2874755859375
 30
0.0
 10
45.03497314453125
 20
37.451416015625
 30
0.0
 10
45.16339111328124
 20
36.855224609375
 30
0.0
 10
45.53094482421875
 20
36.16510009765625
 30
0.0
 10
46.23162841796875
 20
36.33642578125
 30
0.0
 10
46.58697509765625
 20
36.42327880859375
 30
0.0
 10
46.861572265625
 20
36.70977783203125
 30
0.0
 10
46.9766845703125
 20
37.05706787109375
 30
0.0
 10
47.24359130859375
 20
37.86175537109375
 30
0.0
 10
47.5943603515625
 20
38.68048095703125
 30
0.0
 10
47.62384033203125
 20
39.53961181640625
 30
0.0
 10
47.63739013671875
 20
39.93408203125
 30
0.0
 10
47.57214355468749
 20
40.34210205078125
 30
0.0
 10
47.41534423828125
 20
40.70233154296874
 30
0.0
 10
46.88519287109374
 20
40.2642822265625
 30
0.0
 10
46.21441650390624
 20
39.9903564453125
 30
0.0
 10
45.47296142578125
 20
39.9903564453125
 30
0.0
 10
45.47296142578125
 20
39.9903564453125
 30
0.0
 10
45.10125732421875
 20
39.9903564453125
 30
0.0
 10
45.10125732421875
 20
39.9903564453125
 30
0.0
  0
SPLINE
  5
85
330
79
100
AcDbEntity
  8
Layer 2
100
AcDbSpline
210
0.0
220
0.0
230
1.0
 70
     9
 71
     3
 72
    29
 73
    25
 74
     0
 42
0.0000000001
 43
0.0000000001
 40
0.0
 40
0.0
 40
0.0
 40
0.0
 40
1.0
 40
1.0
 40
1.0
 40
2.0
 40
2.0
 40
2.0
 40
3.0
 40
3.0
 40
3.0
 40
4.0
 40
4.0
 40
4.0
 40
5.0
 40
5.0
 40
5.0
 40
6.0
 40
6.0
 40
6.0
 40
7.0
 40
7.0
 40
7.0
 40
8.0
 40
8.0
 40
8.0
 40
8.0
 10
37.45819091796875
 20
32.70294189453125
 30
0.0
 10
37.35894775390625
 20
32.32318115234375
 30
0.0
 10
37.435791015625
 20
31.8681640625
 30
0.0
 10
37.4176025390625
 20
31.47637939453125
 30
0.0
 10
37.39727783203125
 20
31.0391845703125
 30
0.0
 10
37.355712890625
 20
30.60321044921875
 30
0.0
 10
37.293701171875
 20
30.16998291015625
 30
0.0
 10
37.188720703125
 20
29.436767578125
 30
0.0
 10
36.9517822265625
 20
28.30963134765625
 30
0.0
 10
37.7918701171875
 20
27.88958740234375
 30
0.0
 10
38.15203857421875
 20
27.70947265625
 30
0.0
 10
38.556884765625
 20
27.811767578125
 30
0.0
 10
38.890869140625
 20
28.0489501953125
 30
0.0
 10
38.67327880859375
 20
28.4700927734375
 30
0.0
 10
38.53857421875
 20
28.94091796875
 30
0.0
 10
38.53857421875
 20
29.44757080078125
 30
0.0
 10
38.53857421875
 20
30.24224853515625
 30
0.0
 10
38.84881591796875
 20
30.95953369140625
 30
0.0
 10
39.3447265625
 20
31.50433349609375
 30
0.0
 10
39.1331787109375
 20
32.0892333984375
 30
0.0
 10
38.843994140625
 20
32.69000244140625
 30
0.0
 10
38.50469970703125
 20
33.163330078125
 30
0.0
 10
38.1434326171875
 20
33.667236328125
 30
0.0
 10
37.57598876953125
 20
33.15380859375
 30
0.0
 10
37.45819091796875
 20
32.70294189453125
 30
0.0
  0
SPLINE
  5
86
330
79
100
AcDbEntity
  8
Layer 2
100
AcDbSpline
210
0.0
220
0.0
230
1.0
 70
     9
 71
     3
 72
    14
 73
    10
 74
     0
 42
0.0000000001
 43
0.0000000001
 40
0.0
 40
0.0
 40
0.0
 40
0.0
 40
1.0
 40
1.0
 40
1.0
 40
2.0
 40
2.0
 40
2.0
 40
3.0
 40
3.0
 40
3.0
 40
3.0
 10
43.6312255859375
 20
53.27252197265625
 30
0.0
 10
43.875
 20
53.2335205078125
 30
0.0
 10
44.100830078125
 20
53.40509033203125
 30
0.0
 10
44.31951904296875
 20
53.5982666015625
 30
0.0
 10
44.31951904296875
 20
53.5982666015625
 30
0.0
 10
43.13201904296875
 20
53.5982666015625
 30
0.0
 10
43.13201904296875
 20
53.5982666015625
 30
0.0
 10
43.3013916015625
 20
53.42303466796875
 30
0.0
 10
43.47344970703125
 20
53.29779052734375
 30
0.0
 10
43.6312255859375
 20
53.27252197265625
 30
0.0
  0
SPLINE
  5
87
330
79
100
AcDbEntity
  8
Layer 2
100
AcDbSpline
210
0.0
220
0.0
230
1.0
 70
     9
 71
     3
 72
    29
 73
    25
 74
     0
 42
0.0000000001
 43
0.0000000001
 40
0.0
 40
0.0
 40
0.0
 40
0.0
 40
1.0
 40
1.0
 40
1.0
 40
2.0
 40
2.0
 40
2.0
 40
3.0
 40
3.0
 40
3.0
 40
4.0
 40
4.0
 40
4.0
 40
5.0
 40
5.0
 40
5.0
 40
6.0
 40
6.0
 40
6.0
 40
7.0
 40
7.0
 40
7.0
 40
8.0
 40
8.0
 40
8.0
 40
8.0
 10
9.867919921875
 20
32.41064453125
 30
0.0
 10
10.2596435546875
 20
32.5345458984375
 30
0.0
 10
10.3118896484375
 20
33.34149169921875
 30
0.0
 10
10.34521484375
 20
33.7509765625
 30
0.0
 10
10.44915771484375
 20
35.02691650390625
 30
0.0
 10
10.3697509765625
 20
36.31744384765625
 30
0.0
 10
10.112060546875
 20
37.57135009765625
 30
0.0
 10
10.07977294921875
 20
37.72833251953125
 30
0.0
 10
10.041259765625
 20
38.30517578125
 30
0.0
 10
9.83929443359375
 20
38.26226806640625
 30
0.0
 10
9.64947509765625
 20
38.221923828125
 30
0.0
 10
9.48779296875
 20
37.72540283203125
 30
0.0
 10
9.41619873046875
 20
37.5706787109375
 30
0.0
 10
9.16754150390625
 20
37.033203125
 30
0.0
 10
9.0445556640625
 20
36.5037841796875
 30
0.0
 10
8.76995849609375
 20
35.9791259765625
 30
0.0
 10
8.38922119140625
 20
35.25189208984375
 30
0.0
 10
8.43304443359375
 20
34.99249267578125
 30
0.0
 10
8.49542236328125
 20
34.3321533203125
 30
0.0
 10
8.52362060546875
 20
34.03436279296875
 30
0.0
 10
8.87481689453125
 20
33.48052978515625
 30
0.0
 10
9.04443359375
 20
33.23419189453125
 30
0.0
 10
9.214111328125
 20
32.98779296875
 30
0.0
 10
9.582763671875
 20
32.32049560546875
 30
0.0
 10
9.867919921875
 20
32.41064453125
 30
0.0
  0
SPLINE
  5
88
330
79
100
AcDbEntity
  8
Layer 2
100
AcDbSpline
210
0.0
220
0.0
230
1.0
 70
     9
 71
     3
 72
    35
 73
    31
 74
     0
 42
0.0000000001
 43
0.0000000001
 40
0.0
 40
0.0
 40
0.0
 40
0.0
 40
1.0
 40
1.0
 40
1.0
 40
2.0
 40
2.0
 40
2.0
 40
3.0
 40
3.0
 40
3.0
 40
4.0
 40
4.0
 40
4.0
 40
5.0
 40
5.0
 40
5.0
 40
6.0
 40
6.0
 40
6.0
 40
7.0
 40
7.0
 40
7.0
 40
8.0
 40
8.0
 40
8.0
 40
9.0
 40
9.0
 40
9.0
 40
10.0
 40
10.0
 40
10.0
 40
10.0
 10
15.426025390625
 20
59.72705078125
 30
0.0
 10
16.18243408203125
 20
59.72705078125
 30
0.0
 10
16.86590576171875
 20
59.4425048828125
 30
0.0
 10
17.4002685546875
 20
58.9881591796875
 30
0.0
 10
17.57489013671875
 20
59.65496826171875
 30
0.0
 10
17.7529296875
 20
60.5194091796875
 30
0.0
 10
17.96563720703125
 20
61.3702392578125
 30
0.0
 10
18.5146484375
 20
63.56622314453125
 30
0.0
 10
19.09710693359375
 20
64.921142578125
 30
0.0
 10
18.5146484375
 20
64.938720703125
 30
0.0
 10
18.21002197265625
 20
64.94793701171875
 30
0.0
 10
17.941162109375
 20
64.779541015625
 30
0.0
 10
17.777587890625
 20
64.70245361328125
 30
0.0
 10
17.12109375
 20
64.3929443359375
 30
0.0
 10
16.47540283203125
 20
64.06072998046875
 30
0.0
 10
15.8419189453125
 20
63.70654296875
 30
0.0
 10
15.2105712890625
 20
63.35357666015625
 30
0.0
 10
14.59136962890625
 20
62.978759765625
 30
0.0
 10
13.98590087890625
 20
62.58294677734375
 30
0.0
 10
13.0723876953125
 20
61.98583984375
 30
0.0
 10
12.176513671875
 20
61.32806396484375
 30
0.0
 10
11.51434326171875
 20
60.46063232421875
 30
0.0
 10
11.32464599609375
 20
60.212158203125
 30
0.0
 10
11.1676025390625
 20
59.944580078125
 30
0.0
 10
11.01763916015625
 20
59.673095703125
 30
0.0
 10
11.1920166015625
 20
59.70391845703125
 30
0.0
 10
11.36920166015625
 20
59.72705078125
 30
0.0
 10
11.55242919921875
 20
59.72705078125
 30
0.0
 10
11.55242919921875
 20
59.72705078125
 30
0.0
 10
15.426025390625
 20
59.72705078125
 30
0.0
 10
15.426025390625
 20
59.72705078125
 30
0.0
  0
HATCH
  5
89
330
79
100
AcDbEntity
  8
Layer 2
 62
    18
420
        0
440
 33554687
100
AcDbHatch
 10
0.0
 20
0.0
 30
0.0
210
0.0
220
0.0
230
1.0
  2
SOLID
 70
     1
 71
     1
 91
        1
 92
        1
 93
        1
 72
     4
 94
        3
 73
     0
 74
     0
 95
       35
 96
       31
 40
0.0
 40
0.0
 40
0.0
 40
0.0
 40
1.0
 40
1.0
 40
1.0
 40
2.0
 40
2.0
 40
2.0
 40
3.0
 40
3.0
 40
3.0
 40
4.0
 40
4.0
 40
4.0
 40
5.0
 40
5.0
 40
5.0
 40
6.0
 40
6.0
 40
6.0
 40
7.0
 40
7.0
 40
7.0
 40
8.0
 40
8.0
 40
8.0
 40
9.0
 40
9.0
 40
9.0
 40
10.0
 40
10.0
 40
10.0
 40
10.0
 10
15.426025390625
 20
59.72705078125
 10
16.18243408203125
 20
59.72705078125
 10
16.86590576171875
 20
59.4425048828125
 10
17.4002685546875
 20
58.9881591796875
 10
17.57489013671875
 20
59.65496826171875
 10
17.7529296875
 20
60.5194091796875
 10
17.96563720703125
 20
61.3702392578125
 10
18.5146484375
 20
63.56622314453125
 10
19.09710693359375
 20
64.921142578125
 10
18.5146484375
 20
64.938720703125
 10
18.21002197265625
 20
64.94793701171875
 10
17.941162109375
 20
64.779541015625
 10
17.777587890625
 20
64.70245361328125
 10
17.12109375
 20
64.3929443359375
 10
16.47540283203125
 20
64.06072998046875
 10
15.8419189453125
 20
63.70654296875
 10
15.2105712890625
 20
63.35357666015625
 10
14.59136962890625
 20
62.978759765625
 10
13.98590087890625
 20
62.58294677734375
 10
13.0723876953125
 20
61.98583984375
 10
12.176513671875
 20
61.32806396484375
 10
11.51434326171875
 20
60.46063232421875
 10
11.32464599609375
 20
60.212158203125
 10
11.1676025390625
 20
59.944580078125
 10
11.01763916015625
 20
59.673095703125
 10
11.1920166015625
 20
59.70391845703125
 10
11.36920166015625
 20
59.72705078125
 10
11.55242919921875
 20
59.72705078125
 10
11.55242919921875
 20
59.72705078125
 10
15.426025390625
 20
59.72705078125
 10
15.426025390625
 20
59.72705078125
 97
        0
 97
        1
330
88
 75
     2
 76
     1
 98
        1
 10
0.0
 20
0.0
450
        0
451
        0
460
0.0
461
0.0
452
        0
462
0.0
453
        0
470

  0
SPLINE
  5
8A
330
79
100
AcDbEntity
  8
Layer 2
100
AcDbSpline
210
0.0
220
0.0
230
1.0
 70
     9
 71
     3
 72
    35
 73
    31
 74
     0
 42
0.0000000001
 43
0.0000000001
 40
0.0
 40
0.0
 40
0.0
 40
0.0
 40
1.0
 40
1.0
 40
1.0
 40
2.0
 40
2.0
 40
2.0
 40
3.0
 40
3.0
 40
3.0
 40
4.0
 40
4.0
 40
4.0
 40
5.0
 40
5.0
 40
5.0
 40
6.0
 40
6.0
 40
6.0
 40
7.0
 40
7.0
 40
7.0
 40
8.0
 40
8.0
 40
8.0
 40
9.0
 40
9.0
 40
9.0
 40
10.0
 40
10.0
 40
10.0
 40
10.0
 10
11.55242919921875
 20
46.119140625
 30
0.0
 10
11.55242919921875
 20
46.119140625
 30
0.0
 10
13.501220703125
 20
46.119140625
 30
0.0
 10
13.501220703125
 20
46.119140625
 30
0.0
 10
13.75775146484375
 20
46.22589111328125
 30
0.0
 10
14.01251220703125
 20
46.34625244140624
 30
0.0
 10
14.18682861328125
 20
46.55908203125
 30
0.0
 10
14.5238037109375
 20
46.97052001953125
 30
0.0
 10
14.46661376953125
 20
47.56451416015624
 30
0.0
 10
14.4166259765625
 20
48.093994140625
 30
0.0
 10
14.2435302734375
 20
49.929443359375
 30
0.0
 10
14.37493896484375
 20
51.7691650390625
 30
0.0
 10
14.62054443359375
 20
53.60064697265625
 30
0.0
 10
14.62054443359375
 20
53.60064697265625
 30
0.0
 10
11.55242919921875
 20
53.60064697265625
 30
0.0
 10
11.55242919921875
 20
53.60064697265625
 30
0.0
 10
11.48126220703125
 20
53.60064697265625
 30
0.0
 10
11.41461181640625
 20
53.6168212890625
 30
0.0
 10
11.34466552734375
 20
53.62158203125
 30
0.0
 10
10.762451171875
 20
50.6533203125
 30
0.0
 10
9.7962646484375
 20
47.76068115234375
 30
0.0
 10
8.43133544921875
 20
45.061279296875
 30
0.0
 10
8.34234619140625
 20
44.88537597656249
 30
0.0
 10
8.25048828125
 20
44.67840576171875
 30
0.0
 10
8.33331298828125
 20
44.49951171875
 30
0.0
 10
8.40826416015625
 20
44.33770751953125
 30
0.0
 10
8.57305908203125
 20
44.2904052734375
 30
0.0
 10
8.755859375
 20
44.29608154296874
 30
0.0
 10
9.23236083984375
 20
45.36877441406249
 30
0.0
 10
10.30291748046875
 20
46.119140625
 30
0.0
 10
11.55242919921875
 20
46.119140625
 30
0.0
  0
HATCH
  5
8B
330
79
100
AcDbEntity
  8
Layer 2
 62
    18
420
        0
440
 33554687
100
AcDbHatch
 10
0.0
 20
0.0
 30
0.0
210
0.0
220
0.0
230
1.0
  2
SOLID
 70
     1
 71
     1
 91
        1
 92
        1
 93
        1
 72
     4
 94
        3
 73
     0
 74
     0
 95
       35
 96
       31
 40
0.0
 40
0.0
 40
0.0
 40
0.0
 40
1.0
 40
1.0
 40
1.0
 40
2.0
 40
2.0
 40
2.0
 40
3.0
 40
3.0
 40
3.0
 40
4.0
 40
4.0
 40
4.0
 40
5.0
 40
5.0
 40
5.0
 40
6.0
 40
6.0
 40
6.0
 40
7.0
 40
7.0
 40
7.0
 40
8.0
 40
8.0
 40
8.0
 40
9.0
 40
9.0
 40
9.0
 40
10.0
 40
10.0
 40
10.0
 40
10.0
 10
11.55242919921875
 20
46.119140625
 10
11.55242919921875
 20
46.119140625
 10
13.501220703125
 20
46.119140625
 10
13.501220703125
 20
46.119140625
 10
13.75775146484375
 20
46.22589111328125
 10
14.01251220703125
 20
46.34625244140624
 10
14.18682861328125
 20
46.55908203125
 10
14.5238037109375
 20
46.97052001953125
 10
14.46661376953125
 20
47.56451416015624
 10
14.4166259765625
 20
48.093994140625
 10
14.2435302734375
 20
49.929443359375
 10
14.37493896484375
 20
51.7691650390625
 10
14.62054443359375
 20
53.60064697265625
 10
14.62054443359375
 20
53.60064697265625
 10
11.55242919921875
 20
53.60064697265625
 10
11.55242919921875
 20
53.60064697265625
 10
11.48126220703125
 20
53.60064697265625
 10
11.41461181640625
 20
53.6168212890625
 10
11.34466552734375
 20
53.62158203125
 10
10.762451171875
 20
50.6533203125
 10
9.7962646484375
 20
47.76068115234375
 10
8.43133544921875
 20
45.061279296875
 10
8.34234619140625
 20
44.88537597656249
 10
8.25048828125
 20
44.67840576171875
 10
8.33331298828125
 20
44.49951171875
 10
8.40826416015625
 20
44.33770751953125
 10
8.57305908203125
 20
44.2904052734375
 10
8.755859375
 20
44.29608154296874
 10
9.23236083984375
 20
45.36877441406249
 10
10.30291748046875
 20
46.119140625
 10
11.55242919921875
 20
46.119140625
 97
        0
 97
        1
330
8A
 75
     2
 76
     1
 98
        1
 10
0.0
 20
0.0
450
        0
451
        0
460
0.0
461
0.0
452
        0
462
0.0
453
        0
470

  0
SPLINE
  5
8C
330
79
100
AcDbEntity
  8
Layer 2
100
AcDbSpline
210
0.0
220
0.0
230
1.0
 70
     9
 71
     3
 72
    29
 73
    25
 74
     0
 42
0.0000000001
 43
0.0000000001
 40
0.0
 40
0.0
 40
0.0
 40
0.0
 40
1.0
 40
1.0
 40
1.0
 40
2.0
 40
2.0
 40
2.0
 40
3.0
 40
3.0
 40
3.0
 40
4.0
 40
4.0
 40
4.0
 40
5.0
 40
5.0
 40
5.0
 40
6.0
 40
6.0
 40
6.0
 40
7.0
 40
7.0
 40
7.0
 40
8.0
 40
8.0
 40
8.0
 40
8.0
 10
32.9539794921875
 20
58.41998291015625
 30
0.0
 10
32.61895751953125
 20
60.387451171875
 30
0.0
 10
32.63311767578125
 20
62.40753173828125
 30
0.0
 10
32.20709228515625
 20
64.357421875
 30
0.0
 10
32.04241943359375
 20
65.111328125
 30
0.0
 10
31.79144287109375
 20
65.8857421875
 30
0.0
 10
31.23480224609375
 20
66.42022705078125
 30
0.0
 10
30.75543212890625
 20
66.8804931640625
 30
0.0
 10
30.0196533203125
 20
67.05645751953125
 30
0.0
 10
29.37139892578125
 20
66.93035888671875
 30
0.0
 10
28.77215576171875
 20
66.81378173828125
 30
0.0
 10
28.645263671875
 20
66.2337646484375
 30
0.0
 10
28.61749267578125
 20
65.70025634765625
 30
0.0
 10
28.59222412109375
 20
65.21533203125
 30
0.0
 10
28.65093994140625
 20
64.73052978515625
 30
0.0
 10
28.70947265625
 20
64.25006103515625
 30
0.0
 10
28.89495849609375
 20
62.726318359375
 30
0.0
 10
28.95794677734375
 20
61.2235107421875
 30
0.0
 10
28.95257568359375
 20
59.72943115234375
 30
0.0
 10
28.95257568359375
 20
59.72943115234375
 30
0.0
 10
30.44659423828125
 20
59.72943115234375
 30
0.0
 10
30.44659423828125
 20
59.72943115234375
 30
0.0
 10
31.4852294921875
 20
59.72943115234375
 30
0.0
 10
32.39947509765625
 20
59.21002197265625
 30
0.0
 10
32.9539794921875
 20
58.41998291015625
 30
0.0
  0
HATCH
  5
8D
330
79
100
AcDbEntity
  8
Layer 2
 62
    18
420
        0
440
 33554687
100
AcDbHatch
 10
0.0
 20
0.0
 30
0.0
210
0.0
220
0.0
230
1.0
  2
SOLID
 70
     1
 71
     1
 91
        1
 92
        1
 93
        1
 72
     4
 94
        3
 73
     0
 74
     0
 95
       29
 96
       25
 40
0.0
 40
0.0
 40
0.0
 40
0.0
 40
1.0
 40
1.0
 40
1.0
 40
2.0
 40
2.0
 40
2.0
 40
3.0
 40
3.0
 40
3.0
 40
4.0
 40
4.0
 40
4.0
 40
5.0
 40
5.0
 40
5.0
 40
6.0
 40
6.0
 40
6.0
 40
7.0
 40
7.0
 40
7.0
 40
8.0
 40
8.0
 40
8.0
 40
8.0
 10
32.9539794921875
 20
58.41998291015625
 10
32.61895751953125
 20
60.387451171875
 10
32.63311767578125
 20
62.40753173828125
 10
32.20709228515625
 20
64.357421875
 10
32.04241943359375
 20
65.111328125
 10
31.79144287109375
 20
65.8857421875
 10
31.23480224609375
 20
66.42022705078125
 10
30.75543212890625
 20
66.8804931640625
 10
30.0196533203125
 20
67.05645751953125
 10
29.37139892578125
 20
66.93035888671875
 10
28.77215576171875
 20
66.81378173828125
 10
28.645263671875
 20
66.2337646484375
 10
28.61749267578125
 20
65.70025634765625
 10
28.59222412109375
 20
65.21533203125
 10
28.65093994140625
 20
64.73052978515625
 10
28.70947265625
 20
64.25006103515625
 10
28.89495849609375
 20
62.726318359375
 10
28.95794677734375
 20
61.2235107421875
 10
28.95257568359375
 20
59.72943115234375
 10
28.95257568359375
 20
59.72943115234375
 10
30.44659423828125
 20
59.72943115234375
 10
30.44659423828125
 20
59.72943115234375
 10
31.4852294921875
 20
59.72943115234375
 10
32.39947509765625
 20
59.21002197265625
 10
32.9539794921875
 20
58.41998291015625
 97
        0
 97
        1
330
8C
 75
     2
 76
     1
 98
        1
 10
0.0
 20
0.0
450
        0
451
        0
460
0.0
461
0.0
452
        0
462
0.0
453
        0
470

  0
SPLINE
  5
8E
330
79
100
AcDbEntity
  8
Layer 2
100
AcDbSpline
210
0.0
220
0.0
230
1.0
 70
     9
 71
     3
 72
    35
 73
    31
 74
     0
 42
0.0000000001
 43
0.0000000001
 40
0.0
 40
0.0
 40
0.0
 40
0.0
 40
1.0
 40
1.0
 40
1.0
 40
2.0
 40
2.0
 40
2.0
 40
3.0
 40
3.0
 40
3.0
 40
4.0
 40
4.0
 40
4.0
 40
5.0
 40
5.0
 40
5.0
 40
6.0
 40
6.0
 40
6.0
 40
7.0
 40
7.0
 40
7.0
 40
8.0
 40
8.0
 40
8.0
 40
9.0
 40
9.0
 40
9.0
 40
10.0
 40
10.0
 40
10.0
 40
10.0
 10
28.65045166015625
 20
53.5982666015625
 30
0.0
 10
28.48455810546875
 20
51.41143798828125
 30
0.0
 10
28.3046875
 20
49.21051025390625
 30
0.0
 10
28.25933837890625
 20
46.9591064453125
 30
0.0
 10
28.2542724609375
 20
46.7064208984375
 30
0.0
 10
28.224609375
 20
46.41448974609375
 30
0.0
 10
28.21136474609375
 20
46.12152099609375
 30
0.0
 10
28.21136474609375
 20
46.12152099609375
 30
0.0
 10
30.44659423828125
 20
46.12152099609375
 30
0.0
 10
30.44659423828125
 20
46.12152099609375
 30
0.0
 10
32.1397705078125
 20
46.12152099609375
 30
0.0
 10
33.51220703125
 20
44.7491455078125
 30
0.0
 10
33.51220703125
 20
43.05596923828125
 30
0.0
 10
33.51220703125
 20
42.64050292968749
 30
0.0
 10
33.4276123046875
 20
42.24530029296874
 30
0.0
 10
33.27789306640625
 20
41.88397216796874
 30
0.0
 10
33.44122314453125
 20
41.88818359375
 30
0.0
 10
33.60076904296875
 20
41.91912841796875
 30
0.0
 10
33.749267578125
 20
42.01812744140625
 30
0.0
 10
34.35589599609375
 20
42.4224853515625
 30
0.0
 10
33.47802734375
 20
45.95306396484375
 30
0.0
 10
33.1240234375
 20
47.45751953125
 30
0.0
 10
32.6109619140625
 20
49.63812255859375
 30
0.0
 10
32.2760009765625
 20
51.85943603515625
 30
0.0
 10
32.108154296875
 20
54.09332275390625
 30
0.0
 10
31.62884521484375
 20
53.78289794921875
 30
0.0
 10
31.0601806640625
 20
53.5982666015625
 30
0.0
 10
30.44659423828125
 20
53.5982666015625
 30
0.0
 10
30.44659423828125
 20
53.5982666015625
 30
0.0
 10
28.65045166015625
 20
53.5982666015625
 30
0.0
 10
28.65045166015625
 20
53.5982666015625
 30
0.0
  0
HATCH
  5
8F
330
79
100
AcDbEntity
  8
Layer 2
 62
    18
420
        0
440
 33554687
100
AcDbHatch
 10
0.0
 20
0.0
 30
0.0
210
0.0
220
0.0
230
1.0
  2
SOLID
 70
     1
 71
     1
 91
        1
 92
        1
 93
        1
 72
     4
 94
        3
 73
     0
 74
     0
 95
       35
 96
       31
 40
0.0
 40
0.0
 40
0.0
 40
0.0
 40
1.0
 40
1.0
 40
1.0
 40
2.0
 40
2.0
 40
2.0
 40
3.0
 40
3.0
 40
3.0
 40
4.0
 40
4.0
 40
4.0
 40
5.0
 40
5.0
 40
5.0
 40
6.0
 40
6.0
 40
6.0
 40
7.0
 40
7.0
 40
7.0
 40
8.0
 40
8.0
 40
8.0
 40
9.0
 40
9.0
 40
9.0
 40
10.0
 40
10.0
 40
10.0
 40
10.0
 10
28.65045166015625
 20
53.5982666015625
 10
28.48455810546875
 20
51.41143798828125
 10
28.3046875
 20
49.21051025390625
 10
28.25933837890625
 20
46.9591064453125
 10
28.2542724609375
 20
46.7064208984375
 10
28.224609375
 20
46.41448974609375
 10
28.21136474609375
 20
46.12152099609375
 10
28.21136474609375
 20
46.12152099609375
 10
30.44659423828125
 20
46.12152099609375
 10
30.44659423828125
 20
46.12152099609375
 10
32.1397705078125
 20
46.12152099609375
 10
33.51220703125
 20
44.7491455078125
 10
33.51220703125
 20
43.05596923828125
 10
33.51220703125
 20
42.64050292968749
 10
33.4276123046875
 20
42.24530029296874
 10
33.27789306640625
 20
41.88397216796874
 10
33.44122314453125
 20
41.88818359375
 10
33.60076904296875
 20
41.91912841796875
 10
33.749267578125
 20
42.01812744140625
 10
34.35589599609375
 20
42.4224853515625
 10
33.47802734375
 20
45.95306396484375
 10
33.1240234375
 20
47.45751953125
 10
32.6109619140625
 20
49.63812255859375
 10
32.2760009765625
 20
51.85943603515625
 10
32.108154296875
 20
54.09332275390625
 10
31.62884521484375
 20
53.78289794921875
 10
31.0601806640625
 20
53.5982666015625
 10
30.44659423828125
 20
53.5982666015625
 10
30.44659423828125
 20
53.5982666015625
 10
28.65045166015625
 20
53.5982666015625
 10
28.65045166015625
 20
53.5982666015625
 97
        0
 97
        1
330
8E
 75
     2
 76
     1
 98
        1
 10
0.0
 20
0.0
450
        0
451
        0
460
0.0
461
0.0
452
        0
462
0.0
453
        0
470

  0
SPLINE
  5
90
330
79
100
AcDbEntity
  8
Layer 2
100
AcDbSpline
210
0.0
220
0.0
230
1.0
 70
     9
 71
     3
 72
    56
 73
    52
 74
     0
 42
0.0000000001
 43
0.0000000001
 40
0.0
 40
0.0
 40
0.0
 40
0.0
 40
1.0
 40
1.0
 40
1.0
 40
2.0
 40
2.0
 40
2.0
 40
3.0
 40
3.0
 40
3.0
 40
4.0
 40
4.0
 40
4.0
 40
5.0
 40
5.0
 40
5.0
 40
6.0
 40
6.0
 40
6.0
 40
7.0
 40
7.0
 40
7.0
 40
8.0
 40
8.0
 40
8.0
 40
9.0
 40
9.0
 40
9.0
 40
10.0
 40
10.0
 40
10.0
 40
11.0
 40
11.0
 40
11.0
 40
12.0
 40
12.0
 40
12.0
 40
13.0
 40
13.0
 40
13.0
 40
14.0
 40
14.0
 40
14.0
 40
15.0
 40
15.0
 40
15.0
 40
16.0
 40
16.0
 40
16.0
 40
17.0
 40
17.0
 40
17.0
 40
17.0
 10
40.19647216796875
 20
45.76428222656249
 30
0.0
 10
39.5074462890625
 20
49.09954833984375
 30
0.0
 10
37.0142822265625
 20
52.04998779296875
 30
0.0
 10
36.45355224609375
 20
55.480224609375
 30
0.0
 10
36.19561767578125
 20
57.05816650390625
 30
0.0
 10
36.36016845703125
 20
58.66961669921875
 30
0.0
 10
36.4000244140625
 20
60.26800537109375
 30
0.0
 10
36.4398193359375
 20
61.866455078125
 30
0.0
 10
36.3392333984375
 20
63.5252685546875
 30
0.0
 10
35.606201171875
 20
64.94622802734375
 30
0.0
 10
35.43597412109375
 20
65.2762451171875
 30
0.0
 10
35.2220458984375
 20
65.60064697265625
 30
0.0
 10
34.90374755859375
 20
65.791748046875
 30
0.0
 10
34.58544921875
 20
65.98291015625
 30
0.0
 10
34.14117431640625
 20
66.005126953125
 30
0.0
 10
33.86407470703125
 20
65.758056640625
 30
0.0
 10
33.65704345703125
 20
65.573486328125
 30
0.0
 10
33.5819091796875
 20
65.2850341796875
 30
0.0
 10
33.53302001953125
 20
65.01202392578125
 30
0.0
 10
33.1771240234375
 20
63.02301025390625
 30
0.0
 10
33.67388916015625
 20
60.98516845703125
 30
0.0
 10
34.2789306640625
 20
59.0572509765625
 30
0.0
 10
34.8839111328125
 20
57.12933349609375
 30
0.0
 10
35.6070556640625
 20
55.2047119140625
 30
0.0
 10
35.7177734375
 20
53.1871337890625
 30
0.0
 10
35.4788818359375
 20
53.046630859375
 30
0.0
 10
34.26190185546875
 20
54.88800048828125
 30
0.0
 10
33.51141357421875
 20
56.656005859375
 30
0.0
 10
33.50885009765625
 20
55.67901611328125
 30
0.0
 10
33.04180908203125
 20
54.81939697265625
 30
0.0
 10
32.327880859375
 20
54.259765625
 30
0.0
 10
33.00933837890625
 20
53.4207763671875
 30
0.0
 10
33.32928466796875
 20
52.32293701171875
 30
0.0
 10
33.57415771484375
 20
51.25531005859375
 30
0.0
 10
34.07635498046875
 20
49.0657958984375
 30
0.0
 10
34.47955322265625
 20
46.8536376953125
 30
0.0
 10
34.78216552734375
 20
44.62774658203125
 30
0.0
 10
34.87445068359375
 20
43.9493408203125
 30
0.0
 10
34.64923095703125
 20
43.3370361328125
 30
0.0
 10
35.12176513671875
 20
42.84161376953124
 30
0.0
 10
35.727783203125
 20
42.20623779296874
 30
0.0
 10
36.98876953125
 20
42.2818603515625
 30
0.0
 10
37.86676025390625
 20
42.29260253906249
 30
0.0
 10
38.11810302734375
 20
42.29565429687499
 30
0.0
 10
38.3868408203125
 20
42.27874755859375
 30
0.0
 10
38.6512451171875
 20
42.2757568359375
 30
0.0
 10
38.5850830078125
 20
42.52630615234375
 30
0.0
 10
38.53857421875
 20
42.78460693359375
 30
0.0
 10
38.53857421875
 20
43.05596923828125
 30
0.0
 10
38.53857421875
 20
44.23870849609374
 30
0.0
 10
39.215576171875
 20
45.2530517578125
 30
0.0
 10
40.19647216796875
 20
45.76428222656249
 30
0.0
  0
HATCH
  5
91
330
79
100
AcDbEntity
  8
Layer 2
 62
    18
420
        0
440
 33554687
100
AcDbHatch
 10
0.0
 20
0.0
 30
0.0
210
0.0
220
0.0
230
1.0
  2
SOLID
 70
     1
 71
     1
 91
        1
 92
        1
 93
        1
 72
     4
 94
        3
 73
     0
 74
     0
 95
       56
 96
       52
 40
0.0
 40
0.0
 40
0.0
 40
0.0
 40
1.0
 40
1.0
 40
1.0
 40
2.0
 40
2.0
 40
2.0
 40
3.0
 40
3.0
 40
3.0
 40
4.0
 40
4.0
 40
4.0
 40
5.0
 40
5.0
 40
5.0
 40
6.0
 40
6.0
 40
6.0
 40
7.0
 40
7.0
 40
7.0
 40
8.0
 40
8.0
 40
8.0
 40
9.0
 40
9.0
 40
9.0
 40
10.0
 40
10.0
 40
10.0
 40
11.0
 40
11.0
 40
11.0
 40
12.0
 40
12.0
 40
12.0
 40
13.0
 40
13.0
 40
13.0
 40
14.0
 40
14.0
 40
14.0
 40
15.0
 40
15.0
 40
15.0
 40
16.0
 40
16.0
 40
16.0
 40
17.0
 40
17.0
 40
17.0
 40
17.0
 10
40.19647216796875
 20
45.76428222656249
 10
39.5074462890625
 20
49.09954833984375
 10
37.0142822265625
 20
52.04998779296875
 10
36.45355224609375
 20
55.480224609375
 10
36.19561767578125
 20
57.05816650390625
 10
36.36016845703125
 20
58.66961669921875
 10
36.4000244140625
 20
60.26800537109375
 10
36.4398193359375
 20
61.866455078125
 10
36.3392333984375
 20
63.5252685546875
 10
35.606201171875
 20
64.94622802734375
 10
35.43597412109375
 20
65.2762451171875
 10
35.2220458984375
 20
65.60064697265625
 10
34.90374755859375
 20
65.791748046875
 10
34.58544921875
 20
65.98291015625
 10
34.14117431640625
 20
66.005126953125
 10
33.86407470703125
 20
65.758056640625
 10
33.65704345703125
 20
65.573486328125
 10
33.5819091796875
 20
65.2850341796875
 10
33.53302001953125
 20
65.01202392578125
 10
33.1771240234375
 20
63.02301025390625
 10
33.67388916015625
 20
60.98516845703125
 10
34.2789306640625
 20
59.0572509765625
 10
34.8839111328125
 20
57.12933349609375
 10
35.6070556640625
 20
55.2047119140625
 10
35.7177734375
 20
53.1871337890625
 10
35.4788818359375
 20
53.046630859375
 10
34.26190185546875
 20
54.88800048828125
 10
33.51141357421875
 20
56.656005859375
 10
33.50885009765625
 20
55.67901611328125
 10
33.04180908203125
 20
54.81939697265625
 10
32.327880859375
 20
54.259765625
 10
33.00933837890625
 20
53.4207763671875
 10
33.32928466796875
 20
52.32293701171875
 10
33.57415771484375
 20
51.25531005859375
 10
34.07635498046875
 20
49.0657958984375
 10
34.47955322265625
 20
46.8536376953125
 10
34.78216552734375
 20
44.62774658203125
 10
34.87445068359375
 20
43.9493408203125
 10
34.64923095703125
 20
43.3370361328125
 10
35.12176513671875
 20
42.84161376953124
 10
35.727783203125
 20
42.20623779296874
 10
36.98876953125
 20
42.2818603515625
 10
37.86676025390625
 20
42.29260253906249
 10
38.11810302734375
 20
42.29565429687499
 10
38.3868408203125
 20
42.27874755859375
 10
38.6512451171875
 20
42.2757568359375
 10
38.5850830078125
 20
42.52630615234375
 10
38.53857421875
 20
42.78460693359375
 10
38.53857421875
 20
43.05596923828125
 10
38.53857421875
 20
44.23870849609374
 10
39.215576171875
 20
45.2530517578125
 10
40.19647216796875
 20
45.76428222656249
 97
        0
 97
        1
330
90
 75
     2
 76
     1
 98
        1
 10
0.0
 20
0.0
450
        0
451
        0
460
0.0
461
0.0
452
        0
462
0.0
453
        0
470

  0
SPLINE
  5
92
330
79
100
AcDbEntity
  8
Layer 2
100
AcDbSpline
210
0.0
220
0.0
230
1.0
 70
     9
 71
     3
 72
    74
 73
    70
 74
     0
 42
0.0000000001
 43
0.0000000001
 40
0.0
 40
0.0
 40
0.0
 40
0.0
 40
1.0
 40
1.0
 40
1.0
 40
2.0
 40
2.0
 40
2.0
 40
3.0
 40
3.0
 40
3.0
 40
4.0
 40
4.0
 40
4.0
 40
5.0
 40
5.0
 40
5.0
 40
6.0
 40
6.0
 40
6.0
 40
7.0
 40
7.0
 40
7.0
 40
8.0
 40
8.0
 40
8.0
 40
9.0
 40
9.0
 40
9.0
 40
10.0
 40
10.0
 40
10.0
 40
11.0
 40
11.0
 40
11.0
 40
12.0
 40
12.0
 40
12.0
 40
13.0
 40
13.0
 40
13.0
 40
14.0
 40
14.0
 40
14.0
 40
15.0
 40
15.0
 40
15.0
 40
16.0
 40
16.0
 40
16.0
 40
17.0
 40
17.0
 40
17.0
 40
18.0
 40
18.0
 40
18.0
 40
19.0
 40
19.0
 40
19.0
 40
20.0
 40
20.0
 40
20.0
 40
21.0
 40
21.0
 40
21.0
 40
22.0
 40
22.0
 40
22.0
 40
23.0
 40
23.0
 40
23.0
 40
23.0
 10
45.47296142578125
 20
46.12152099609375
 30
0.0
 10
46.84796142578124
 20
46.12152099609375
 30
0.0
 10
47.99774169921875
 20
45.21038818359374
 30
0.0
 10
48.38641357421875
 20
43.96343994140624
 30
0.0
 10
49.3134765625
 20
44.28399658203125
 30
0.0
 10
50.0748291015625
 20
44.58648681640625
 30
0.0
 10
50.21917724609375
 20
44.76312255859375
 30
0.0
 10
50.63641357421875
 20
45.27374267578125
 30
0.0
 10
50.52032470703125
 20
46.02569580078125
 30
0.0
 10
50.49371337890625
 20
46.6845703125
 30
0.0
 10
50.431396484375
 20
48.22589111328125
 30
0.0
 10
50.1453857421875
 20
49.0609130859375
 30
0.0
 10
49.81170654296875
 20
50.56695556640625
 30
0.0
 10
49.7586669921875
 20
50.80633544921875
 30
0.0
 10
49.6943359375
 20
51.05352783203125
 30
0.0
 10
49.53619384765625
 20
51.24090576171875
 30
0.0
 10
49.37811279296875
 20
51.4283447265625
 30
0.0
 10
49.0992431640625
 20
51.5364990234375
 30
0.0
 10
48.88006591796875
 20
51.426513671875
 30
0.0
 10
48.61419677734375
 20
51.29302978515625
 30
0.0
 10
48.56976318359375
 20
50.94232177734375
 30
0.0
 10
48.51922607421875
 20
50.64910888671875
 30
0.0
 10
48.2474365234375
 20
49.0733642578125
 30
0.0
 10
46.7010498046875
 20
47.8226318359375
 30
0.0
 10
45.10333251953125
 20
47.88641357421875
 30
0.0
 10
44.73614501953124
 20
47.90106201171875
 30
0.0
 10
44.35882568359375
 20
47.982666015625
 30
0.0
 10
44.06567382812499
 20
48.2042236328125
 30
0.0
 10
43.7725830078125
 20
48.42578125
 30
0.0
 10
43.5831298828125
 20
48.80987548828125
 30
0.0
 10
43.6693115234375
 20
49.16705322265625
 30
0.0
 10
43.80328369140625
 20
49.7220458984375
 30
0.0
 10
43.89013671875
 20
50.71734619140625
 30
0.0
 10
44.4547119140625
 20
50.80206298828125
 30
0.0
 10
45.01934814453124
 20
50.88677978515625
 30
0.0
 10
46.25256347656249
 20
50.210693359375
 30
0.0
 10
46.53210449218749
 20
50.70849609375
 30
0.0
 10
46.7723388671875
 20
51.13641357421875
 30
0.0
 10
46.61816406249999
 20
51.6688232421875
 30
0.0
 10
46.45916748046874
 20
52.13311767578125
 30
0.0
 10
46.2791748046875
 20
52.6588134765625
 30
0.0
 10
46.06640624999999
 20
53.21368408203125
 30
0.0
 10
45.710205078125
 20
53.6221923828125
 30
0.0
 10
45.63055419921875
 20
53.615966796875
 30
0.0
 10
45.55419921875
 20
53.5982666015625
 30
0.0
 10
45.47296142578125
 20
53.5982666015625
 30
0.0
 10
45.47296142578125
 20
53.5982666015625
 30
0.0
 10
44.31951904296875
 20
53.5982666015625
 30
0.0
 10
44.31951904296875
 20
53.5982666015625
 30
0.0
 10
44.100830078125
 20
53.40509033203125
 30
0.0
 10
43.875
 20
53.2335205078125
 30
0.0
 10
43.6312255859375
 20
53.27252197265625
 30
0.0
 10
43.47344970703125
 20
53.29779052734375
 30
0.0
 10
43.3013916015625
 20
53.42303466796875
 30
0.0
 10
43.13201904296875
 20
53.5982666015625
 30
0.0
 10
43.13201904296875
 20
53.5982666015625
 30
0.0
 10
41.60418701171875
 20
53.5982666015625
 30
0.0
 10
41.60418701171875
 20
53.5982666015625
 30
0.0
 10
41.06427001953124
 20
53.5982666015625
 30
0.0
 10
40.5645751953125
 20
53.7498779296875
 30
0.0
 10
40.12396240234375
 20
53.994873046875
 30
0.0
 10
40.88714599609375
 20
51.432373046875
 30
0.0
 10
41.29534912109375
 20
48.76629638671875
 30
0.0
 10
41.3179931640625
 20
46.09271240234375
 30
0.0
 10
41.41369628906249
 20
46.1016845703125
 30
0.0
 10
41.50616455078124
 20
46.12152099609375
 30
0.0
 10
41.60418701171875
 20
46.12152099609375
 30
0.0
 10
41.60418701171875
 20
46.12152099609375
 30
0.0
 10
45.47296142578125
 20
46.12152099609375
 30
0.0
 10
45.47296142578125
 20
46.12152099609375
 30
0.0
  0
HATCH
  5
93
330
79
100
AcDbEntity
  8
Layer 2
 62
    18
420
        0
440
 33554687
100
AcDbHatch
 10
0.0
 20
0.0
 30
0.0
210
0.0
220
0.0
230
1.0
  2
SOLID
 70
     1
 71
     1
 91
        1
 92
        1
 93
        1
 72
     4
 94
        3
 73
     0
 74
     0
 95
       74
 96
       70
 40
0.0
 40
0.0
 40
0.0
 40
0.0
 40
1.0
 40
1.0
 40
1.0
 40
2.0
 40
2.0
 40
2.0
 40
3.0
 40
3.0
 40
3.0
 40
4.0
 40
4.0
 40
4.0
 40
5.0
 40
5.0
 40
5.0
 40
6.0
 40
6.0
 40
6.0
 40
7.0
 40
7.0
 40
7.0
 40
8.0
 40
8.0
 40
8.0
 40
9.0
 40
9.0
 40
9.0
 40
10.0
 40
10.0
 40
10.0
 40
11.0
 40
11.0
 40
11.0
 40
12.0
 40
12.0
 40
12.0
 40
13.0
 40
13.0
 40
13.0
 40
14.0
 40
14.0
 40
14.0
 40
15.0
 40
15.0
 40
15.0
 40
16.0
 40
16.0
 40
16.0
 40
17.0
 40
17.0
 40
17.0
 40
18.0
 40
18.0
 40
18.0
 40
19.0
 40
19.0
 40
19.0
 40
20.0
 40
20.0
 40
20.0
 40
21.0
 40
21.0
 40
21.0
 40
22.0
 40
22.0
 40
22.0
 40
23.0
 40
23.0
 40
23.0
 40
23.0
 10
45.47296142578125
 20
46.12152099609375
 10
46.84796142578124
 20
46.12152099609375
 10
47.99774169921875
 20
45.21038818359374
 10
48.38641357421875
 20
43.96343994140624
 10
49.3134765625
 20
44.28399658203125
 10
50.0748291015625
 20
44.58648681640625
 10
50.21917724609375
 20
44.76312255859375
 10
50.63641357421875
 20
45.27374267578125
 10
50.52032470703125
 20
46.02569580078125
 10
50.49371337890625
 20
46.6845703125
 10
50.431396484375
 20
48.22589111328125
 10
50.1453857421875
 20
49.0609130859375
 10
49.81170654296875
 20
50.56695556640625
 10
49.7586669921875
 20
50.80633544921875
 10
49.6943359375
 20
51.05352783203125
 10
49.53619384765625
 20
51.24090576171875
 10
49.37811279296875
 20
51.4283447265625
 10
49.0992431640625
 20
51.5364990234375
 10
48.88006591796875
 20
51.426513671875
 10
48.61419677734375
 20
51.29302978515625
 10
48.56976318359375
 20
50.94232177734375
 10
48.51922607421875
 20
50.64910888671875
 10
48.2474365234375
 20
49.0733642578125
 10
46.7010498046875
 20
47.8226318359375
 10
45.10333251953125
 20
47.88641357421875
 10
44.73614501953124
 20
47.90106201171875
 10
44.35882568359375
 20
47.982666015625
 10
44.06567382812499
 20
48.2042236328125
 10
43.7725830078125
 20
48.42578125
 10
43.5831298828125
 20
48.80987548828125
 10
43.6693115234375
 20
49.16705322265625
 10
43.80328369140625
 20
49.7220458984375
 10
43.89013671875
 20
50.71734619140625
 10
44.4547119140625
 20
50.80206298828125
 10
45.01934814453124
 20
50.88677978515625
 10
46.25256347656249
 20
50.210693359375
 10
46.53210449218749
 20
50.70849609375
 10
46.7723388671875
 20
51.13641357421875
 10
46.61816406249999
 20
51.6688232421875
 10
46.45916748046874
 20
52.13311767578125
 10
46.2791748046875
 20
52.6588134765625
 10
46.06640624999999
 20
53.21368408203125
 10
45.710205078125
 20
53.6221923828125
 10
45.63055419921875
 20
53.615966796875
 10
45.55419921875
 20
53.5982666015625
 10
45.47296142578125
 20
53.5982666015625
 10
45.47296142578125
 20
53.5982666015625
 10
44.31951904296875
 20
53.5982666015625
 10
44.31951904296875
 20
53.5982666015625
 10
44.100830078125
 20
53.40509033203125
 10
43.875
 20
53.2335205078125
 10
43.6312255859375
 20
53.27252197265625
 10
43.47344970703125
 20
53.29779052734375
 10
43.3013916015625
 20
53.42303466796875
 10
43.13201904296875
 20
53.5982666015625
 10
43.13201904296875
 20
53.5982666015625
 10
41.60418701171875
 20
53.5982666015625
 10
41.60418701171875
 20
53.5982666015625
 10
41.06427001953124
 20
53.5982666015625
 10
40.5645751953125
 20
53.7498779296875
 10
40.12396240234375
 20
53.994873046875
 10
40.88714599609375
 20
51.432373046875
 10
41.29534912109375
 20
48.76629638671875
 10
41.3179931640625
 20
46.09271240234375
 10
41.41369628906249
 20
46.1016845703125
 10
41.50616455078124
 20
46.12152099609375
 10
41.60418701171875
 20
46.12152099609375
 10
41.60418701171875
 20
46.12152099609375
 10
45.47296142578125
 20
46.12152099609375
 10
45.47296142578125
 20
46.12152099609375
 97
        0
 97
        1
330
92
 75
     2
 76
     1
 98
        1
 10
0.0
 20
0.0
450
        0
451
        0
460
0.0
461
0.0
452
        0
462
0.0
453
        0
470

  0
SPLINE
  5
94
330
79
100
AcDbEntity
  8
Layer 2
100
AcDbSpline
210
0.0
220
0.0
230
1.0
 70
     9
 71
     3
 72
    35
 73
    31
 74
     0
 42
0.0000000001
 43
0.0000000001
 40
0.0
 40
0.0
 40
0.0
 40
0.0
 40
1.0
 40
1.0
 40
1.0
 40
2.0
 40
2.0
 40
2.0
 40
3.0
 40
3.0
 40
3.0
 40
4.0
 40
4.0
 40
4.0
 40
5.0
 40
5.0
 40
5.0
 40
6.0
 40
6.0
 40
6.0
 40
7.0
 40
7.0
 40
7.0
 40
8.0
 40
8.0
 40
8.0
 40
9.0
 40
9.0
 40
9.0
 40
10.0
 40
10.0
 40
10.0
 40
10.0
 10
41.60418701171875
 20
59.72943115234375
 30
0.0
 10
41.60418701171875
 20
59.72943115234375
 30
0.0
 10
44.83465576171875
 20
59.72943115234375
 30
0.0
 10
44.83465576171875
 20
59.72943115234375
 30
0.0
 10
44.64776611328125
 20
59.931884765625
 30
0.0
 10
44.4632568359375
 20
60.1365966796875
 30
0.0
 10
44.26727294921875
 20
60.3302001953125
 30
0.0
 10
43.678466796875
 20
60.91192626953125
 30
0.0
 10
43.0496826171875
 20
61.45306396484375
 30
0.0
 10
42.386962890625
 20
61.9488525390625
 30
0.0
 10
41.7242431640625
 20
62.44464111328125
 30
0.0
 10
41.027587890625
 20
62.8951416015625
 30
0.0
 10
40.30322265625
 20
63.2955322265625
 30
0.0
 10
39.94110107421875
 20
63.4957275390625
 30
0.0
 10
39.572021484375
 20
63.683349609375
 30
0.0
 10
39.19677734375
 20
63.85791015625
 30
0.0
 10
39.022705078125
 20
63.9388427734375
 30
0.0
 10
38.415771484375
 20
64.25250244140625
 30
0.0
 10
37.86676025390625
 20
63.97796630859375
 30
0.0
 10
36.99871826171875
 20
63.5439453125
 30
0.0
 10
38.14727783203125
 20
61.77777099609375
 30
0.0
 10
38.22869873046875
 20
60.81072998046875
 30
0.0
 10
38.23858642578125
 20
60.6934814453125
 30
0.0
 10
38.6763916015625
 20
58.87933349609375
 30
0.0
 10
38.69024658203125
 20
58.76251220703125
 30
0.0
 10
38.72833251953125
 20
58.4417724609375
 30
0.0
 10
38.7723388671875
 20
58.17578125
 30
0.0
 10
38.81915283203125
 20
57.93023681640625
 30
0.0
 10
39.3018798828125
 20
58.98956298828125
 30
0.0
 10
40.364013671875
 20
59.72943115234375
 30
0.0
 10
41.60418701171875
 20
59.72943115234375
 30
0.0
  0
HATCH
  5
95
330
79
100
AcDbEntity
  8
Layer 2
 62
    18
420
        0
440
 33554687
100
AcDbHatch
 10
0.0
 20
0.0
 30
0.0
210
0.0
220
0.0
230
1.0
  2
SOLID
 70
     1
 71
     1
 91
        1
 92
        1
 93
        1
 72
     4
 94
        3
 73
     0
 74
     0
 95
       35
 96
       31
 40
0.0
 40
0.0
 40
0.0
 40
0.0
 40
1.0
 40
1.0
 40
1.0
 40
2.0
 40
2.0
 40
2.0
 40
3.0
 40
3.0
 40
3.0
 40
4.0
 40
4.0
 40
4.0
 40
5.0
 40
5.0
 40
5.0
 40
6.0
 40
6.0
 40
6.0
 40
7.0
 40
7.0
 40
7.0
 40
8.0
 40
8.0
 40
8.0
 40
9.0
 40
9.0
 40
9.0
 40
10.0
 40
10.0
 40
10.0
 40
10.0
 10
41.60418701171875
 20
59.72943115234375
 10
41.60418701171875
 20
59.72943115234375
 10
44.83465576171875
 20
59.72943115234375
 10
44.83465576171875
 20
59.72943115234375
 10
44.64776611328125
 20
59.931884765625
 10
44.4632568359375
 20
60.1365966796875
 10
44.26727294921875
 20
60.3302001953125
 10
43.678466796875
 20
60.91192626953125
 10
43.0496826171875
 20
61.45306396484375
 10
42.386962890625
 20
61.9488525390625
 10
41.7242431640625
 20
62.44464111328125
 10
41.027587890625
 20
62.8951416015625
 10
40.30322265625
 20
63.2955322265625
 10
39.94110107421875
 20
63.4957275390625
 10
39.572021484375
 20
63.683349609375
 10
39.19677734375
 20
63.85791015625
 10
39.022705078125
 20
63.9388427734375
 10
38.415771484375
 20
64.25250244140625
 10
37.86676025390625
 20
63.97796630859375
 10
36.99871826171875
 20
63.5439453125
 10
38.14727783203125
 20
61.77777099609375
 10
38.22869873046875
 20
60.81072998046875
 10
38.23858642578125
 20
60.6934814453125
 10
38.6763916015625
 20
58.87933349609375
 10
38.69024658203125
 20
58.76251220703125
 10
38.72833251953125
 20
58.4417724609375
 10
38.7723388671875
 20
58.17578125
 10
38.81915283203125
 20
57.93023681640625
 10
39.3018798828125
 20
58.98956298828125
 10
40.364013671875
 20
59.72943115234375
 10
41.60418701171875
 20
59.72943115234375
 97
        0
 97
        1
330
94
 75
     2
 76
     1
 98
        1
 10
0.0
 20
0.0
450
        0
451
        0
460
0.0
461
0.0
452
        0
462
0.0
453
        0
470

  0
SPLINE
  5
96
330
79
100
AcDbEntity
  8
Layer 2
100
AcDbSpline
210
0.0
220
0.0
230
1.0
 70
     9
 71
     3
 72
    20
 73
    16
 74
     0
 42
0.0000000001
 43
0.0000000001
 40
0.0
 40
0.0
 40
0.0
 40
0.0
 40
1.0
 40
1.0
 40
1.0
 40
2.0
 40
2.0
 40
2.0
 40
3.0
 40
3.0
 40
3.0
 40
4.0
 40
4.0
 40
4.0
 40
5.0
 40
5.0
 40
5.0
 40
5.0
 10
20.5767822265625
 20
50.4559326171875
 30
0.0
 10
20.6998291015625
 20
52.0538330078125
 30
0.0
 10
21.1419677734375
 20
53.62237548828125
 30
0.0
 10
21.830078125
 20
55.06976318359375
 30
0.0
 10
22.35760498046875
 20
55.88031005859375
 30
0.0
 10
22.50164794921875
 20
53.818115234375
 30
0.0
 10
22.50152587890625
 20
53.090087890625
 30
0.0
 10
22.501220703125
 20
51.77093505859375
 30
0.0
 10
22.58087158203125
 20
50.42364501953125
 30
0.0
 10
22.500244140625
 20
49.10723876953125
 30
0.0
 10
22.4461669921875
 20
48.22412109375
 30
0.0
 10
21.3636474609375
 20
47.9498291015625
 30
0.0
 10
20.87567138671875
 20
48.6785888671875
 30
0.0
 10
20.53411865234375
 20
49.1885986328125
 30
0.0
 10
20.52313232421875
 20
49.8660888671875
 30
0.0
 10
20.5767822265625
 20
50.4559326171875
 30
0.0
  0
SPLINE
  5
97
330
79
100
AcDbEntity
  8
Layer 2
100
AcDbSpline
210
0.0
220
0.0
230
1.0
 70
     9
 71
     3
 72
    74
 73
    70
 74
     0
 42
0.0000000001
 43
0.0000000001
 40
0.0
 40
0.0
 40
0.0
 40
0.0
 40
1.0
 40
1.0
 40
1.0
 40
2.0
 40
2.0
 40
2.0
 40
3.0
 40
3.0
 40
3.0
 40
4.0
 40
4.0
 40
4.0
 40
5.0
 40
5.0
 40
5.0
 40
6.0
 40
6.0
 40
6.0
 40
7.0
 40
7.0
 40
7.0
 40
8.0
 40
8.0
 40
8.0
 40
9.0
 40
9.0
 40
9.0
 40
10.0
 40
10.0
 40
10.0
 40
11.0
 40
11.0
 40
11.0
 40
12.0
 40
12.0
 40
12.0
 40
13.0
 40
13.0
 40
13.0
 40
14.0
 40
14.0
 40
14.0
 40
15.0
 40
15.0
 40
15.0
 40
16.0
 40
16.0
 40
16.0
 40
17.0
 40
17.0
 40
17.0
 40
18.0
 40
18.0
 40
18.0
 40
19.0
 40
19.0
 40
19.0
 40
20.0
 40
20.0
 40
20.0
 40
21.0
 40
21.0
 40
21.0
 40
22.0
 40
22.0
 40
22.0
 40
23.0
 40
23.0
 40
23.0
 40
23.0
 10
17.2955322265625
 20
54.253173828125
 30
0.0
 10
16.97503662109375
 20
52.29522705078125
 30
0.0
 10
16.75115966796875
 20
50.3236083984375
 30
0.0
 10
16.76629638671875
 20
48.34185791015625
 30
0.0
 10
16.7705078125
 20
47.793212890625
 30
0.0
 10
16.81341552734375
 20
47.19158935546874
 30
0.0
 10
17.19122314453125
 20
46.79376220703125
 30
0.0
 10
17.51544189453125
 20
46.45233154296875
 30
0.0
 10
18.00897216796875
 20
46.34515380859375
 30
0.0
 10
18.4710693359375
 20
46.254638671875
 30
0.0
 10
20.20562744140625
 20
45.91497802734375
 30
0.0
 10
21.940185546875
 20
45.5753173828125
 30
0.0
 10
23.67474365234375
 20
45.235595703125
 30
0.0
 10
23.88714599609375
 20
45.19403076171875
 30
0.0
 10
24.1082763671875
 20
45.15631103515625
 30
0.0
 10
24.330810546875
 20
45.1275634765625
 30
0.0
 10
24.89093017578125
 20
45.73492431640625
 30
0.0
 10
25.6864013671875
 20
46.12152099609375
 30
0.0
 10
26.57781982421875
 20
46.12152099609375
 30
0.0
 10
26.57781982421875
 20
46.12152099609375
 30
0.0
 10
26.827392578125
 20
46.12152099609375
 30
0.0
 10
26.827392578125
 20
46.12152099609375
 30
0.0
 10
26.96282958984375
 20
46.42388916015625
 30
0.0
 10
27.03399658203125
 20
46.7601318359375
 30
0.0
 10
27.04046630859375
 20
47.09320068359375
 30
0.0
 10
27.05120849609375
 20
47.64605712890625
 30
0.0
 10
26.92718505859375
 20
48.19122314453125
 30
0.0
 10
26.832763671875
 20
48.73602294921875
 30
0.0
 10
26.5535888671875
 20
50.345947265625
 30
0.0
 10
26.53900146484375
 20
51.96905517578125
 30
0.0
 10
26.6202392578125
 20
53.5982666015625
 30
0.0
 10
26.6202392578125
 20
53.5982666015625
 30
0.0
 10
26.57781982421875
 20
53.5982666015625
 30
0.0
 10
26.57781982421875
 20
53.5982666015625
 30
0.0
 10
24.8846435546875
 20
53.5982666015625
 30
0.0
 10
23.51220703125
 20
54.970703125
 30
0.0
 10
23.51220703125
 20
56.66387939453125
 30
0.0
 10
23.51220703125
 20
58.3570556640625
 30
0.0
 10
24.8846435546875
 20
59.72943115234375
 30
0.0
 10
26.57781982421875
 20
59.72943115234375
 30
0.0
 10
26.57781982421875
 20
59.72943115234375
 30
0.0
 10
27.10015869140625
 20
59.72943115234375
 30
0.0
 10
27.10015869140625
 20
59.72943115234375
 30
0.0
 10
27.16693115234375
 20
60.7919921875
 30
0.0
 10
27.20355224609375
 20
61.85418701171875
 30
0.0
 10
27.15545654296875
 20
62.91424560546875
 30
0.0
 10
27.12054443359375
 20
63.6846923828125
 30
0.0
 10
27.0408935546875
 20
64.46673583984375
 30
0.0
 10
26.74578857421875
 20
65.1793212890625
 30
0.0
 10
26.45068359375
 20
65.89190673828125
 30
0.0
 10
25.91204833984375
 20
66.53466796875
 30
0.0
 10
25.18792724609375
 20
66.80010986328125
 30
0.0
 10
24.79608154296875
 20
66.9437255859375
 30
0.0
 10
23.04388427734375
 20
67.27197265625
 30
0.0
 10
21.05706787109375
 20
66.07647705078125
 30
0.0
 10
20.6810302734375
 20
65.8502197265625
 30
0.0
 10
20.34649658203125
 20
65.5511474609375
 30
0.0
 10
20.0859375
 20
65.19818115234375
 30
0.0
 10
19.4482421875
 20
64.3343505859375
 30
0.0
 10
19.18621826171875
 20
63.25775146484375
 30
0.0
 10
18.94281005859375
 20
62.21197509765625
 30
0.0
 10
18.6326904296875
 20
60.87994384765625
 30
0.0
 10
18.3431396484375
 20
59.543212890625
 30
0.0
 10
18.05902099609375
 20
58.2054443359375
 30
0.0
 10
18.32568359375
 20
57.75115966796875
 30
0.0
 10
18.4892578125
 20
57.228759765625
 30
0.0
 10
18.4892578125
 20
56.66387939453125
 30
0.0
 10
18.4892578125
 20
55.67962646484375
 30
0.0
 10
18.01690673828125
 20
54.8135986328125
 30
0.0
 10
17.2955322265625
 20
54.253173828125
 30
0.0
  0
HATCH
  5
98
330
79
100
AcDbEntity
  8
Layer 2
 62
    18
420
        0
440
 33554687
100
AcDbHatch
 10
0.0
 20
0.0
 30
0.0
210
0.0
220
0.0
230
1.0
  2
SOLID
 70
     1
 71
     1
 91
        2
 92
        1
 93
        1
 72
     4
 94
        3
 73
     0
 74
     0
 95
       20
 96
       16
 40
0.0
 40
0.0
 40
0.0
 40
0.0
 40
1.0
 40
1.0
 40
1.0
 40
2.0
 40
2.0
 40
2.0
 40
3.0
 40
3.0
 40
3.0
 40
4.0
 40
4.0
 40
4.0
 40
5.0
 40
5.0
 40
5.0
 40
5.0
 10
20.5767822265625
 20
50.4559326171875
 10
20.6998291015625
 20
52.0538330078125
 10
21.1419677734375
 20
53.62237548828125
 10
21.830078125
 20
55.06976318359375
 10
22.35760498046875
 20
55.88031005859375
 10
22.50164794921875
 20
53.818115234375
 10
22.50152587890625
 20
53.090087890625
 10
22.501220703125
 20
51.77093505859375
 10
22.58087158203125
 20
50.42364501953125
 10
22.500244140625
 20
49.10723876953125
 10
22.4461669921875
 20
48.22412109375
 10
21.3636474609375
 20
47.9498291015625
 10
20.87567138671875
 20
48.6785888671875
 10
20.53411865234375
 20
49.1885986328125
 10
20.52313232421875
 20
49.8660888671875
 10
20.5767822265625
 20
50.4559326171875
 97
        0
 97
        1
330
96
 92
        1
 93
        1
 72
     4
 94
        3
 73
     0
 74
     0
 95
       74
 96
       70
 40
0.0
 40
0.0
 40
0.0
 40
0.0
 40
1.0
 40
1.0
 40
1.0
 40
2.0
 40
2.0
 40
2.0
 40
3.0
 40
3.0
 40
3.0
 40
4.0
 40
4.0
 40
4.0
 40
5.0
 40
5.0
 40
5.0
 40
6.0
 40
6.0
 40
6.0
 40
7.0
 40
7.0
 40
7.0
 40
8.0
 40
8.0
 40
8.0
 40
9.0
 40
9.0
 40
9.0
 40
10.0
 40
10.0
 40
10.0
 40
11.0
 40
11.0
 40
11.0
 40
12.0
 40
12.0
 40
12.0
 40
13.0
 40
13.0
 40
13.0
 40
14.0
 40
14.0
 40
14.0
 40
15.0
 40
15.0
 40
15.0
 40
16.0
 40
16.0
 40
16.0
 40
17.0
 40
17.0
 40
17.0
 40
18.0
 40
18.0
 40
18.0
 40
19.0
 40
19.0
 40
19.0
 40
20.0
 40
20.0
 40
20.0
 40
21.0
 40
21.0
 40
21.0
 40
22.0
 40
22.0
 40
22.0
 40
23.0
 40
23.0
 40
23.0
 40
23.0
 10
17.2955322265625
 20
54.253173828125
 10
16.97503662109375
 20
52.29522705078125
 10
16.75115966796875
 20
50.3236083984375
 10
16.76629638671875
 20
48.34185791015625
 10
16.7705078125
 20
47.793212890625
 10
16.81341552734375
 20
47.19158935546874
 10
17.19122314453125
 20
46.79376220703125
 10
17.51544189453125
 20
46.45233154296875
 10
18.00897216796875
 20
46.34515380859375
 10
18.4710693359375
 20
46.254638671875
 10
20.20562744140625
 20
45.91497802734375
 10
21.940185546875
 20
45.5753173828125
 10
23.67474365234375
 20
45.235595703125
 10
23.88714599609375
 20
45.19403076171875
 10
24.1082763671875
 20
45.15631103515625
 10
24.330810546875
 20
45.1275634765625
 10
24.89093017578125
 20
45.73492431640625
 10
25.6864013671875
 20
46.12152099609375
 10
26.57781982421875
 20
46.12152099609375
 10
26.57781982421875
 20
46.12152099609375
 10
26.827392578125
 20
46.12152099609375
 10
26.827392578125
 20
46.12152099609375
 10
26.96282958984375
 20
46.42388916015625
 10
27.03399658203125
 20
46.7601318359375
 10
27.04046630859375
 20
47.09320068359375
 10
27.05120849609375
 20
47.64605712890625
 10
26.92718505859375
 20
48.19122314453125
 10
26.832763671875
 20
48.73602294921875
 10
26.5535888671875
 20
50.345947265625
 10
26.53900146484375
 20
51.96905517578125
 10
26.6202392578125
 20
53.5982666015625
 10
26.6202392578125
 20
53.5982666015625
 10
26.57781982421875
 20
53.5982666015625
 10
26.57781982421875
 20
53.5982666015625
 10
24.8846435546875
 20
53.5982666015625
 10
23.51220703125
 20
54.970703125
 10
23.51220703125
 20
56.66387939453125
 10
23.51220703125
 20
58.3570556640625
 10
24.8846435546875
 20
59.72943115234375
 10
26.57781982421875
 20
59.72943115234375
 10
26.57781982421875
 20
59.72943115234375
 10
27.10015869140625
 20
59.72943115234375
 10
27.10015869140625
 20
59.72943115234375
 10
27.16693115234375
 20
60.7919921875
 10
27.20355224609375
 20
61.85418701171875
 10
27.15545654296875
 20
62.91424560546875
 10
27.12054443359375
 20
63.6846923828125
 10
27.0408935546875
 20
64.46673583984375
 10
26.74578857421875
 20
65.1793212890625
 10
26.45068359375
 20
65.89190673828125
 10
25.91204833984375
 20
66.53466796875
 10
25.18792724609375
 20
66.80010986328125
 10
24.79608154296875
 20
66.9437255859375
 10
23.04388427734375
 20
67.27197265625
 10
21.05706787109375
 20
66.07647705078125
 10
20.6810302734375
 20
65.8502197265625
 10
20.34649658203125
 20
65.5511474609375
 10
20.0859375
 20
65.19818115234375
 10
19.4482421875
 20
64.3343505859375
 10
19.18621826171875
 20
63.25775146484375
 10
18.94281005859375
 20
62.21197509765625
 10
18.6326904296875
 20
60.87994384765625
 10
18.3431396484375
 20
59.543212890625
 10
18.05902099609375
 20
58.2054443359375
 10
18.32568359375
 20
57.75115966796875
 10
18.4892578125
 20
57.228759765625
 10
18.4892578125
 20
56.66387939453125
 10
18.4892578125
 20
55.67962646484375
 10
18.01690673828125
 20
54.8135986328125
 10
17.2955322265625
 20
54.253173828125
 97
        0
 97
        1
330
97
 75
     2
 76
     1
 98
        1
 10
0.0
 20
0.0
450
        0
451
        0
460
0.0
461
0.0
452
        0
462
0.0
453
        0
470

  0
SPLINE
  5
99
330
79
100
AcDbEntity
  8
Layer 2
100
AcDbSpline
210
0.0
220
0.0
230
1.0
 70
     9
 71
     3
 72
    29
 73
    25
 74
     0
 42
0.0000000001
 43
0.0000000001
 40
0.0
 40
0.0
 40
0.0
 40
0.0
 40
1.0
 40
1.0
 40
1.0
 40
2.0
 40
2.0
 40
2.0
 40
3.0
 40
3.0
 40
3.0
 40
4.0
 40
4.0
 40
4.0
 40
5.0
 40
5.0
 40
5.0
 40
6.0
 40
6.0
 40
6.0
 40
7.0
 40
7.0
 40
7.0
 40
8.0
 40
8.0
 40
8.0
 40
8.0
 10
8.49542236328125
 20
34.3321533203125
 30
0.0
 10
8.43304443359375
 20
34.99249267578125
 30
0.0
 10
8.38922119140625
 20
35.25189208984375
 30
0.0
 10
8.76995849609375
 20
35.9791259765625
 30
0.0
 10
9.0445556640625
 20
36.5037841796875
 30
0.0
 10
9.16754150390625
 20
37.033203125
 30
0.0
 10
9.41619873046875
 20
37.5706787109375
 30
0.0
 10
9.48779296875
 20
37.72540283203125
 30
0.0
 10
9.64947509765625
 20
38.221923828125
 30
0.0
 10
9.83929443359375
 20
38.26226806640625
 30
0.0
 10
10.041259765625
 20
38.30517578125
 30
0.0
 10
10.07977294921875
 20
37.72833251953125
 30
0.0
 10
10.112060546875
 20
37.57135009765625
 30
0.0
 10
10.3697509765625
 20
36.31744384765625
 30
0.0
 10
10.44915771484375
 20
35.02691650390625
 30
0.0
 10
10.34521484375
 20
33.7509765625
 30
0.0
 10
10.3118896484375
 20
33.34149169921875
 30
0.0
 10
10.2596435546875
 20
32.5345458984375
 30
0.0
 10
9.867919921875
 20
32.41064453125
 30
0.0
 10
9.582763671875
 20
32.32049560546875
 30
0.0
 10
9.214111328125
 20
32.98779296875
 30
0.0
 10
9.04443359375
 20
33.23419189453125
 30
0.0
 10
8.87481689453125
 20
33.48052978515625
 30
0.0
 10
8.52362060546875
 20
34.03436279296875
 30
0.0
 10
8.49542236328125
 20
34.3321533203125
 30
0.0
  0
SPLINE
  5
9A
330
79
100
AcDbEntity
  8
Layer 2
100
AcDbSpline
210
0.0
220
0.0
230
1.0
 70
     9
 71
     3
 72
    38
 73
    34
 74
     0
 42
0.0000000001
 43
0.0000000001
 40
0.0
 40
0.0
 40
0.0
 40
0.0
 40
1.0
 40
1.0
 40
1.0
 40
2.0
 40
2.0
 40
2.0
 40
3.0
 40
3.0
 40
3.0
 40
4.0
 40
4.0
 40
4.0
 40
5.0
 40
5.0
 40
5.0
 40
6.0
 40
6.0
 40
6.0
 40
7.0
 40
7.0
 40
7.0
 40
8.0
 40
8.0
 40
8.0
 40
9.0
 40
9.0
 40
9.0
 40
10.0
 40
10.0
 40
10.0
 40
11.0
 40
11.0
 40
11.0
 40
11.0
 10
11.55242919921875
 20
32.51129150390625
 30
0.0
 10
11.55242919921875
 20
32.51129150390625
 30
0.0
 10
12.73504638671875
 20
32.51129150390625
 30
0.0
 10
12.73504638671875
 20
32.51129150390625
 30
0.0
 10
13.1324462890625
 20
34.99365234375
 30
0.0
 10
13.45196533203125
 20
37.48846435546875
 30
0.0
 10
13.67236328125
 20
39.99273681640625
 30
0.0
 10
13.67236328125
 20
39.99273681640625
 30
0.0
 10
11.55242919921875
 20
39.99273681640625
 30
0.0
 10
11.55242919921875
 20
39.99273681640625
 30
0.0
 10
10.06610107421875
 20
39.99273681640625
 30
0.0
 10
8.828857421875
 20
41.05169677734375
 30
0.0
 10
8.54974365234375
 20
42.4560546875
 30
0.0
 10
8.518310546875
 20
42.1402587890625
 30
0.0
 10
8.5018310546875
 20
41.81964111328125
 30
0.0
 10
8.4483642578125
 20
41.51953125
 30
0.0
 10
8.3118896484375
 20
40.75372314453125
 30
0.0
 10
8.11083984375
 20
39.99951171875
 30
0.0
 10
7.848388671875
 20
39.26727294921875
 30
0.0
 10
7.55517578125
 20
38.4493408203125
 30
0.0
 10
7.18524169921875
 20
37.65869140625
 30
0.0
 10
6.74310302734375
 20
36.91064453125
 30
0.0
 10
6.49114990234375
 20
36.48431396484375
 30
0.0
 10
6.21014404296875
 20
36.05596923828125
 30
0.0
 10
6.1331787109375
 20
35.5667724609375
 30
0.0
 10
6.04852294921875
 20
35.02862548828125
 30
0.0
 10
6.2218017578125
 20
34.48614501953125
 30
0.0
 10
6.406982421875
 20
33.97381591796875
 30
0.0
 10
6.970703125
 20
32.41461181640625
 30
0.0
 10
7.6700439453125
 20
30.9046630859375
 30
0.0
 10
8.49090576171875
 20
29.46417236328125
 30
0.0
 10
8.5001220703125
 20
31.148193359375
 30
0.0
 10
9.86627197265625
 20
32.51129150390625
 30
0.0
 10
11.55242919921875
 20
32.51129150390625
 30
0.0
  0
HATCH
  5
9B
330
79
100
AcDbEntity
  8
Layer 2
 62
    18
420
        0
440
 33554687
100
AcDbHatch
 10
0.0
 20
0.0
 30
0.0
210
0.0
220
0.0
230
1.0
  2
SOLID
 70
     1
 71
     1
 91
        2
 92
        1
 93
        1
 72
     4
 94
        3
 73
     0
 74
     0
 95
       29
 96
       25
 40
0.0
 40
0.0
 40
0.0
 40
0.0
 40
1.0
 40
1.0
 40
1.0
 40
2.0
 40
2.0
 40
2.0
 40
3.0
 40
3.0
 40
3.0
 40
4.0
 40
4.0
 40
4.0
 40
5.0
 40
5.0
 40
5.0
 40
6.0
 40
6.0
 40
6.0
 40
7.0
 40
7.0
 40
7.0
 40
8.0
 40
8.0
 40
8.0
 40
8.0
 10
8.49542236328125
 20
34.3321533203125
 10
8.43304443359375
 20
34.99249267578125
 10
8.38922119140625
 20
35.25189208984375
 10
8.76995849609375
 20
35.9791259765625
 10
9.0445556640625
 20
36.5037841796875
 10
9.16754150390625
 20
37.033203125
 10
9.41619873046875
 20
37.5706787109375
 10
9.48779296875
 20
37.72540283203125
 10
9.64947509765625
 20
38.221923828125
 10
9.83929443359375
 20
38.26226806640625
 10
10.041259765625
 20
38.30517578125
 10
10.07977294921875
 20
37.72833251953125
 10
10.112060546875
 20
37.57135009765625
 10
10.3697509765625
 20
36.31744384765625
 10
10.44915771484375
 20
35.02691650390625
 10
10.34521484375
 20
33.7509765625
 10
10.3118896484375
 20
33.34149169921875
 10
10.2596435546875
 20
32.5345458984375
 10
9.867919921875
 20
32.41064453125
 10
9.582763671875
 20
32.32049560546875
 10
9.214111328125
 20
32.98779296875
 10
9.04443359375
 20
33.23419189453125
 10
8.87481689453125
 20
33.48052978515625
 10
8.52362060546875
 20
34.03436279296875
 10
8.49542236328125
 20
34.3321533203125
 97
        0
 97
        1
330
99
 92
        1
 93
        1
 72
     4
 94
        3
 73
     0
 74
     0
 95
       38
 96
       34
 40
0.0
 40
0.0
 40
0.0
 40
0.0
 40
1.0
 40
1.0
 40
1.0
 40
2.0
 40
2.0
 40
2.0
 40
3.0
 40
3.0
 40
3.0
 40
4.0
 40
4.0
 40
4.0
 40
5.0
 40
5.0
 40
5.0
 40
6.0
 40
6.0
 40
6.0
 40
7.0
 40
7.0
 40
7.0
 40
8.0
 40
8.0
 40
8.0
 40
9.0
 40
9.0
 40
9.0
 40
10.0
 40
10.0
 40
10.0
 40
11.0
 40
11.0
 40
11.0
 40
11.0
 10
11.55242919921875
 20
32.51129150390625
 10
11.55242919921875
 20
32.51129150390625
 10
12.73504638671875
 20
32.51129150390625
 10
12.73504638671875
 20
32.51129150390625
 10
13.1324462890625
 20
34.99365234375
 10
13.45196533203125
 20
37.48846435546875
 10
13.67236328125
 20
39.99273681640625
 10
13.67236328125
 20
39.99273681640625
 10
11.55242919921875
 20
39.99273681640625
 10
11.55242919921875
 20
39.99273681640625
 10
10.06610107421875
 20
39.99273681640625
 10
8.828857421875
 20
41.05169677734375
 10
8.54974365234375
 20
42.4560546875
 10
8.518310546875
 20
42.1402587890625
 10
8.5018310546875
 20
41.81964111328125
 10
8.4483642578125
 20
41.51953125
 10
8.3118896484375
 20
40.75372314453125
 10
8.11083984375
 20
39.99951171875
 10
7.848388671875
 20
39.26727294921875
 10
7.55517578125
 20
38.4493408203125
 10
7.18524169921875
 20
37.65869140625
 10
6.74310302734375
 20
36.91064453125
 10
6.49114990234375
 20
36.48431396484375
 10
6.21014404296875
 20
36.05596923828125
 10
6.1331787109375
 20
35.5667724609375
 10
6.04852294921875
 20
35.02862548828125
 10
6.2218017578125
 20
34.48614501953125
 10
6.406982421875
 20
33.97381591796875
 10
6.970703125
 20
32.41461181640625
 10
7.6700439453125
 20
30.9046630859375
 10
8.49090576171875
 20
29.46417236328125
 10
8.5001220703125
 20
31.148193359375
 10
9.86627197265625
 20
32.51129150390625
 10
11.55242919921875
 20
32.51129150390625
 97
        0
 97
        1
330
9A
 75
     2
 76
     1
 98
        1
 10
0.0
 20
0.0
450
        0
451
        0
460
0.0
461
0.0
452
        0
462
0.0
453
        0
470

  0
SPLINE
  5
9C
330
79
100
AcDbEntity
  8
Layer 2
100
AcDbSpline
210
0.0
220
0.0
230
1.0
 70
     9
 71
     3
 72
    29
 73
    25
 74
     0
 42
0.0000000001
 43
0.0000000001
 40
0.0
 40
0.0
 40
0.0
 40
0.0
 40
1.0
 40
1.0
 40
1.0
 40
2.0
 40
2.0
 40
2.0
 40
3.0
 40
3.0
 40
3.0
 40
4.0
 40
4.0
 40
4.0
 40
5.0
 40
5.0
 40
5.0
 40
6.0
 40
6.0
 40
6.0
 40
7.0
 40
7.0
 40
7.0
 40
8.0
 40
8.0
 40
8.0
 40
8.0
 10
11.55242919921875
 20
26.3837890625
 30
0.0
 10
11.4671630859375
 20
26.3837890625
 30
0.0
 10
11.386962890625
 20
26.40203857421875
 30
0.0
 10
11.303466796875
 20
26.40887451171875
 30
0.0
 10
11.44769287109375
 20
26.08343505859375
 30
0.0
 10
11.8377685546875
 20
25.7518310546875
 30
0.0
 10
12.25982666015625
 20
25.30023193359375
 30
0.0
 10
12.94189453125
 20
24.57049560546875
 30
0.0
 10
13.7210693359375
 20
23.9610595703125
 30
0.0
 10
14.61529541015625
 20
23.51593017578125
 30
0.0
 10
15.2315673828125
 20
23.20916748046875
 30
0.0
 10
16.0711669921875
 20
22.9388427734375
 30
0.0
 10
16.52618408203125
 20
23.4554443359375
 30
0.0
 10
16.92633056640625
 20
23.90972900390625
 30
0.0
 10
16.692626953125
 20
24.6119384765625
 30
0.0
 10
16.46099853515625
 20
25.17132568359375
 30
0.0
 10
16.28558349609375
 20
25.5948486328125
 30
0.0
 10
16.1463623046875
 20
26.12237548828125
 30
0.0
 10
16.2899169921875
 20
26.5225830078125
 30
0.0
 10
16.01422119140625
 20
26.44110107421875
 30
0.0
 10
15.7281494140625
 20
26.3837890625
 30
0.0
 10
15.426025390625
 20
26.3837890625
 30
0.0
 10
15.426025390625
 20
26.3837890625
 30
0.0
 10
11.55242919921875
 20
26.3837890625
 30
0.0
 10
11.55242919921875
 20
26.3837890625
 30
0.0
  0
HATCH
  5
9D
330
79
100
AcDbEntity
  8
Layer 2
 62
    18
420
        0
440
 33554687
100
AcDbHatch
 10
0.0
 20
0.0
 30
0.0
210
0.0
220
0.0
230
1.0
  2
SOLID
 70
     1
 71
     1
 91
        1
 92
        1
 93
        1
 72
     4
 94
        3
 73
     0
 74
     0
 95
       29
 96
       25
 40
0.0
 40
0.0
 40
0.0
 40
0.0
 40
1.0
 40
1.0
 40
1.0
 40
2.0
 40
2.0
 40
2.0
 40
3.0
 40
3.0
 40
3.0
 40
4.0
 40
4.0
 40
4.0
 40
5.0
 40
5.0
 40
5.0
 40
6.0
 40
6.0
 40
6.0
 40
7.0
 40
7.0
 40
7.0
 40
8.0
 40
8.0
 40
8.0
 40
8.0
 10
11.55242919921875
 20
26.3837890625
 10
11.4671630859375
 20
26.3837890625
 10
11.386962890625
 20
26.40203857421875
 10
11.303466796875
 20
26.40887451171875
 10
11.44769287109375
 20
26.08343505859375
 10
11.8377685546875
 20
25.7518310546875
 10
12.25982666015625
 20
25.30023193359375
 10
12.94189453125
 20
24.57049560546875
 10
13.7210693359375
 20
23.9610595703125
 10
14.61529541015625
 20
23.51593017578125
 10
15.2315673828125
 20
23.20916748046875
 10
16.0711669921875
 20
22.9388427734375
 10
16.52618408203125
 20
23.4554443359375
 10
16.92633056640625
 20
23.90972900390625
 10
16.692626953125
 20
24.6119384765625
 10
16.46099853515625
 20
25.17132568359375
 10
16.28558349609375
 20
25.5948486328125
 10
16.1463623046875
 20
26.12237548828125
 10
16.2899169921875
 20
26.5225830078125
 10
16.01422119140625
 20
26.44110107421875
 10
15.7281494140625
 20
26.3837890625
 10
15.426025390625
 20
26.3837890625
 10
15.426025390625
 20
26.3837890625
 10
11.55242919921875
 20
26.3837890625
 10
11.55242919921875
 20
26.3837890625
 97
        0
 97
        1
330
9C
 75
     2
 76
     1
 98
        1
 10
0.0
 20
0.0
450
        0
451
        0
460
0.0
461
0.0
452
        0
462
0.0
453
        0
470

  0
SPLINE
  5
9E
330
79
100
AcDbEntity
  8
Layer 2
100
AcDbSpline
210
0.0
220
0.0
230
1.0
 70
     9
 71
     3
 72
    83
 73
    79
 74
     0
 42
0.0000000001
 43
0.0000000001
 40
0.0
 40
0.0
 40
0.0
 40
0.0
 40
1.0
 40
1.0
 40
1.0
 40
2.0
 40
2.0
 40
2.0
 40
3.0
 40
3.0
 40
3.0
 40
4.0
 40
4.0
 40
4.0
 40
5.0
 40
5.0
 40
5.0
 40
6.0
 40
6.0
 40
6.0
 40
7.0
 40
7.0
 40
7.0
 40
8.0
 40
8.0
 40
8.0
 40
9.0
 40
9.0
 40
9.0
 40
10.0
 40
10.0
 40
10.0
 40
11.0
 40
11.0
 40
11.0
 40
12.0
 40
12.0
 40
12.0
 40
13.0
 40
13.0
 40
13.0
 40
14.0
 40
14.0
 40
14.0
 40
15.0
 40
15.0
 40
15.0
 40
16.0
 40
16.0
 40
16.0
 40
17.0
 40
17.0
 40
17.0
 40
18.0
 40
18.0
 40
18.0
 40
19.0
 40
19.0
 40
19.0
 40
20.0
 40
20.0
 40
20.0
 40
21.0
 40
21.0
 40
21.0
 40
22.0
 40
22.0
 40
22.0
 40
23.0
 40
23.0
 40
23.0
 40
24.0
 40
24.0
 40
24.0
 40
25.0
 40
25.0
 40
25.0
 40
26.0
 40
26.0
 40
26.0
 40
26.0
 10
23.82086181640625
 20
44.3740234375
 30
0.0
 10
23.1671142578125
 20
44.74249267578125
 30
0.0
 10
22.068359375
 20
44.6287841796875
 30
0.0
 10
20.02435302734375
 20
45.03759765625
 30
0.0
 10
18.853271484375
 20
45.2718505859375
 30
0.0
 10
17.73419189453125
 20
45.70257568359375
 30
0.0
 10
16.84130859375
 20
45.7574462890625
 30
0.0
 10
17.816650390625
 20
45.24505615234375
 30
0.0
 10
18.4892578125
 20
44.2342529296875
 30
0.0
 10
18.4892578125
 20
43.05596923828125
 30
0.0
 10
18.4892578125
 20
41.3641357421875
 30
0.0
 10
17.11785888671875
 20
39.99273681640625
 30
0.0
 10
15.426025390625
 20
39.99273681640625
 30
0.0
 10
15.426025390625
 20
39.99273681640625
 30
0.0
 10
14.82806396484375
 20
39.99273681640625
 30
0.0
 10
14.82806396484375
 20
39.99273681640625
 30
0.0
 10
14.62554931640625
 20
37.39044189453125
 30
0.0
 10
14.057861328125
 20
35.06756591796875
 30
0.0
 10
13.41314697265625
 20
32.51129150390625
 30
0.0
 10
13.41314697265625
 20
32.51129150390625
 30
0.0
 10
15.426025390625
 20
32.51129150390625
 30
0.0
 10
15.426025390625
 20
32.51129150390625
 30
0.0
 10
16.03265380859375
 20
32.51129150390625
 30
0.0
 10
16.594482421875
 20
32.32940673828125
 30
0.0
 10
17.07025146484375
 20
32.025146484375
 30
0.0
 10
17.09710693359375
 20
32.3255615234375
 30
0.0
 10
17.11700439453125
 20
32.6265869140625
 30
0.0
 10
17.1568603515625
 20
32.925537109375
 30
0.0
 10
17.21734619140625
 20
33.37945556640625
 30
0.0
 10
17.29278564453125
 20
33.83135986328125
 30
0.0
 10
17.38299560546875
 20
34.2802734375
 30
0.0
 10
17.45672607421875
 20
34.64727783203125
 30
0.0
 10
17.49578857421875
 20
35.08416748046875
 30
0.0
 10
17.69482421875
 20
35.408447265625
 30
0.0
 10
17.80841064453125
 20
35.5936279296875
 30
0.0
 10
18.04718017578125
 20
35.88299560546875
 30
0.0
 10
18.28948974609375
 20
35.8905029296875
 30
0.0
 10
18.61102294921875
 20
35.9005126953125
 30
0.0
 10
18.56048583984375
 20
35.3714599609375
 30
0.0
 10
18.582763671875
 20
35.15777587890625
 30
0.0
 10
18.76165771484375
 20
33.44244384765625
 30
0.0
 10
18.70648193359375
 20
31.7047119140625
 30
0.0
 10
18.433349609375
 20
30.00189208984375
 30
0.0
 10
18.4664306640625
 20
29.821533203125
 30
0.0
 10
18.4892578125
 20
29.637451171875
 30
0.0
 10
18.4892578125
 20
29.44757080078125
 30
0.0
 10
18.4892578125
 20
28.43426513671875
 30
0.0
 10
17.9913330078125
 20
27.5428466796875
 30
0.0
 10
17.23321533203125
 20
26.985107421875
 30
0.0
 10
17.56451416015625
 20
26.89453125
 30
0.0
 10
17.8775634765625
 20
26.6395263671875
 30
0.0
 10
18.01068115234375
 20
26.314208984375
 30
0.0
 10
18.24383544921875
 20
25.744384765625
 30
0.0
 10
18.098876953125
 20
25.09771728515625
 30
0.0
 10
17.94390869140625
 20
24.5018310546875
 30
0.0
 10
17.7889404296875
 20
23.90594482421875
 30
0.0
 10
17.62774658203125
 20
23.267578125
 30
0.0
 10
17.83282470703125
 20
22.68701171875
 30
0.0
 10
18.15533447265625
 20
21.77392578125
 30
0.0
 10
19.214599609375
 20
21.39349365234375
 30
0.0
 10
20.14581298828125
 20
21.1279296875
 30
0.0
 10
21.11834716796875
 20
20.8505859375
 30
0.0
 10
23.2183837890625
 20
20.10614013671875
 30
0.0
 10
23.86737060546875
 20
20.88177490234375
 30
0.0
 10
24.41754150390625
 20
21.53924560546875
 30
0.0
 10
23.18792724609375
 20
23.02899169921875
 30
0.0
 10
23.10748291015625
 20
23.88250732421875
 30
0.0
 10
22.76934814453125
 20
27.4697265625
 30
0.0
 10
22.59912109375
 20
31.03167724609375
 30
0.0
 10
22.76934814453125
 20
34.606689453125
 30
0.0
 10
22.92340087890625
 20
37.84112548828125
 30
0.0
 10
23.57025146484375
 20
39.93994140625
 30
0.0
 10
24.02587890625
 20
41.36016845703125
 30
0.0
 10
23.702392578125
 20
41.84600830078125
 30
0.0
 10
23.51220703125
 20
42.42840576171874
 30
0.0
 10
23.51220703125
 20
43.05596923828125
 30
0.0
 10
23.51220703125
 20
43.52996826171875
 30
0.0
 10
23.6287841796875
 20
43.973388671875
 30
0.0
 10
23.82086181640625
 20
44.3740234375
 30
0.0
  0
HATCH
  5
9F
330
79
100
AcDbEntity
  8
Layer 2
 62
    18
420
        0
440
 33554687
100
AcDbHatch
 10
0.0
 20
0.0
 30
0.0
210
0.0
220
0.0
230
1.0
  2
SOLID
 70
     1
 71
     1
 91
        1
 92
        1
 93
        1
 72
     4
 94
        3
 73
     0
 74
     0
 95
       83
 96
       79
 40
0.0
 40
0.0
 40
0.0
 40
0.0
 40
1.0
 40
1.0
 40
1.0
 40
2.0
 40
2.0
 40
2.0
 40
3.0
 40
3.0
 40
3.0
 40
4.0
 40
4.0
 40
4.0
 40
5.0
 40
5.0
 40
5.0
 40
6.0
 40
6.0
 40
6.0
 40
7.0
 40
7.0
 40
7.0
 40
8.0
 40
8.0
 40
8.0
 40
9.0
 40
9.0
 40
9.0
 40
10.0
 40
10.0
 40
10.0
 40
11.0
 40
11.0
 40
11.0
 40
12.0
 40
12.0
 40
12.0
 40
13.0
 40
13.0
 40
13.0
 40
14.0
 40
14.0
 40
14.0
 40
15.0
 40
15.0
 40
15.0
 40
16.0
 40
16.0
 40
16.0
 40
17.0
 40
17.0
 40
17.0
 40
18.0
 40
18.0
 40
18.0
 40
19.0
 40
19.0
 40
19.0
 40
20.0
 40
20.0
 40
20.0
 40
21.0
 40
21.0
 40
21.0
 40
22.0
 40
22.0
 40
22.0
 40
23.0
 40
23.0
 40
23.0
 40
24.0
 40
24.0
 40
24.0
 40
25.0
 40
25.0
 40
25.0
 40
26.0
 40
26.0
 40
26.0
 40
26.0
 10
23.82086181640625
 20
44.3740234375
 10
23.1671142578125
 20
44.74249267578125
 10
22.068359375
 20
44.6287841796875
 10
20.02435302734375
 20
45.03759765625
 10
18.853271484375
 20
45.2718505859375
 10
17.73419189453125
 20
45.70257568359375
 10
16.84130859375
 20
45.7574462890625
 10
17.816650390625
 20
45.24505615234375
 10
18.4892578125
 20
44.2342529296875
 10
18.4892578125
 20
43.05596923828125
 10
18.4892578125
 20
41.3641357421875
 10
17.11785888671875
 20
39.99273681640625
 10
15.426025390625
 20
39.99273681640625
 10
15.426025390625
 20
39.99273681640625
 10
14.82806396484375
 20
39.99273681640625
 10
14.82806396484375
 20
39.99273681640625
 10
14.62554931640625
 20
37.39044189453125
 10
14.057861328125
 20
35.06756591796875
 10
13.41314697265625
 20
32.51129150390625
 10
13.41314697265625
 20
32.51129150390625
 10
15.426025390625
 20
32.51129150390625
 10
15.426025390625
 20
32.51129150390625
 10
16.03265380859375
 20
32.51129150390625
 10
16.594482421875
 20
32.32940673828125
 10
17.07025146484375
 20
32.025146484375
 10
17.09710693359375
 20
32.3255615234375
 10
17.11700439453125
 20
32.6265869140625
 10
17.1568603515625
 20
32.925537109375
 10
17.21734619140625
 20
33.37945556640625
 10
17.29278564453125
 20
33.83135986328125
 10
17.38299560546875
 20
34.2802734375
 10
17.45672607421875
 20
34.64727783203125
 10
17.49578857421875
 20
35.08416748046875
 10
17.69482421875
 20
35.408447265625
 10
17.80841064453125
 20
35.5936279296875
 10
18.04718017578125
 20
35.88299560546875
 10
18.28948974609375
 20
35.8905029296875
 10
18.61102294921875
 20
35.9005126953125
 10
18.56048583984375
 20
35.3714599609375
 10
18.582763671875
 20
35.15777587890625
 10
18.76165771484375
 20
33.44244384765625
 10
18.70648193359375
 20
31.7047119140625
 10
18.433349609375
 20
30.00189208984375
 10
18.4664306640625
 20
29.821533203125
 10
18.4892578125
 20
29.637451171875
 10
18.4892578125
 20
29.44757080078125
 10
18.4892578125
 20
28.43426513671875
 10
17.9913330078125
 20
27.5428466796875
 10
17.23321533203125
 20
26.985107421875
 10
17.56451416015625
 20
26.89453125
 10
17.8775634765625
 20
26.6395263671875
 10
18.01068115234375
 20
26.314208984375
 10
18.24383544921875
 20
25.744384765625
 10
18.098876953125
 20
25.09771728515625
 10
17.94390869140625
 20
24.5018310546875
 10
17.7889404296875
 20
23.90594482421875
 10
17.62774658203125
 20
23.267578125
 10
17.83282470703125
 20
22.68701171875
 10
18.15533447265625
 20
21.77392578125
 10
19.214599609375
 20
21.39349365234375
 10
20.14581298828125
 20
21.1279296875
 10
21.11834716796875
 20
20.8505859375
 10
23.2183837890625
 20
20.10614013671875
 10
23.86737060546875
 20
20.88177490234375
 10
24.41754150390625
 20
21.53924560546875
 10
23.18792724609375
 20
23.02899169921875
 10
23.10748291015625
 20
23.88250732421875
 10
22.76934814453125
 20
27.4697265625
 10
22.59912109375
 20
31.03167724609375
 10
22.76934814453125
 20
34.606689453125
 10
22.92340087890625
 20
37.84112548828125
 10
23.57025146484375
 20
39.93994140625
 10
24.02587890625
 20
41.36016845703125
 10
23.702392578125
 20
41.84600830078125
 10
23.51220703125
 20
42.42840576171874
 10
23.51220703125
 20
43.05596923828125
 10
23.51220703125
 20
43.52996826171875
 10
23.6287841796875
 20
43.973388671875
 10
23.82086181640625
 20
44.3740234375
 97
        0
 97
        1
330
9E
 75
     2
 76
     1
 98
        1
 10
0.0
 20
0.0
450
        0
451
        0
460
0.0
461
0.0
452
        0
462
0.0
453
        0
470

  0
SPLINE
  5
A0
330
79
100
AcDbEntity
  8
Layer 2
100
AcDbSpline
210
0.0
220
0.0
230
1.0
 70
     9
 71
     3
 72
    53
 73
    49
 74
     0
 42
0.0000000001
 43
0.0000000001
 40
0.0
 40
0.0
 40
0.0
 40
0.0
 40
1.0
 40
1.0
 40
1.0
 40
2.0
 40
2.0
 40
2.0
 40
3.0
 40
3.0
 40
3.0
 40
4.0
 40
4.0
 40
4.0
 40
5.0
 40
5.0
 40
5.0
 40
6.0
 40
6.0
 40
6.0
 40
7.0
 40
7.0
 40
7.0
 40
8.0
 40
8.0
 40
8.0
 40
9.0
 40
9.0
 40
9.0
 40
10.0
 40
10.0
 40
10.0
 40
11.0
 40
11.0
 40
11.0
 40
12.0
 40
12.0
 40
12.0
 40
13.0
 40
13.0
 40
13.0
 40
14.0
 40
14.0
 40
14.0
 40
15.0
 40
15.0
 40
15.0
 40
16.0
 40
16.0
 40
16.0
 40
16.0
 10
26.57781982421875
 20
39.9903564453125
 30
0.0
 10
25.86651611328125
 20
39.9903564453125
 30
0.0
 10
25.22021484375
 20
40.24249267578125
 30
0.0
 10
24.70013427734375
 20
40.64892578124999
 30
0.0
 10
24.5970458984375
 20
39.4986572265625
 30
0.0
 10
25.50244140625
 20
39.75567626953125
 30
0.0
 10
24.96533203125
 20
36.80267333984375
 30
0.0
 10
24.61224365234375
 20
34.8612060546875
 30
0.0
 10
23.9510498046875
 20
32.83197021484375
 30
0.0
 10
23.86517333984375
 20
30.847412109375
 30
0.0
 10
24.375
 20
31.83282470703125
 30
0.0
 10
25.391845703125
 20
32.51373291015625
 30
0.0
 10
26.57781982421875
 20
32.51373291015625
 30
0.0
 10
26.57781982421875
 20
32.51373291015625
 30
0.0
 10
27.91949462890625
 20
32.51373291015625
 30
0.0
 10
27.91949462890625
 20
32.51373291015625
 30
0.0
 10
27.93109130859375
 20
32.67645263671875
 30
0.0
 10
27.9427490234375
 20
32.83917236328125
 30
0.0
 10
27.95428466796875
 20
33.00189208984375
 30
0.0
 10
27.968017578125
 20
33.19586181640625
 30
0.0
 10
27.986083984375
 20
33.40484619140625
 30
0.0
 10
28.1771240234375
 20
33.5120849609375
 30
0.0
 10
28.381103515625
 20
33.6265869140625
 30
0.0
 10
28.42987060546875
 20
33.440185546875
 30
0.0
 10
28.4853515625
 20
33.27557373046875
 30
0.0
 10
28.60009765625
 20
32.93505859375
 30
0.0
 10
28.77813720703125
 20
32.70867919921875
 30
0.0
 10
28.96954345703125
 20
32.51373291015625
 30
0.0
 10
28.96954345703125
 20
32.51373291015625
 30
0.0
 10
30.44659423828125
 20
32.51373291015625
 30
0.0
 10
30.44659423828125
 20
32.51373291015625
 30
0.0
 10
31.24884033203125
 20
32.51373291015625
 30
0.0
 10
31.97283935546875
 20
32.19854736328125
 30
0.0
 10
32.51922607421875
 20
31.694091796875
 30
0.0
 10
32.0567626953125
 20
33.8485107421875
 30
0.0
 10
31.83929443359375
 20
36.09246826171875
 30
0.0
 10
32.33038330078125
 20
38.2369384765625
 30
0.0
 10
32.505859375
 20
39.0029296875
 30
0.0
 10
32.770263671875
 20
39.80108642578125
 30
0.0
 10
32.54901123046875
 20
40.55517578125
 30
0.0
 10
32.52764892578125
 20
40.6279296875
 30
0.0
 10
32.4962158203125
 20
40.697021484375
 30
0.0
 10
32.46728515625
 20
40.7669677734375
 30
0.0
 10
31.9267578125
 20
40.28942871093749
 30
0.0
 10
31.224609375
 20
39.9903564453125
 30
0.0
 10
30.44659423828125
 20
39.9903564453125
 30
0.0
 10
30.44659423828125
 20
39.9903564453125
 30
0.0
 10
26.57781982421875
 20
39.9903564453125
 30
0.0
 10
26.57781982421875
 20
39.9903564453125
 30
0.0
  0
HATCH
  5
A1
330
79
100
AcDbEntity
  8
Layer 2
 62
    18
420
        0
440
 33554687
100
AcDbHatch
 10
0.0
 20
0.0
 30
0.0
210
0.0
220
0.0
230
1.0
  2
SOLID
 70
     1
 71
     1
 91
        1
 92
        1
 93
        1
 72
     4
 94
        3
 73
     0
 74
     0
 95
       53
 96
       49
 40
0.0
 40
0.0
 40
0.0
 40
0.0
 40
1.0
 40
1.0
 40
1.0
 40
2.0
 40
2.0
 40
2.0
 40
3.0
 40
3.0
 40
3.0
 40
4.0
 40
4.0
 40
4.0
 40
5.0
 40
5.0
 40
5.0
 40
6.0
 40
6.0
 40
6.0
 40
7.0
 40
7.0
 40
7.0
 40
8.0
 40
8.0
 40
8.0
 40
9.0
 40
9.0
 40
9.0
 40
10.0
 40
10.0
 40
10.0
 40
11.0
 40
11.0
 40
11.0
 40
12.0
 40
12.0
 40
12.0
 40
13.0
 40
13.0
 40
13.0
 40
14.0
 40
14.0
 40
14.0
 40
15.0
 40
15.0
 40
15.0
 40
16.0
 40
16.0
 40
16.0
 40
16.0
 10
26.57781982421875
 20
39.9903564453125
 10
25.86651611328125
 20
39.9903564453125
 10
25.22021484375
 20
40.24249267578125
 10
24.70013427734375
 20
40.64892578124999
 10
24.5970458984375
 20
39.4986572265625
 10
25.50244140625
 20
39.75567626953125
 10
24.96533203125
 20
36.80267333984375
 10
24.61224365234375
 20
34.8612060546875
 10
23.9510498046875
 20
32.83197021484375
 10
23.86517333984375
 20
30.847412109375
 10
24.375
 20
31.83282470703125
 10
25.391845703125
 20
32.51373291015625
 10
26.57781982421875
 20
32.51373291015625
 10
26.57781982421875
 20
32.51373291015625
 10
27.91949462890625
 20
32.51373291015625
 10
27.91949462890625
 20
32.51373291015625
 10
27.93109130859375
 20
32.67645263671875
 10
27.9427490234375
 20
32.83917236328125
 10
27.95428466796875
 20
33.00189208984375
 10
27.968017578125
 20
33.19586181640625
 10
27.986083984375
 20
33.40484619140625
 10
28.1771240234375
 20
33.5120849609375
 10
28.381103515625
 20
33.6265869140625
 10
28.42987060546875
 20
33.440185546875
 10
28.4853515625
 20
33.27557373046875
 10
28.60009765625
 20
32.93505859375
 10
28.77813720703125
 20
32.70867919921875
 10
28.96954345703125
 20
32.51373291015625
 10
28.96954345703125
 20
32.51373291015625
 10
30.44659423828125
 20
32.51373291015625
 10
30.44659423828125
 20
32.51373291015625
 10
31.24884033203125
 20
32.51373291015625
 10
31.97283935546875
 20
32.19854736328125
 10
32.51922607421875
 20
31.694091796875
 10
32.0567626953125
 20
33.8485107421875
 10
31.83929443359375
 20
36.09246826171875
 10
32.33038330078125
 20
38.2369384765625
 10
32.505859375
 20
39.0029296875
 10
32.770263671875
 20
39.80108642578125
 10
32.54901123046875
 20
40.55517578125
 10
32.52764892578125
 20
40.6279296875
 10
32.4962158203125
 20
40.697021484375
 10
32.46728515625
 20
40.7669677734375
 10
31.9267578125
 20
40.28942871093749
 10
31.224609375
 20
39.9903564453125
 10
30.44659423828125
 20
39.9903564453125
 10
30.44659423828125
 20
39.9903564453125
 10
26.57781982421875
 20
39.9903564453125
 10
26.57781982421875
 20
39.9903564453125
 97
        0
 97
        1
330
A0
 75
     2
 76
     1
 98
        1
 10
0.0
 20
0.0
450
        0
451
        0
460
0.0
461
0.0
452
        0
462
0.0
453
        0
470

  0
SPLINE
  5
A2
330
79
100
AcDbEntity
  8
Layer 2
100
AcDbSpline
210
0.0
220
0.0
230
1.0
 70
     9
 71
     3
 72
    47
 73
    43
 74
     0
 42
0.0000000001
 43
0.0000000001
 40
0.0
 40
0.0
 40
0.0
 40
0.0
 40
1.0
 40
1.0
 40
1.0
 40
2.0
 40
2.0
 40
2.0
 40
3.0
 40
3.0
 40
3.0
 40
4.0
 40
4.0
 40
4.0
 40
5.0
 40
5.0
 40
5.0
 40
6.0
 40
6.0
 40
6.0
 40
7.0
 40
7.0
 40
7.0
 40
8.0
 40
8.0
 40
8.0
 40
9.0
 40
9.0
 40
9.0
 40
10.0
 40
10.0
 40
10.0
 40
11.0
 40
11.0
 40
11.0
 40
12.0
 40
12.0
 40
12.0
 40
13.0
 40
13.0
 40
13.0
 40
14.0
 40
14.0
 40
14.0
 40
14.0
 10
30.44659423828125
 20
26.38140869140625
 30
0.0
 10
30.44659423828125
 20
26.38140869140625
 30
0.0
 10
30.00616455078125
 20
26.38140869140625
 30
0.0
 10
30.00616455078125
 20
26.38140869140625
 30
0.0
 10
29.5743408203125
 20
25.6466064453125
 30
0.0
 10
29.218505859375
 20
25.68707275390625
 30
0.0
 10
29.03936767578125
 20
25.73046875
 30
0.0
 10
28.43011474609375
 20
25.8780517578125
 30
0.0
 10
27.78497314453125
 20
25.8062744140625
 30
0.0
 10
27.5142822265625
 20
26.38140869140625
 30
0.0
 10
27.5142822265625
 20
26.38140869140625
 30
0.0
 10
26.57781982421875
 20
26.38140869140625
 30
0.0
 10
26.57781982421875
 20
26.38140869140625
 30
0.0
 10
25.5001220703125
 20
26.38140869140625
 30
0.0
 10
24.556396484375
 20
26.94024658203125
 30
0.0
 10
24.009765625
 20
27.78125
 30
0.0
 10
24.1383056640625
 20
26.38427734375
 30
0.0
 10
24.33331298828125
 20
24.99334716796875
 30
0.0
 10
24.61175537109375
 20
23.618408203125
 30
0.0
 10
24.66595458984375
 20
23.35089111328125
 30
0.0
 10
24.72296142578125
 20
23.083984375
 30
0.0
 10
24.78277587890625
 20
22.81768798828125
 30
0.0
 10
24.9989013671875
 20
21.85577392578125
 30
0.0
 10
25.34222412109375
 20
20.78643798828125
 30
0.0
 10
26.23065185546875
 20
20.35919189453125
 30
0.0
 10
26.7628173828125
 20
20.10333251953125
 30
0.0
 10
27.3826904296875
 20
20.13848876953125
 30
0.0
 10
27.97174072265625
 20
20.17919921875
 30
0.0
 10
28.98876953125
 20
20.24951171875
 30
0.0
 10
30.005859375
 20
20.31982421875
 30
0.0
 10
31.02294921875
 20
20.39013671875
 30
0.0
 10
32.05914306640625
 20
20.46173095703125
 30
0.0
 10
33.2056884765625
 20
20.58477783203125
 30
0.0
 10
33.898681640625
 20
21.3585205078125
 30
0.0
 10
34.6903076171875
 20
22.24224853515625
 30
0.0
 10
34.55987548828125
 20
23.5965576171875
 30
0.0
 10
34.310302734375
 20
24.75640869140625
 30
0.0
 10
34.040283203125
 20
26.0113525390625
 30
0.0
 10
33.68890380859375
 20
27.24664306640625
 30
0.0
 10
33.34234619140625
 20
28.4830322265625
 30
0.0
 10
32.9364013671875
 20
27.26531982421875
 30
0.0
 10
31.8006591796875
 20
26.38140869140625
 30
0.0
 10
30.44659423828125
 20
26.38140869140625
 30
0.0
  0
HATCH
  5
A3
330
79
100
AcDbEntity
  8
Layer 2
 62
    18
420
        0
440
 33554687
100
AcDbHatch
 10
0.0
 20
0.0
 30
0.0
210
0.0
220
0.0
230
1.0
  2
SOLID
 70
     1
 71
     1
 91
        1
 92
        1
 93
        1
 72
     4
 94
        3
 73
     0
 74
     0
 95
       47
 96
       43
 40
0.0
 40
0.0
 40
0.0
 40
0.0
 40
1.0
 40
1.0
 40
1.0
 40
2.0
 40
2.0
 40
2.0
 40
3.0
 40
3.0
 40
3.0
 40
4.0
 40
4.0
 40
4.0
 40
5.0
 40
5.0
 40
5.0
 40
6.0
 40
6.0
 40
6.0
 40
7.0
 40
7.0
 40
7.0
 40
8.0
 40
8.0
 40
8.0
 40
9.0
 40
9.0
 40
9.0
 40
10.0
 40
10.0
 40
10.0
 40
11.0
 40
11.0
 40
11.0
 40
12.0
 40
12.0
 40
12.0
 40
13.0
 40
13.0
 40
13.0
 40
14.0
 40
14.0
 40
14.0
 40
14.0
 10
30.44659423828125
 20
26.38140869140625
 10
30.44659423828125
 20
26.38140869140625
 10
30.00616455078125
 20
26.38140869140625
 10
30.00616455078125
 20
26.38140869140625
 10
29.5743408203125
 20
25.6466064453125
 10
29.218505859375
 20
25.68707275390625
 10
29.03936767578125
 20
25.73046875
 10
28.43011474609375
 20
25.8780517578125
 10
27.78497314453125
 20
25.8062744140625
 10
27.5142822265625
 20
26.38140869140625
 10
27.5142822265625
 20
26.38140869140625
 10
26.57781982421875
 20
26.38140869140625
 10
26.57781982421875
 20
26.38140869140625
 10
25.5001220703125
 20
26.38140869140625
 10
24.556396484375
 20
26.94024658203125
 10
24.009765625
 20
27.78125
 10
24.1383056640625
 20
26.38427734375
 10
24.33331298828125
 20
24.99334716796875
 10
24.61175537109375
 20
23.618408203125
 10
24.66595458984375
 20
23.35089111328125
 10
24.72296142578125
 20
23.083984375
 10
24.78277587890625
 20
22.81768798828125
 10
24.9989013671875
 20
21.85577392578125
 10
25.34222412109375
 20
20.78643798828125
 10
26.23065185546875
 20
20.35919189453125
 10
26.7628173828125
 20
20.10333251953125
 10
27.3826904296875
 20
20.13848876953125
 10
27.97174072265625
 20
20.17919921875
 10
28.98876953125
 20
20.24951171875
 10
30.005859375
 20
20.31982421875
 10
31.02294921875
 20
20.39013671875
 10
32.05914306640625
 20
20.46173095703125
 10
33.2056884765625
 20
20.58477783203125
 10
33.898681640625
 20
21.3585205078125
 10
34.6903076171875
 20
22.24224853515625
 10
34.55987548828125
 20
23.5965576171875
 10
34.310302734375
 20
24.75640869140625
 10
34.040283203125
 20
26.0113525390625
 10
33.68890380859375
 20
27.24664306640625
 10
33.34234619140625
 20
28.4830322265625
 10
32.9364013671875
 20
27.26531982421875
 10
31.8006591796875
 20
26.38140869140625
 10
30.44659423828125
 20
26.38140869140625
 97
        0
 97
        1
330
A2
 75
     2
 76
     1
 98
        1
 10
0.0
 20
0.0
450
        0
451
        0
460
0.0
461
0.0
452
        0
462
0.0
453
        0
470

  0
SPLINE
  5
A4
330
79
100
AcDbEntity
  8
Layer 2
100
AcDbSpline
210
0.0
220
0.0
230
1.0
 70
     9
 71
     3
 72
    74
 73
    70
 74
     0
 42
0.0000000001
 43
0.0000000001
 40
0.0
 40
0.0
 40
0.0
 40
0.0
 40
1.0
 40
1.0
 40
1.0
 40
2.0
 40
2.0
 40
2.0
 40
3.0
 40
3.0
 40
3.0
 40
4.0
 40
4.0
 40
4.0
 40
5.0
 40
5.0
 40
5.0
 40
6.0
 40
6.0
 40
6.0
 40
7.0
 40
7.0
 40
7.0
 40
8.0
 40
8.0
 40
8.0
 40
9.0
 40
9.0
 40
9.0
 40
10.0
 40
10.0
 40
10.0
 40
11.0
 40
11.0
 40
11.0
 40
12.0
 40
12.0
 40
12.0
 40
13.0
 40
13.0
 40
13.0
 40
14.0
 40
14.0
 40
14.0
 40
15.0
 40
15.0
 40
15.0
 40
16.0
 40
16.0
 40
16.0
 40
17.0
 40
17.0
 40
17.0
 40
18.0
 40
18.0
 40
18.0
 40
19.0
 40
19.0
 40
19.0
 40
20.0
 40
20.0
 40
20.0
 40
21.0
 40
21.0
 40
21.0
 40
22.0
 40
22.0
 40
22.0
 40
23.0
 40
23.0
 40
23.0
 40
23.0
 10
38.890869140625
 20
28.0489501953125
 30
0.0
 10
38.556884765625
 20
27.811767578125
 30
0.0
 10
38.15203857421875
 20
27.70947265625
 30
0.0
 10
37.7918701171875
 20
27.88958740234375
 30
0.0
 10
36.9517822265625
 20
28.30963134765625
 30
0.0
 10
37.188720703125
 20
29.436767578125
 30
0.0
 10
37.293701171875
 20
30.16998291015625
 30
0.0
 10
37.355712890625
 20
30.60321044921875
 30
0.0
 10
37.39727783203125
 20
31.0391845703125
 30
0.0
 10
37.4176025390625
 20
31.47637939453125
 30
0.0
 10
37.435791015625
 20
31.8681640625
 30
0.0
 10
37.35894775390625
 20
32.32318115234375
 30
0.0
 10
37.45819091796875
 20
32.70294189453125
 30
0.0
 10
37.57598876953125
 20
33.15380859375
 30
0.0
 10
38.1434326171875
 20
33.667236328125
 30
0.0
 10
38.50469970703125
 20
33.163330078125
 30
0.0
 10
38.843994140625
 20
32.69000244140625
 30
0.0
 10
39.1331787109375
 20
32.0892333984375
 30
0.0
 10
39.3447265625
 20
31.50433349609375
 30
0.0
 10
39.887451171875
 20
32.10052490234375
 30
0.0
 10
40.65624999999999
 20
32.4814453125
 30
0.0
 10
41.5201416015625
 20
32.5052490234375
 30
0.0
 10
40.9830322265625
 20
33.62982177734375
 30
0.0
 10
40.49896240234375
 20
34.77337646484375
 30
0.0
 10
40.44573974609375
 20
36.00555419921875
 30
0.0
 10
40.382568359375
 20
37.466796875
 30
0.0
 10
40.8934326171875
 20
39.109375
 30
0.0
 10
40.0201416015625
 20
40.28265380859375
 30
0.0
 10
39.50933837890625
 20
40.968994140625
 30
0.0
 10
38.63824462890625
 20
41.28924560546875
 30
0.0
 10
37.7930908203125
 20
41.42181396484375
 30
0.0
 10
36.9578857421875
 20
41.55285644531249
 30
0.0
 10
36.09991455078125
 20
41.53228759765625
 30
0.0
 10
35.27093505859375
 20
41.36761474609374
 30
0.0
 10
34.7603759765625
 20
41.2662353515625
 30
0.0
 10
34.10992431640625
 20
41.14678955078125
 30
0.0
 10
33.973388671875
 20
40.541259765625
 30
0.0
 10
33.749267578125
 20
39.547607421875
 30
0.0
 10
34.23773193359375
 20
39.0018310546875
 30
0.0
 10
34.29827880859375
 20
38.44964599609375
 30
0.0
 10
34.3970947265625
 20
37.5487060546875
 30
0.0
 10
34.3358154296875
 20
36.9796142578125
 30
0.0
 10
34.43463134765625
 20
36.0787353515625
 30
0.0
 10
34.54669189453125
 20
35.0567626953125
 30
0.0
 10
34.65875244140625
 20
34.0347900390625
 30
0.0
 10
34.77081298828125
 20
33.01287841796875
 30
0.0
 10
35.13238525390625
 20
29.716064453125
 30
0.0
 10
35.49395751953125
 20
26.3853759765625
 30
0.0
 10
35.1065673828125
 20
23.091552734375
 30
0.0
 10
35.02508544921875
 20
22.39892578125
 30
0.0
 10
35.05859375
 20
21.4678955078125
 30
0.0
 10
35.73321533203125
 20
21.29119873046875
 30
0.0
 10
36.09161376953125
 20
21.19732666015625
 30
0.0
 10
36.45587158203125
 20
21.3914794921875
 30
0.0
 10
36.77557373046875
 20
21.57867431640625
 30
0.0
 10
37.7332763671875
 20
22.139404296875
 30
0.0
 10
38.69097900390625
 20
22.70013427734375
 30
0.0
 10
39.648681640625
 20
23.2608642578125
 30
0.0
 10
40.848876953125
 20
23.96356201171875
 30
0.0
 10
42.11639404296875
 20
24.7374267578125
 30
0.0
 10
42.71496582031249
 20
25.9927978515625
 30
0.0
 10
42.77539062499999
 20
26.1195068359375
 30
0.0
 10
42.81451416015625
 20
26.2510986328125
 30
0.0
 10
42.85906982421875
 20
26.38140869140625
 30
0.0
 10
42.85906982421875
 20
26.38140869140625
 30
0.0
 10
41.60418701171875
 20
26.38140869140625
 30
0.0
 10
41.60418701171875
 20
26.38140869140625
 30
0.0
 10
40.41766357421875
 20
26.38140869140625
 30
0.0
 10
39.40045166015625
 20
27.06280517578125
 30
0.0
 10
38.890869140625
 20
28.0489501953125
 30
0.0
  0
HATCH
  5
A5
330
79
100
AcDbEntity
  8
Layer 2
 62
    18
420
        0
440
 33554687
100
AcDbHatch
 10
0.0
 20
0.0
 30
0.0
210
0.0
220
0.0
230
1.0
  2
SOLID
 70
     1
 71
     1
 91
        1
 92
        1
 93
        1
 72
     4
 94
        3
 73
     0
 74
     0
 95
       74
 96
       70
 40
0.0
 40
0.0
 40
0.0
 40
0.0
 40
1.0
 40
1.0
 40
1.0
 40
2.0
 40
2.0
 40
2.0
 40
3.0
 40
3.0
 40
3.0
 40
4.0
 40
4.0
 40
4.0
 40
5.0
 40
5.0
 40
5.0
 40
6.0
 40
6.0
 40
6.0
 40
7.0
 40
7.0
 40
7.0
 40
8.0
 40
8.0
 40
8.0
 40
9.0
 40
9.0
 40
9.0
 40
10.0
 40
10.0
 40
10.0
 40
11.0
 40
11.0
 40
11.0
 40
12.0
 40
12.0
 40
12.0
 40
13.0
 40
13.0
 40
13.0
 40
14.0
 40
14.0
 40
14.0
 40
15.0
 40
15.0
 40
15.0
 40
16.0
 40
16.0
 40
16.0
 40
17.0
 40
17.0
 40
17.0
 40
18.0
 40
18.0
 40
18.0
 40
19.0
 40
19.0
 40
19.0
 40
20.0
 40
20.0
 40
20.0
 40
21.0
 40
21.0
 40
21.0
 40
22.0
 40
22.0
 40
22.0
 40
23.0
 40
23.0
 40
23.0
 40
23.0
 10
38.890869140625
 20
28.0489501953125
 10
38.556884765625
 20
27.811767578125
 10
38.15203857421875
 20
27.70947265625
 10
37.7918701171875
 20
27.88958740234375
 10
36.9517822265625
 20
28.30963134765625
 10
37.188720703125
 20
29.436767578125
 10
37.293701171875
 20
30.16998291015625
 10
37.355712890625
 20
30.60321044921875
 10
37.39727783203125
 20
31.0391845703125
 10
37.4176025390625
 20
31.47637939453125
 10
37.435791015625
 20
31.8681640625
 10
37.35894775390625
 20
32.32318115234375
 10
37.45819091796875
 20
32.70294189453125
 10
37.57598876953125
 20
33.15380859375
 10
38.1434326171875
 20
33.667236328125
 10
38.50469970703125
 20
33.163330078125
 10
38.843994140625
 20
32.69000244140625
 10
39.1331787109375
 20
32.0892333984375
 10
39.3447265625
 20
31.50433349609375
 10
39.887451171875
 20
32.10052490234375
 10
40.65624999999999
 20
32.4814453125
 10
41.5201416015625
 20
32.5052490234375
 10
40.9830322265625
 20
33.62982177734375
 10
40.49896240234375
 20
34.77337646484375
 10
40.44573974609375
 20
36.00555419921875
 10
40.382568359375
 20
37.466796875
 10
40.8934326171875
 20
39.109375
 10
40.0201416015625
 20
40.28265380859375
 10
39.50933837890625
 20
40.968994140625
 10
38.63824462890625
 20
41.28924560546875
 10
37.7930908203125
 20
41.42181396484375
 10
36.9578857421875
 20
41.55285644531249
 10
36.09991455078125
 20
41.53228759765625
 10
35.27093505859375
 20
41.36761474609374
 10
34.7603759765625
 20
41.2662353515625
 10
34.10992431640625
 20
41.14678955078125
 10
33.973388671875
 20
40.541259765625
 10
33.749267578125
 20
39.547607421875
 10
34.23773193359375
 20
39.0018310546875
 10
34.29827880859375
 20
38.44964599609375
 10
34.3970947265625
 20
37.5487060546875
 10
34.3358154296875
 20
36.9796142578125
 10
34.43463134765625
 20
36.0787353515625
 10
34.54669189453125
 20
35.0567626953125
 10
34.65875244140625
 20
34.0347900390625
 10
34.77081298828125
 20
33.01287841796875
 10
35.13238525390625
 20
29.716064453125
 10
35.49395751953125
 20
26.3853759765625
 10
35.1065673828125
 20
23.091552734375
 10
35.02508544921875
 20
22.39892578125
 10
35.05859375
 20
21.4678955078125
 10
35.73321533203125
 20
21.29119873046875
 10
36.09161376953125
 20
21.19732666015625
 10
36.45587158203125
 20
21.3914794921875
 10
36.77557373046875
 20
21.57867431640625
 10
37.7332763671875
 20
22.139404296875
 10
38.69097900390625
 20
22.70013427734375
 10
39.648681640625
 20
23.2608642578125
 10
40.848876953125
 20
23.96356201171875
 10
42.11639404296875
 20
24.7374267578125
 10
42.71496582031249
 20
25.9927978515625
 10
42.77539062499999
 20
26.1195068359375
 10
42.81451416015625
 20
26.2510986328125
 10
42.85906982421875
 20
26.38140869140625
 10
42.85906982421875
 20
26.38140869140625
 10
41.60418701171875
 20
26.38140869140625
 10
41.60418701171875
 20
26.38140869140625
 10
40.41766357421875
 20
26.38140869140625
 10
39.40045166015625
 20
27.06280517578125
 10
38.890869140625
 20
28.0489501953125
 97
        0
 97
        1
330
A4
 75
     2
 76
     1
 98
        1
 10
0.0
 20
0.0
450
        0
451
        0
460
0.0
461
0.0
452
        0
462
0.0
453
        0
470

  0
SPLINE
  5
A6
330
79
100
AcDbEntity
  8
Layer 2
100
AcDbSpline
210
0.0
220
0.0
230
1.0
 70
     9
 71
     3
 72
    11
 73
     7
 74
     0
 42
0.0000000001
 43
0.0000000001
 40
0.0
 40
0.0
 40
0.0
 40
0.0
 40
1.0
 40
1.0
 40
1.0
 40
2.0
 40
2.0
 40
2.0
 40
2.0
 10
42.25799560546875
 20
32.51373291015625
 30
0.0
 10
42.25799560546875
 20
32.51373291015625
 30
0.0
 10
42.50384521484375
 20
32.51373291015625
 30
0.0
 10
42.50384521484375
 20
32.51373291015625
 30
0.0
 10
42.363037109375
 20
32.57861328125
 30
0.0
 10
42.27349853515625
 20
32.62701416015625
 30
0.0
 10
42.25799560546875
 20
32.51373291015625
 30
0.0
  0
HATCH
  5
A7
330
79
100
AcDbEntity
  8
Layer 2
 62
    18
420
        0
440
 33554687
100
AcDbHatch
 10
0.0
 20
0.0
 30
0.0
210
0.0
220
0.0
230
1.0
  2
SOLID
 70
     1
 71
     1
 91
        1
 92
        1
 93
        1
 72
     4
 94
        3
 73
     0
 74
     0
 95
       11
 96
        7
 40
0.0
 40
0.0
 40
0.0
 40
0.0
 40
1.0
 40
1.0
 40
1.0
 40
2.0
 40
2.0
 40
2.0
 40
2.0
 10
42.25799560546875
 20
32.51373291015625
 10
42.25799560546875
 20
32.51373291015625
 10
42.50384521484375
 20
32.51373291015625
 10
42.50384521484375
 20
32.51373291015625
 10
42.363037109375
 20
32.57861328125
 10
42.27349853515625
 20
32.62701416015625
 10
42.25799560546875
 20
32.51373291015625
 97
        0
 97
        1
330
A6
 75
     2
 76
     1
 98
        1
 10
0.0
 20
0.0
450
        0
451
        0
460
0.0
461
0.0
452
        0
462
0.0
453
        0
470

  0
SPLINE
  5
A8
330
79
100
AcDbEntity
  8
Layer 2
100
AcDbSpline
210
0.0
220
0.0
230
1.0
 70
     9
 71
     3
 72
    71
 73
    67
 74
     0
 42
0.0000000001
 43
0.0000000001
 40
0.0
 40
0.0
 40
0.0
 40
0.0
 40
1.0
 40
1.0
 40
1.0
 40
2.0
 40
2.0
 40
2.0
 40
3.0
 40
3.0
 40
3.0
 40
4.0
 40
4.0
 40
4.0
 40
5.0
 40
5.0
 40
5.0
 40
6.0
 40
6.0
 40
6.0
 40
7.0
 40
7.0
 40
7.0
 40
8.0
 40
8.0
 40
8.0
 40
9.0
 40
9.0
 40
9.0
 40
10.0
 40
10.0
 40
10.0
 40
11.0
 40
11.0
 40
11.0
 40
12.0
 40
12.0
 40
12.0
 40
13.0
 40
13.0
 40
13.0
 40
14.0
 40
14.0
 40
14.0
 40
15.0
 40
15.0
 40
15.0
 40
16.0
 40
16.0
 40
16.0
 40
17.0
 40
17.0
 40
17.0
 40
18.0
 40
18.0
 40
18.0
 40
19.0
 40
19.0
 40
19.0
 40
20.0
 40
20.0
 40
20.0
 40
21.0
 40
21.0
 40
21.0
 40
22.0
 40
22.0
 40
22.0
 40
22.0
 10
50.70849609375
 20
43.7432861328125
 30
0.0
 10
50.4305419921875
 20
43.9720458984375
 30
0.0
 10
49.68359375
 20
43.379150390625
 30
0.0
 10
49.42010498046875
 20
43.2786865234375
 30
0.0
 10
49.13348388671875
 20
43.16943359375
 30
0.0
 10
48.8321533203125
 20
43.0877685546875
 30
0.0
 10
48.53314208984375
 20
43.00183105468749
 30
0.0
 10
48.51666259765625
 20
42.0726318359375
 30
0.0
 10
48.08251953125
 20
41.25372314453125
 30
0.0
 10
47.41534423828125
 20
40.70233154296874
 30
0.0
 10
47.57214355468749
 20
40.34210205078125
 30
0.0
 10
47.63739013671875
 20
39.93408203125
 30
0.0
 10
47.62384033203125
 20
39.53961181640625
 30
0.0
 10
47.5943603515625
 20
38.68048095703125
 30
0.0
 10
47.24359130859375
 20
37.86175537109375
 30
0.0
 10
46.9766845703125
 20
37.05706787109375
 30
0.0
 10
46.861572265625
 20
36.70977783203125
 30
0.0
 10
46.58697509765625
 20
36.42327880859375
 30
0.0
 10
46.23162841796875
 20
36.33642578125
 30
0.0
 10
45.53094482421875
 20
36.16510009765625
 30
0.0
 10
45.16339111328124
 20
36.855224609375
 30
0.0
 10
45.03497314453125
 20
37.451416015625
 30
0.0
 10
44.85491943359375
 20
38.2874755859375
 30
0.0
 10
44.8856201171875
 20
39.16290283203125
 30
0.0
 10
45.10125732421875
 20
39.9903564453125
 30
0.0
 10
45.10125732421875
 20
39.9903564453125
 30
0.0
 10
41.60418701171875
 20
39.9903564453125
 30
0.0
 10
41.60418701171875
 20
39.9903564453125
 30
0.0
 10
41.40460205078125
 20
39.9903564453125
 30
0.0
 10
41.21051025390625
 20
40.01263427734374
 30
0.0
 10
41.02154541015624
 20
40.049072265625
 30
0.0
 10
41.15087890625
 20
38.96044921875
 30
0.0
 10
41.28021240234375
 20
37.871826171875
 30
0.0
 10
41.40948486328125
 20
36.783203125
 30
0.0
 10
41.5921630859375
 20
35.24554443359375
 30
0.0
 10
41.95111083984374
 20
33.451171875
 30
0.0
 10
43.35443115234375
 20
32.7965087890625
 30
0.0
 10
43.5992431640625
 20
32.68231201171875
 30
0.0
 10
43.87689208984375
 20
32.5980224609375
 30
0.0
 10
44.15356445312499
 20
32.51373291015625
 30
0.0
 10
44.15356445312499
 20
32.51373291015625
 30
0.0
 10
45.47296142578125
 20
32.51373291015625
 30
0.0
 10
45.47296142578125
 20
32.51373291015625
 30
0.0
 10
46.5570068359375
 20
32.51373291015625
 30
0.0
 10
47.50445556640625
 20
31.94757080078125
 30
0.0
 10
48.04949951171875
 20
31.0982666015625
 30
0.0
 10
48.2698974609375
 20
31.40399169921875
 30
0.0
 10
48.4903564453125
 20
31.709716796875
 30
0.0
 10
48.71075439453125
 20
32.01544189453125
 30
0.0
 10
49.22784423828125
 20
32.732666015625
 30
0.0
 10
49.77227783203125
 20
33.58660888671875
 30
0.0
 10
49.53436279296875
 20
34.43817138671875
 30
0.0
 10
49.4183349609375
 20
34.85345458984375
 30
0.0
 10
49.1251220703125
 20
35.20501708984375
 30
0.0
 10
49.0281982421875
 20
35.6251220703125
 30
0.0
 10
48.86663818359375
 20
36.3258056640625
 30
0.0
 10
49.27642822265625
 20
37.0137939453125
 30
0.0
 10
49.60858154296875
 20
37.65155029296875
 30
0.0
 10
50.2806396484375
 20
38.94195556640625
 30
0.0
 10
50.68524169921875
 20
40.36938476562499
 30
0.0
 10
50.8013916015625
 20
41.81915283203125
 30
0.0
 10
50.8304443359375
 20
42.181640625
 30
0.0
 10
50.8414306640625
 20
42.54559326171874
 30
0.0
 10
50.8341064453125
 20
42.90911865234375
 30
0.0
 10
50.82989501953125
 20
43.11749267578124
 30
0.0
 10
50.89404296875
 20
43.59051513671874
 30
0.0
 10
50.70849609375
 20
43.7432861328125
 30
0.0
  0
HATCH
  5
A9
330
79
100
AcDbEntity
  8
Layer 2
 62
    18
420
        0
440
 33554687
100
AcDbHatch
 10
0.0
 20
0.0
 30
0.0
210
0.0
220
0.0
230
1.0
  2
SOLID
 70
     1
 71
     1
 91
        1
 92
        1
 93
        1
 72
     4
 94
        3
 73
     0
 74
     0
 95
       71
 96
       67
 40
0.0
 40
0.0
 40
0.0
 40
0.0
 40
1.0
 40
1.0
 40
1.0
 40
2.0
 40
2.0
 40
2.0
 40
3.0
 40
3.0
 40
3.0
 40
4.0
 40
4.0
 40
4.0
 40
5.0
 40
5.0
 40
5.0
 40
6.0
 40
6.0
 40
6.0
 40
7.0
 40
7.0
 40
7.0
 40
8.0
 40
8.0
 40
8.0
 40
9.0
 40
9.0
 40
9.0
 40
10.0
 40
10.0
 40
10.0
 40
11.0
 40
11.0
 40
11.0
 40
12.0
 40
12.0
 40
12.0
 40
13.0
 40
13.0
 40
13.0
 40
14.0
 40
14.0
 40
14.0
 40
15.0
 40
15.0
 40
15.0
 40
16.0
 40
16.0
 40
16.0
 40
17.0
 40
17.0
 40
17.0
 40
18.0
 40
18.0
 40
18.0
 40
19.0
 40
19.0
 40
19.0
 40
20.0
 40
20.0
 40
20.0
 40
21.0
 40
21.0
 40
21.0
 40
22.0
 40
22.0
 40
22.0
 40
22.0
 10
50.70849609375
 20
43.7432861328125
 10
50.4305419921875
 20
43.9720458984375
 10
49.68359375
 20
43.379150390625
 10
49.42010498046875
 20
43.2786865234375
 10
49.13348388671875
 20
43.16943359375
 10
48.8321533203125
 20
43.0877685546875
 10
48.53314208984375
 20
43.00183105468749
 10
48.51666259765625
 20
42.0726318359375
 10
48.08251953125
 20
41.25372314453125
 10
47.41534423828125
 20
40.70233154296874
 10
47.57214355468749
 20
40.34210205078125
 10
47.63739013671875
 20
39.93408203125
 10
47.62384033203125
 20
39.53961181640625
 10
47.5943603515625
 20
38.68048095703125
 10
47.24359130859375
 20
37.86175537109375
 10
46.9766845703125
 20
37.05706787109375
 10
46.861572265625
 20
36.70977783203125
 10
46.58697509765625
 20
36.42327880859375
 10
46.23162841796875
 20
36.33642578125
 10
45.53094482421875
 20
36.16510009765625
 10
45.16339111328124
 20
36.855224609375
 10
45.03497314453125
 20
37.451416015625
 10
44.85491943359375
 20
38.2874755859375
 10
44.8856201171875
 20
39.16290283203125
 10
45.10125732421875
 20
39.9903564453125
 10
45.10125732421875
 20
39.9903564453125
 10
41.60418701171875
 20
39.9903564453125
 10
41.60418701171875
 20
39.9903564453125
 10
41.40460205078125
 20
39.9903564453125
 10
41.21051025390625
 20
40.01263427734374
 10
41.02154541015624
 20
40.049072265625
 10
41.15087890625
 20
38.96044921875
 10
41.28021240234375
 20
37.871826171875
 10
41.40948486328125
 20
36.783203125
 10
41.5921630859375
 20
35.24554443359375
 10
41.95111083984374
 20
33.451171875
 10
43.35443115234375
 20
32.7965087890625
 10
43.5992431640625
 20
32.68231201171875
 10
43.87689208984375
 20
32.5980224609375
 10
44.15356445312499
 20
32.51373291015625
 10
44.15356445312499
 20
32.51373291015625
 10
45.47296142578125
 20
32.51373291015625
 10
45.47296142578125
 20
32.51373291015625
 10
46.5570068359375
 20
32.51373291015625
 10
47.50445556640625
 20
31.94757080078125
 10
48.04949951171875
 20
31.0982666015625
 10
48.2698974609375
 20
31.40399169921875
 10
48.4903564453125
 20
31.709716796875
 10
48.71075439453125
 20
32.01544189453125
 10
49.22784423828125
 20
32.732666015625
 10
49.77227783203125
 20
33.58660888671875
 10
49.53436279296875
 20
34.43817138671875
 10
49.4183349609375
 20
34.85345458984375
 10
49.1251220703125
 20
35.20501708984375
 10
49.0281982421875
 20
35.6251220703125
 10
48.86663818359375
 20
36.3258056640625
 10
49.27642822265625
 20
37.0137939453125
 10
49.60858154296875
 20
37.65155029296875
 10
50.2806396484375
 20
38.94195556640625
 10
50.68524169921875
 20
40.36938476562499
 10
50.8013916015625
 20
41.81915283203125
 10
50.8304443359375
 20
42.181640625
 10
50.8414306640625
 20
42.54559326171874
 10
50.8341064453125
 20
42.90911865234375
 10
50.82989501953125
 20
43.11749267578124
 10
50.89404296875
 20
43.59051513671874
 10
50.70849609375
 20
43.7432861328125
 97
        0
 97
        1
330
A8
 75
     2
 76
     1
 98
        1
 10
0.0
 20
0.0
450
        0
451
        0
460
0.0
461
0.0
452
        0
462
0.0
453
        0
470

  0
ENDBLK
  5
7C
330
79
100
AcDbEntity
  8
0
100
AcDbBlockEnd
  0
BLOCK
  5
AC
330
AA
100
AcDbEntity
  8
0
100
AcDbBlockBegin
  2
Block_1
 70
     0
 10
0.0
 20
0.0
 30
0.0
  3
Block_1
  1

  0
LINE
  5
AE
330
AA
100
AcDbEntity
  8
Layer 2
100
AcDbLine
 10
11.78970053623652
 20
56.6651130345499
 30
0.0
 11
15.19530047773605
 21
56.6651130345499
 31
0.0
  0
LWPOLYLINE
  5
AF
330
AA
100
AcDbEntity
  8
Layer 2
100
AcDbPolyline
 90
        4
 70
     1
 43
0.0
 10
15.1953125
 20
55.66532897949219
 10
11.78955078125
 20
55.66532897949219
 10
11.78955078125
 20
57.66532897949218
 10
15.1953125
 20
57.66532897949218
  0
HATCH
  5
B0
330
AA
100
AcDbEntity
  8
Layer 2
 62
   214
420
  9902235
440
 33554687
100
AcDbHatch
 10
0.0
 20
0.0
 30
0.0
210
0.0
220
0.0
230
1.0
  2
SOLID
 70
     1
 71
     1
 91
        1
 92
        1
 93
        4
 72
     1
 10
15.1953125
 20
55.66532897949219
 11
11.78955078125
 21
55.66532897949219
 72
     1
 10
11.78955078125
 20
55.66532897949219
 11
11.78955078125
 21
57.66532897949218
 72
     1
 10
11.78955078125
 20
57.66532897949218
 11
15.1953125
 21
57.66532897949218
 72
     1
 10
15.1953125
 20
57.66532897949218
 11
15.1953125
 21
55.66532897949219
 97
        1
330
AF
 75
     2
 76
     1
 98
        1
 10
0.0
 20
0.0
450
        0
451
        0
460
0.0
461
0.0
452
        0
462
0.0
453
        0
470

  0
ENDBLK
  5
AD
330
AA
100
AcDbEntity
  8
0
100
AcDbBlockEnd
  0
ENDSEC
  0
SECTION
  2
ENTITIES
  0
INSERT
  5
7A
330
70
100
AcDbEntity
  8
Layer 2
100
AcDbBlockReference
  2
Block_0
 10
0.0
 20
0.0
 30
0.0
  0
INSERT
  5
AB
330
70
100
AcDbEntity
  8
Layer 2
100
AcDbBlockReference
  2
Block_1
 10
0.0
 20
0.0
 30
0.0
  0
ENDSEC
  0
SECTION
  2
OBJECTS
  0
DICTIONARY
  5
C
330
0
100
AcDbDictionary
281
     1
  3
ACAD_COLOR
350
63
  3
ACAD_DETAILVIEWSTYLE
350
6A
  3
ACAD_GROUP
350
D
  3
ACAD_LAYOUT
350
62
  3
ACAD_MATERIAL
350
10
  3
ACAD_MLEADERSTYLE
350
66
  3
ACAD_MLINESTYLE
350
5F
  3
ACAD_PLOTSETTINGS
350
61
  3
ACAD_PLOTSTYLENAME
350
E
  3
ACAD_SCALELIST
350
42
  3
ACAD_SECTIONVIEWSTYLE
350
68
  3
ACAD_TABLESTYLE
350
64
  3
ACAD_VISUALSTYLE
350
29
  3
ACDB_RECOMPOSE_DATA
350
B9
  3
AcDbVariableDictionary
350
B1
  0
DICTIONARY
  5
63
102
{ACAD_REACTORS
330
C
102
}
330
C
100
AcDbDictionary
281
     1
  0
DICTIONARY
  5
6A
102
{ACAD_REACTORS
330
C
102
}
330
C
100
AcDbDictionary
281
     1
  3
Imperial24
350
6B
  0
DICTIONARY
  5
D
102
{ACAD_REACTORS
330
C
102
}
330
C
100
AcDbDictionary
281
     1
  0
DICTIONARY
  5
62
102
{ACAD_REACTORS
330
C
102
}
330
C
100
AcDbDictionary
281
     1
  3
Layout1
350
6F
  3
Layout2
350
77
  3
Model
350
73
  0
DICTIONARY
  5
10
102
{ACAD_REACTORS
330
C
102
}
330
C
100
AcDbDictionary
281
     1
  3
ByBlock
350
19
  3
ByLayer
350
11
  3
Global
350
21
  0
DICTIONARY
  5
66
102
{ACAD_REACTORS
330
C
102
}
330
C
100
AcDbDictionary
281
     1
  3
Standard
350
67
  0
DICTIONARY
  5
5F
102
{ACAD_REACTORS
330
C
102
}
330
C
100
AcDbDictionary
281
     1
  3
Standard
350
60
  0
DICTIONARY
  5
61
102
{ACAD_REACTORS
330
C
102
}
330
C
100
AcDbDictionary
281
     1
  0
ACDBDICTIONARYWDFLT
  5
E
102
{ACAD_REACTORS
330
C
102
}
330
C
100
AcDbDictionary
281
     1
  3
Normal
350
F
100
AcDbDictionaryWithDefault
340
F
  0
DICTIONARY
  5
42
102
{ACAD_REACTORS
330
C
102
}
330
C
100
AcDbDictionary
281
     1
  3
A0
350
43
  3
A1
350
44
  3
A2
350
45
  3
A3
350
46
  3
A4
350
47
  3
A5
350
48
  3
A6
350
49
  3
A7
350
4A
  3
A8
350
4B
  3
A9
350
4C
  3
B0
350
4D
  3
B1
350
4E
  3
B2
350
4F
  3
B3
350
50
  3
B4
350
51
  3
B5
350
52
  3
B6
350
53
  0
DICTIONARY
  5
68
102
{ACAD_REACTORS
330
C
102
}
330
C
100
AcDbDictionary
281
     1
  3
Imperial24
350
69
  0
DICTIONARY
  5
64
102
{ACAD_REACTORS
330
C
102
}
330
C
100
AcDbDictionary
281
     1
  3
Standard
350
65
  0
DICTIONARY
  5
29
102
{ACAD_REACTORS
330
C
102
}
330
C
100
AcDbDictionary
281
     1
  3
2dWireframe
350
2F
  3
Basic
350
2E
  3
Brighten
350
35
  3
ColorChange
350
39
  3
Conceptual
350
32
  3
Dim
350
34
  3
EdgeColorOff
350
41
  3
Facepattern
350
38
  3
Flat
350
2A
  3
FlatWithEdges
350
2B
  3
Gouraud
350
2C
  3
GouraudWithEdges
350
2D
  3
Hidden
350
31
  3
JitterOff
350
3F
  3
Linepattern
350
37
  3
OverhangOff
350
40
  3
Realistic
350
33
  3
Shaded
350
3E
  3
Shaded with edges
350
3D
  3
Shades of Gray
350
3A
  3
Sketchy
350
3B
  3
Thicken
350
36
  3
Wireframe
350
30
  3
X-Ray
350
3C
  0
XRECORD
  5
B9
102
{ACAD_REACTORS
330
C
102
}
330
C
100
AcDbXrecord
280
     1
 90
        1
330
65
  0
DICTIONARY
  5
B1
102
{ACAD_REACTORS
330
C
102
}
330
C
100
AcDbDictionary
281
     1
  3
CANNOSCALE
350
B6
  3
CMLEADERSTYLE
350
B3
  3
CTABLESTYLE
350
B2
  3
CVIEWDETAILSTYLE
350
B4
  3
CVIEWSECTIONSTYLE
350
B5
  0
ACDBDETAILVIEWSTYLE
  5
6B
102
{ACAD_REACTORS
330
6A
102
}
330
6A
100
AcDbModelDocViewStyle
 70
     0
  3
Imperial24
290
     1
300
Imperial24
 90
        0
100
AcDbDetailViewStyle
 70
     0
 71
     0
 90
        3
 71
     1
340
55
 62
   256
 40
0.24
340
0
 62
   256
 40
0.24
300

 40
0.36
280
     3
 71
     2
340
5D
 90
       25
 62
   256
 71
     3
340
55
 62
   256
 40
0.24
 90
        1
 40
0.75
 90
        1
300
%<\AcVar ViewType \f "%tc1">% %<\AcVar ViewDetailId>%\PSCALE %<\AcVar ViewScale \f "%sn">%
 71
     4
340
5D
 90
       25
 62
   256
340
5D
 90
       25
 62
   256
280
     0
  0
LAYOUT
  5
6F
102
{ACAD_REACTORS
330
62
102
}
330
62
100
AcDbPlotSettings
  1

  2

  4

  6

 40
0.0
 41
0.0
 42
0.0
 43
0.0
 44
0.0
 45
0.0
 46
0.0
 47
0.0
 48
0.0
 49
0.0
140
0.0
141
0.0
142
1.0
143
1.0
 70
   688
 72
     0
 73
     0
 74
     5
  7

 75
    16
147
1.0
 76
     0
 77
     2
 78
   300
148
0.0
149
0.0
100
AcDbLayout
  1
Layout1
 70
     1
 71
     1
 10
0.0
 20
0.0
 11
12.0
 21
9.0
 12
0.0
 22
0.0
 32
0.0
 14
0.0
 24
0.0
 34
0.0
 15
0.0
 25
0.0
 35
0.0
146
0.0
 13
0.0
 23
0.0
 33
0.0
 16
1.0
 26
0.0
 36
0.0
 17
0.0
 27
1.0
 37
0.0
 76
     0
330
6C
  0
LAYOUT
  5
77
102
{ACAD_REACTORS
330
62
102
}
330
62
100
AcDbPlotSettings
  1

  2

  4

  6

 40
0.0
 41
0.0
 42
0.0
 43
0.0
 44
0.0
 45
0.0
 46
0.0
 47
0.0
 48
0.0
 49
0.0
140
0.0
141
0.0
142
1.0
143
1.0
 70
   688
 72
     0
 73
     0
 74
     5
  7

 75
    16
147
1.0
 76
     0
 77
     2
 78
   300
148
0.0
149
0.0
100
AcDbLayout
  1
Layout2
 70
     1
 71
     2
 10
0.0
 20
0.0
 11
12.0
 21
9.0
 12
0.0
 22
0.0
 32
0.0
 14
0.0
 24
0.0
 34
0.0
 15
0.0
 25
0.0
 35
0.0
146
0.0
 13
0.0
 23
0.0
 33
0.0
 16
1.0
 26
0.0
 36
0.0
 17
0.0
 27
1.0
 37
0.0
 76
     0
330
74
  0
LAYOUT
  5
73
102
{ACAD_REACTORS
330
62
102
}
330
62
100
AcDbPlotSettings
  1

  2

  4

  6

 40
0.0
 41
0.0
 42
0.0
 43
0.0
 44
0.0
 45
0.0
 46
0.0
 47
0.0
 48
0.0
 49
0.0
140
0.0
141
0.0
142
1.0
143
1.0
 70
  1712
 72
     0
 73
     0
 74
     0
  7

 75
     0
147
1.0
 76
     0
 77
     2
 78
   300
148
0.0
149
0.0
100
AcDbLayout
  1
Model
 70
     1
 71
     0
 10
0.0
 20
0.0
 11
12.0
 21
9.0
 12
0.0
 22
0.0
 32
0.0
 14
0.0
 24
0.0
 34
0.0
 15
0.0
 25
0.0
 35
0.0
146
0.0
 13
0.0
 23
0.0
 33
0.0
 16
1.0
 26
0.0
 36
0.0
 17
0.0
 27
1.0
 37
0.0
 76
     0
330
70
  0
MATERIAL
  5
19
102
{ACAD_XDICTIONARY
360
1A
102
}
102
{ACAD_REACTORS
330
10
102
}
330
10
100
AcDbMaterial
  1
ByBlock
 72
     0
 43
0.0208333333333333
 43
0.0
 43
0.0
 43
0.0
 43
0.0
 43
0.0208333333333333
 43
0.0
 43
0.0
 43
0.0
 43
0.0
 43
1.0
 43
0.0
 43
0.0
 43
0.0
 43
0.0
 43
1.0
 77
     0
 47
0.0208333333333333
 47
0.0
 47
0.0
 47
0.0
 47
0.0
 47
0.0208333333333333
 47
0.0
 47
0.0
 47
0.0
 47
0.0
 47
1.0
 47
0.0
 47
0.0
 47
0.0
 47
0.0
 47
1.0
171
     0
 49
0.0208333333333333
 49
0.0
 49
0.0
 49
0.0
 49
0.0
 49
0.0208333333333333
 49
0.0
 49
0.0
 49
0.0
 49
0.0
 49
1.0
 49
0.0
 49
0.0
 49
0.0
 49
0.0
 49
1.0
175
     0
142
0.0208333333333333
142
0.0
142
0.0
142
0.0
142
0.0
142
0.0208333333333333
142
0.0
142
0.0
142
0.0
142
0.0
142
1.0
142
0.0
142
0.0
142
0.0
142
0.0
142
1.0
179
     0
144
0.0208333333333333
144
0.0
144
0.0
144
0.0
144
0.0
144
0.0208333333333333
144
0.0
144
0.0
144
0.0
144
0.0
144
1.0
144
0.0
144
0.0
144
0.0
144
0.0
144
1.0
147
0.0208333333333333
147
0.0
147
0.0
147
0.0
147
0.0
147
0.0208333333333333
147
0.0
147
0.0
147
0.0
147
0.0
147
1.0
147
0.0
147
0.0
147
0.0
147
0.0
147
1.0
  0
MATERIAL
  5
11
102
{ACAD_XDICTIONARY
360
12
102
}
102
{ACAD_REACTORS
330
10
102
}
330
10
100
AcDbMaterial
  1
ByLayer
 72
     0
 43
0.0208333333333333
 43
0.0
 43
0.0
 43
0.0
 43
0.0
 43
0.0208333333333333
 43
0.0
 43
0.0
 43
0.0
 43
0.0
 43
1.0
 43
0.0
 43
0.0
 43
0.0
 43
0.0
 43
1.0
 77
     0
 47
0.0208333333333333
 47
0.0
 47
0.0
 47
0.0
 47
0.0
 47
0.0208333333333333
 47
0.0
 47
0.0
 47
0.0
 47
0.0
 47
1.0
 47
0.0
 47
0.0
 47
0.0
 47
0.0
 47
1.0
171
     0
 49
0.0208333333333333
 49
0.0
 49
0.0
 49
0.0
 49
0.0
 49
0.0208333333333333
 49
0.0
 49
0.0
 49
0.0
 49
0.0
 49
1.0
 49
0.0
 49
0.0
 49
0.0
 49
0.0
 49
1.0
175
     0
142
0.0208333333333333
142
0.0
142
0.0
142
0.0
142
0.0
142
0.0208333333333333
142
0.0
142
0.0
142
0.0
142
0.0
142
1.0
142
0.0
142
0.0
142
0.0
142
0.0
142
1.0
179
     0
144
0.0208333333333333
144
0.0
144
0.0
144
0.0
144
0.0
144
0.0208333333333333
144
0.0
144
0.0
144
0.0
144
0.0
144
1.0
144
0.0
144
0.0
144
0.0
144
0.0
144
1.0
147
0.0208333333333333
147
0.0
147
0.0
147
0.0
147
0.0
147
0.0208333333333333
147
0.0
147
0.0
147
0.0
147
0.0
147
1.0
147
0.0
147
0.0
147
0.0
147
0.0
147
1.0
  0
MATERIAL
  5
21
102
{ACAD_XDICTIONARY
360
22
102
}
102
{ACAD_REACTORS
330
10
102
}
330
10
100
AcDbMaterial
  1
Global
 72
     0
 43
0.0208333333333333
 43
0.0
 43
0.0
 43
0.0
 43
0.0
 43
0.0208333333333333
 43
0.0
 43
0.0
 43
0.0
 43
0.0
 43
1.0
 43
0.0
 43
0.0
 43
0.0
 43
0.0
 43
1.0
 77
     0
 47
0.0208333333333333
 47
0.0
 47
0.0
 47
0.0
 47
0.0
 47
0.0208333333333333
 47
0.0
 47
0.0
 47
0.0
 47
0.0
 47
1.0
 47
0.0
 47
0.0
 47
0.0
 47
0.0
 47
1.0
171
     0
 49
0.0208333333333333
 49
0.0
 49
0.0
 49
0.0
 49
0.0
 49
0.0208333333333333
 49
0.0
 49
0.0
 49
0.0
 49
0.0
 49
1.0
 49
0.0
 49
0.0
 49
0.0
 49
0.0
 49
1.0
175
     0
142
0.0208333333333333
142
0.0
142
0.0
142
0.0
142
0.0
142
0.0208333333333333
142
0.0
142
0.0
142
0.0
142
0.0
142
1.0
142
0.0
142
0.0
142
0.0
142
0.0
142
1.0
179
     0
144
0.0208333333333333
144
0.0
144
0.0
144
0.0
144
0.0
144
0.0208333333333333
144
0.0
144
0.0
144
0.0
144
0.0
144
1.0
144
0.0
144
0.0
144
0.0
144
0.0
144
1.0
147
0.0208333333333333
147
0.0
147
0.0
147
0.0
147
0.0
147
0.0208333333333333
147
0.0
147
0.0
147
0.0
147
0.0
147
1.0
147
0.0
147
0.0
147
0.0
147
0.0
147
1.0
  0
MLEADERSTYLE
  5
67
102
{ACAD_REACTORS
330
66
102
}
330
66
100
AcDbMLeaderStyle
179
     2
170
     2
171
     1
172
     0
 90
        2
 40
0.0
 41
0.0
173
     1
 91
-1056964608
340
5B
 92
       -2
290
     1
 42
0.09
291
     1
 43
0.36
  3
Standard
 44
0.18
300

342
55
174
     1
178
     6
175
     1
176
     0
 93
-1056964608
 45
0.18
292
     0
297
     0
 46
0.18
 94
-1056964608
 47
1.0
 49
1.0
140
1.0
293
     1
141
0.0
294
     1
177
     0
142
1.0
295
     1
296
     0
143
0.125
271
     0
272
     9
273
     9
298
     1
  0
MLINESTYLE
  5
60
102
{ACAD_REACTORS
330
5F
102
}
330
5F
100
AcDbMlineStyle
  2
STANDARD
 70
     0
  3

 62
   256
 51
90.0
 52
90.0
 71
     2
 49
0.5
 62
   256
  6
BYLAYER
 49
-0.5
 62
   256
  6
BYLAYER
  0
ACDBPLACEHOLDER
  5
F
102
{ACAD_REACTORS
330
E
102
}
330
E
  0
SCALE
  5
43
102
{ACAD_REACTORS
330
42
102
}
330
42
100
AcDbScale
 70
     0
300
1:1
140
1.0
141
1.0
290
     1
  0
SCALE
  5
44
102
{ACAD_REACTORS
330
42
102
}
330
42
100
AcDbScale
 70
     0
300
1/128" = 1'-0"
140
0.0078125
141
12.0
290
     0
  0
SCALE
  5
45
102
{ACAD_REACTORS
330
42
102
}
330
42
100
AcDbScale
 70
     0
300
1/64" = 1'-0"
140
0.015625
141
12.0
290
     0
  0
SCALE
  5
46
102
{ACAD_REACTORS
330
42
102
}
330
42
100
AcDbScale
 70
     0
300
1/32" = 1'-0"
140
0.03125
141
12.0
290
     0
  0
SCALE
  5
47
102
{ACAD_REACTORS
330
42
102
}
330
42
100
AcDbScale
 70
     0
300
1/16" = 1'-0"
140
0.0625
141
12.0
290
     0
  0
SCALE
  5
48
102
{ACAD_REACTORS
330
42
102
}
330
42
100
AcDbScale
 70
     0
300
3/32" = 1'-0"
140
0.09375
141
12.0
290
     0
  0
SCALE
  5
49
102
{ACAD_REACTORS
330
42
102
}
330
42
100
AcDbScale
 70
     0
300
1/8" = 1'-0"
140
0.125
141
12.0
290
     0
  0
SCALE
  5
4A
102
{ACAD_REACTORS
330
42
102
}
330
42
100
AcDbScale
 70
     0
300
3/16" = 1'-0"
140
0.1875
141
12.0
290
     0
  0
SCALE
  5
4B
102
{ACAD_REACTORS
330
42
102
}
330
42
100
AcDbScale
 70
     0
300
1/4" = 1'-0"
140
0.25
141
12.0
290
     0
  0
SCALE
  5
4C
102
{ACAD_REACTORS
330
42
102
}
330
42
100
AcDbScale
 70
     0
300
3/8" = 1'-0"
140
0.375
141
12.0
290
     0
  0
SCALE
  5
4D
102
{ACAD_REACTORS
330
42
102
}
330
42
100
AcDbScale
 70
     0
300
1/2" = 1'-0"
140
0.5
141
12.0
290
     0
  0
SCALE
  5
4E
102
{ACAD_REACTORS
330
42
102
}
330
42
100
AcDbScale
 70
     0
300
3/4" = 1'-0"
140
0.75
141
12.0
290
     0
  0
SCALE
  5
4F
102
{ACAD_REACTORS
330
42
102
}
330
42
100
AcDbScale
 70
     0
300
1" = 1'-0"
140
1.0
141
12.0
290
     0
  0
SCALE
  5
50
102
{ACAD_REACTORS
330
42
102
}
330
42
100
AcDbScale
 70
     0
300
1-1/2" = 1'-0"
140
1.5
141
12.0
290
     0
  0
SCALE
  5
51
102
{ACAD_REACTORS
330
42
102
}
330
42
100
AcDbScale
 70
     0
300
3" = 1'-0"
140
3.0
141
12.0
290
     0
  0
SCALE
  5
52
102
{ACAD_REACTORS
330
42
102
}
330
42
100
AcDbScale
 70
     0
300
6" = 1'-0"
140
6.0
141
12.0
290
     0
  0
SCALE
  5
53
102
{ACAD_REACTORS
330
42
102
}
330
42
100
AcDbScale
 70
     0
300
1'-0" = 1'-0"
140
12.0
141
12.0
290
     0
  0
ACDBSECTIONVIEWSTYLE
  5
69
102
{ACAD_REACTORS
330
68
102
}
330
68
100
AcDbModelDocViewStyle
 70
     0
  3
Imperial24
290
     1
300
Imperial24
 90
        0
100
AcDbSectionViewStyle
 70
     0
 71
     0
 90
       78
 71
     1
340
55
 62
   256
 40
0.24
340
0
340
0
 62
   256
 40
0.24
300
I, O, Q, S, X, Z
 40
0.48
 90
        3
 40
0.18
 90
        1
 71
     2
340
5D
 90
       25
 62
   256
340
5D
 90
       50
 62
   256
 40
0.24
 40
0.0
 40
0.24
 71
     3
340
55
 62
   256
 40
0.24
 90
        1
 40
0.75
 90
        1
300
%<\AcVar ViewType \f "%tc1">% %<\AcVar ViewSectionStartId>%-%<\AcVar ViewSectionEndId>%\PSCALE %<\AcVar ViewScale \f "%sn">%
 71
     4
 62
   256
 62
   257
300
ANSI31
 40
1.0
 90
        0
290
     0
290
     0
 90
        6
 40
0.0
 40
1.570796326794896
 40
0.2617993877991494
 40
1.308996938995747
 40
-0.2617993877991494
 40
1.832595714594046
  0
TABLESTYLE
  5
65
102
{ACAD_XDICTIONARY
360
B7
102
}
102
{ACAD_REACTORS
330
64
102
}
330
64
100
AcDbTableStyle
280
     0
  3
Standard
 70
     0
 71
     0
 40
0.06
 41
0.06
280
     0
281
     0
  7
Standard
140
0.18
170
     2
 62
     0
 63
     7
283
     0
 90
      512
 91
        0
  1

274
    -2
284
     1
 64
     0
275
    -2
285
     1
 65
     0
276
    -2
286
     1
 66
     0
277
    -2
287
     1
 67
     0
278
    -2
288
     1
 68
     0
279
    -2
289
     1
 69
     0
  7
Standard
140
0.25
170
     5
 62
     0
 63
     7
283
     0
 90
      512
 91
        0
  1

274
    -2
284
     1
 64
     0
275
    -2
285
     1
 65
     0
276
    -2
286
     1
 66
     0
277
    -2
287
     1
 67
     0
278
    -2
288
     1
 68
     0
279
    -2
289
     1
 69
     0
  7
Standard
140
0.18
170
     5
 62
     0
 63
     7
283
     0
 90
      512
 91
        0
  1

274
    -2
284
     1
 64
     0
275
    -2
285
     1
 65
     0
276
    -2
286
     1
 66
     0
277
    -2
287
     1
 67
     0
278
    -2
288
     1
 68
     0
279
    -2
289
     1
 69
     0
  0
VISUALSTYLE
  5
2F
102
{ACAD_REACTORS
330
29
102
}
330
29
100
AcDbVisualStyle
  2
2dWireframe
 70
     4
177
     3
291
     0
 70
    58
 90
        0
176
     1
 90
        2
176
     1
 90
        0
176
     1
 90
        0
176
     1
 40
0.6
176
     1
 40
30.0
176
     1
 62
     7
420
 16777215
176
     1
 90
        1
176
     1
 90
        4
176
     1
 62
     7
176
     1
 62
   257
176
     1
 90
        1
176
     1
 90
        1
176
     1
 40
1.0
176
     1
 90
        0
176
     1
 62
   257
176
     1
 40
1.0
176
     1
 90
        1
176
     1
 90
        6
176
     1
 90
        2
176
     1
 62
     7
176
     1
 90
        5
176
     1
 90
        0
176
     1
 90
        0
176
     1
290
     0
176
     1
 90
        1
176
     1
 40
0.0
176
     1
 90
        0
176
     1
290
     1
176
     1
290
     1
176
     1
290
     0
176
     1
290
     0
176
     1
290
     0
176
     1
290
     0
176
     1
290
     0
176
     1
290
     0
176
     1
290
     0
176
     1
 90
       50
176
     1
 40
0.0
176
     1
 40
1.0
176
     1
 90
        0
176
     1
 62
    18
420
        0
176
     1
 90
       50
176
     1
 90
        3
176
     1
 62
     5
420
      255
176
     1
290
     0
176
     1
 90
       50
176
     1
 90
       50
176
     1
 90
       50
176
     1
290
     0
176
     1
 90
       50
176
     1
 62
   256
176
     0
 40
1.0
176
     0
 90
        2
176
     1
  1
strokes_ogs.tif
176
     1
290
     0
176
     1
 40
1.0
176
     1
 40
1.0
176
     1
  0
VISUALSTYLE
  5
2E
102
{ACAD_REACTORS
330
29
102
}
330
29
100
AcDbVisualStyle
  2
Basic
 70
     7
177
     3
291
     1
 70
    58
 90
        1
176
     1
 90
        0
176
     1
 90
        1
176
     1
 90
        0
176
     1
 40
0.6
176
     1
 40
30.0
176
     1
 62
     7
420
 16777215
176
     1
 90
        0
176
     1
 90
        4
176
     1
 62
     7
176
     1
 62
   257
176
     1
 90
        1
176
     1
 90
        1
176
     1
 40
1.0
176
     1
 90
        8
176
     1
 62
     7
176
     1
 40
1.0
176
     1
 90
        1
176
     1
 90
        6
176
     1
 90
        2
176
     1
 62
     7
176
     1
 90
        5
176
     1
 90
        0
176
     1
 90
        0
176
     1
290
     0
176
     1
 90
        1
176
     1
 40
0.0
176
     1
 90
        0
176
     1
290
     0
176
     1
290
     1
176
     1
290
     1
176
     1
290
     0
176
     1
290
     0
176
     1
290
     0
176
     1
290
     0
176
     1
290
     0
176
     1
290
     0
176
     1
 90
       50
176
     1
 40
0.0
176
     1
 40
1.0
176
     1
 90
        0
176
     1
 62
    18
420
        0
176
     1
 90
       50
176
     1
 90
        3
176
     1
 62
     5
420
      255
176
     1
290
     0
176
     1
 90
       50
176
     1
 90
       50
176
     1
 90
       50
176
     1
290
     0
176
     1
 90
       50
176
     1
 62
   256
176
     0
 40
1.0
176
     0
 90
        2
176
     1
  1
strokes_ogs.tif
176
     1
290
     0
176
     1
 40
1.0
176
     1
 40
1.0
176
     1
  0
VISUALSTYLE
  5
35
102
{ACAD_REACTORS
330
29
102
}
330
29
100
AcDbVisualStyle
  2
Brighten
 70
    12
177
     3
291
     1
 70
    58
 90
        2
176
     1
 90
        2
176
     1
 90
        0
176
     1
 90
        0
176
     1
 40
0.6
176
     1
 40
30.0
176
     1
 62
     7
420
 16777215
176
     1
 90
        1
176
     1
 90
        4
176
     1
 62
     7
176
     1
 62
   257
176
     1
 90
        1
176
     1
 90
        1
176
     1
 40
1.0
176
     1
 90
        8
176
     1
 62
     7
176
     1
 40
1.0
176
     1
 90
        1
176
     1
 90
        6
176
     1
 90
        2
176
     1
 62
     7
176
     1
 90
        5
176
     1
 90
        0
176
     1
 90
        0
176
     1
290
     0
176
     1
 90
        1
176
     1
 40
50.0
176
     1
 90
        0
176
     1
290
     0
176
     1
290
     1
176
     1
290
     1
176
     1
290
     0
176
     1
290
     0
176
     1
290
     0
176
     1
290
     0
176
     1
290
     0
176
     1
290
     0
176
     1
 90
       50
176
     1
 40
0.0
176
     1
 40
1.0
176
     1
 90
        0
176
     1
 62
    18
420
        0
176
     1
 90
       50
176
     1
 90
        3
176
     1
 62
     5
420
      255
176
     1
290
     0
176
     1
 90
       50
176
     1
 90
       50
176
     1
 90
       50
176
     1
290
     0
176
     1
 90
       50
176
     1
 62
   256
176
     0
 40
1.0
176
     0
 90
        2
176
     1
  1
strokes_ogs.tif
176
     1
290
     0
176
     1
 40
1.0
176
     1
 40
1.0
176
     1
  0
VISUALSTYLE
  5
39
102
{ACAD_REACTORS
330
29
102
}
330
29
100
AcDbVisualStyle
  2
ColorChange
 70
    16
177
     3
291
     1
 70
    58
 90
        2
176
     1
 90
        2
176
     1
 90
        3
176
     1
 90
        0
176
     1
 40
0.6
176
     1
 40
30.0
176
     1
 62
     8
420
  8421504
176
     1
 90
        1
176
     1
 90
        4
176
     1
 62
     7
176
     1
 62
   257
176
     1
 90
        1
176
     1
 90
        1
176
     1
 40
1.0
176
     1
 90
        8
176
     1
 62
     8
420
  8421504
176
     1
 40
1.0
176
     1
 90
        1
176
     1
 90
        6
176
     1
 90
        2
176
     1
 62
     7
176
     1
 90
        5
176
     1
 90
        0
176
     1
 90
        0
176
     1
290
     0
176
     1
 90
        1
176
     1
 40
0.0
176
     1
 90
        0
176
     1
290
     0
176
     1
290
     1
176
     1
290
     1
176
     1
290
     0
176
     1
290
     0
176
     1
290
     0
176
     1
290
     0
176
     1
290
     0
176
     1
290
     0
176
     1
 90
       50
176
     1
 40
0.0
176
     1
 40
1.0
176
     1
 90
        0
176
     1
 62
    18
420
        0
176
     1
 90
       50
176
     1
 90
        3
176
     1
 62
     5
420
      255
176
     1
290
     0
176
     1
 90
       50
176
     1
 90
       50
176
     1
 90
       50
176
     1
290
     0
176
     1
 90
       50
176
     1
 62
   256
176
     0
 40
1.0
176
     0
 90
        2
176
     1
  1
strokes_ogs.tif
176
     1
290
     0
176
     1
 40
1.0
176
     1
 40
1.0
176
     1
  0
VISUALSTYLE
  5
32
102
{ACAD_REACTORS
330
29
102
}
330
29
100
AcDbVisualStyle
  2
Conceptual
 70
     9
177
     3
291
     0
 70
    58
 90
        3
176
     1
 90
        2
176
     1
 90
        0
176
     1
 90
        0
176
     1
 40
0.6
176
     1
 40
30.0
176
     1
 62
     7
420
 16777215
176
     1
 90
        2
176
     1
 90
        2
176
     1
 62
     7
176
     1
 62
   257
176
     1
 90
        1
176
     1
 90
        1
176
     1
 40
179.0
176
     1
 90
        8
176
     1
 62
     7
176
     1
 40
1.0
176
     1
 90
        1
176
     1
 90
        6
176
     1
 90
        2
176
     1
 62
     7
176
     1
 90
        3
176
     1
 90
        0
176
     1
 90
        0
176
     1
290
     0
176
     1
 90
        1
176
     1
 40
0.0
176
     1
 90
        0
176
     1
290
     0
176
     1
290
     1
176
     1
290
     1
176
     1
290
     0
176
     1
290
     0
176
     1
290
     0
176
     1
290
     0
176
     1
290
     0
176
     1
290
     0
176
     1
 90
       50
176
     1
 40
0.0
176
     1
 40
1.0
176
     1
 90
        0
176
     1
 62
    18
420
        0
176
     1
 90
       50
176
     1
 90
        3
176
     1
 62
     5
420
      255
176
     1
290
     0
176
     1
 90
       50
176
     1
 90
       50
176
     1
 90
       50
176
     1
290
     0
176
     1
 90
       50
176
     1
 62
   256
176
     0
 40
1.0
176
     0
 90
        2
176
     1
  1
strokes_ogs.tif
176
     1
290
     0
176
     1
 40
1.0
176
     1
 40
1.0
176
     1
  0
VISUALSTYLE
  5
34
102
{ACAD_REACTORS
330
29
102
}
330
29
100
AcDbVisualStyle
  2
Dim
 70
    11
177
     3
291
     1
 70
    58
 90
        2
176
     1
 90
        2
176
     1
 90
        0
176
     1
 90
        0
176
     1
 40
0.6
176
     1
 40
30.0
176
     1
 62
     7
420
 16777215
176
     1
 90
        1
176
     1
 90
        4
176
     1
 62
     7
176
     1
 62
   257
176
     1
 90
        1
176
     1
 90
        1
176
     1
 40
1.0
176
     1
 90
        8
176
     1
 62
     7
176
     1
 40
1.0
176
     1
 90
        1
176
     1
 90
        6
176
     1
 90
        2
176
     1
 62
     7
176
     1
 90
        5
176
     1
 90
        0
176
     1
 90
        0
176
     1
290
     0
176
     1
 90
        1
176
     1
 40
-50.0
176
     1
 90
        0
176
     1
290
     0
176
     1
290
     1
176
     1
290
     1
176
     1
290
     0
176
     1
290
     0
176
     1
290
     0
176
     1
290
     0
176
     1
290
     0
176
     1
290
     0
176
     1
 90
       50
176
     1
 40
0.0
176
     1
 40
1.0
176
     1
 90
        0
176
     1
 62
    18
420
        0
176
     1
 90
       50
176
     1
 90
        3
176
     1
 62
     5
420
      255
176
     1
290
     0
176
     1
 90
       50
176
     1
 90
       50
176
     1
 90
       50
176
     1
290
     0
176
     1
 90
       50
176
     1
 62
   256
176
     0
 40
1.0
176
     0
 90
        2
176
     1
  1
strokes_ogs.tif
176
     1
290
     0
176
     1
 40
1.0
176
     1
 40
1.0
176
     1
  0
VISUALSTYLE
  5
41
102
{ACAD_REACTORS
330
29
102
}
330
29
100
AcDbVisualStyle
  2
EdgeColorOff
 70
    22
177
     3
291
     1
 70
    58
 90
        2
176
     0
 90
        2
176
     0
 90
        0
176
     0
 90
        0
176
     0
 40
0.6
176
     0
 40
30.0
176
     0
 62
     7
420
 16777215
176
     0
 90
        1
176
     0
 90
        4
176
     0
 62
     7
176
     0
 62
   257
176
     0
 90
        1
176
     0
 90
        1
176
     0
 40
1.0
176
     0
 90
        8
176
     2
 62
     7
176
     0
 40
1.0
176
     0
 90
        1
176
     0
 90
        6
176
     0
 90
        2
176
     0
 62
     7
176
     0
 90
        5
176
     0
 90
        0
176
     0
 90
        0
176
     0
290
     0
176
     0
 90
        1
176
     0
 40
0.0
176
     0
 90
        0
176
     0
290
     0
176
     0
290
     1
176
     0
290
     1
176
     0
290
     0
176
     0
290
     0
176
     0
290
     0
176
     0
290
     0
176
     0
290
     0
176
     0
290
     0
176
     0
 90
       50
176
     0
 40
0.0
176
     0
 40
1.0
176
     0
 90
        0
176
     0
 62
    18
420
        0
176
     0
 90
       50
176
     0
 90
        3
176
     0
 62
     5
420
      255
176
     0
290
     0
176
     0
 90
       50
176
     0
 90
       50
176
     0
 90
       50
176
     0
290
     0
176
     0
 90
       50
176
     0
 62
   256
176
     0
 40
1.0
176
     0
 90
        2
176
     0
  1
strokes_ogs.tif
176
     0
290
     0
176
     0
 40
1.0
176
     0
 40
1.0
176
     0
  0
VISUALSTYLE
  5
38
102
{ACAD_REACTORS
330
29
102
}
330
29
100
AcDbVisualStyle
  2
Facepattern
 70
    15
177
     3
291
     1
 70
    58
 90
        2
176
     1
 90
        2
176
     1
 90
        0
176
     1
 90
        0
176
     1
 40
0.6
176
     1
 40
30.0
176
     1
 62
     7
420
 16777215
176
     1
 90
        1
176
     1
 90
        4
176
     1
 62
     7
176
     1
 62
   257
176
     1
 90
        1
176
     1
 90
        1
176
     1
 40
1.0
176
     1
 90
        8
176
     1
 62
     7
176
     1
 40
1.0
176
     1
 90
        1
176
     1
 90
        6
176
     1
 90
        2
176
     1
 62
     7
176
     1
 90
        5
176
     1
 90
        0
176
     1
 90
        0
176
     1
290
     0
176
     1
 90
        1
176
     1
 40
0.0
176
     1
 90
        0
176
     1
290
     0
176
     1
290
     1
176
     1
290
     1
176
     1
290
     0
176
     1
290
     0
176
     1
290
     0
176
     1
290
     0
176
     1
290
     0
176
     1
290
     0
176
     1
 90
       50
176
     1
 40
0.0
176
     1
 40
1.0
176
     1
 90
        0
176
     1
 62
    18
420
        0
176
     1
 90
       50
176
     1
 90
        3
176
     1
 62
     5
420
      255
176
     1
290
     0
176
     1
 90
       50
176
     1
 90
       50
176
     1
 90
       50
176
     1
290
     0
176
     1
 90
       50
176
     1
 62
   256
176
     0
 40
1.0
176
     0
 90
        2
176
     1
  1
strokes_ogs.tif
176
     1
290
     0
176
     1
 40
1.0
176
     1
 40
1.0
176
     1
  0
VISUALSTYLE
  5
2A
102
{ACAD_REACTORS
330
29
102
}
330
29
100
AcDbVisualStyle
  2
Flat
 70
     0
177
     3
291
     1
 70
    58
 90
        2
176
     1
 90
        1
176
     1
 90
        1
176
     1
 90
        2
176
     1
 40
0.6
176
     1
 40
30.0
176
     1
 62
     7
420
 16777215
176
     1
 90
        0
176
     1
 90
        0
176
     1
 62
     7
176
     1
 62
   257
176
     1
 90
        1
176
     1
 90
        1
176
     1
 40
1.0
176
     1
 90
        8
176
     1
 62
     7
176
     1
 40
1.0
176
     1
 90
        1
176
     1
 90
        6
176
     1
 90
        2
176
     1
 62
     7
176
     1
 90
        5
176
     1
 90
        0
176
     1
 90
        0
176
     1
290
     0
176
     1
 90
       13
176
     1
 40
0.0
176
     1
 90
        0
176
     1
290
     0
176
     1
290
     1
176
     1
290
     1
176
     1
290
     0
176
     1
290
     0
176
     1
290
     0
176
     1
290
     0
176
     1
290
     0
176
     1
290
     0
176
     1
 90
       50
176
     1
 40
0.0
176
     1
 40
1.0
176
     1
 90
        0
176
     1
 62
    18
420
        0
176
     1
 90
       50
176
     1
 90
        3
176
     1
 62
     5
420
      255
176
     1
290
     0
176
     1
 90
       50
176
     1
 90
       50
176
     1
 90
       50
176
     1
290
     0
176
     1
 90
       50
176
     1
 62
   256
176
     0
 40
1.0
176
     0
 90
        2
176
     1
  1
strokes_ogs.tif
176
     1
290
     0
176
     1
 40
1.0
176
     1
 40
1.0
176
     1
  0
VISUALSTYLE
  5
2B
102
{ACAD_REACTORS
330
29
102
}
330
29
100
AcDbVisualStyle
  2
FlatWithEdges
 70
     1
177
     3
291
     1
 70
    58
 90
        2
176
     1
 90
        1
176
     1
 90
        1
176
     1
 90
        2
176
     1
 40
0.6
176
     1
 40
30.0
176
     1
 62
     7
420
 16777215
176
     1
 90
        1
176
     1
 90
        0
176
     1
 62
     7
176
     1
 62
   257
176
     1
 90
        1
176
     1
 90
        1
176
     1
 40
1.0
176
     1
 90
        0
176
     1
 62
   257
176
     1
 40
1.0
176
     1
 90
        1
176
     1
 90
        6
176
     1
 90
        2
176
     1
 62
     7
176
     1
 90
        5
176
     1
 90
        0
176
     1
 90
        0
176
     1
290
     0
176
     1
 90
       13
176
     1
 40
0.0
176
     1
 90
        0
176
     1
290
     0
176
     1
290
     1
176
     1
290
     1
176
     1
290
     0
176
     1
290
     0
176
     1
290
     0
176
     1
290
     0
176
     1
290
     0
176
     1
290
     0
176
     1
 90
       50
176
     1
 40
0.0
176
     1
 40
1.0
176
     1
 90
        0
176
     1
 62
    18
420
        0
176
     1
 90
       50
176
     1
 90
        3
176
     1
 62
     5
420
      255
176
     1
290
     0
176
     1
 90
       50
176
     1
 90
       50
176
     1
 90
       50
176
     1
290
     0
176
     1
 90
       50
176
     1
 62
   256
176
     0
 40
1.0
176
     0
 90
        2
176
     1
  1
strokes_ogs.tif
176
     1
290
     0
176
     1
 40
1.0
176
     1
 40
1.0
176
     1
  0
VISUALSTYLE
  5
2C
102
{ACAD_REACTORS
330
29
102
}
330
29
100
AcDbVisualStyle
  2
Gouraud
 70
     2
177
     3
291
     1
 70
    58
 90
        2
176
     1
 90
        2
176
     1
 90
        1
176
     1
 90
        2
176
     1
 40
0.6
176
     1
 40
30.0
176
     1
 62
     7
420
 16777215
176
     1
 90
        0
176
     1
 90
        0
176
     1
 62
     7
176
     1
 62
   257
176
     1
 90
        1
176
     1
 90
        1
176
     1
 40
1.0
176
     1
 90
        0
176
     1
 62
     7
176
     1
 40
1.0
176
     1
 90
        1
176
     1
 90
        6
176
     1
 90
        2
176
     1
 62
     7
176
     1
 90
        5
176
     1
 90
        0
176
     1
 90
        0
176
     1
290
     0
176
     1
 90
       13
176
     1
 40
0.0
176
     1
 90
        0
176
     1
290
     0
176
     1
290
     1
176
     1
290
     1
176
     1
290
     0
176
     1
290
     0
176
     1
290
     0
176
     1
290
     0
176
     1
290
     0
176
     1
290
     0
176
     1
 90
       50
176
     1
 40
0.0
176
     1
 40
1.0
176
     1
 90
        0
176
     1
 62
    18
420
        0
176
     1
 90
       50
176
     1
 90
        3
176
     1
 62
     5
420
      255
176
     1
290
     0
176
     1
 90
       50
176
     1
 90
       50
176
     1
 90
       50
176
     1
290
     0
176
     1
 90
       50
176
     1
 62
   256
176
     0
 40
1.0
176
     0
 90
        2
176
     1
  1
strokes_ogs.tif
176
     1
290
     0
176
     1
 40
1.0
176
     1
 40
1.0
176
     1
  0
VISUALSTYLE
  5
2D
102
{ACAD_REACTORS
330
29
102
}
330
29
100
AcDbVisualStyle
  2
GouraudWithEdges
 70
     3
177
     3
291
     1
 70
    58
 90
        2
176
     1
 90
        2
176
     1
 90
        1
176
     1
 90
        2
176
     1
 40
0.6
176
     1
 40
30.0
176
     1
 62
     7
420
 16777215
176
     1
 90
        1
176
     1
 90
        0
176
     1
 62
     7
176
     1
 62
   257
176
     1
 90
        1
176
     1
 90
        1
176
     1
 40
1.0
176
     1
 90
        0
176
     1
 62
   257
176
     1
 40
1.0
176
     1
 90
        1
176
     1
 90
        6
176
     1
 90
        2
176
     1
 62
     7
176
     1
 90
        5
176
     1
 90
        0
176
     1
 90
        0
176
     1
290
     0
176
     1
 90
       13
176
     1
 40
0.0
176
     1
 90
        0
176
     1
290
     0
176
     1
290
     1
176
     1
290
     1
176
     1
290
     0
176
     1
290
     0
176
     1
290
     0
176
     1
290
     0
176
     1
290
     0
176
     1
290
     0
176
     1
 90
       50
176
     1
 40
0.0
176
     1
 40
1.0
176
     1
 90
        0
176
     1
 62
    18
420
        0
176
     1
 90
       50
176
     1
 90
        3
176
     1
 62
     5
420
      255
176
     1
290
     0
176
     1
 90
       50
176
     1
 90
       50
176
     1
 90
       50
176
     1
290
     0
176
     1
 90
       50
176
     1
 62
   256
176
     0
 40
1.0
176
     0
 90
        2
176
     1
  1
strokes_ogs.tif
176
     1
290
     0
176
     1
 40
1.0
176
     1
 40
1.0
176
     1
  0
VISUALSTYLE
  5
31
102
{ACAD_REACTORS
330
29
102
}
330
29
100
AcDbVisualStyle
  2
Hidden
 70
     6
177
     3
291
     0
 70
    58
 90
        1
176
     1
 90
        2
176
     1
 90
        2
176
     1
 90
        0
176
     1
 40
0.6
176
     1
 40
30.0
176
     1
 62
     7
420
 16777215
176
     1
 90
        2
176
     1
 90
        2
176
     1
 62
     7
176
     1
 62
   257
176
     1
 90
        2
176
     1
 90
        1
176
     1
 40
40.0
176
     1
 90
        0
176
     1
 62
   257
176
     1
 40
1.0
176
     1
 90
        1
176
     1
 90
        6
176
     1
 90
        2
176
     1
 62
     7
176
     1
 90
        3
176
     1
 90
        0
176
     1
 90
        0
176
     1
290
     0
176
     1
 90
        1
176
     1
 40
0.0
176
     1
 90
        0
176
     1
290
     0
176
     1
290
     1
176
     1
290
     1
176
     1
290
     0
176
     1
290
     0
176
     1
290
     0
176
     1
290
     0
176
     1
290
     0
176
     1
290
     0
176
     1
 90
       50
176
     1
 40
0.0
176
     1
 40
1.0
176
     1
 90
        0
176
     1
 62
    18
420
        0
176
     1
 90
       50
176
     1
 90
        3
176
     1
 62
     5
420
      255
176
     1
290
     0
176
     1
 90
       50
176
     1
 90
       50
176
     1
 90
       50
176
     1
290
     0
176
     1
 90
       50
176
     1
 62
   256
176
     0
 40
1.0
176
     0
 90
        2
176
     1
  1
strokes_ogs.tif
176
     1
290
     0
176
     1
 40
1.0
176
     1
 40
1.0
176
     1
  0
VISUALSTYLE
  5
3F
102
{ACAD_REACTORS
330
29
102
}
330
29
100
AcDbVisualStyle
  2
JitterOff
 70
    20
177
     3
291
     1
 70
    58
 90
        2
176
     0
 90
        2
176
     0
 90
        0
176
     0
 90
        0
176
     0
 40
0.6
176
     0
 40
30.0
176
     0
 62
     7
420
 16777215
176
     0
 90
        1
176
     0
 90
        4
176
     0
 62
     7
176
     0
 62
   257
176
     0
 90
        1
176
     0
 90
        1
176
     0
 40
1.0
176
     0
 90
       10
176
     2
 62
     7
176
     0
 40
1.0
176
     0
 90
        1
176
     0
 90
        6
176
     0
 90
        2
176
     0
 62
     7
176
     0
 90
        5
176
     0
 90
        0
176
     0
 90
        0
176
     0
290
     0
176
     0
 90
        1
176
     0
 40
0.0
176
     0
 90
        0
176
     0
290
     0
176
     0
290
     1
176
     0
290
     1
176
     0
290
     0
176
     0
290
     0
176
     0
290
     0
176
     0
290
     0
176
     0
290
     0
176
     0
290
     0
176
     0
 90
       50
176
     0
 40
0.0
176
     0
 40
1.0
176
     0
 90
        0
176
     0
 62
    18
420
        0
176
     0
 90
       50
176
     0
 90
        3
176
     0
 62
     5
420
      255
176
     0
290
     0
176
     0
 90
       50
176
     0
 90
       50
176
     0
 90
       50
176
     0
290
     0
176
     0
 90
       50
176
     0
 62
   256
176
     0
 40
1.0
176
     0
 90
        2
176
     0
  1
strokes_ogs.tif
176
     0
290
     0
176
     0
 40
1.0
176
     0
 40
1.0
176
     0
  0
VISUALSTYLE
  5
37
102
{ACAD_REACTORS
330
29
102
}
330
29
100
AcDbVisualStyle
  2
Linepattern
 70
    14
177
     3
291
     1
 70
    58
 90
        2
176
     1
 90
        2
176
     1
 90
        0
176
     1
 90
        0
176
     1
 40
0.6
176
     1
 40
30.0
176
     1
 62
     7
420
 16777215
176
     1
 90
        1
176
     1
 90
        4
176
     1
 62
     7
176
     1
 62
   257
176
     1
 90
        7
176
     1
 90
        7
176
     1
 40
1.0
176
     1
 90
        8
176
     1
 62
     7
176
     1
 40
1.0
176
     1
 90
        1
176
     1
 90
        6
176
     1
 90
        2
176
     1
 62
     7
176
     1
 90
        5
176
     1
 90
        0
176
     1
 90
        0
176
     1
290
     0
176
     1
 90
        1
176
     1
 40
0.0
176
     1
 90
        0
176
     1
290
     0
176
     1
290
     1
176
     1
290
     1
176
     1
290
     0
176
     1
290
     0
176
     1
290
     0
176
     1
290
     0
176
     1
290
     0
176
     1
290
     0
176
     1
 90
       50
176
     1
 40
0.0
176
     1
 40
1.0
176
     1
 90
        0
176
     1
 62
    18
420
        0
176
     1
 90
       50
176
     1
 90
        3
176
     1
 62
     5
420
      255
176
     1
290
     0
176
     1
 90
       50
176
     1
 90
       50
176
     1
 90
       50
176
     1
290
     0
176
     1
 90
       50
176
     1
 62
   256
176
     0
 40
1.0
176
     0
 90
        2
176
     1
  1
strokes_ogs.tif
176
     1
290
     0
176
     1
 40
1.0
176
     1
 40
1.0
176
     1
  0
VISUALSTYLE
  5
40
102
{ACAD_REACTORS
330
29
102
}
330
29
100
AcDbVisualStyle
  2
OverhangOff
 70
    21
177
     3
291
     1
 70
    58
 90
        2
176
     0
 90
        2
176
     0
 90
        0
176
     0
 90
        0
176
     0
 40
0.6
176
     0
 40
30.0
176
     0
 62
     7
420
 16777215
176
     0
 90
        1
176
     0
 90
        4
176
     0
 62
     7
176
     0
 62
   257
176
     0
 90
        1
176
     0
 90
        1
176
     0
 40
1.0
176
     0
 90
        9
176
     2
 62
     7
176
     0
 40
1.0
176
     0
 90
        1
176
     0
 90
        6
176
     0
 90
        2
176
     0
 62
     7
176
     0
 90
        5
176
     0
 90
        0
176
     0
 90
        0
176
     0
290
     0
176
     0
 90
        1
176
     0
 40
0.0
176
     0
 90
        0
176
     0
290
     0
176
     0
290
     1
176
     0
290
     1
176
     0
290
     0
176
     0
290
     0
176
     0
290
     0
176
     0
290
     0
176
     0
290
     0
176
     0
290
     0
176
     0
 90
       50
176
     0
 40
0.0
176
     0
 40
1.0
176
     0
 90
        0
176
     0
 62
    18
420
        0
176
     0
 90
       50
176
     0
 90
        3
176
     0
 62
     5
420
      255
176
     0
290
     0
176
     0
 90
       50
176
     0
 90
       50
176
     0
 90
       50
176
     0
290
     0
176
     0
 90
       50
176
     0
 62
   256
176
     0
 40
1.0
176
     0
 90
        2
176
     0
  1
strokes_ogs.tif
176
     0
290
     0
176
     0
 40
1.0
176
     0
 40
1.0
176
     0
  0
VISUALSTYLE
  5
33
102
{ACAD_REACTORS
330
29
102
}
330
29
100
AcDbVisualStyle
  2
Realistic
 70
     8
177
     3
291
     0
 70
    58
 90
        2
176
     1
 90
        3
176
     1
 90
        0
176
     1
 90
        2
176
     1
 40
0.6
176
     1
 40
30.0
176
     1
 62
     7
420
 16777215
176
     1
 90
        0
176
     1
 90
        0
176
     1
 62
     7
176
     1
 62
   257
176
     1
 90
        1
176
     1
 90
        1
176
     1
 40
1.0
176
     1
 90
        8
176
     1
 62
   257
176
     1
 40
1.0
176
     1
 90
        1
176
     1
 90
        6
176
     1
 90
        2
176
     1
 62
     7
176
     1
 90
        3
176
     1
 90
        0
176
     1
 90
        0
176
     1
290
     0
176
     1
 90
       13
176
     1
 40
0.0
176
     1
 90
        0
176
     1
290
     0
176
     1
290
     1
176
     1
290
     1
176
     1
290
     0
176
     1
290
     0
176
     1
290
     0
176
     1
290
     0
176
     1
290
     0
176
     1
290
     0
176
     1
 90
       50
176
     1
 40
0.0
176
     1
 40
1.0
176
     1
 90
        0
176
     1
 62
    18
420
        0
176
     1
 90
       50
176
     1
 90
        3
176
     1
 62
     5
420
      255
176
     1
290
     0
176
     1
 90
       50
176
     1
 90
       50
176
     1
 90
       50
176
     1
290
     0
176
     1
 90
       50
176
     1
 62
   256
176
     0
 40
1.0
176
     0
 90
        2
176
     1
  1
strokes_ogs.tif
176
     1
290
     0
176
     1
 40
1.0
176
     1
 40
1.0
176
     1
  0
VISUALSTYLE
  5
3E
102
{ACAD_REACTORS
330
29
102
}
330
29
100
AcDbVisualStyle
  2
Shaded
 70
    27
177
     3
291
     0
 70
    58
 90
        2
176
     1
 90
        2
176
     1
 90
        1
176
     1
 90
        2
176
     1
 40
0.6
176
     1
 40
30.0
176
     1
 62
     7
420
 16777215
176
     1
 90
        0
176
     1
 90
        4
176
     1
 62
     7
176
     1
 62
   257
176
     1
 90
        1
176
     1
 90
        1
176
     1
 40
1.0
176
     1
 90
        8
176
     1
 62
   257
176
     1
 40
1.0
176
     1
 90
        1
176
     1
 90
        6
176
     1
 90
        2
176
     1
 62
     8
420
  7895160
176
     1
 90
        3
176
     1
 90
        0
176
     1
 90
        0
176
     1
290
     0
176
     1
 90
        5
176
     1
 40
0.0
176
     1
 90
        0
176
     1
290
     0
176
     1
290
     1
176
     1
290
     1
176
     1
290
     0
176
     1
290
     0
176
     1
290
     0
176
     1
290
     0
176
     1
290
     0
176
     1
290
     0
176
     1
 90
       50
176
     1
 40
0.0
176
     1
 40
1.0
176
     1
 90
        0
176
     1
 62
    18
420
        0
176
     1
 90
       50
176
     1
 90
        3
176
     1
 62
     5
420
      255
176
     1
290
     0
176
     1
 90
       50
176
     1
 90
       50
176
     1
 90
       50
176
     1
290
     0
176
     1
 90
       50
176
     1
 62
   256
176
     0
 40
1.0
176
     0
 90
        2
176
     1
  1
strokes_ogs.tif
176
     1
290
     0
176
     1
 40
1.0
176
     1
 40
1.0
176
     1
  0
VISUALSTYLE
  5
3D
102
{ACAD_REACTORS
330
29
102
}
330
29
100
AcDbVisualStyle
  2
Shaded with edges
 70
    26
177
     3
291
     0
 70
    58
 90
        2
176
     1
 90
        2
176
     1
 90
        1
176
     1
 90
        2
176
     1
 40
0.6
176
     1
 40
30.0
176
     1
 62
     7
420
 16777215
176
     1
 90
        1
176
     1
 90
        2
176
     1
 62
     7
176
     1
 62
   257
176
     1
 90
        2
176
     1
 90
        1
176
     1
 40
1.0
176
     1
 90
        8
176
     1
 62
   257
176
     1
 40
1.0
176
     1
 90
        1
176
     1
 90
        6
176
     1
 90
        2
176
     1
 62
     7
176
     1
 90
        3
176
     1
 90
        0
176
     1
 90
        0
176
     1
290
     0
176
     1
 90
        5
176
     1
 40
0.0
176
     1
 90
        0
176
     1
290
     0
176
     1
290
     1
176
     1
290
     1
176
     1
290
     0
176
     1
290
     0
176
     1
290
     0
176
     1
290
     0
176
     1
290
     0
176
     1
290
     0
176
     1
 90
       50
176
     1
 40
0.0
176
     1
 40
1.0
176
     1
 90
        0
176
     1
 62
    18
420
        0
176
     1
 90
       50
176
     1
 90
        3
176
     1
 62
     5
420
      255
176
     1
290
     0
176
     1
 90
       50
176
     1
 90
       50
176
     1
 90
       50
176
     1
290
     0
176
     1
 90
       50
176
     1
 62
   256
176
     0
 40
1.0
176
     0
 90
        2
176
     1
  1
strokes_ogs.tif
176
     1
290
     0
176
     1
 40
1.0
176
     1
 40
1.0
176
     1
  0
VISUALSTYLE
  5
3A
102
{ACAD_REACTORS
330
29
102
}
330
29
100
AcDbVisualStyle
  2
Shades of Gray
 70
    23
177
     3
291
     0
 70
    58
 90
        2
176
     1
 90
        2
176
     1
 90
        3
176
     1
 90
        0
176
     1
 40
0.6
176
     1
 40
30.0
176
     1
 62
     7
420
 16777215
176
     1
 90
        2
176
     1
 90
        2
176
     1
 62
     7
176
     1
 62
     7
176
     1
 90
        1
176
     1
 90
        1
176
     1
 40
40.0
176
     1
 90
        8
176
     1
 62
     7
176
     1
 40
1.0
176
     1
 90
        1
176
     1
 90
        6
176
     1
 90
        2
176
     1
 62
     7
176
     1
 90
        3
176
     1
 90
        0
176
     1
 90
        0
176
     1
290
     0
176
     1
 90
        1
176
     1
 40
0.0
176
     1
 90
        0
176
     1
290
     0
176
     1
290
     1
176
     1
290
     1
176
     1
290
     0
176
     1
290
     0
176
     1
290
     0
176
     1
290
     0
176
     1
290
     0
176
     1
290
     0
176
     1
 90
       50
176
     1
 40
0.0
176
     1
 40
1.0
176
     1
 90
        0
176
     1
 62
    18
420
        0
176
     1
 90
       50
176
     1
 90
        3
176
     1
 62
     5
420
      255
176
     1
290
     0
176
     1
 90
       50
176
     1
 90
       50
176
     1
 90
       50
176
     1
290
     0
176
     1
 90
       50
176
     1
 62
   256
176
     0
 40
1.0
176
     0
 90
        2
176
     1
  1
strokes_ogs.tif
176
     1
290
     0
176
     1
 40
1.0
176
     1
 40
1.0
176
     1
  0
VISUALSTYLE
  5
3B
102
{ACAD_REACTORS
330
29
102
}
330
29
100
AcDbVisualStyle
  2
Sketchy
 70
    24
177
     3
291
     0
 70
    58
 90
        1
176
     1
 90
        2
176
     1
 90
        2
176
     1
 90
        0
176
     1
 40
0.6
176
     1
 40
30.0
176
     1
 62
     7
420
 16777215
176
     1
 90
        2
176
     1
 90
        2
176
     1
 62
     7
176
     1
 62
     7
176
     1
 90
        1
176
     1
 90
        1
176
     1
 40
40.0
176
     1
 90
       11
176
     1
 62
     7
176
     1
 40
1.0
176
     1
 90
        1
176
     1
 90
        6
176
     1
 90
        2
176
     1
 62
     7
176
     1
 90
        6
176
     1
 90
        0
176
     1
 90
        0
176
     1
290
     0
176
     1
 90
        1
176
     1
 40
0.0
176
     1
 90
        0
176
     1
290
     0
176
     1
290
     1
176
     1
290
     1
176
     1
290
     0
176
     1
290
     0
176
     1
290
     0
176
     1
290
     0
176
     1
290
     0
176
     1
290
     0
176
     1
 90
       50
176
     1
 40
0.0
176
     1
 40
1.0
176
     1
 90
        0
176
     1
 62
    18
420
        0
176
     1
 90
       50
176
     1
 90
        3
176
     1
 62
     5
420
      255
176
     1
290
     0
176
     1
 90
       50
176
     1
 90
       50
176
     1
 90
       50
176
     1
290
     0
176
     1
 90
       50
176
     1
 62
   256
176
     0
 40
1.0
176
     0
 90
        2
176
     1
  1
strokes_ogs.tif
176
     1
290
     0
176
     1
 40
1.0
176
     1
 40
1.0
176
     1
  0
VISUALSTYLE
  5
36
102
{ACAD_REACTORS
330
29
102
}
330
29
100
AcDbVisualStyle
  2
Thicken
 70
    13
177
     3
291
     1
 70
    58
 90
        2
176
     1
 90
        2
176
     1
 90
        0
176
     1
 90
        0
176
     1
 40
0.6
176
     1
 40
30.0
176
     1
 62
     7
420
 16777215
176
     1
 90
        1
176
     1
 90
        4
176
     1
 62
     7
176
     1
 62
   257
176
     1
 90
        1
176
     1
 90
        1
176
     1
 40
1.0
176
     1
 90
       12
176
     1
 62
     7
176
     1
 40
1.0
176
     1
 90
        1
176
     1
 90
        6
176
     1
 90
        2
176
     1
 62
     7
176
     1
 90
        5
176
     1
 90
        0
176
     1
 90
        0
176
     1
290
     0
176
     1
 90
        1
176
     1
 40
0.0
176
     1
 90
        0
176
     1
290
     0
176
     1
290
     1
176
     1
290
     1
176
     1
290
     0
176
     1
290
     0
176
     1
290
     0
176
     1
290
     0
176
     1
290
     0
176
     1
290
     0
176
     1
 90
       50
176
     1
 40
0.0
176
     1
 40
1.0
176
     1
 90
        0
176
     1
 62
    18
420
        0
176
     1
 90
       50
176
     1
 90
        3
176
     1
 62
     5
420
      255
176
     1
290
     0
176
     1
 90
       50
176
     1
 90
       50
176
     1
 90
       50
176
     1
290
     0
176
     1
 90
       50
176
     1
 62
   256
176
     0
 40
1.0
176
     0
 90
        2
176
     1
  1
strokes_ogs.tif
176
     1
290
     0
176
     1
 40
1.0
176
     1
 40
1.0
176
     1
  0
VISUALSTYLE
  5
30
102
{ACAD_REACTORS
330
29
102
}
330
29
100
AcDbVisualStyle
  2
Wireframe
 70
     5
177
     3
291
     0
 70
    58
 90
        0
176
     1
 90
        2
176
     1
 90
        0
176
     1
 90
        0
176
     1
 40
0.6
176
     1
 40
30.0
176
     1
 62
     7
420
 16777215
176
     1
 90
        1
176
     1
 90
        4
176
     1
 62
     7
176
     1
 62
   257
176
     1
 90
        1
176
     1
 90
        1
176
     1
 40
1.0
176
     1
 90
        0
176
     1
 62
   257
176
     1
 40
1.0
176
     1
 90
        1
176
     1
 90
        6
176
     1
 90
        2
176
     1
 62
     7
176
     1
 90
        3
176
     1
 90
        0
176
     1
 90
        0
176
     1
290
     0
176
     1
 90
        1
176
     1
 40
0.0
176
     1
 90
        0
176
     1
290
     0
176
     1
290
     1
176
     1
290
     1
176
     1
290
     0
176
     1
290
     0
176
     1
290
     0
176
     1
290
     0
176
     1
290
     0
176
     1
290
     0
176
     1
 90
       50
176
     1
 40
0.0
176
     1
 40
1.0
176
     1
 90
        0
176
     1
 62
    18
420
        0
176
     1
 90
       50
176
     1
 90
        3
176
     1
 62
     5
420
      255
176
     1
290
     0
176
     1
 90
       50
176
     1
 90
       50
176
     1
 90
       50
176
     1
290
     0
176
     1
 90
       50
176
     1
 62
   256
176
     0
 40
1.0
176
     0
 90
        2
176
     1
  1
strokes_ogs.tif
176
     1
290
     0
176
     1
 40
1.0
176
     1
 40
1.0
176
     1
  0
VISUALSTYLE
  5
3C
102
{ACAD_REACTORS
330
29
102
}
330
29
100
AcDbVisualStyle
  2
X-Ray
 70
    25
177
     3
291
     0
 70
    58
 90
        2
176
     1
 90
        2
176
     1
 90
        1
176
     1
 90
        1
176
     1
 40
0.5
176
     1
 40
30.0
176
     1
 62
     7
420
 16777215
176
     1
 90
        1
176
     1
 90
        0
176
     1
 62
     7
176
     1
 62
   257
176
     1
 90
        1
176
     1
 90
        1
176
     1
 40
1.0
176
     1
 90
        8
176
     1
 62
     7
176
     1
 40
1.0
176
     1
 90
        1
176
     1
 90
        6
176
     1
 90
        2
176
     1
 62
     7
176
     1
 90
        3
176
     1
 90
        0
176
     1
 90
        0
176
     1
290
     0
176
     1
 90
       13
176
     1
 40
0.0
176
     1
 90
        0
176
     1
290
     0
176
     1
290
     1
176
     1
290
     1
176
     1
290
     0
176
     1
290
     0
176
     1
290
     0
176
     1
290
     0
176
     1
290
     0
176
     1
290
     0
176
     1
 90
       50
176
     1
 40
0.0
176
     1
 40
1.0
176
     1
 90
        0
176
     1
 62
    18
420
        0
176
     1
 90
       50
176
     1
 90
        3
176
     1
 62
     5
420
      255
176
     1
290
     0
176
     1
 90
       50
176
     1
 90
       50
176
     1
 90
       50
176
     1
290
     0
176
     1
 90
       50
176
     1
 62
   256
176
     0
 40
1.0
176
     0
 90
        2
176
     1
  1
strokes_ogs.tif
176
     1
290
     0
176
     1
 40
1.0
176
     1
 40
1.0
176
     1
  0
DICTIONARYVAR
  5
B6
102
{ACAD_REACTORS
330
B1
102
}
330
B1
100
DictionaryVariables
280
     0
  1
1:1
  0
DICTIONARYVAR
  5
B3
102
{ACAD_REACTORS
330
B1
102
}
330
B1
100
DictionaryVariables
280
     0
  1
STANDARD
  0
DICTIONARYVAR
  5
B2
102
{ACAD_REACTORS
330
B1
102
}
330
B1
100
DictionaryVariables
280
     0
  1
STANDARD
  0
DICTIONARYVAR
  5
B4
102
{ACAD_REACTORS
330
B1
102
}
330
B1
100
DictionaryVariables
280
     0
  1
Imperial24
  0
DICTIONARYVAR
  5
B5
102
{ACAD_REACTORS
330
B1
102
}
330
B1
100
DictionaryVariables
280
     0
  1
Imperial24
  0
DICTIONARY
  5
1A
330
19
100
AcDbDictionary
280
     1
281
     1
  3
BUMPTILE
360
1C
  3
DIFFUSETILE
360
1B
  3
OPACITYTILE
360
1F
  3
REFLECTIONTILE
360
1E
  3
REFRACTIONTILE
360
20
  3
SPECULARTILE
360
1D
  0
DICTIONARY
  5
12
330
11
100
AcDbDictionary
280
     1
281
     1
  3
BUMPTILE
360
14
  3
DIFFUSETILE
360
13
  3
OPACITYTILE
360
17
  3
REFLECTIONTILE
360
16
  3
REFRACTIONTILE
360
18
  3
SPECULARTILE
360
15
  0
DICTIONARY
  5
22
330
21
100
AcDbDictionary
280
     1
281
     1
  3
BUMPTILE
360
24
  3
DIFFUSETILE
360
23
  3
OPACITYTILE
360
27
  3
REFLECTIONTILE
360
26
  3
REFRACTIONTILE
360
28
  3
SPECULARTILE
360
25
  0
DICTIONARY
  5
B7
330
65
100
AcDbDictionary
280
     1
281
     1
  3
ACAD_ROUNDTRIP_2008_TABLESTYLE_CELLSTYLEMAP
360
B8
  0
XRECORD
  5
1C
102
{ACAD_REACTORS
330
1A
102
}
330
1A
100
AcDbXrecord
280
     1
270
     1
271
     1
  0
XRECORD
  5
1B
102
{ACAD_REACTORS
330
1A
102
}
330
1A
100
AcDbXrecord
280
     1
270
     1
271
     1
  0
XRECORD
  5
1F
102
{ACAD_REACTORS
330
1A
102
}
330
1A
100
AcDbXrecord
280
     1
270
     1
271
     1
  0
XRECORD
  5
1E
102
{ACAD_REACTORS
330
1A
102
}
330
1A
100
AcDbXrecord
280
     1
270
     1
271
     1
  0
XRECORD
  5
20
102
{ACAD_REACTORS
330
1A
102
}
330
1A
100
AcDbXrecord
280
     1
270
     1
271
     1
  0
XRECORD
  5
1D
102
{ACAD_REACTORS
330
1A
102
}
330
1A
100
AcDbXrecord
280
     1
270
     1
271
     1
  0
XRECORD
  5
14
102
{ACAD_REACTORS
330
12
102
}
330
12
100
AcDbXrecord
280
     1
270
     1
271
     1
  0
XRECORD
  5
13
102
{ACAD_REACTORS
330
12
102
}
330
12
100
AcDbXrecord
280
     1
270
     1
271
     1
  0
XRECORD
  5
17
102
{ACAD_REACTORS
330
12
102
}
330
12
100
AcDbXrecord
280
     1
270
     1
271
     1
  0
XRECORD
  5
16
102
{ACAD_REACTORS
330
12
102
}
330
12
100
AcDbXrecord
280
     1
270
     1
271
     1
  0
XRECORD
  5
18
102
{ACAD_REACTORS
330
12
102
}
330
12
100
AcDbXrecord
280
     1
270
     1
271
     1
  0
XRECORD
  5
15
102
{ACAD_REACTORS
330
12
102
}
330
12
100
AcDbXrecord
280
     1
270
     1
271
     1
  0
XRECORD
  5
24
102
{ACAD_REACTORS
330
22
102
}
330
22
100
AcDbXrecord
280
     1
270
     1
271
     1
  0
XRECORD
  5
23
102
{ACAD_REACTORS
330
22
102
}
330
22
100
AcDbXrecord
280
     1
270
     1
271
     1
  0
XRECORD
  5
27
102
{ACAD_REACTORS
330
22
102
}
330
22
100
AcDbXrecord
280
     1
270
     1
271
     1
  0
XRECORD
  5
26
102
{ACAD_REACTORS
330
22
102
}
330
22
100
AcDbXrecord
280
     1
270
     1
271
     1
  0
XRECORD
  5
28
102
{ACAD_REACTORS
330
22
102
}
330
22
100
AcDbXrecord
280
     1
270
     1
271
     1
  0
XRECORD
  5
25
102
{ACAD_REACTORS
330
22
102
}
330
22
100
AcDbXrecord
280
     1
270
     1
271
     1
  0
CELLSTYLEMAP
  5
B8
102
{ACAD_REACTORS
330
B7
102
}
330
B7
100
AcDbCellStyleMap
 90
        3
300
CELLSTYLE
  1
TABLEFORMAT_BEGIN
 90
        5
170
     1
 91
        0
 92
    32768
 62
   257
 93
        1
300
CONTENTFORMAT
  1
CONTENTFORMAT_BEGIN
 90
        0
 91
        0
 92
      512
 93
        0
300

 40
0.0
140
1.0
 94
        5
 62
     0
340
55
144
0.25
309
CONTENTFORMAT_END
171
     0
 94
        0
309
TABLEFORMAT_END
  1
CELLSTYLE_BEGIN
 90
        1
 91
        1
300
_TITLE
309
CELLSTYLE_END
300
CELLSTYLE
  1
TABLEFORMAT_BEGIN
 90
        5
170
     1
 91
        0
 92
        0
 62
   257
 93
        1
300
CONTENTFORMAT
  1
CONTENTFORMAT_BEGIN
 90
        0
 91
        0
 92
      512
 93
        0
300

 40
0.0
140
1.0
 94
        5
 62
     0
340
55
144
0.18
309
CONTENTFORMAT_END
171
     0
 94
        0
309
TABLEFORMAT_END
  1
CELLSTYLE_BEGIN
 90
        2
 91
        1
300
_HEADER
309
CELLSTYLE_END
300
CELLSTYLE
  1
TABLEFORMAT_BEGIN
 90
        5
170
     1
 91
        0
 92
        0
 62
   257
 93
        1
300
CONTENTFORMAT
  1
CONTENTFORMAT_BEGIN
 90
        0
 91
        0
 92
      512
 93
        0
300

 40
0.0
140
1.0
 94
        2
 62
     0
340
55
144
0.18
309
CONTENTFORMAT_END
171
     0
 94
        0
309
TABLEFORMAT_END
  1
CELLSTYLE_BEGIN
 90
        3
 91
        2
300
_DATA
309
CELLSTYLE_END
  0
ENDSEC
  0
EOF
