%TF.GenerationSoftware,KiCad,Pcbnew,8.0.0*%
%TF.CreationDate,2025-03-01T13:37:18-05:00*%
%TF.ProjectId,compulator,636f6d70-756c-4617-946f-722e6b696361,rev?*%
%TF.SameCoordinates,Original*%
%TF.FileFunction,Copper,L2,Bot*%
%TF.FilePolarity,Positive*%
%FSLAX46Y46*%
G04 Gerber Fmt 4.6, Leading zero omitted, Abs format (unit mm)*
G04 Created by KiCad (PCBNEW 8.0.0) date 2025-03-01 13:37:18*
%MOMM*%
%LPD*%
G01*
G04 APERTURE LIST*
%TA.AperFunction,ComponentPad*%
%ADD10C,2.500000*%
%TD*%
%TA.AperFunction,ComponentPad*%
%ADD11C,1.600000*%
%TD*%
%TA.AperFunction,ComponentPad*%
%ADD12O,1.600000X1.600000*%
%TD*%
%TA.AperFunction,ComponentPad*%
%ADD13R,1.600000X1.600000*%
%TD*%
%TA.AperFunction,ComponentPad*%
%ADD14C,1.440000*%
%TD*%
%TA.AperFunction,ComponentPad*%
%ADD15C,1.500000*%
%TD*%
%TA.AperFunction,ComponentPad*%
%ADD16O,1.700000X1.700000*%
%TD*%
%TA.AperFunction,ComponentPad*%
%ADD17R,1.700000X1.700000*%
%TD*%
%TA.AperFunction,ComponentPad*%
%ADD18C,1.524000*%
%TD*%
%TA.AperFunction,ComponentPad*%
%ADD19O,2.200000X2.200000*%
%TD*%
%TA.AperFunction,ComponentPad*%
%ADD20R,2.200000X2.200000*%
%TD*%
%TA.AperFunction,ComponentPad*%
%ADD21O,1.070000X1.800000*%
%TD*%
%TA.AperFunction,ComponentPad*%
%ADD22R,1.070000X1.800000*%
%TD*%
%TA.AperFunction,ViaPad*%
%ADD23C,0.600000*%
%TD*%
%TA.AperFunction,Conductor*%
%ADD24C,0.508000*%
%TD*%
G04 APERTURE END LIST*
D10*
%TO.P,LEVEL1,3,3*%
%TO.N,GNDA*%
X175340000Y-85080000D03*
%TO.P,LEVEL1,2,2*%
%TO.N,OUT*%
X180340000Y-85080000D03*
%TO.P,LEVEL1,1,1*%
%TO.N,Net-(C6--)*%
X185340000Y-85080000D03*
%TD*%
D11*
%TO.P,C6,2,-*%
%TO.N,Net-(C6--)*%
X208280000Y-100096000D03*
%TO.P,C6,1,+*%
%TO.N,Net-(C6-+)*%
X208280000Y-105096000D03*
%TD*%
D12*
%TO.P,U4,14*%
%TO.N,Net-(C1-+)*%
X192024000Y-80244000D03*
%TO.P,U4,13,-*%
%TO.N,Net-(R18--)*%
X194564000Y-80244000D03*
%TO.P,U4,12,+*%
%TO.N,Net-(R13--)*%
X197104000Y-80244000D03*
%TO.P,U4,11,V-*%
%TO.N,GNDA*%
X199644000Y-80244000D03*
%TO.P,U4,10,+*%
%TO.N,Net-(R12-+)*%
X202184000Y-80244000D03*
%TO.P,U4,9,-*%
%TO.N,Net-(R14--)*%
X204724000Y-80244000D03*
%TO.P,U4,8*%
%TO.N,Net-(R13--)*%
X207264000Y-80244000D03*
%TO.P,U4,7*%
%TO.N,Net-(R10-+)*%
X207264000Y-87864000D03*
%TO.P,U4,6,-*%
%TO.N,Net-(P1-c)*%
X204724000Y-87864000D03*
%TO.P,U4,5,+*%
%TO.N,Net-(R8--)*%
X202184000Y-87864000D03*
%TO.P,U4,4,V+*%
%TO.N,+9V*%
X199644000Y-87864000D03*
%TO.P,U4,3,+*%
%TO.N,Net-(C5--)*%
X197104000Y-87864000D03*
%TO.P,U4,2,-*%
%TO.N,Net-(R6-+)*%
X194564000Y-87864000D03*
D13*
%TO.P,U4,1*%
%TO.N,Net-(R6--)*%
X192024000Y-87864000D03*
%TD*%
D12*
%TO.P,U1,8,V+*%
%TO.N,+9V*%
X224800000Y-63764000D03*
%TO.P,U1,7*%
%TO.N,Net-(U1B--)*%
X224800000Y-66304000D03*
%TO.P,U1,6,-*%
X224800000Y-68844000D03*
%TO.P,U1,5,+*%
%TO.N,GNDA*%
X224800000Y-71384000D03*
%TO.P,U1,4,V-*%
X217180000Y-71384000D03*
%TO.P,U1,3,+*%
%TO.N,Net-(C3--)*%
X217180000Y-68844000D03*
%TO.P,U1,2,-*%
%TO.N,VREF*%
X217180000Y-66304000D03*
D13*
%TO.P,U1,1*%
X217180000Y-63764000D03*
%TD*%
D14*
%TO.P,P1,3,c*%
%TO.N,Net-(P1-c)*%
X200152000Y-100076000D03*
%TO.P,P1,2,b*%
%TO.N,VREF*%
X200152000Y-102616000D03*
%TO.P,P1,1,a*%
X200152000Y-105156000D03*
%TD*%
D15*
%TO.P,LDR1,4*%
%TO.N,Net-(R13-+)*%
X179090000Y-89068000D03*
%TO.P,LDR1,3*%
%TO.N,VREF*%
X181590000Y-89068000D03*
%TO.P,LDR1,2*%
X178340000Y-110068000D03*
%TO.P,LDR1,1*%
%TO.N,Net-(R7--)*%
X182340000Y-110068000D03*
%TD*%
D16*
%TO.P,J4,6,Pin_6*%
%TO.N,J-OUT*%
X206502000Y-119380000D03*
%TO.P,J4,5,Pin_5*%
%TO.N,OUT*%
X203962000Y-119380000D03*
%TO.P,J4,4,Pin_4*%
%TO.N,LED*%
X201422000Y-119380000D03*
%TO.P,J4,3,Pin_3*%
%TO.N,GNDA*%
X198882000Y-119380000D03*
%TO.P,J4,2,Pin_2*%
%TO.N,IN*%
X196342000Y-119380000D03*
D17*
%TO.P,J4,1,Pin_1*%
%TO.N,J-IN*%
X193802000Y-119380000D03*
%TD*%
D18*
%TO.P,J3,T*%
%TO.N,J-IN*%
X189230000Y-59690000D03*
%TO.P,J3,S*%
%TO.N,GNDA*%
X191730000Y-59690000D03*
%TD*%
%TO.P,J2,T*%
%TO.N,J-OUT*%
X210800000Y-59690000D03*
%TO.P,J2,S*%
%TO.N,GNDA*%
X208300000Y-59690000D03*
%TD*%
D16*
%TO.P,J1,2*%
%TO.N,Net-(D1-A)*%
X201290000Y-60330000D03*
D17*
%TO.P,J1,1*%
%TO.N,GNDA*%
X198750000Y-60330000D03*
%TD*%
D19*
%TO.P,D4,2,A*%
%TO.N,VREF*%
X216024000Y-90170000D03*
D20*
%TO.P,D4,1,K*%
%TO.N,Net-(D3-A)*%
X216024000Y-97790000D03*
%TD*%
D19*
%TO.P,D3,2,A*%
%TO.N,Net-(D3-A)*%
X219964000Y-97790000D03*
D20*
%TO.P,D3,1,K*%
%TO.N,Net-(D3-K)*%
X219964000Y-90170000D03*
%TD*%
D21*
%TO.P,D2,4,BA*%
%TO.N,Net-(D2-BA)*%
X201930000Y-113030000D03*
%TO.P,D2,3,GA*%
%TO.N,unconnected-(D2-GA-Pad3)*%
X200660000Y-113030000D03*
%TO.P,D2,2,K*%
%TO.N,GNDA*%
X199390000Y-113030000D03*
D22*
%TO.P,D2,1,RA*%
%TO.N,Net-(D2-RA)*%
X198120000Y-113030000D03*
%TD*%
D19*
%TO.P,D1,2,A*%
%TO.N,Net-(D1-A)*%
X203835000Y-64135000D03*
D20*
%TO.P,D1,1,K*%
%TO.N,+9V*%
X196215000Y-64135000D03*
%TD*%
D10*
%TO.P,COMP1,3,3*%
%TO.N,VREF*%
X215980000Y-85080000D03*
%TO.P,COMP1,2,2*%
%TO.N,Net-(R12--)*%
X220980000Y-85080000D03*
%TO.P,COMP1,1,1*%
%TO.N,Net-(R10--)*%
X225980000Y-85080000D03*
%TD*%
D11*
%TO.P,C5,2,-*%
%TO.N,Net-(C5--)*%
X191516000Y-100096000D03*
%TO.P,C5,1,+*%
%TO.N,IN*%
X191516000Y-105096000D03*
%TD*%
%TO.P,C4,2,-*%
%TO.N,GNDA*%
X209432700Y-65962700D03*
D13*
%TO.P,C4,1,+*%
%TO.N,Net-(C3--)*%
X209432700Y-68462700D03*
%TD*%
D11*
%TO.P,C3,2,-*%
%TO.N,Net-(C3--)*%
X190382700Y-68657300D03*
D13*
%TO.P,C3,1,+*%
%TO.N,+9V*%
X190382700Y-66157300D03*
%TD*%
D11*
%TO.P,C1,2,-*%
%TO.N,GNDA*%
X219416000Y-112776000D03*
D13*
%TO.P,C1,1,+*%
%TO.N,Net-(C1-+)*%
X216916000Y-112776000D03*
%TD*%
D23*
%TO.N,GNDA*%
X188595000Y-81915000D03*
%TO.N,Net-(D2-BA)*%
X207304500Y-112347200D03*
%TO.N,Net-(R13-+)*%
X196540800Y-76026800D03*
%TO.N,Net-(R12--)*%
X203008200Y-73871900D03*
%TO.N,Net-(R7--)*%
X196672300Y-94603800D03*
%TD*%
D24*
%TO.N,Net-(D2-BA)*%
X206579300Y-111622000D02*
X207304500Y-112347200D01*
X201930000Y-111622000D02*
X206579300Y-111622000D01*
X201930000Y-113030000D02*
X201930000Y-111622000D01*
%TO.N,Net-(C1-+)*%
X194548200Y-82768200D02*
X192024000Y-80244000D01*
X210848000Y-82768200D02*
X194548200Y-82768200D01*
X217975500Y-89895700D02*
X210848000Y-82768200D01*
X217975500Y-91396300D02*
X217975500Y-89895700D01*
X221519700Y-94940500D02*
X217975500Y-91396300D01*
X221519700Y-106864300D02*
X221519700Y-94940500D01*
X216916000Y-111468000D02*
X221519700Y-106864300D01*
X216916000Y-112776000D02*
X216916000Y-111468000D01*
%TO.N,Net-(R13-+)*%
X191916700Y-76026800D02*
X196540800Y-76026800D01*
X179090000Y-88853500D02*
X191916700Y-76026800D01*
X179090000Y-89068000D02*
X179090000Y-88853500D01*
%TO.N,Net-(R13--)*%
X198366100Y-81506100D02*
X197104000Y-80244000D01*
X206001900Y-81506100D02*
X198366100Y-81506100D01*
X207264000Y-80244000D02*
X206001900Y-81506100D01*
%TO.N,Net-(R12--)*%
X209771900Y-73871900D02*
X220980000Y-85080000D01*
X203008200Y-73871900D02*
X209771900Y-73871900D01*
%TO.N,Net-(R7--)*%
X196672300Y-96775100D02*
X196672300Y-94603800D01*
X183379400Y-110068000D02*
X196672300Y-96775100D01*
X182340000Y-110068000D02*
X183379400Y-110068000D01*
%TO.N,VREF*%
X194034200Y-111273800D02*
X200152000Y-105156000D01*
X179545800Y-111273800D02*
X194034200Y-111273800D01*
X178340000Y-110068000D02*
X179545800Y-111273800D01*
X207547300Y-102616000D02*
X200152000Y-102616000D01*
X216024000Y-94139300D02*
X207547300Y-102616000D01*
X216024000Y-90170000D02*
X216024000Y-94139300D01*
%TO.N,Net-(D3-A)*%
X219964000Y-97790000D02*
X216024000Y-97790000D01*
%TO.N,Net-(C6--)*%
X191375000Y-91115000D02*
X185340000Y-85080000D01*
X199299000Y-91115000D02*
X191375000Y-91115000D01*
X208280000Y-100096000D02*
X199299000Y-91115000D01*
%TO.N,Net-(C3--)*%
X215490700Y-68462700D02*
X215872000Y-68844000D01*
X209432700Y-68462700D02*
X215490700Y-68462700D01*
X217180000Y-68844000D02*
X215872000Y-68844000D01*
%TO.N,+9V*%
X192584700Y-66157300D02*
X194607000Y-64135000D01*
X190382700Y-66157300D02*
X192584700Y-66157300D01*
X196215000Y-64135000D02*
X194607000Y-64135000D01*
%TD*%
%TA.AperFunction,Conductor*%
%TO.N,GNDA*%
G36*
X188281510Y-59074685D02*
G01*
X188327265Y-59127489D01*
X188337209Y-59196647D01*
X188323829Y-59237453D01*
X188290048Y-59300651D01*
X188232149Y-59491518D01*
X188212601Y-59690000D01*
X188232149Y-59888481D01*
X188232149Y-59888483D01*
X188232150Y-59888485D01*
X188290046Y-60079342D01*
X188290048Y-60079348D01*
X188384060Y-60255231D01*
X188384065Y-60255238D01*
X188510589Y-60409410D01*
X188617875Y-60497456D01*
X188664763Y-60535936D01*
X188664766Y-60535937D01*
X188664768Y-60535939D01*
X188840651Y-60629951D01*
X188840654Y-60629951D01*
X188840658Y-60629954D01*
X189031515Y-60687850D01*
X189230000Y-60707399D01*
X189428485Y-60687850D01*
X189619342Y-60629954D01*
X189795237Y-60535936D01*
X189949410Y-60409410D01*
X190075936Y-60255237D01*
X190144525Y-60126917D01*
X190169951Y-60079348D01*
X190169951Y-60079347D01*
X190169954Y-60079342D01*
X190227850Y-59888485D01*
X190230965Y-59856861D01*
X190257123Y-59792077D01*
X190314157Y-59751717D01*
X190383957Y-59748598D01*
X190444363Y-59783712D01*
X190476195Y-59845909D01*
X190477895Y-59858207D01*
X190482424Y-59909976D01*
X190482426Y-59909986D01*
X190539575Y-60123270D01*
X190539580Y-60123284D01*
X190632898Y-60323405D01*
X190632901Y-60323411D01*
X190678258Y-60388187D01*
X190678258Y-60388188D01*
X191349000Y-59717446D01*
X191349000Y-59740160D01*
X191374964Y-59837061D01*
X191425124Y-59923940D01*
X191496060Y-59994876D01*
X191582939Y-60045036D01*
X191679840Y-60071000D01*
X191702553Y-60071000D01*
X191031810Y-60741740D01*
X191096590Y-60787099D01*
X191096592Y-60787100D01*
X191296715Y-60880419D01*
X191296729Y-60880424D01*
X191510013Y-60937573D01*
X191510023Y-60937575D01*
X191729999Y-60956821D01*
X191730001Y-60956821D01*
X191949976Y-60937575D01*
X191949986Y-60937573D01*
X192163270Y-60880424D01*
X192163284Y-60880419D01*
X192363407Y-60787100D01*
X192363417Y-60787094D01*
X192428188Y-60741741D01*
X191757448Y-60071000D01*
X191780160Y-60071000D01*
X191877061Y-60045036D01*
X191963940Y-59994876D01*
X192034876Y-59923940D01*
X192085036Y-59837061D01*
X192111000Y-59740160D01*
X192111000Y-59717447D01*
X192781741Y-60388188D01*
X192827094Y-60323417D01*
X192827100Y-60323407D01*
X192920419Y-60123284D01*
X192920424Y-60123270D01*
X192977573Y-59909986D01*
X192977575Y-59909976D01*
X192996821Y-59690000D01*
X192996821Y-59689999D01*
X192977575Y-59470023D01*
X192977573Y-59470013D01*
X192920424Y-59256729D01*
X192920422Y-59256725D01*
X192908616Y-59231406D01*
X192898124Y-59162328D01*
X192926643Y-59098544D01*
X192985119Y-59060304D01*
X193020998Y-59055000D01*
X197347533Y-59055000D01*
X197414572Y-59074685D01*
X197460327Y-59127489D01*
X197470271Y-59196647D01*
X197459351Y-59229453D01*
X197459746Y-59229601D01*
X197406403Y-59372620D01*
X197406401Y-59372627D01*
X197400000Y-59432155D01*
X197400000Y-60080000D01*
X198316988Y-60080000D01*
X198284075Y-60137007D01*
X198250000Y-60264174D01*
X198250000Y-60395826D01*
X198284075Y-60522993D01*
X198316988Y-60580000D01*
X197400000Y-60580000D01*
X197400000Y-61227844D01*
X197406401Y-61287372D01*
X197406403Y-61287379D01*
X197456645Y-61422086D01*
X197456649Y-61422093D01*
X197542809Y-61537187D01*
X197542812Y-61537190D01*
X197657906Y-61623350D01*
X197657913Y-61623354D01*
X197792620Y-61673596D01*
X197792627Y-61673598D01*
X197852155Y-61679999D01*
X197852172Y-61680000D01*
X198500000Y-61680000D01*
X198500000Y-60763012D01*
X198557007Y-60795925D01*
X198684174Y-60830000D01*
X198815826Y-60830000D01*
X198942993Y-60795925D01*
X199000000Y-60763012D01*
X199000000Y-61680000D01*
X199647828Y-61680000D01*
X199647844Y-61679999D01*
X199707372Y-61673598D01*
X199707379Y-61673596D01*
X199842086Y-61623354D01*
X199842093Y-61623350D01*
X199957187Y-61537190D01*
X199957190Y-61537187D01*
X200043350Y-61422093D01*
X200043354Y-61422086D01*
X200093596Y-61287379D01*
X200093598Y-61287372D01*
X200099999Y-61227844D01*
X200100000Y-61227827D01*
X200100000Y-60936312D01*
X200119685Y-60869273D01*
X200172489Y-60823518D01*
X200241647Y-60813574D01*
X200305203Y-60842599D01*
X200335000Y-60881041D01*
X200350325Y-60911819D01*
X200473237Y-61074581D01*
X200623958Y-61211980D01*
X200623960Y-61211982D01*
X200723141Y-61273392D01*
X200797363Y-61319348D01*
X200987544Y-61393024D01*
X201188024Y-61430500D01*
X201188026Y-61430500D01*
X201391974Y-61430500D01*
X201391976Y-61430500D01*
X201592456Y-61393024D01*
X201782637Y-61319348D01*
X201956041Y-61211981D01*
X202106764Y-61074579D01*
X202229673Y-60911821D01*
X202320582Y-60729250D01*
X202376397Y-60533083D01*
X202395215Y-60330000D01*
X202394604Y-60323411D01*
X202376397Y-60126917D01*
X202362862Y-60079348D01*
X202320582Y-59930750D01*
X202320159Y-59929901D01*
X202231656Y-59752162D01*
X202229673Y-59748179D01*
X202106764Y-59585421D01*
X202106762Y-59585418D01*
X201956041Y-59448019D01*
X201956039Y-59448017D01*
X201782642Y-59340655D01*
X201782635Y-59340651D01*
X201663832Y-59294627D01*
X201608430Y-59252054D01*
X201584840Y-59186287D01*
X201600551Y-59118207D01*
X201650575Y-59069428D01*
X201708626Y-59055000D01*
X207009002Y-59055000D01*
X207076041Y-59074685D01*
X207121796Y-59127489D01*
X207131740Y-59196647D01*
X207121384Y-59231406D01*
X207109577Y-59256725D01*
X207109575Y-59256729D01*
X207052426Y-59470013D01*
X207052424Y-59470023D01*
X207033179Y-59689999D01*
X207033179Y-59690000D01*
X207052424Y-59909976D01*
X207052426Y-59909986D01*
X207109575Y-60123270D01*
X207109580Y-60123284D01*
X207202898Y-60323405D01*
X207202901Y-60323411D01*
X207248258Y-60388187D01*
X207248258Y-60388188D01*
X207919000Y-59717446D01*
X207919000Y-59740160D01*
X207944964Y-59837061D01*
X207995124Y-59923940D01*
X208066060Y-59994876D01*
X208152939Y-60045036D01*
X208249840Y-60071000D01*
X208272553Y-60071000D01*
X207601810Y-60741740D01*
X207666590Y-60787099D01*
X207666592Y-60787100D01*
X207866715Y-60880419D01*
X207866729Y-60880424D01*
X208080013Y-60937573D01*
X208080023Y-60937575D01*
X208299999Y-60956821D01*
X208300001Y-60956821D01*
X208519976Y-60937575D01*
X208519986Y-60937573D01*
X208733270Y-60880424D01*
X208733284Y-60880419D01*
X208933407Y-60787100D01*
X208933417Y-60787094D01*
X208998188Y-60741741D01*
X208327448Y-60071000D01*
X208350160Y-60071000D01*
X208447061Y-60045036D01*
X208533940Y-59994876D01*
X208604876Y-59923940D01*
X208655036Y-59837061D01*
X208681000Y-59740160D01*
X208681000Y-59717447D01*
X209351741Y-60388188D01*
X209397094Y-60323417D01*
X209397100Y-60323407D01*
X209490419Y-60123284D01*
X209490424Y-60123270D01*
X209547573Y-59909986D01*
X209547575Y-59909976D01*
X209552104Y-59858209D01*
X209577556Y-59793141D01*
X209634146Y-59752162D01*
X209703908Y-59748283D01*
X209764693Y-59782736D01*
X209797201Y-59844583D01*
X209799035Y-59856861D01*
X209802149Y-59888481D01*
X209802149Y-59888483D01*
X209802150Y-59888485D01*
X209860046Y-60079342D01*
X209860048Y-60079348D01*
X209954060Y-60255231D01*
X209954065Y-60255238D01*
X210080589Y-60409410D01*
X210187875Y-60497456D01*
X210234763Y-60535936D01*
X210234766Y-60535937D01*
X210234768Y-60535939D01*
X210410651Y-60629951D01*
X210410654Y-60629951D01*
X210410658Y-60629954D01*
X210601515Y-60687850D01*
X210800000Y-60707399D01*
X210998485Y-60687850D01*
X211189342Y-60629954D01*
X211365237Y-60535936D01*
X211519410Y-60409410D01*
X211645936Y-60255237D01*
X211714525Y-60126917D01*
X211739951Y-60079348D01*
X211739951Y-60079347D01*
X211739954Y-60079342D01*
X211797850Y-59888485D01*
X211817399Y-59690000D01*
X211797850Y-59491515D01*
X211739954Y-59300658D01*
X211739951Y-59300654D01*
X211739951Y-59300651D01*
X211706171Y-59237453D01*
X211691929Y-59169050D01*
X211716929Y-59103806D01*
X211773234Y-59062436D01*
X211815529Y-59055000D01*
X229111000Y-59055000D01*
X229178039Y-59074685D01*
X229223794Y-59127489D01*
X229235000Y-59179000D01*
X229235000Y-121161000D01*
X229215315Y-121228039D01*
X229162511Y-121273794D01*
X229111000Y-121285000D01*
X172209000Y-121285000D01*
X172141961Y-121265315D01*
X172096206Y-121212511D01*
X172085000Y-121161000D01*
X172085000Y-120254678D01*
X192701500Y-120254678D01*
X192716032Y-120327735D01*
X192716033Y-120327739D01*
X192716034Y-120327740D01*
X192771399Y-120410601D01*
X192854260Y-120465966D01*
X192854264Y-120465967D01*
X192927321Y-120480499D01*
X192927324Y-120480500D01*
X192927326Y-120480500D01*
X194676676Y-120480500D01*
X194676677Y-120480499D01*
X194749740Y-120465966D01*
X194832601Y-120410601D01*
X194887966Y-120327740D01*
X194902500Y-120254674D01*
X194902500Y-119380000D01*
X195236785Y-119380000D01*
X195255602Y-119583082D01*
X195311417Y-119779247D01*
X195311422Y-119779260D01*
X195402327Y-119961821D01*
X195525237Y-120124581D01*
X195675958Y-120261980D01*
X195675960Y-120261982D01*
X195775141Y-120323392D01*
X195849363Y-120369348D01*
X196039544Y-120443024D01*
X196240024Y-120480500D01*
X196240026Y-120480500D01*
X196443974Y-120480500D01*
X196443976Y-120480500D01*
X196644456Y-120443024D01*
X196834637Y-120369348D01*
X197008041Y-120261981D01*
X197158764Y-120124579D01*
X197281673Y-119961821D01*
X197343598Y-119837456D01*
X197368817Y-119786812D01*
X197416319Y-119735575D01*
X197483982Y-119718153D01*
X197550323Y-119740078D01*
X197594278Y-119794389D01*
X197599592Y-119809989D01*
X197608567Y-119843485D01*
X197608570Y-119843492D01*
X197708399Y-120057578D01*
X197843894Y-120251082D01*
X198010917Y-120418105D01*
X198204421Y-120553600D01*
X198418507Y-120653429D01*
X198418516Y-120653433D01*
X198632000Y-120710634D01*
X198632000Y-119813012D01*
X198689007Y-119845925D01*
X198816174Y-119880000D01*
X198947826Y-119880000D01*
X199074993Y-119845925D01*
X199132000Y-119813012D01*
X199132000Y-120710633D01*
X199345483Y-120653433D01*
X199345492Y-120653429D01*
X199559578Y-120553600D01*
X199753082Y-120418105D01*
X199920105Y-120251082D01*
X200055600Y-120057578D01*
X200155429Y-119843492D01*
X200155431Y-119843489D01*
X200164406Y-119809992D01*
X200200770Y-119750331D01*
X200263616Y-119719800D01*
X200332992Y-119728094D01*
X200386871Y-119772578D01*
X200395182Y-119786811D01*
X200482327Y-119961821D01*
X200605237Y-120124581D01*
X200755958Y-120261980D01*
X200755960Y-120261982D01*
X200855141Y-120323392D01*
X200929363Y-120369348D01*
X201119544Y-120443024D01*
X201320024Y-120480500D01*
X201320026Y-120480500D01*
X201523974Y-120480500D01*
X201523976Y-120480500D01*
X201724456Y-120443024D01*
X201914637Y-120369348D01*
X202088041Y-120261981D01*
X202238764Y-120124579D01*
X202361673Y-119961821D01*
X202452582Y-119779250D01*
X202508397Y-119583083D01*
X202527215Y-119380000D01*
X202856785Y-119380000D01*
X202875602Y-119583082D01*
X202931417Y-119779247D01*
X202931422Y-119779260D01*
X203022327Y-119961821D01*
X203145237Y-120124581D01*
X203295958Y-120261980D01*
X203295960Y-120261982D01*
X203395141Y-120323392D01*
X203469363Y-120369348D01*
X203659544Y-120443024D01*
X203860024Y-120480500D01*
X203860026Y-120480500D01*
X204063974Y-120480500D01*
X204063976Y-120480500D01*
X204264456Y-120443024D01*
X204454637Y-120369348D01*
X204628041Y-120261981D01*
X204778764Y-120124579D01*
X204901673Y-119961821D01*
X204992582Y-119779250D01*
X205048397Y-119583083D01*
X205067215Y-119380000D01*
X205396785Y-119380000D01*
X205415602Y-119583082D01*
X205471417Y-119779247D01*
X205471422Y-119779260D01*
X205562327Y-119961821D01*
X205685237Y-120124581D01*
X205835958Y-120261980D01*
X205835960Y-120261982D01*
X205935141Y-120323392D01*
X206009363Y-120369348D01*
X206199544Y-120443024D01*
X206400024Y-120480500D01*
X206400026Y-120480500D01*
X206603974Y-120480500D01*
X206603976Y-120480500D01*
X206804456Y-120443024D01*
X206994637Y-120369348D01*
X207168041Y-120261981D01*
X207318764Y-120124579D01*
X207441673Y-119961821D01*
X207532582Y-119779250D01*
X207588397Y-119583083D01*
X207607215Y-119380000D01*
X207601115Y-119314174D01*
X207588397Y-119176917D01*
X207532582Y-118980750D01*
X207532159Y-118979901D01*
X207482415Y-118880000D01*
X207441673Y-118798179D01*
X207318764Y-118635421D01*
X207318762Y-118635418D01*
X207168041Y-118498019D01*
X207168039Y-118498017D01*
X206994642Y-118390655D01*
X206994635Y-118390651D01*
X206868769Y-118341891D01*
X206804456Y-118316976D01*
X206603976Y-118279500D01*
X206400024Y-118279500D01*
X206199544Y-118316976D01*
X206199541Y-118316976D01*
X206199541Y-118316977D01*
X206009364Y-118390651D01*
X206009357Y-118390655D01*
X205835960Y-118498017D01*
X205835958Y-118498019D01*
X205685237Y-118635418D01*
X205562327Y-118798178D01*
X205471422Y-118980739D01*
X205471417Y-118980752D01*
X205415602Y-119176917D01*
X205396785Y-119379999D01*
X205396785Y-119380000D01*
X205067215Y-119380000D01*
X205061115Y-119314174D01*
X205048397Y-119176917D01*
X204992582Y-118980750D01*
X204992159Y-118979901D01*
X204942415Y-118880000D01*
X204901673Y-118798179D01*
X204778764Y-118635421D01*
X204778762Y-118635418D01*
X204628041Y-118498019D01*
X204628039Y-118498017D01*
X204454642Y-118390655D01*
X204454635Y-118390651D01*
X204328769Y-118341891D01*
X204264456Y-118316976D01*
X204063976Y-118279500D01*
X203860024Y-118279500D01*
X203659544Y-118316976D01*
X203659541Y-118316976D01*
X203659541Y-118316977D01*
X203469364Y-118390651D01*
X203469357Y-118390655D01*
X203295960Y-118498017D01*
X203295958Y-118498019D01*
X203145237Y-118635418D01*
X203022327Y-118798178D01*
X202931422Y-118980739D01*
X202931417Y-118980752D01*
X202875602Y-119176917D01*
X202856785Y-119379999D01*
X202856785Y-119380000D01*
X202527215Y-119380000D01*
X202521115Y-119314174D01*
X202508397Y-119176917D01*
X202452582Y-118980750D01*
X202452159Y-118979901D01*
X202402415Y-118880000D01*
X202361673Y-118798179D01*
X202238764Y-118635421D01*
X202238762Y-118635418D01*
X202088041Y-118498019D01*
X202088039Y-118498017D01*
X201914642Y-118390655D01*
X201914635Y-118390651D01*
X201788769Y-118341891D01*
X201724456Y-118316976D01*
X201523976Y-118279500D01*
X201320024Y-118279500D01*
X201119544Y-118316976D01*
X201119541Y-118316976D01*
X201119541Y-118316977D01*
X200929364Y-118390651D01*
X200929357Y-118390655D01*
X200755960Y-118498017D01*
X200755958Y-118498019D01*
X200605237Y-118635418D01*
X200482327Y-118798178D01*
X200395182Y-118973188D01*
X200347679Y-119024425D01*
X200280016Y-119041846D01*
X200213676Y-119019920D01*
X200169721Y-118965609D01*
X200164407Y-118950008D01*
X200155434Y-118916518D01*
X200155429Y-118916507D01*
X200055600Y-118702422D01*
X200055599Y-118702420D01*
X199920113Y-118508926D01*
X199920108Y-118508920D01*
X199753082Y-118341894D01*
X199559578Y-118206399D01*
X199345492Y-118106570D01*
X199345486Y-118106567D01*
X199132000Y-118049364D01*
X199132000Y-118946988D01*
X199074993Y-118914075D01*
X198947826Y-118880000D01*
X198816174Y-118880000D01*
X198689007Y-118914075D01*
X198632000Y-118946988D01*
X198632000Y-118049364D01*
X198631999Y-118049364D01*
X198418513Y-118106567D01*
X198418507Y-118106570D01*
X198204422Y-118206399D01*
X198204420Y-118206400D01*
X198010926Y-118341886D01*
X198010920Y-118341891D01*
X197843891Y-118508920D01*
X197843886Y-118508926D01*
X197708400Y-118702420D01*
X197708399Y-118702422D01*
X197608570Y-118916507D01*
X197608568Y-118916511D01*
X197599592Y-118950011D01*
X197563226Y-119009671D01*
X197500379Y-119040199D01*
X197431003Y-119031904D01*
X197377126Y-118987418D01*
X197368817Y-118973188D01*
X197322415Y-118880000D01*
X197281673Y-118798179D01*
X197158764Y-118635421D01*
X197158762Y-118635418D01*
X197008041Y-118498019D01*
X197008039Y-118498017D01*
X196834642Y-118390655D01*
X196834635Y-118390651D01*
X196708769Y-118341891D01*
X196644456Y-118316976D01*
X196443976Y-118279500D01*
X196240024Y-118279500D01*
X196039544Y-118316976D01*
X196039541Y-118316976D01*
X196039541Y-118316977D01*
X195849364Y-118390651D01*
X195849357Y-118390655D01*
X195675960Y-118498017D01*
X195675958Y-118498019D01*
X195525237Y-118635418D01*
X195402327Y-118798178D01*
X195311422Y-118980739D01*
X195311417Y-118980752D01*
X195255602Y-119176917D01*
X195236785Y-119379999D01*
X195236785Y-119380000D01*
X194902500Y-119380000D01*
X194902500Y-118505326D01*
X194902500Y-118505323D01*
X194902499Y-118505321D01*
X194887967Y-118432264D01*
X194887966Y-118432260D01*
X194832601Y-118349399D01*
X194749740Y-118294034D01*
X194749739Y-118294033D01*
X194749735Y-118294032D01*
X194676677Y-118279500D01*
X194676674Y-118279500D01*
X192927326Y-118279500D01*
X192927323Y-118279500D01*
X192854264Y-118294032D01*
X192854260Y-118294033D01*
X192771399Y-118349399D01*
X192716033Y-118432260D01*
X192716032Y-118432264D01*
X192701500Y-118505321D01*
X192701500Y-120254678D01*
X172085000Y-120254678D01*
X172085000Y-113954678D01*
X197334500Y-113954678D01*
X197349032Y-114027735D01*
X197349033Y-114027739D01*
X197349034Y-114027740D01*
X197404399Y-114110601D01*
X197487260Y-114165966D01*
X197487264Y-114165967D01*
X197560321Y-114180499D01*
X197560324Y-114180500D01*
X198665018Y-114180500D01*
X198732057Y-114200185D01*
X198733909Y-114201398D01*
X198899737Y-114312201D01*
X198899747Y-114312206D01*
X199088101Y-114390225D01*
X199088109Y-114390227D01*
X199139999Y-114400549D01*
X199140000Y-114400549D01*
X199140000Y-113405277D01*
X199216306Y-113449333D01*
X199330756Y-113480000D01*
X199449244Y-113480000D01*
X199563694Y-113449333D01*
X199640000Y-113405277D01*
X199640000Y-114400549D01*
X199691890Y-114390227D01*
X199691898Y-114390225D01*
X199880252Y-114312206D01*
X199880262Y-114312201D01*
X200049773Y-114198937D01*
X200049777Y-114198934D01*
X200137972Y-114110738D01*
X200199295Y-114077252D01*
X200268986Y-114082236D01*
X200284110Y-114089061D01*
X200287921Y-114091097D01*
X200287926Y-114091101D01*
X200430878Y-114150314D01*
X200582630Y-114180499D01*
X200582634Y-114180500D01*
X200582635Y-114180500D01*
X200737366Y-114180500D01*
X200737367Y-114180499D01*
X200889122Y-114150314D01*
X201032074Y-114091101D01*
X201160727Y-114005138D01*
X201163601Y-114002264D01*
X201207319Y-113958547D01*
X201268642Y-113925062D01*
X201338334Y-113930046D01*
X201382681Y-113958547D01*
X201429269Y-114005135D01*
X201429273Y-114005138D01*
X201557919Y-114091097D01*
X201557925Y-114091100D01*
X201557926Y-114091101D01*
X201700878Y-114150314D01*
X201852630Y-114180499D01*
X201852634Y-114180500D01*
X201852635Y-114180500D01*
X202007366Y-114180500D01*
X202007367Y-114180499D01*
X202159122Y-114150314D01*
X202302074Y-114091101D01*
X202430727Y-114005138D01*
X202540138Y-113895727D01*
X202626101Y-113767074D01*
X202685314Y-113624122D01*
X202715500Y-113472365D01*
X202715500Y-112587635D01*
X202685314Y-112435878D01*
X202628182Y-112297952D01*
X202620714Y-112228484D01*
X202651989Y-112166004D01*
X202712078Y-112130352D01*
X202742744Y-112126500D01*
X206318967Y-112126500D01*
X206386006Y-112146185D01*
X206406648Y-112162819D01*
X206774367Y-112530538D01*
X206801247Y-112570766D01*
X206823638Y-112624822D01*
X206823639Y-112624825D01*
X206911879Y-112739821D01*
X207026875Y-112828061D01*
X207026876Y-112828061D01*
X207026877Y-112828062D01*
X207071513Y-112846550D01*
X207160791Y-112883530D01*
X207287780Y-112900248D01*
X207304499Y-112902450D01*
X207304500Y-112902450D01*
X207304501Y-112902450D01*
X207319477Y-112900478D01*
X207448209Y-112883530D01*
X207582125Y-112828061D01*
X207697121Y-112739821D01*
X207785361Y-112624825D01*
X207840830Y-112490909D01*
X207859750Y-112347200D01*
X207840830Y-112203491D01*
X207785361Y-112069575D01*
X207697121Y-111954579D01*
X207582125Y-111866339D01*
X207582123Y-111866338D01*
X207528066Y-111843947D01*
X207487838Y-111817067D01*
X206889072Y-111218301D01*
X206889070Y-111218299D01*
X206863620Y-111203605D01*
X206816138Y-111176191D01*
X206816137Y-111176191D01*
X206774030Y-111151881D01*
X206774031Y-111151881D01*
X206741952Y-111143285D01*
X206645719Y-111117500D01*
X201996419Y-111117500D01*
X201863581Y-111117500D01*
X201735270Y-111151881D01*
X201735268Y-111151881D01*
X201735268Y-111151882D01*
X201620230Y-111218300D01*
X201620227Y-111218302D01*
X201526302Y-111312227D01*
X201526300Y-111312230D01*
X201474712Y-111401583D01*
X201459881Y-111427270D01*
X201425500Y-111555581D01*
X201425500Y-111555583D01*
X201425500Y-112007272D01*
X201405815Y-112074311D01*
X201389181Y-112094953D01*
X201382681Y-112101453D01*
X201321358Y-112134938D01*
X201251666Y-112129954D01*
X201207319Y-112101453D01*
X201160730Y-112054864D01*
X201160726Y-112054861D01*
X201032080Y-111968902D01*
X201032071Y-111968897D01*
X200889122Y-111909686D01*
X200889114Y-111909684D01*
X200737369Y-111879500D01*
X200737365Y-111879500D01*
X200582635Y-111879500D01*
X200582630Y-111879500D01*
X200430885Y-111909684D01*
X200430877Y-111909686D01*
X200287925Y-111968898D01*
X200284107Y-111970940D01*
X200215704Y-111985181D01*
X200150460Y-111960180D01*
X200137974Y-111949262D01*
X200049777Y-111861065D01*
X200049773Y-111861062D01*
X199880262Y-111747798D01*
X199880252Y-111747793D01*
X199691896Y-111669773D01*
X199691893Y-111669772D01*
X199640000Y-111659449D01*
X199640000Y-112654722D01*
X199563694Y-112610667D01*
X199449244Y-112580000D01*
X199330756Y-112580000D01*
X199216306Y-112610667D01*
X199140000Y-112654722D01*
X199140000Y-111659450D01*
X199139999Y-111659449D01*
X199088106Y-111669772D01*
X199088103Y-111669773D01*
X198899747Y-111747793D01*
X198899737Y-111747798D01*
X198733910Y-111858602D01*
X198667233Y-111879480D01*
X198665019Y-111879500D01*
X197560323Y-111879500D01*
X197487264Y-111894032D01*
X197487260Y-111894033D01*
X197404399Y-111949399D01*
X197349033Y-112032260D01*
X197349032Y-112032264D01*
X197334500Y-112105321D01*
X197334500Y-113954678D01*
X172085000Y-113954678D01*
X172085000Y-110068000D01*
X177334659Y-110068000D01*
X177353975Y-110264129D01*
X177411188Y-110452733D01*
X177504086Y-110626532D01*
X177504090Y-110626539D01*
X177629116Y-110778883D01*
X177781460Y-110903909D01*
X177781467Y-110903913D01*
X177955266Y-110996811D01*
X177955269Y-110996811D01*
X177955273Y-110996814D01*
X178143868Y-111054024D01*
X178340000Y-111073341D01*
X178516803Y-111055927D01*
X178542195Y-111053427D01*
X178542344Y-111054949D01*
X178604433Y-111060492D01*
X178646740Y-111088211D01*
X179236030Y-111677501D01*
X179308962Y-111719608D01*
X179351070Y-111743919D01*
X179479381Y-111778300D01*
X179479382Y-111778300D01*
X179479384Y-111778300D01*
X194100616Y-111778300D01*
X194100619Y-111778300D01*
X194228930Y-111743919D01*
X194271037Y-111719608D01*
X194343970Y-111677501D01*
X199872271Y-106149198D01*
X199933592Y-106115715D01*
X199972104Y-106113478D01*
X199994211Y-106115655D01*
X200152000Y-106131196D01*
X200342251Y-106112458D01*
X200525191Y-106056964D01*
X200693790Y-105966846D01*
X200841568Y-105845568D01*
X200962846Y-105697790D01*
X201052964Y-105529191D01*
X201108458Y-105346251D01*
X201127196Y-105156000D01*
X201121287Y-105096000D01*
X207224417Y-105096000D01*
X207244699Y-105301932D01*
X207258143Y-105346251D01*
X207304768Y-105499954D01*
X207402315Y-105682450D01*
X207402317Y-105682452D01*
X207533589Y-105842410D01*
X207630209Y-105921702D01*
X207693550Y-105973685D01*
X207876046Y-106071232D01*
X208074066Y-106131300D01*
X208074065Y-106131300D01*
X208092529Y-106133118D01*
X208280000Y-106151583D01*
X208485934Y-106131300D01*
X208683954Y-106071232D01*
X208866450Y-105973685D01*
X209026410Y-105842410D01*
X209157685Y-105682450D01*
X209255232Y-105499954D01*
X209315300Y-105301934D01*
X209335583Y-105096000D01*
X209315300Y-104890066D01*
X209255232Y-104692046D01*
X209157685Y-104509550D01*
X209105702Y-104446209D01*
X209026410Y-104349589D01*
X208866452Y-104218317D01*
X208866453Y-104218317D01*
X208866450Y-104218315D01*
X208683954Y-104120768D01*
X208485934Y-104060700D01*
X208485932Y-104060699D01*
X208485934Y-104060699D01*
X208280000Y-104040417D01*
X208074067Y-104060699D01*
X207876043Y-104120769D01*
X207765898Y-104179643D01*
X207693550Y-104218315D01*
X207693548Y-104218316D01*
X207693547Y-104218317D01*
X207533589Y-104349589D01*
X207402317Y-104509547D01*
X207304769Y-104692043D01*
X207244699Y-104890067D01*
X207224417Y-105096000D01*
X201121287Y-105096000D01*
X201108458Y-104965749D01*
X201052964Y-104782809D01*
X201052962Y-104782806D01*
X201052962Y-104782804D01*
X200962849Y-104614215D01*
X200962847Y-104614213D01*
X200962846Y-104614210D01*
X200876954Y-104509550D01*
X200841568Y-104466431D01*
X200693791Y-104345155D01*
X200693784Y-104345150D01*
X200525195Y-104255037D01*
X200342249Y-104199541D01*
X200152000Y-104180804D01*
X199961750Y-104199541D01*
X199778804Y-104255037D01*
X199610215Y-104345150D01*
X199610208Y-104345155D01*
X199462431Y-104466431D01*
X199341155Y-104614208D01*
X199341150Y-104614215D01*
X199251037Y-104782804D01*
X199195541Y-104965750D01*
X199176804Y-105156000D01*
X199194521Y-105335894D01*
X199181502Y-105404540D01*
X199158799Y-105435728D01*
X193861548Y-110732981D01*
X193800225Y-110766466D01*
X193773867Y-110769300D01*
X183636486Y-110769300D01*
X183569447Y-110749615D01*
X183523692Y-110696811D01*
X183513748Y-110627653D01*
X183542773Y-110564097D01*
X183574483Y-110537914D01*
X183616237Y-110513808D01*
X183689170Y-110471701D01*
X189064871Y-105096000D01*
X190460417Y-105096000D01*
X190480699Y-105301932D01*
X190494143Y-105346251D01*
X190540768Y-105499954D01*
X190638315Y-105682450D01*
X190638317Y-105682452D01*
X190769589Y-105842410D01*
X190866209Y-105921702D01*
X190929550Y-105973685D01*
X191112046Y-106071232D01*
X191310066Y-106131300D01*
X191310065Y-106131300D01*
X191328529Y-106133118D01*
X191516000Y-106151583D01*
X191721934Y-106131300D01*
X191919954Y-106071232D01*
X192102450Y-105973685D01*
X192262410Y-105842410D01*
X192393685Y-105682450D01*
X192491232Y-105499954D01*
X192551300Y-105301934D01*
X192571583Y-105096000D01*
X192551300Y-104890066D01*
X192491232Y-104692046D01*
X192393685Y-104509550D01*
X192341702Y-104446209D01*
X192262410Y-104349589D01*
X192102452Y-104218317D01*
X192102453Y-104218317D01*
X192102450Y-104218315D01*
X191919954Y-104120768D01*
X191721934Y-104060700D01*
X191721932Y-104060699D01*
X191721934Y-104060699D01*
X191516000Y-104040417D01*
X191310067Y-104060699D01*
X191112043Y-104120769D01*
X191001898Y-104179643D01*
X190929550Y-104218315D01*
X190929548Y-104218316D01*
X190929547Y-104218317D01*
X190769589Y-104349589D01*
X190638317Y-104509547D01*
X190540769Y-104692043D01*
X190480699Y-104890067D01*
X190460417Y-105096000D01*
X189064871Y-105096000D01*
X194084870Y-100076000D01*
X199176804Y-100076000D01*
X199195541Y-100266249D01*
X199251037Y-100449195D01*
X199341150Y-100617784D01*
X199341155Y-100617791D01*
X199462431Y-100765568D01*
X199556064Y-100842410D01*
X199610210Y-100886846D01*
X199610213Y-100886847D01*
X199610215Y-100886849D01*
X199778804Y-100976962D01*
X199778806Y-100976962D01*
X199778809Y-100976964D01*
X199961749Y-101032458D01*
X200152000Y-101051196D01*
X200342251Y-101032458D01*
X200525191Y-100976964D01*
X200693790Y-100886846D01*
X200841568Y-100765568D01*
X200962846Y-100617790D01*
X201052964Y-100449191D01*
X201108458Y-100266251D01*
X201127196Y-100076000D01*
X201108458Y-99885749D01*
X201052964Y-99702809D01*
X201052962Y-99702806D01*
X201052962Y-99702804D01*
X200962849Y-99534215D01*
X200962847Y-99534213D01*
X200962846Y-99534210D01*
X200925962Y-99489267D01*
X200841568Y-99386431D01*
X200693791Y-99265155D01*
X200693784Y-99265150D01*
X200525195Y-99175037D01*
X200342249Y-99119541D01*
X200152000Y-99100804D01*
X199961750Y-99119541D01*
X199778804Y-99175037D01*
X199610215Y-99265150D01*
X199610208Y-99265155D01*
X199462431Y-99386431D01*
X199341155Y-99534208D01*
X199341150Y-99534215D01*
X199251037Y-99702804D01*
X199195541Y-99885750D01*
X199176804Y-100076000D01*
X194084870Y-100076000D01*
X197076000Y-97084870D01*
X197142419Y-96969830D01*
X197156146Y-96918599D01*
X197176800Y-96841519D01*
X197176800Y-94849018D01*
X197186239Y-94801565D01*
X197208630Y-94747509D01*
X197227550Y-94603800D01*
X197208630Y-94460091D01*
X197171650Y-94370813D01*
X197153162Y-94326177D01*
X197153161Y-94326176D01*
X197153161Y-94326175D01*
X197064921Y-94211179D01*
X196949925Y-94122939D01*
X196949924Y-94122938D01*
X196949922Y-94122937D01*
X196816012Y-94067471D01*
X196816010Y-94067470D01*
X196816009Y-94067470D01*
X196744154Y-94058010D01*
X196672301Y-94048550D01*
X196672299Y-94048550D01*
X196528591Y-94067470D01*
X196528587Y-94067471D01*
X196394677Y-94122937D01*
X196279679Y-94211179D01*
X196191437Y-94326177D01*
X196135971Y-94460087D01*
X196135970Y-94460091D01*
X196117050Y-94603799D01*
X196117050Y-94603800D01*
X196135970Y-94747508D01*
X196135970Y-94747509D01*
X196158361Y-94801565D01*
X196167800Y-94849018D01*
X196167800Y-96514767D01*
X196148115Y-96581806D01*
X196131481Y-96602448D01*
X192762917Y-99971011D01*
X192701594Y-100004496D01*
X192631902Y-99999512D01*
X192575969Y-99957640D01*
X192551833Y-99895478D01*
X192551300Y-99890066D01*
X192491232Y-99692046D01*
X192393685Y-99509550D01*
X192341702Y-99446209D01*
X192262410Y-99349589D01*
X192102452Y-99218317D01*
X192102453Y-99218317D01*
X192102450Y-99218315D01*
X191919954Y-99120768D01*
X191721934Y-99060700D01*
X191721932Y-99060699D01*
X191721934Y-99060699D01*
X191516000Y-99040417D01*
X191310067Y-99060699D01*
X191112043Y-99120769D01*
X191010519Y-99175036D01*
X190929550Y-99218315D01*
X190929548Y-99218316D01*
X190929547Y-99218317D01*
X190769589Y-99349589D01*
X190638317Y-99509547D01*
X190540769Y-99692043D01*
X190480699Y-99890067D01*
X190460417Y-100096000D01*
X190480699Y-100301932D01*
X190480700Y-100301934D01*
X190540768Y-100499954D01*
X190638315Y-100682450D01*
X190638317Y-100682452D01*
X190769589Y-100842410D01*
X190823739Y-100886849D01*
X190929550Y-100973685D01*
X191112046Y-101071232D01*
X191310066Y-101131300D01*
X191315478Y-101131833D01*
X191380265Y-101157989D01*
X191420628Y-101215020D01*
X191423749Y-101284820D01*
X191391011Y-101342917D01*
X183294538Y-109439389D01*
X183233215Y-109472874D01*
X183163523Y-109467890D01*
X183111004Y-109430373D01*
X183050883Y-109357116D01*
X182898539Y-109232090D01*
X182898532Y-109232086D01*
X182724733Y-109139188D01*
X182724727Y-109139186D01*
X182536132Y-109081976D01*
X182536129Y-109081975D01*
X182340000Y-109062659D01*
X182143870Y-109081975D01*
X181955266Y-109139188D01*
X181781467Y-109232086D01*
X181781460Y-109232090D01*
X181629116Y-109357116D01*
X181504090Y-109509460D01*
X181504086Y-109509467D01*
X181411188Y-109683266D01*
X181353975Y-109871870D01*
X181334659Y-110068000D01*
X181353975Y-110264129D01*
X181411188Y-110452732D01*
X181482874Y-110586847D01*
X181497116Y-110655250D01*
X181472116Y-110720493D01*
X181415811Y-110761864D01*
X181373516Y-110769300D01*
X179806133Y-110769300D01*
X179739094Y-110749615D01*
X179718452Y-110732981D01*
X179360211Y-110374740D01*
X179326726Y-110313417D01*
X179326345Y-110270285D01*
X179325427Y-110270195D01*
X179327927Y-110244803D01*
X179345341Y-110068000D01*
X179326024Y-109871868D01*
X179268814Y-109683273D01*
X179268811Y-109683269D01*
X179268811Y-109683266D01*
X179175913Y-109509467D01*
X179175909Y-109509460D01*
X179050883Y-109357116D01*
X178898539Y-109232090D01*
X178898532Y-109232086D01*
X178724733Y-109139188D01*
X178724727Y-109139186D01*
X178536132Y-109081976D01*
X178536129Y-109081975D01*
X178340000Y-109062659D01*
X178143870Y-109081975D01*
X177955266Y-109139188D01*
X177781467Y-109232086D01*
X177781460Y-109232090D01*
X177629116Y-109357116D01*
X177504090Y-109509460D01*
X177504086Y-109509467D01*
X177411188Y-109683266D01*
X177353975Y-109871870D01*
X177334659Y-110068000D01*
X172085000Y-110068000D01*
X172085000Y-89068000D01*
X178084659Y-89068000D01*
X178103975Y-89264129D01*
X178161188Y-89452733D01*
X178254086Y-89626532D01*
X178254090Y-89626539D01*
X178379116Y-89778883D01*
X178531460Y-89903909D01*
X178531467Y-89903913D01*
X178705266Y-89996811D01*
X178705269Y-89996811D01*
X178705273Y-89996814D01*
X178893868Y-90054024D01*
X179090000Y-90073341D01*
X179286132Y-90054024D01*
X179474727Y-89996814D01*
X179648538Y-89903910D01*
X179800883Y-89778883D01*
X179925910Y-89626538D01*
X180018814Y-89452727D01*
X180076024Y-89264132D01*
X180095341Y-89068000D01*
X180584659Y-89068000D01*
X180603975Y-89264129D01*
X180661188Y-89452733D01*
X180754086Y-89626532D01*
X180754090Y-89626539D01*
X180879116Y-89778883D01*
X181031460Y-89903909D01*
X181031467Y-89903913D01*
X181205266Y-89996811D01*
X181205269Y-89996811D01*
X181205273Y-89996814D01*
X181393868Y-90054024D01*
X181590000Y-90073341D01*
X181786132Y-90054024D01*
X181974727Y-89996814D01*
X182148538Y-89903910D01*
X182300883Y-89778883D01*
X182425910Y-89626538D01*
X182518814Y-89452727D01*
X182576024Y-89264132D01*
X182595341Y-89068000D01*
X182576024Y-88871868D01*
X182518814Y-88683273D01*
X182518811Y-88683269D01*
X182518811Y-88683266D01*
X182425913Y-88509467D01*
X182425909Y-88509460D01*
X182300883Y-88357116D01*
X182148539Y-88232090D01*
X182148532Y-88232086D01*
X181974733Y-88139188D01*
X181974727Y-88139186D01*
X181786132Y-88081976D01*
X181786129Y-88081975D01*
X181590000Y-88062659D01*
X181393870Y-88081975D01*
X181205266Y-88139188D01*
X181031467Y-88232086D01*
X181031460Y-88232090D01*
X180879116Y-88357116D01*
X180754090Y-88509460D01*
X180754086Y-88509467D01*
X180661188Y-88683266D01*
X180603975Y-88871870D01*
X180584659Y-89068000D01*
X180095341Y-89068000D01*
X180076024Y-88871868D01*
X180029887Y-88719778D01*
X180029264Y-88649912D01*
X180060865Y-88596104D01*
X183625497Y-85031472D01*
X183686818Y-84997989D01*
X183756510Y-85002973D01*
X183812443Y-85044845D01*
X183836752Y-85108915D01*
X183854890Y-85327812D01*
X183854892Y-85327824D01*
X183915936Y-85568881D01*
X184015826Y-85796606D01*
X184151833Y-86004782D01*
X184151836Y-86004785D01*
X184320256Y-86187738D01*
X184516491Y-86340474D01*
X184735190Y-86458828D01*
X184970386Y-86539571D01*
X185215665Y-86580500D01*
X185464335Y-86580500D01*
X185709614Y-86539571D01*
X185709617Y-86539570D01*
X185916674Y-86468486D01*
X185986470Y-86465337D01*
X186044616Y-86498087D01*
X191065230Y-91518701D01*
X191138162Y-91560808D01*
X191180270Y-91585119D01*
X191308581Y-91619500D01*
X191308582Y-91619500D01*
X191441419Y-91619500D01*
X199038667Y-91619500D01*
X199105706Y-91639185D01*
X199126348Y-91655819D01*
X207219119Y-99748590D01*
X207252604Y-99809913D01*
X207250100Y-99872261D01*
X207244700Y-99890063D01*
X207244699Y-99890066D01*
X207224417Y-100096000D01*
X207244699Y-100301932D01*
X207244700Y-100301934D01*
X207304768Y-100499954D01*
X207402315Y-100682450D01*
X207402317Y-100682452D01*
X207533589Y-100842410D01*
X207587739Y-100886849D01*
X207693550Y-100973685D01*
X207876046Y-101071232D01*
X208063658Y-101128142D01*
X208122096Y-101166440D01*
X208150552Y-101230252D01*
X208139992Y-101299319D01*
X208115343Y-101334484D01*
X207374648Y-102075181D01*
X207313325Y-102108666D01*
X207286967Y-102111500D01*
X201052097Y-102111500D01*
X200985058Y-102091815D01*
X200956244Y-102066165D01*
X200841568Y-101926431D01*
X200693791Y-101805155D01*
X200693784Y-101805150D01*
X200525195Y-101715037D01*
X200342249Y-101659541D01*
X200152000Y-101640804D01*
X199961750Y-101659541D01*
X199778804Y-101715037D01*
X199610215Y-101805150D01*
X199610208Y-101805155D01*
X199462431Y-101926431D01*
X199341155Y-102074208D01*
X199341150Y-102074215D01*
X199251037Y-102242804D01*
X199195541Y-102425750D01*
X199176804Y-102616000D01*
X199195541Y-102806249D01*
X199251037Y-102989195D01*
X199341150Y-103157784D01*
X199341155Y-103157791D01*
X199462431Y-103305568D01*
X199565267Y-103389962D01*
X199610210Y-103426846D01*
X199610213Y-103426847D01*
X199610215Y-103426849D01*
X199778804Y-103516962D01*
X199778806Y-103516962D01*
X199778809Y-103516964D01*
X199961749Y-103572458D01*
X200152000Y-103591196D01*
X200342251Y-103572458D01*
X200525191Y-103516964D01*
X200693790Y-103426846D01*
X200841568Y-103305568D01*
X200956244Y-103165835D01*
X201013989Y-103126501D01*
X201052097Y-103120500D01*
X207613716Y-103120500D01*
X207613719Y-103120500D01*
X207742030Y-103086119D01*
X207784137Y-103061808D01*
X207857070Y-103019701D01*
X216427701Y-94449070D01*
X216494119Y-94334030D01*
X216509735Y-94275750D01*
X216528500Y-94205719D01*
X216528500Y-91503856D01*
X216548185Y-91436817D01*
X216600095Y-91391474D01*
X216701830Y-91344035D01*
X216895401Y-91208495D01*
X217062495Y-91041401D01*
X217198035Y-90847830D01*
X217234618Y-90769376D01*
X217280790Y-90716938D01*
X217347984Y-90697786D01*
X217414865Y-90718002D01*
X217460200Y-90771167D01*
X217471000Y-90821782D01*
X217471000Y-91462719D01*
X217505381Y-91591030D01*
X217529691Y-91633137D01*
X217571799Y-91706070D01*
X217571801Y-91706072D01*
X220978881Y-95113152D01*
X221012366Y-95174475D01*
X221015200Y-95200833D01*
X221015200Y-96639199D01*
X220995515Y-96706238D01*
X220942711Y-96751993D01*
X220873553Y-96761937D01*
X220820077Y-96740774D01*
X220641834Y-96615967D01*
X220641830Y-96615965D01*
X220591003Y-96592264D01*
X220427663Y-96516097D01*
X220427659Y-96516096D01*
X220427655Y-96516094D01*
X220199413Y-96454938D01*
X220199403Y-96454936D01*
X219964001Y-96434341D01*
X219963999Y-96434341D01*
X219728596Y-96454936D01*
X219728586Y-96454938D01*
X219500344Y-96516094D01*
X219500335Y-96516098D01*
X219286171Y-96615964D01*
X219286169Y-96615965D01*
X219092597Y-96751505D01*
X218925505Y-96918597D01*
X218789967Y-97112166D01*
X218789965Y-97112170D01*
X218789965Y-97112171D01*
X218742524Y-97213906D01*
X218696354Y-97266344D01*
X218630144Y-97285500D01*
X217498500Y-97285500D01*
X217431461Y-97265815D01*
X217385706Y-97213011D01*
X217374500Y-97161500D01*
X217374500Y-96665323D01*
X217374499Y-96665321D01*
X217359967Y-96592264D01*
X217359966Y-96592260D01*
X217342506Y-96566129D01*
X217304601Y-96509399D01*
X217223093Y-96454938D01*
X217221739Y-96454033D01*
X217221735Y-96454032D01*
X217148677Y-96439500D01*
X217148674Y-96439500D01*
X214899326Y-96439500D01*
X214899323Y-96439500D01*
X214826264Y-96454032D01*
X214826260Y-96454033D01*
X214743399Y-96509399D01*
X214688033Y-96592260D01*
X214688032Y-96592264D01*
X214673500Y-96665321D01*
X214673500Y-98914678D01*
X214688032Y-98987735D01*
X214688033Y-98987739D01*
X214688034Y-98987740D01*
X214743399Y-99070601D01*
X214788602Y-99100804D01*
X214826260Y-99125966D01*
X214826264Y-99125967D01*
X214899321Y-99140499D01*
X214899324Y-99140500D01*
X214899326Y-99140500D01*
X217148676Y-99140500D01*
X217148677Y-99140499D01*
X217221740Y-99125966D01*
X217304601Y-99070601D01*
X217359966Y-98987740D01*
X217374500Y-98914674D01*
X217374500Y-98418500D01*
X217394185Y-98351461D01*
X217446989Y-98305706D01*
X217498500Y-98294500D01*
X218630143Y-98294500D01*
X218697182Y-98314185D01*
X218742525Y-98366095D01*
X218789965Y-98467830D01*
X218789967Y-98467834D01*
X218898281Y-98622521D01*
X218925505Y-98661401D01*
X219092599Y-98828495D01*
X219173091Y-98884856D01*
X219286165Y-98964032D01*
X219286167Y-98964033D01*
X219286170Y-98964035D01*
X219500337Y-99063903D01*
X219500343Y-99063904D01*
X219500344Y-99063905D01*
X219555285Y-99078626D01*
X219728592Y-99125063D01*
X219905034Y-99140500D01*
X219963999Y-99145659D01*
X219964000Y-99145659D01*
X219964001Y-99145659D01*
X220022966Y-99140500D01*
X220199408Y-99125063D01*
X220427663Y-99063903D01*
X220641830Y-98964035D01*
X220820077Y-98839224D01*
X220886282Y-98816898D01*
X220954050Y-98833908D01*
X221001863Y-98884856D01*
X221015200Y-98940800D01*
X221015200Y-106603967D01*
X220995515Y-106671006D01*
X220978881Y-106691648D01*
X216512300Y-111158228D01*
X216512299Y-111158230D01*
X216477619Y-111218299D01*
X216445881Y-111273270D01*
X216411500Y-111401581D01*
X216411500Y-111401583D01*
X216411500Y-111601500D01*
X216391815Y-111668539D01*
X216339011Y-111714294D01*
X216287500Y-111725500D01*
X216091323Y-111725500D01*
X216018264Y-111740032D01*
X216018260Y-111740033D01*
X215935399Y-111795399D01*
X215880033Y-111878260D01*
X215880032Y-111878264D01*
X215865500Y-111951321D01*
X215865500Y-113600678D01*
X215880032Y-113673735D01*
X215880033Y-113673739D01*
X215880034Y-113673740D01*
X215935399Y-113756601D01*
X216018260Y-113811966D01*
X216018264Y-113811967D01*
X216091321Y-113826499D01*
X216091324Y-113826500D01*
X216091326Y-113826500D01*
X217740676Y-113826500D01*
X217740677Y-113826499D01*
X217813740Y-113811966D01*
X217896601Y-113756601D01*
X217951966Y-113673740D01*
X217966500Y-113600674D01*
X217966500Y-113302927D01*
X217986185Y-113235888D01*
X218038989Y-113190133D01*
X218108147Y-113180189D01*
X218171703Y-113209214D01*
X218202882Y-113250523D01*
X218285863Y-113428478D01*
X218336974Y-113501472D01*
X219016000Y-112822446D01*
X219016000Y-112828661D01*
X219043259Y-112930394D01*
X219095920Y-113021606D01*
X219170394Y-113096080D01*
X219261606Y-113148741D01*
X219363339Y-113176000D01*
X219369553Y-113176000D01*
X218690526Y-113855025D01*
X218763513Y-113906132D01*
X218763521Y-113906136D01*
X218969668Y-114002264D01*
X218969682Y-114002269D01*
X219189389Y-114061139D01*
X219189400Y-114061141D01*
X219415998Y-114080966D01*
X219416002Y-114080966D01*
X219642599Y-114061141D01*
X219642610Y-114061139D01*
X219862317Y-114002269D01*
X219862331Y-114002264D01*
X220068478Y-113906136D01*
X220141471Y-113855024D01*
X219462447Y-113176000D01*
X219468661Y-113176000D01*
X219570394Y-113148741D01*
X219661606Y-113096080D01*
X219736080Y-113021606D01*
X219788741Y-112930394D01*
X219816000Y-112828661D01*
X219816000Y-112822447D01*
X220495024Y-113501471D01*
X220546136Y-113428478D01*
X220642264Y-113222331D01*
X220642269Y-113222317D01*
X220701139Y-113002610D01*
X220701141Y-113002599D01*
X220720966Y-112776002D01*
X220720966Y-112775997D01*
X220701141Y-112549400D01*
X220701139Y-112549389D01*
X220642269Y-112329682D01*
X220642264Y-112329668D01*
X220546136Y-112123521D01*
X220546132Y-112123513D01*
X220495025Y-112050526D01*
X219816000Y-112729551D01*
X219816000Y-112723339D01*
X219788741Y-112621606D01*
X219736080Y-112530394D01*
X219661606Y-112455920D01*
X219570394Y-112403259D01*
X219468661Y-112376000D01*
X219462448Y-112376000D01*
X220141472Y-111696974D01*
X220068478Y-111645863D01*
X219862331Y-111549735D01*
X219862317Y-111549730D01*
X219642610Y-111490860D01*
X219642599Y-111490858D01*
X219416002Y-111471034D01*
X219415998Y-111471034D01*
X219189400Y-111490858D01*
X219189389Y-111490860D01*
X218969682Y-111549730D01*
X218969673Y-111549734D01*
X218763516Y-111645866D01*
X218763512Y-111645868D01*
X218690526Y-111696973D01*
X218690526Y-111696974D01*
X219369553Y-112376000D01*
X219363339Y-112376000D01*
X219261606Y-112403259D01*
X219170394Y-112455920D01*
X219095920Y-112530394D01*
X219043259Y-112621606D01*
X219016000Y-112723339D01*
X219016000Y-112729552D01*
X218336974Y-112050526D01*
X218336973Y-112050526D01*
X218285868Y-112123512D01*
X218285866Y-112123516D01*
X218202882Y-112301477D01*
X218156710Y-112353916D01*
X218089516Y-112373068D01*
X218022635Y-112352852D01*
X217977300Y-112299687D01*
X217966500Y-112249072D01*
X217966500Y-111951323D01*
X217966499Y-111951321D01*
X217951967Y-111878264D01*
X217951966Y-111878260D01*
X217929039Y-111843947D01*
X217896601Y-111795399D01*
X217825360Y-111747798D01*
X217813739Y-111740033D01*
X217813735Y-111740032D01*
X217740677Y-111725500D01*
X217740674Y-111725500D01*
X217671333Y-111725500D01*
X217604294Y-111705815D01*
X217558539Y-111653011D01*
X217548595Y-111583853D01*
X217577620Y-111520297D01*
X217583652Y-111513819D01*
X219740355Y-109357116D01*
X221923401Y-107174070D01*
X221965508Y-107101137D01*
X221989819Y-107059030D01*
X222024200Y-106930719D01*
X222024200Y-94874081D01*
X221989819Y-94745770D01*
X221965508Y-94703662D01*
X221923401Y-94630730D01*
X219024852Y-91732181D01*
X218991367Y-91670858D01*
X218996351Y-91601166D01*
X219038223Y-91545233D01*
X219103687Y-91520816D01*
X219112533Y-91520500D01*
X221088676Y-91520500D01*
X221088677Y-91520499D01*
X221161740Y-91505966D01*
X221244601Y-91450601D01*
X221299966Y-91367740D01*
X221314500Y-91294674D01*
X221314500Y-89045326D01*
X221314500Y-89045323D01*
X221314499Y-89045321D01*
X221299967Y-88972264D01*
X221299966Y-88972260D01*
X221244601Y-88889399D01*
X221177555Y-88844601D01*
X221161739Y-88834033D01*
X221161735Y-88834032D01*
X221088677Y-88819500D01*
X221088674Y-88819500D01*
X218839326Y-88819500D01*
X218839323Y-88819500D01*
X218766264Y-88834032D01*
X218766260Y-88834033D01*
X218683399Y-88889399D01*
X218628033Y-88972260D01*
X218628032Y-88972264D01*
X218613500Y-89045321D01*
X218613500Y-89528973D01*
X218593815Y-89596012D01*
X218541011Y-89641767D01*
X218471853Y-89651711D01*
X218408297Y-89622686D01*
X218382113Y-89590973D01*
X218379203Y-89585933D01*
X218379199Y-89585928D01*
X215550952Y-86757680D01*
X215517467Y-86696357D01*
X215522451Y-86626665D01*
X215564323Y-86570732D01*
X215629787Y-86546315D01*
X215659041Y-86547689D01*
X215855665Y-86580500D01*
X216104335Y-86580500D01*
X216349614Y-86539571D01*
X216584810Y-86458828D01*
X216803509Y-86340474D01*
X216999744Y-86187738D01*
X217168164Y-86004785D01*
X217304173Y-85796607D01*
X217404063Y-85568881D01*
X217465108Y-85327821D01*
X217475600Y-85201205D01*
X217485643Y-85080005D01*
X217485643Y-85079994D01*
X217465109Y-84832187D01*
X217465107Y-84832175D01*
X217404063Y-84591118D01*
X217304173Y-84363393D01*
X217168166Y-84155217D01*
X217054209Y-84031427D01*
X216999744Y-83972262D01*
X216803509Y-83819526D01*
X216803507Y-83819525D01*
X216803506Y-83819524D01*
X216584811Y-83701172D01*
X216584802Y-83701169D01*
X216349616Y-83620429D01*
X216104335Y-83579500D01*
X215855665Y-83579500D01*
X215610383Y-83620429D01*
X215375197Y-83701169D01*
X215375188Y-83701172D01*
X215156493Y-83819524D01*
X214960257Y-83972261D01*
X214791833Y-84155217D01*
X214655826Y-84363393D01*
X214555936Y-84591118D01*
X214494892Y-84832175D01*
X214494890Y-84832187D01*
X214474357Y-85079994D01*
X214474357Y-85080005D01*
X214494890Y-85327812D01*
X214494892Y-85327825D01*
X214511098Y-85391819D01*
X214508472Y-85461640D01*
X214468516Y-85518957D01*
X214403915Y-85545573D01*
X214335179Y-85533038D01*
X214303211Y-85509940D01*
X211157772Y-82364501D01*
X211157770Y-82364499D01*
X211132320Y-82349805D01*
X211084838Y-82322391D01*
X211084837Y-82322391D01*
X211042730Y-82298081D01*
X211042731Y-82298081D01*
X211010652Y-82289485D01*
X210914419Y-82263700D01*
X210914416Y-82263700D01*
X194808533Y-82263700D01*
X194741494Y-82244015D01*
X194720852Y-82227381D01*
X193741423Y-81247952D01*
X193707938Y-81186629D01*
X193712922Y-81116937D01*
X193754794Y-81061004D01*
X193820258Y-81036587D01*
X193888531Y-81051439D01*
X193907768Y-81064417D01*
X193977550Y-81121685D01*
X194160046Y-81219232D01*
X194358066Y-81279300D01*
X194358065Y-81279300D01*
X194376529Y-81281118D01*
X194564000Y-81299583D01*
X194769934Y-81279300D01*
X194967954Y-81219232D01*
X195150450Y-81121685D01*
X195310410Y-80990410D01*
X195441685Y-80830450D01*
X195539232Y-80647954D01*
X195599300Y-80449934D01*
X195619583Y-80244000D01*
X196048417Y-80244000D01*
X196068699Y-80449932D01*
X196095293Y-80537601D01*
X196128768Y-80647954D01*
X196226315Y-80830450D01*
X196226317Y-80830452D01*
X196357589Y-80990410D01*
X196447768Y-81064417D01*
X196517550Y-81121685D01*
X196700046Y-81219232D01*
X196898066Y-81279300D01*
X196898065Y-81279300D01*
X196916529Y-81281118D01*
X197104000Y-81299583D01*
X197309934Y-81279300D01*
X197327732Y-81273900D01*
X197397597Y-81273276D01*
X197451409Y-81304880D01*
X198056330Y-81909801D01*
X198129262Y-81951908D01*
X198171370Y-81976219D01*
X198299681Y-82010600D01*
X198299682Y-82010600D01*
X198299684Y-82010600D01*
X206068316Y-82010600D01*
X206068319Y-82010600D01*
X206196630Y-81976219D01*
X206238737Y-81951908D01*
X206311670Y-81909801D01*
X206916591Y-81304878D01*
X206977912Y-81271395D01*
X207040264Y-81273899D01*
X207058066Y-81279300D01*
X207058065Y-81279300D01*
X207076529Y-81281118D01*
X207264000Y-81299583D01*
X207469934Y-81279300D01*
X207667954Y-81219232D01*
X207850450Y-81121685D01*
X208010410Y-80990410D01*
X208141685Y-80830450D01*
X208239232Y-80647954D01*
X208299300Y-80449934D01*
X208319583Y-80244000D01*
X208299300Y-80038066D01*
X208239232Y-79840046D01*
X208141685Y-79657550D01*
X208087493Y-79591517D01*
X208010410Y-79497589D01*
X207850452Y-79366317D01*
X207850453Y-79366317D01*
X207850450Y-79366315D01*
X207667954Y-79268768D01*
X207469934Y-79208700D01*
X207469932Y-79208699D01*
X207469934Y-79208699D01*
X207264000Y-79188417D01*
X207058067Y-79208699D01*
X206860043Y-79268769D01*
X206749898Y-79327643D01*
X206677550Y-79366315D01*
X206677548Y-79366316D01*
X206677547Y-79366317D01*
X206517589Y-79497589D01*
X206386317Y-79657547D01*
X206288769Y-79840043D01*
X206228699Y-80038067D01*
X206208417Y-80243999D01*
X206228699Y-80449933D01*
X206228700Y-80449936D01*
X206234099Y-80467734D01*
X206234722Y-80537601D01*
X206203119Y-80591408D01*
X205829248Y-80965281D01*
X205767925Y-80998766D01*
X205741567Y-81001600D01*
X205717085Y-81001600D01*
X205650046Y-80981915D01*
X205604291Y-80929111D01*
X205594347Y-80859953D01*
X205607727Y-80819146D01*
X205676588Y-80690317D01*
X205699232Y-80647954D01*
X205759300Y-80449934D01*
X205779583Y-80244000D01*
X205759300Y-80038066D01*
X205699232Y-79840046D01*
X205601685Y-79657550D01*
X205547493Y-79591517D01*
X205470410Y-79497589D01*
X205310452Y-79366317D01*
X205310453Y-79366317D01*
X205310450Y-79366315D01*
X205127954Y-79268768D01*
X204929934Y-79208700D01*
X204929932Y-79208699D01*
X204929934Y-79208699D01*
X204724000Y-79188417D01*
X204518067Y-79208699D01*
X204320043Y-79268769D01*
X204209898Y-79327643D01*
X204137550Y-79366315D01*
X204137548Y-79366316D01*
X204137547Y-79366317D01*
X203977589Y-79497589D01*
X203846317Y-79657547D01*
X203748769Y-79840043D01*
X203688699Y-80038067D01*
X203668417Y-80244000D01*
X203688699Y-80449932D01*
X203715293Y-80537601D01*
X203731615Y-80591409D01*
X203748769Y-80647956D01*
X203840273Y-80819146D01*
X203854515Y-80887549D01*
X203829515Y-80952793D01*
X203773210Y-80994164D01*
X203730915Y-81001600D01*
X203177085Y-81001600D01*
X203110046Y-80981915D01*
X203064291Y-80929111D01*
X203054347Y-80859953D01*
X203067727Y-80819146D01*
X203136588Y-80690317D01*
X203159232Y-80647954D01*
X203219300Y-80449934D01*
X203239583Y-80244000D01*
X203219300Y-80038066D01*
X203159232Y-79840046D01*
X203061685Y-79657550D01*
X203007493Y-79591517D01*
X202930410Y-79497589D01*
X202770452Y-79366317D01*
X202770453Y-79366317D01*
X202770450Y-79366315D01*
X202587954Y-79268768D01*
X202389934Y-79208700D01*
X202389932Y-79208699D01*
X202389934Y-79208699D01*
X202184000Y-79188417D01*
X201978067Y-79208699D01*
X201780043Y-79268769D01*
X201669898Y-79327643D01*
X201597550Y-79366315D01*
X201597548Y-79366316D01*
X201597547Y-79366317D01*
X201437589Y-79497589D01*
X201306317Y-79657547D01*
X201208769Y-79840043D01*
X201161109Y-79997158D01*
X201122811Y-80055597D01*
X201058999Y-80084053D01*
X200989932Y-80073493D01*
X200937538Y-80027269D01*
X200922673Y-79993256D01*
X200870269Y-79797682D01*
X200870265Y-79797673D01*
X200774134Y-79591517D01*
X200643657Y-79405179D01*
X200482820Y-79244342D01*
X200296482Y-79113865D01*
X200090328Y-79017734D01*
X199894000Y-78965127D01*
X199894000Y-79928314D01*
X199889606Y-79923920D01*
X199798394Y-79871259D01*
X199696661Y-79844000D01*
X199591339Y-79844000D01*
X199489606Y-79871259D01*
X199398394Y-79923920D01*
X199394000Y-79928314D01*
X199394000Y-78965127D01*
X199197671Y-79017734D01*
X198991517Y-79113865D01*
X198805179Y-79244342D01*
X198644342Y-79405179D01*
X198513865Y-79591517D01*
X198417734Y-79797673D01*
X198417731Y-79797680D01*
X198365326Y-79993257D01*
X198328961Y-80052917D01*
X198266113Y-80083446D01*
X198196738Y-80075151D01*
X198142860Y-80030666D01*
X198126892Y-79997162D01*
X198079232Y-79840046D01*
X197981685Y-79657550D01*
X197927493Y-79591517D01*
X197850410Y-79497589D01*
X197690452Y-79366317D01*
X197690453Y-79366317D01*
X197690450Y-79366315D01*
X197507954Y-79268768D01*
X197309934Y-79208700D01*
X197309932Y-79208699D01*
X197309934Y-79208699D01*
X197104000Y-79188417D01*
X196898067Y-79208699D01*
X196700043Y-79268769D01*
X196589898Y-79327643D01*
X196517550Y-79366315D01*
X196517548Y-79366316D01*
X196517547Y-79366317D01*
X196357589Y-79497589D01*
X196226317Y-79657547D01*
X196128769Y-79840043D01*
X196068699Y-80038067D01*
X196048417Y-80244000D01*
X195619583Y-80244000D01*
X195599300Y-80038066D01*
X195539232Y-79840046D01*
X195441685Y-79657550D01*
X195387493Y-79591517D01*
X195310410Y-79497589D01*
X195150452Y-79366317D01*
X195150453Y-79366317D01*
X195150450Y-79366315D01*
X194967954Y-79268768D01*
X194769934Y-79208700D01*
X194769932Y-79208699D01*
X194769934Y-79208699D01*
X194564000Y-79188417D01*
X194358067Y-79208699D01*
X194160043Y-79268769D01*
X194049898Y-79327643D01*
X193977550Y-79366315D01*
X193977548Y-79366316D01*
X193977547Y-79366317D01*
X193817589Y-79497589D01*
X193686317Y-79657547D01*
X193588769Y-79840043D01*
X193528699Y-80038067D01*
X193508417Y-80244000D01*
X193528699Y-80449932D01*
X193555293Y-80537601D01*
X193588768Y-80647954D01*
X193686315Y-80830450D01*
X193686317Y-80830452D01*
X193743582Y-80900231D01*
X193770894Y-80964541D01*
X193759103Y-81033408D01*
X193711950Y-81084968D01*
X193644408Y-81102851D01*
X193577919Y-81081378D01*
X193560047Y-81066576D01*
X193084880Y-80591409D01*
X193051395Y-80530086D01*
X193053900Y-80467732D01*
X193059300Y-80449934D01*
X193079583Y-80244000D01*
X193059300Y-80038066D01*
X192999232Y-79840046D01*
X192901685Y-79657550D01*
X192847493Y-79591517D01*
X192770410Y-79497589D01*
X192610452Y-79366317D01*
X192610453Y-79366317D01*
X192610450Y-79366315D01*
X192427954Y-79268768D01*
X192229934Y-79208700D01*
X192229932Y-79208699D01*
X192229934Y-79208699D01*
X192024000Y-79188417D01*
X191818067Y-79208699D01*
X191620043Y-79268769D01*
X191509898Y-79327643D01*
X191437550Y-79366315D01*
X191437548Y-79366316D01*
X191437547Y-79366317D01*
X191277589Y-79497589D01*
X191146317Y-79657547D01*
X191048769Y-79840043D01*
X190988699Y-80038067D01*
X190968417Y-80244000D01*
X190988699Y-80449932D01*
X191015293Y-80537601D01*
X191048768Y-80647954D01*
X191146315Y-80830450D01*
X191146317Y-80830452D01*
X191277589Y-80990410D01*
X191367768Y-81064417D01*
X191437550Y-81121685D01*
X191620046Y-81219232D01*
X191818066Y-81279300D01*
X191818065Y-81279300D01*
X191836529Y-81281118D01*
X192024000Y-81299583D01*
X192229934Y-81279300D01*
X192247732Y-81273900D01*
X192317597Y-81273276D01*
X192371409Y-81304880D01*
X194238430Y-83171901D01*
X194311362Y-83214008D01*
X194353470Y-83238319D01*
X194481781Y-83272700D01*
X194481782Y-83272700D01*
X194614619Y-83272700D01*
X210587667Y-83272700D01*
X210654706Y-83292385D01*
X210675348Y-83309019D01*
X215980033Y-88613704D01*
X216013518Y-88675027D01*
X216008534Y-88744719D01*
X215966662Y-88800652D01*
X215903160Y-88824913D01*
X215788596Y-88834936D01*
X215788586Y-88834938D01*
X215560344Y-88896094D01*
X215560335Y-88896098D01*
X215346171Y-88995964D01*
X215346169Y-88995965D01*
X215152597Y-89131505D01*
X214985505Y-89298597D01*
X214849965Y-89492169D01*
X214849964Y-89492171D01*
X214750098Y-89706335D01*
X214750094Y-89706344D01*
X214688938Y-89934586D01*
X214688936Y-89934596D01*
X214668341Y-90169999D01*
X214668341Y-90170000D01*
X214688936Y-90405403D01*
X214688938Y-90405413D01*
X214750094Y-90633655D01*
X214750096Y-90633659D01*
X214750097Y-90633663D01*
X214837819Y-90821782D01*
X214849965Y-90847830D01*
X214849967Y-90847834D01*
X214958281Y-91002521D01*
X214985505Y-91041401D01*
X215152599Y-91208495D01*
X215249384Y-91276265D01*
X215346165Y-91344032D01*
X215346167Y-91344033D01*
X215346170Y-91344035D01*
X215447904Y-91391474D01*
X215500344Y-91437646D01*
X215519500Y-91503856D01*
X215519500Y-93878966D01*
X215499815Y-93946005D01*
X215483181Y-93966647D01*
X209518484Y-99931343D01*
X209457161Y-99964828D01*
X209387469Y-99959844D01*
X209331536Y-99917972D01*
X209312143Y-99879659D01*
X209255232Y-99692046D01*
X209157685Y-99509550D01*
X209105702Y-99446209D01*
X209026410Y-99349589D01*
X208866452Y-99218317D01*
X208866453Y-99218317D01*
X208866450Y-99218315D01*
X208683954Y-99120768D01*
X208485934Y-99060700D01*
X208485932Y-99060699D01*
X208485934Y-99060699D01*
X208280000Y-99040417D01*
X208074066Y-99060699D01*
X208074063Y-99060700D01*
X208056261Y-99066100D01*
X207986394Y-99066721D01*
X207932590Y-99035119D01*
X199608772Y-90711301D01*
X199608770Y-90711299D01*
X199583320Y-90696605D01*
X199535838Y-90669191D01*
X199535837Y-90669191D01*
X199493730Y-90644881D01*
X199493731Y-90644881D01*
X199461652Y-90636285D01*
X199365419Y-90610500D01*
X199365416Y-90610500D01*
X191635333Y-90610500D01*
X191568294Y-90590815D01*
X191547652Y-90574181D01*
X189662149Y-88688678D01*
X190973500Y-88688678D01*
X190988032Y-88761735D01*
X190988033Y-88761739D01*
X190988034Y-88761740D01*
X191043399Y-88844601D01*
X191084208Y-88871868D01*
X191126260Y-88899966D01*
X191126264Y-88899967D01*
X191199321Y-88914499D01*
X191199324Y-88914500D01*
X191199326Y-88914500D01*
X192848676Y-88914500D01*
X192848677Y-88914499D01*
X192921740Y-88899966D01*
X193004601Y-88844601D01*
X193059966Y-88761740D01*
X193074500Y-88688674D01*
X193074500Y-87864000D01*
X193508417Y-87864000D01*
X193528699Y-88069932D01*
X193532353Y-88081976D01*
X193588768Y-88267954D01*
X193686315Y-88450450D01*
X193686317Y-88450452D01*
X193817589Y-88610410D01*
X193906366Y-88683266D01*
X193977550Y-88741685D01*
X194160046Y-88839232D01*
X194358066Y-88899300D01*
X194358065Y-88899300D01*
X194376529Y-88901118D01*
X194564000Y-88919583D01*
X194769934Y-88899300D01*
X194967954Y-88839232D01*
X195150450Y-88741685D01*
X195310410Y-88610410D01*
X195441685Y-88450450D01*
X195539232Y-88267954D01*
X195599300Y-88069934D01*
X195619583Y-87864000D01*
X196048417Y-87864000D01*
X196068699Y-88069932D01*
X196072353Y-88081976D01*
X196128768Y-88267954D01*
X196226315Y-88450450D01*
X196226317Y-88450452D01*
X196357589Y-88610410D01*
X196446366Y-88683266D01*
X196517550Y-88741685D01*
X196700046Y-88839232D01*
X196898066Y-88899300D01*
X196898065Y-88899300D01*
X196916529Y-88901118D01*
X197104000Y-88919583D01*
X197309934Y-88899300D01*
X197507954Y-88839232D01*
X197690450Y-88741685D01*
X197850410Y-88610410D01*
X197981685Y-88450450D01*
X198079232Y-88267954D01*
X198139300Y-88069934D01*
X198159583Y-87864000D01*
X198588417Y-87864000D01*
X198608699Y-88069932D01*
X198612353Y-88081976D01*
X198668768Y-88267954D01*
X198766315Y-88450450D01*
X198766317Y-88450452D01*
X198897589Y-88610410D01*
X198986366Y-88683266D01*
X199057550Y-88741685D01*
X199240046Y-88839232D01*
X199438066Y-88899300D01*
X199438065Y-88899300D01*
X199456529Y-88901118D01*
X199644000Y-88919583D01*
X199849934Y-88899300D01*
X200047954Y-88839232D01*
X200230450Y-88741685D01*
X200390410Y-88610410D01*
X200521685Y-88450450D01*
X200619232Y-88267954D01*
X200679300Y-88069934D01*
X200699583Y-87864000D01*
X201128417Y-87864000D01*
X201148699Y-88069932D01*
X201152353Y-88081976D01*
X201208768Y-88267954D01*
X201306315Y-88450450D01*
X201306317Y-88450452D01*
X201437589Y-88610410D01*
X201526366Y-88683266D01*
X201597550Y-88741685D01*
X201780046Y-88839232D01*
X201978066Y-88899300D01*
X201978065Y-88899300D01*
X201996529Y-88901118D01*
X202184000Y-88919583D01*
X202389934Y-88899300D01*
X202587954Y-88839232D01*
X202770450Y-88741685D01*
X202930410Y-88610410D01*
X203061685Y-88450450D01*
X203159232Y-88267954D01*
X203219300Y-88069934D01*
X203239583Y-87864000D01*
X203668417Y-87864000D01*
X203688699Y-88069932D01*
X203692353Y-88081976D01*
X203748768Y-88267954D01*
X203846315Y-88450450D01*
X203846317Y-88450452D01*
X203977589Y-88610410D01*
X204066366Y-88683266D01*
X204137550Y-88741685D01*
X204320046Y-88839232D01*
X204518066Y-88899300D01*
X204518065Y-88899300D01*
X204536529Y-88901118D01*
X204724000Y-88919583D01*
X204929934Y-88899300D01*
X205127954Y-88839232D01*
X205310450Y-88741685D01*
X205470410Y-88610410D01*
X205601685Y-88450450D01*
X205699232Y-88267954D01*
X205759300Y-88069934D01*
X205779583Y-87864000D01*
X206208417Y-87864000D01*
X206228699Y-88069932D01*
X206232353Y-88081976D01*
X206288768Y-88267954D01*
X206386315Y-88450450D01*
X206386317Y-88450452D01*
X206517589Y-88610410D01*
X206606366Y-88683266D01*
X206677550Y-88741685D01*
X206860046Y-88839232D01*
X207058066Y-88899300D01*
X207058065Y-88899300D01*
X207076529Y-88901118D01*
X207264000Y-88919583D01*
X207469934Y-88899300D01*
X207667954Y-88839232D01*
X207850450Y-88741685D01*
X208010410Y-88610410D01*
X208141685Y-88450450D01*
X208239232Y-88267954D01*
X208299300Y-88069934D01*
X208319583Y-87864000D01*
X208299300Y-87658066D01*
X208239232Y-87460046D01*
X208141685Y-87277550D01*
X208089702Y-87214209D01*
X208010410Y-87117589D01*
X207850452Y-86986317D01*
X207850453Y-86986317D01*
X207850450Y-86986315D01*
X207667954Y-86888768D01*
X207469934Y-86828700D01*
X207469932Y-86828699D01*
X207469934Y-86828699D01*
X207264000Y-86808417D01*
X207058067Y-86828699D01*
X206860043Y-86888769D01*
X206749898Y-86947643D01*
X206677550Y-86986315D01*
X206677548Y-86986316D01*
X206677547Y-86986317D01*
X206517589Y-87117589D01*
X206386317Y-87277547D01*
X206288769Y-87460043D01*
X206228699Y-87658067D01*
X206208417Y-87864000D01*
X205779583Y-87864000D01*
X205759300Y-87658066D01*
X205699232Y-87460046D01*
X205601685Y-87277550D01*
X205549702Y-87214209D01*
X205470410Y-87117589D01*
X205310452Y-86986317D01*
X205310453Y-86986317D01*
X205310450Y-86986315D01*
X205127954Y-86888768D01*
X204929934Y-86828700D01*
X204929932Y-86828699D01*
X204929934Y-86828699D01*
X204724000Y-86808417D01*
X204518067Y-86828699D01*
X204320043Y-86888769D01*
X204209898Y-86947643D01*
X204137550Y-86986315D01*
X204137548Y-86986316D01*
X204137547Y-86986317D01*
X203977589Y-87117589D01*
X203846317Y-87277547D01*
X203748769Y-87460043D01*
X203688699Y-87658067D01*
X203668417Y-87864000D01*
X203239583Y-87864000D01*
X203219300Y-87658066D01*
X203159232Y-87460046D01*
X203061685Y-87277550D01*
X203009702Y-87214209D01*
X202930410Y-87117589D01*
X202770452Y-86986317D01*
X202770453Y-86986317D01*
X202770450Y-86986315D01*
X202587954Y-86888768D01*
X202389934Y-86828700D01*
X202389932Y-86828699D01*
X202389934Y-86828699D01*
X202184000Y-86808417D01*
X201978067Y-86828699D01*
X201780043Y-86888769D01*
X201669898Y-86947643D01*
X201597550Y-86986315D01*
X201597548Y-86986316D01*
X201597547Y-86986317D01*
X201437589Y-87117589D01*
X201306317Y-87277547D01*
X201208769Y-87460043D01*
X201148699Y-87658067D01*
X201128417Y-87864000D01*
X200699583Y-87864000D01*
X200679300Y-87658066D01*
X200619232Y-87460046D01*
X200521685Y-87277550D01*
X200469702Y-87214209D01*
X200390410Y-87117589D01*
X200230452Y-86986317D01*
X200230453Y-86986317D01*
X200230450Y-86986315D01*
X200047954Y-86888768D01*
X199849934Y-86828700D01*
X199849932Y-86828699D01*
X199849934Y-86828699D01*
X199644000Y-86808417D01*
X199438067Y-86828699D01*
X199240043Y-86888769D01*
X199129898Y-86947643D01*
X199057550Y-86986315D01*
X199057548Y-86986316D01*
X199057547Y-86986317D01*
X198897589Y-87117589D01*
X198766317Y-87277547D01*
X198668769Y-87460043D01*
X198608699Y-87658067D01*
X198588417Y-87864000D01*
X198159583Y-87864000D01*
X198139300Y-87658066D01*
X198079232Y-87460046D01*
X197981685Y-87277550D01*
X197929702Y-87214209D01*
X197850410Y-87117589D01*
X197690452Y-86986317D01*
X197690453Y-86986317D01*
X197690450Y-86986315D01*
X197507954Y-86888768D01*
X197309934Y-86828700D01*
X197309932Y-86828699D01*
X197309934Y-86828699D01*
X197104000Y-86808417D01*
X196898067Y-86828699D01*
X196700043Y-86888769D01*
X196589898Y-86947643D01*
X196517550Y-86986315D01*
X196517548Y-86986316D01*
X196517547Y-86986317D01*
X196357589Y-87117589D01*
X196226317Y-87277547D01*
X196128769Y-87460043D01*
X196068699Y-87658067D01*
X196048417Y-87864000D01*
X195619583Y-87864000D01*
X195599300Y-87658066D01*
X195539232Y-87460046D01*
X195441685Y-87277550D01*
X195389702Y-87214209D01*
X195310410Y-87117589D01*
X195150452Y-86986317D01*
X195150453Y-86986317D01*
X195150450Y-86986315D01*
X194967954Y-86888768D01*
X194769934Y-86828700D01*
X194769932Y-86828699D01*
X194769934Y-86828699D01*
X194564000Y-86808417D01*
X194358067Y-86828699D01*
X194160043Y-86888769D01*
X194049898Y-86947643D01*
X193977550Y-86986315D01*
X193977548Y-86986316D01*
X193977547Y-86986317D01*
X193817589Y-87117589D01*
X193686317Y-87277547D01*
X193588769Y-87460043D01*
X193528699Y-87658067D01*
X193508417Y-87864000D01*
X193074500Y-87864000D01*
X193074500Y-87039326D01*
X193074500Y-87039323D01*
X193074499Y-87039321D01*
X193059967Y-86966264D01*
X193059966Y-86966260D01*
X193004601Y-86883399D01*
X192949235Y-86846405D01*
X192921739Y-86828033D01*
X192921735Y-86828032D01*
X192848677Y-86813500D01*
X192848674Y-86813500D01*
X191199326Y-86813500D01*
X191199323Y-86813500D01*
X191126264Y-86828032D01*
X191126260Y-86828033D01*
X191043399Y-86883399D01*
X190988033Y-86966260D01*
X190988032Y-86966264D01*
X190973500Y-87039321D01*
X190973500Y-88688678D01*
X189662149Y-88688678D01*
X186756370Y-85782899D01*
X186722885Y-85721576D01*
X186727869Y-85651884D01*
X186730495Y-85645407D01*
X186733257Y-85639111D01*
X186764063Y-85568881D01*
X186825108Y-85327821D01*
X186835600Y-85201205D01*
X186845643Y-85080005D01*
X186845643Y-85079994D01*
X186825109Y-84832187D01*
X186825107Y-84832175D01*
X186764063Y-84591118D01*
X186664173Y-84363393D01*
X186528166Y-84155217D01*
X186414209Y-84031427D01*
X186359744Y-83972262D01*
X186163509Y-83819526D01*
X186163507Y-83819525D01*
X186163506Y-83819524D01*
X185944811Y-83701172D01*
X185944802Y-83701169D01*
X185709616Y-83620429D01*
X185464335Y-83579500D01*
X185376832Y-83579500D01*
X185309793Y-83559815D01*
X185264038Y-83507011D01*
X185254094Y-83437853D01*
X185283119Y-83374297D01*
X185289151Y-83367819D01*
X188601374Y-80055597D01*
X192089352Y-76567619D01*
X192150675Y-76534134D01*
X192177033Y-76531300D01*
X196295581Y-76531300D01*
X196343029Y-76540737D01*
X196397091Y-76563130D01*
X196492897Y-76575743D01*
X196540799Y-76582050D01*
X196540800Y-76582050D01*
X196540801Y-76582050D01*
X196555777Y-76580078D01*
X196684509Y-76563130D01*
X196818425Y-76507661D01*
X196933421Y-76419421D01*
X197021661Y-76304425D01*
X197077130Y-76170509D01*
X197096050Y-76026800D01*
X197077130Y-75883091D01*
X197021661Y-75749175D01*
X196933421Y-75634179D01*
X196818425Y-75545939D01*
X196818424Y-75545938D01*
X196818422Y-75545937D01*
X196684512Y-75490471D01*
X196684510Y-75490470D01*
X196684509Y-75490470D01*
X196612654Y-75481010D01*
X196540801Y-75471550D01*
X196540799Y-75471550D01*
X196397093Y-75490469D01*
X196383073Y-75496275D01*
X196343029Y-75512862D01*
X196295581Y-75522300D01*
X191850281Y-75522300D01*
X191773294Y-75542928D01*
X191721968Y-75556681D01*
X191721967Y-75556682D01*
X191606933Y-75623096D01*
X191606928Y-75623100D01*
X182057324Y-85172704D01*
X181996001Y-85206189D01*
X181926309Y-85201205D01*
X181870376Y-85159333D01*
X181845959Y-85093869D01*
X181845643Y-85085023D01*
X181845643Y-85079994D01*
X181825109Y-84832187D01*
X181825107Y-84832175D01*
X181764063Y-84591118D01*
X181664173Y-84363393D01*
X181528166Y-84155217D01*
X181414209Y-84031427D01*
X181359744Y-83972262D01*
X181163509Y-83819526D01*
X181163507Y-83819525D01*
X181163506Y-83819524D01*
X180944811Y-83701172D01*
X180944802Y-83701169D01*
X180709616Y-83620429D01*
X180464335Y-83579500D01*
X180215665Y-83579500D01*
X179970383Y-83620429D01*
X179735197Y-83701169D01*
X179735188Y-83701172D01*
X179516493Y-83819524D01*
X179320257Y-83972261D01*
X179151833Y-84155217D01*
X179015826Y-84363393D01*
X178915936Y-84591118D01*
X178854892Y-84832175D01*
X178854890Y-84832187D01*
X178834357Y-85079994D01*
X178834357Y-85080005D01*
X178854890Y-85327812D01*
X178854892Y-85327824D01*
X178915936Y-85568881D01*
X179015826Y-85796606D01*
X179151833Y-86004782D01*
X179151836Y-86004785D01*
X179320256Y-86187738D01*
X179516491Y-86340474D01*
X179735190Y-86458828D01*
X179970386Y-86539571D01*
X180215665Y-86580500D01*
X180350166Y-86580500D01*
X180417205Y-86600185D01*
X180462960Y-86652989D01*
X180472904Y-86722147D01*
X180443879Y-86785703D01*
X180437847Y-86792181D01*
X179201902Y-88028125D01*
X179140579Y-88061610D01*
X179102072Y-88063847D01*
X179090005Y-88062659D01*
X179090000Y-88062659D01*
X178893870Y-88081975D01*
X178705266Y-88139188D01*
X178531467Y-88232086D01*
X178531460Y-88232090D01*
X178379116Y-88357116D01*
X178254090Y-88509460D01*
X178254086Y-88509467D01*
X178161188Y-88683266D01*
X178103975Y-88871870D01*
X178084659Y-89068000D01*
X172085000Y-89068000D01*
X172085000Y-85080004D01*
X173585093Y-85080004D01*
X173604692Y-85341545D01*
X173604693Y-85341550D01*
X173663058Y-85597270D01*
X173758883Y-85841426D01*
X173758882Y-85841426D01*
X173890027Y-86068573D01*
X173937874Y-86128571D01*
X174775387Y-85291059D01*
X174780889Y-85311591D01*
X174859881Y-85448408D01*
X174971592Y-85560119D01*
X175108409Y-85639111D01*
X175128940Y-85644612D01*
X174290830Y-86482720D01*
X174462546Y-86599793D01*
X174462550Y-86599795D01*
X174698854Y-86713594D01*
X174698858Y-86713595D01*
X174949494Y-86790907D01*
X174949500Y-86790909D01*
X175208848Y-86829999D01*
X175208857Y-86830000D01*
X175471143Y-86830000D01*
X175471151Y-86829999D01*
X175730499Y-86790909D01*
X175730505Y-86790907D01*
X175981143Y-86713595D01*
X176217445Y-86599798D01*
X176217447Y-86599797D01*
X176389168Y-86482720D01*
X175551059Y-85644612D01*
X175571591Y-85639111D01*
X175708408Y-85560119D01*
X175820119Y-85448408D01*
X175899111Y-85311591D01*
X175904612Y-85291059D01*
X176742125Y-86128572D01*
X176789971Y-86068573D01*
X176921116Y-85841426D01*
X177016941Y-85597270D01*
X177075306Y-85341550D01*
X177075307Y-85341545D01*
X177094907Y-85080004D01*
X177094907Y-85079995D01*
X177075307Y-84818454D01*
X177075306Y-84818449D01*
X177016941Y-84562729D01*
X176921116Y-84318573D01*
X176921117Y-84318573D01*
X176789972Y-84091426D01*
X176742124Y-84031427D01*
X175904612Y-84868939D01*
X175899111Y-84848409D01*
X175820119Y-84711592D01*
X175708408Y-84599881D01*
X175571591Y-84520889D01*
X175551059Y-84515387D01*
X176389168Y-83677278D01*
X176217454Y-83560206D01*
X176217445Y-83560201D01*
X175981142Y-83446404D01*
X175981144Y-83446404D01*
X175730505Y-83369092D01*
X175730499Y-83369090D01*
X175471151Y-83330000D01*
X175208848Y-83330000D01*
X174949500Y-83369090D01*
X174949494Y-83369092D01*
X174698858Y-83446404D01*
X174698854Y-83446405D01*
X174462547Y-83560205D01*
X174462539Y-83560210D01*
X174290830Y-83677277D01*
X175128940Y-84515387D01*
X175108409Y-84520889D01*
X174971592Y-84599881D01*
X174859881Y-84711592D01*
X174780889Y-84848409D01*
X174775387Y-84868939D01*
X173937875Y-84031427D01*
X173937874Y-84031427D01*
X173890028Y-84091425D01*
X173758883Y-84318573D01*
X173663058Y-84562729D01*
X173604693Y-84818449D01*
X173604692Y-84818454D01*
X173585093Y-85079995D01*
X173585093Y-85080004D01*
X172085000Y-85080004D01*
X172085000Y-73871900D01*
X202452950Y-73871900D01*
X202471870Y-74015608D01*
X202471871Y-74015612D01*
X202527337Y-74149522D01*
X202527338Y-74149524D01*
X202527339Y-74149525D01*
X202615579Y-74264521D01*
X202730575Y-74352761D01*
X202864491Y-74408230D01*
X202991480Y-74424948D01*
X203008199Y-74427150D01*
X203008200Y-74427150D01*
X203008201Y-74427150D01*
X203044127Y-74422420D01*
X203151909Y-74408230D01*
X203205970Y-74385837D01*
X203253419Y-74376400D01*
X209511567Y-74376400D01*
X209578606Y-74396085D01*
X209599248Y-74412719D01*
X219563629Y-84377100D01*
X219597114Y-84438423D01*
X219592130Y-84508115D01*
X219589505Y-84514589D01*
X219555936Y-84591121D01*
X219494892Y-84832175D01*
X219494890Y-84832187D01*
X219474357Y-85079994D01*
X219474357Y-85080005D01*
X219494890Y-85327812D01*
X219494892Y-85327824D01*
X219555936Y-85568881D01*
X219655826Y-85796606D01*
X219791833Y-86004782D01*
X219791836Y-86004785D01*
X219960256Y-86187738D01*
X220156491Y-86340474D01*
X220375190Y-86458828D01*
X220610386Y-86539571D01*
X220855665Y-86580500D01*
X221104335Y-86580500D01*
X221349614Y-86539571D01*
X221584810Y-86458828D01*
X221803509Y-86340474D01*
X221999744Y-86187738D01*
X222168164Y-86004785D01*
X222304173Y-85796607D01*
X222404063Y-85568881D01*
X222465108Y-85327821D01*
X222475600Y-85201205D01*
X222485643Y-85080005D01*
X224474357Y-85080005D01*
X224494890Y-85327812D01*
X224494892Y-85327824D01*
X224555936Y-85568881D01*
X224655826Y-85796606D01*
X224791833Y-86004782D01*
X224791836Y-86004785D01*
X224960256Y-86187738D01*
X225156491Y-86340474D01*
X225375190Y-86458828D01*
X225610386Y-86539571D01*
X225855665Y-86580500D01*
X226104335Y-86580500D01*
X226349614Y-86539571D01*
X226584810Y-86458828D01*
X226803509Y-86340474D01*
X226999744Y-86187738D01*
X227168164Y-86004785D01*
X227304173Y-85796607D01*
X227404063Y-85568881D01*
X227465108Y-85327821D01*
X227475600Y-85201205D01*
X227485643Y-85080005D01*
X227485643Y-85079994D01*
X227465109Y-84832187D01*
X227465107Y-84832175D01*
X227404063Y-84591118D01*
X227304173Y-84363393D01*
X227168166Y-84155217D01*
X227054209Y-84031427D01*
X226999744Y-83972262D01*
X226803509Y-83819526D01*
X226803507Y-83819525D01*
X226803506Y-83819524D01*
X226584811Y-83701172D01*
X226584802Y-83701169D01*
X226349616Y-83620429D01*
X226104335Y-83579500D01*
X225855665Y-83579500D01*
X225610383Y-83620429D01*
X225375197Y-83701169D01*
X225375188Y-83701172D01*
X225156493Y-83819524D01*
X224960257Y-83972261D01*
X224791833Y-84155217D01*
X224655826Y-84363393D01*
X224555936Y-84591118D01*
X224494892Y-84832175D01*
X224494890Y-84832187D01*
X224474357Y-85079994D01*
X224474357Y-85080005D01*
X222485643Y-85080005D01*
X222485643Y-85079994D01*
X222465109Y-84832187D01*
X222465107Y-84832175D01*
X222404063Y-84591118D01*
X222304173Y-84363393D01*
X222168166Y-84155217D01*
X222054209Y-84031427D01*
X221999744Y-83972262D01*
X221803509Y-83819526D01*
X221803507Y-83819525D01*
X221803506Y-83819524D01*
X221584811Y-83701172D01*
X221584802Y-83701169D01*
X221349616Y-83620429D01*
X221104335Y-83579500D01*
X220855665Y-83579500D01*
X220610383Y-83620429D01*
X220403327Y-83691512D01*
X220333528Y-83694662D01*
X220275383Y-83661912D01*
X210081672Y-73468201D01*
X210081670Y-73468199D01*
X210056220Y-73453505D01*
X210008738Y-73426091D01*
X210008737Y-73426091D01*
X209966630Y-73401781D01*
X209966631Y-73401781D01*
X209934552Y-73393185D01*
X209838319Y-73367400D01*
X209838316Y-73367400D01*
X203253419Y-73367400D01*
X203205970Y-73357962D01*
X203151909Y-73335570D01*
X203151908Y-73335569D01*
X203151906Y-73335569D01*
X203008201Y-73316650D01*
X203008199Y-73316650D01*
X202864491Y-73335570D01*
X202864487Y-73335571D01*
X202730577Y-73391037D01*
X202615579Y-73479279D01*
X202527337Y-73594277D01*
X202471871Y-73728187D01*
X202471870Y-73728191D01*
X202452950Y-73871899D01*
X202452950Y-73871900D01*
X172085000Y-73871900D01*
X172085000Y-68657300D01*
X189327117Y-68657300D01*
X189347399Y-68863232D01*
X189347400Y-68863234D01*
X189407468Y-69061254D01*
X189505015Y-69243750D01*
X189508465Y-69247954D01*
X189636289Y-69403710D01*
X189684532Y-69443301D01*
X189796250Y-69534985D01*
X189978746Y-69632532D01*
X190176766Y-69692600D01*
X190176765Y-69692600D01*
X190195229Y-69694418D01*
X190382700Y-69712883D01*
X190588634Y-69692600D01*
X190786654Y-69632532D01*
X190969150Y-69534985D01*
X191129110Y-69403710D01*
X191260385Y-69243750D01*
X191357932Y-69061254D01*
X191418000Y-68863234D01*
X191438283Y-68657300D01*
X191418000Y-68451366D01*
X191357932Y-68253346D01*
X191260385Y-68070850D01*
X191196152Y-67992581D01*
X191129110Y-67910889D01*
X190969152Y-67779617D01*
X190969153Y-67779617D01*
X190969150Y-67779615D01*
X190786654Y-67682068D01*
X190588634Y-67622000D01*
X190588632Y-67621999D01*
X190588634Y-67621999D01*
X190382700Y-67601717D01*
X190176767Y-67621999D01*
X189978743Y-67682069D01*
X189868598Y-67740943D01*
X189796250Y-67779615D01*
X189796248Y-67779616D01*
X189796247Y-67779617D01*
X189636289Y-67910889D01*
X189505017Y-68070847D01*
X189407469Y-68253343D01*
X189347399Y-68451367D01*
X189327117Y-68657300D01*
X172085000Y-68657300D01*
X172085000Y-66981978D01*
X189332200Y-66981978D01*
X189346732Y-67055035D01*
X189346733Y-67055039D01*
X189346734Y-67055040D01*
X189402099Y-67137901D01*
X189458847Y-67175818D01*
X189484960Y-67193266D01*
X189484964Y-67193267D01*
X189558021Y-67207799D01*
X189558024Y-67207800D01*
X189558026Y-67207800D01*
X191207376Y-67207800D01*
X191207377Y-67207799D01*
X191280440Y-67193266D01*
X191363301Y-67137901D01*
X191418666Y-67055040D01*
X191433200Y-66981974D01*
X191433200Y-66785800D01*
X191452885Y-66718761D01*
X191505689Y-66673006D01*
X191557200Y-66661800D01*
X192651116Y-66661800D01*
X192651119Y-66661800D01*
X192779430Y-66627419D01*
X192821537Y-66603108D01*
X192894470Y-66561001D01*
X193492769Y-65962702D01*
X208127734Y-65962702D01*
X208147558Y-66189299D01*
X208147560Y-66189310D01*
X208206430Y-66409017D01*
X208206435Y-66409031D01*
X208302563Y-66615178D01*
X208353674Y-66688172D01*
X209032700Y-66009146D01*
X209032700Y-66015361D01*
X209059959Y-66117094D01*
X209112620Y-66208306D01*
X209187094Y-66282780D01*
X209278306Y-66335441D01*
X209380039Y-66362700D01*
X209386253Y-66362700D01*
X208707226Y-67041725D01*
X208780213Y-67092832D01*
X208780217Y-67092834D01*
X208958177Y-67175818D01*
X209010616Y-67221990D01*
X209029768Y-67289184D01*
X209009552Y-67356065D01*
X208956387Y-67401399D01*
X208905772Y-67412200D01*
X208608023Y-67412200D01*
X208534964Y-67426732D01*
X208534960Y-67426733D01*
X208452099Y-67482099D01*
X208396733Y-67564960D01*
X208396732Y-67564964D01*
X208382200Y-67638021D01*
X208382200Y-69287378D01*
X208396732Y-69360435D01*
X208396733Y-69360439D01*
X208396734Y-69360440D01*
X208452099Y-69443301D01*
X208534960Y-69498666D01*
X208534964Y-69498667D01*
X208608021Y-69513199D01*
X208608024Y-69513200D01*
X208608026Y-69513200D01*
X210257376Y-69513200D01*
X210257377Y-69513199D01*
X210330440Y-69498666D01*
X210413301Y-69443301D01*
X210468666Y-69360440D01*
X210483200Y-69287374D01*
X210483200Y-69091200D01*
X210502885Y-69024161D01*
X210555689Y-68978406D01*
X210607200Y-68967200D01*
X215230367Y-68967200D01*
X215297406Y-68986885D01*
X215318048Y-69003519D01*
X215562230Y-69247701D01*
X215623026Y-69282801D01*
X215677270Y-69314119D01*
X215805581Y-69348500D01*
X215805582Y-69348500D01*
X215938419Y-69348500D01*
X216184189Y-69348500D01*
X216251228Y-69368185D01*
X216293546Y-69414045D01*
X216302315Y-69430451D01*
X216433589Y-69590410D01*
X216484916Y-69632532D01*
X216593550Y-69721685D01*
X216776046Y-69819232D01*
X216933160Y-69866891D01*
X216991597Y-69905187D01*
X217020053Y-69968999D01*
X217009493Y-70038067D01*
X216963269Y-70090460D01*
X216929257Y-70105326D01*
X216733680Y-70157731D01*
X216733673Y-70157734D01*
X216527517Y-70253865D01*
X216341179Y-70384342D01*
X216180342Y-70545179D01*
X216049865Y-70731517D01*
X215953734Y-70937673D01*
X215953730Y-70937682D01*
X215901127Y-71133999D01*
X215901128Y-71134000D01*
X216864314Y-71134000D01*
X216859920Y-71138394D01*
X216807259Y-71229606D01*
X216780000Y-71331339D01*
X216780000Y-71436661D01*
X216807259Y-71538394D01*
X216859920Y-71629606D01*
X216864314Y-71634000D01*
X215901128Y-71634000D01*
X215953730Y-71830317D01*
X215953734Y-71830326D01*
X216049865Y-72036482D01*
X216180342Y-72222820D01*
X216341179Y-72383657D01*
X216527517Y-72514134D01*
X216733673Y-72610265D01*
X216733682Y-72610269D01*
X216929999Y-72662872D01*
X216930000Y-72662871D01*
X216930000Y-71699686D01*
X216934394Y-71704080D01*
X217025606Y-71756741D01*
X217127339Y-71784000D01*
X217232661Y-71784000D01*
X217334394Y-71756741D01*
X217425606Y-71704080D01*
X217430000Y-71699686D01*
X217430000Y-72662872D01*
X217626317Y-72610269D01*
X217626326Y-72610265D01*
X217832482Y-72514134D01*
X218018820Y-72383657D01*
X218179657Y-72222820D01*
X218310134Y-72036482D01*
X218406265Y-71830326D01*
X218406269Y-71830317D01*
X218458872Y-71634000D01*
X217495686Y-71634000D01*
X217500080Y-71629606D01*
X217552741Y-71538394D01*
X217580000Y-71436661D01*
X217580000Y-71331339D01*
X217552741Y-71229606D01*
X217500080Y-71138394D01*
X217495686Y-71134000D01*
X218458872Y-71134000D01*
X218458872Y-71133999D01*
X223521127Y-71133999D01*
X223521128Y-71134000D01*
X224484314Y-71134000D01*
X224479920Y-71138394D01*
X224427259Y-71229606D01*
X224400000Y-71331339D01*
X224400000Y-71436661D01*
X224427259Y-71538394D01*
X224479920Y-71629606D01*
X224484314Y-71634000D01*
X223521128Y-71634000D01*
X223573730Y-71830317D01*
X223573734Y-71830326D01*
X223669865Y-72036482D01*
X223800342Y-72222820D01*
X223961179Y-72383657D01*
X224147517Y-72514134D01*
X224353673Y-72610265D01*
X224353682Y-72610269D01*
X224549999Y-72662872D01*
X224550000Y-72662871D01*
X224550000Y-71699686D01*
X224554394Y-71704080D01*
X224645606Y-71756741D01*
X224747339Y-71784000D01*
X224852661Y-71784000D01*
X224954394Y-71756741D01*
X225045606Y-71704080D01*
X225050000Y-71699686D01*
X225050000Y-72662872D01*
X225246317Y-72610269D01*
X225246326Y-72610265D01*
X225452482Y-72514134D01*
X225638820Y-72383657D01*
X225799657Y-72222820D01*
X225930134Y-72036482D01*
X226026265Y-71830326D01*
X226026269Y-71830317D01*
X226078872Y-71634000D01*
X225115686Y-71634000D01*
X225120080Y-71629606D01*
X225172741Y-71538394D01*
X225200000Y-71436661D01*
X225200000Y-71331339D01*
X225172741Y-71229606D01*
X225120080Y-71138394D01*
X225115686Y-71134000D01*
X226078872Y-71134000D01*
X226078872Y-71133999D01*
X226026269Y-70937682D01*
X226026265Y-70937673D01*
X225930134Y-70731517D01*
X225799657Y-70545179D01*
X225638820Y-70384342D01*
X225452482Y-70253865D01*
X225246326Y-70157734D01*
X225246319Y-70157731D01*
X225050742Y-70105326D01*
X224991082Y-70068961D01*
X224960553Y-70006114D01*
X224968848Y-69936738D01*
X225013333Y-69882860D01*
X225046837Y-69866892D01*
X225203954Y-69819232D01*
X225386450Y-69721685D01*
X225546410Y-69590410D01*
X225677685Y-69430450D01*
X225775232Y-69247954D01*
X225835300Y-69049934D01*
X225855583Y-68844000D01*
X225835300Y-68638066D01*
X225775232Y-68440046D01*
X225677685Y-68257550D01*
X225625702Y-68194209D01*
X225546410Y-68097589D01*
X225386452Y-67966317D01*
X225386453Y-67966317D01*
X225386450Y-67966315D01*
X225203954Y-67868768D01*
X225005934Y-67808700D01*
X225005932Y-67808699D01*
X225005934Y-67808699D01*
X224800000Y-67788417D01*
X224594067Y-67808699D01*
X224396043Y-67868769D01*
X224317244Y-67910889D01*
X224213550Y-67966315D01*
X224213548Y-67966316D01*
X224213547Y-67966317D01*
X224053589Y-68097589D01*
X223922317Y-68257547D01*
X223922316Y-68257548D01*
X223922315Y-68257550D01*
X223897925Y-68303181D01*
X223824769Y-68440043D01*
X223764699Y-68638067D01*
X223744417Y-68844000D01*
X223764699Y-69049932D01*
X223768134Y-69061256D01*
X223824768Y-69247954D01*
X223922315Y-69430450D01*
X223956969Y-69472677D01*
X224053589Y-69590410D01*
X224104916Y-69632532D01*
X224213550Y-69721685D01*
X224396046Y-69819232D01*
X224553160Y-69866891D01*
X224611597Y-69905187D01*
X224640053Y-69968999D01*
X224629493Y-70038067D01*
X224583269Y-70090460D01*
X224549257Y-70105326D01*
X224353680Y-70157731D01*
X224353673Y-70157734D01*
X224147517Y-70253865D01*
X223961179Y-70384342D01*
X223800342Y-70545179D01*
X223669865Y-70731517D01*
X223573734Y-70937673D01*
X223573730Y-70937682D01*
X223521127Y-71133999D01*
X218458872Y-71133999D01*
X218406269Y-70937682D01*
X218406265Y-70937673D01*
X218310134Y-70731517D01*
X218179657Y-70545179D01*
X218018820Y-70384342D01*
X217832482Y-70253865D01*
X217626326Y-70157734D01*
X217626319Y-70157731D01*
X217430742Y-70105326D01*
X217371082Y-70068961D01*
X217340553Y-70006114D01*
X217348848Y-69936738D01*
X217393333Y-69882860D01*
X217426837Y-69866892D01*
X217583954Y-69819232D01*
X217766450Y-69721685D01*
X217926410Y-69590410D01*
X218057685Y-69430450D01*
X218155232Y-69247954D01*
X218215300Y-69049934D01*
X218235583Y-68844000D01*
X218215300Y-68638066D01*
X218155232Y-68440046D01*
X218057685Y-68257550D01*
X218005702Y-68194209D01*
X217926410Y-68097589D01*
X217766452Y-67966317D01*
X217766453Y-67966317D01*
X217766450Y-67966315D01*
X217583954Y-67868768D01*
X217385934Y-67808700D01*
X217385932Y-67808699D01*
X217385934Y-67808699D01*
X217180000Y-67788417D01*
X216974067Y-67808699D01*
X216776043Y-67868769D01*
X216697244Y-67910889D01*
X216593550Y-67966315D01*
X216593548Y-67966316D01*
X216593547Y-67966317D01*
X216433589Y-68097589D01*
X216302315Y-68257548D01*
X216293546Y-68273955D01*
X216244583Y-68323799D01*
X216184189Y-68339500D01*
X216132333Y-68339500D01*
X216065294Y-68319815D01*
X216044652Y-68303181D01*
X215800472Y-68059001D01*
X215800470Y-68058999D01*
X215775020Y-68044305D01*
X215727538Y-68016891D01*
X215727537Y-68016891D01*
X215685430Y-67992581D01*
X215685431Y-67992581D01*
X215653352Y-67983985D01*
X215557119Y-67958200D01*
X215557116Y-67958200D01*
X210607200Y-67958200D01*
X210540161Y-67938515D01*
X210494406Y-67885711D01*
X210483200Y-67834200D01*
X210483200Y-67638023D01*
X210483199Y-67638021D01*
X210468667Y-67564964D01*
X210468666Y-67564960D01*
X210413301Y-67482099D01*
X210330440Y-67426734D01*
X210330439Y-67426733D01*
X210330435Y-67426732D01*
X210257377Y-67412200D01*
X210257374Y-67412200D01*
X209959628Y-67412200D01*
X209892589Y-67392515D01*
X209846834Y-67339711D01*
X209836890Y-67270553D01*
X209865915Y-67206997D01*
X209907223Y-67175818D01*
X210085180Y-67092835D01*
X210158171Y-67041724D01*
X209479147Y-66362700D01*
X209485361Y-66362700D01*
X209587094Y-66335441D01*
X209678306Y-66282780D01*
X209752780Y-66208306D01*
X209805441Y-66117094D01*
X209832700Y-66015361D01*
X209832700Y-66009147D01*
X210511724Y-66688171D01*
X210562836Y-66615178D01*
X210658964Y-66409031D01*
X210658969Y-66409017D01*
X210687108Y-66304000D01*
X216124417Y-66304000D01*
X216144699Y-66509932D01*
X216174734Y-66608944D01*
X216204768Y-66707954D01*
X216302315Y-66890450D01*
X216302317Y-66890452D01*
X216433589Y-67050410D01*
X216485284Y-67092834D01*
X216593550Y-67181685D01*
X216776046Y-67279232D01*
X216974066Y-67339300D01*
X216974065Y-67339300D01*
X216992529Y-67341118D01*
X217180000Y-67359583D01*
X217385934Y-67339300D01*
X217583954Y-67279232D01*
X217766450Y-67181685D01*
X217926410Y-67050410D01*
X218057685Y-66890450D01*
X218155232Y-66707954D01*
X218215300Y-66509934D01*
X218235583Y-66304000D01*
X223744417Y-66304000D01*
X223764699Y-66509932D01*
X223794734Y-66608944D01*
X223824768Y-66707954D01*
X223922315Y-66890450D01*
X223922317Y-66890452D01*
X224053589Y-67050410D01*
X224105284Y-67092834D01*
X224213550Y-67181685D01*
X224396046Y-67279232D01*
X224594066Y-67339300D01*
X224594065Y-67339300D01*
X224612529Y-67341118D01*
X224800000Y-67359583D01*
X225005934Y-67339300D01*
X225203954Y-67279232D01*
X225386450Y-67181685D01*
X225546410Y-67050410D01*
X225677685Y-66890450D01*
X225775232Y-66707954D01*
X225835300Y-66509934D01*
X225855583Y-66304000D01*
X225835300Y-66098066D01*
X225775232Y-65900046D01*
X225677685Y-65717550D01*
X225616192Y-65642620D01*
X225546410Y-65557589D01*
X225386452Y-65426317D01*
X225386453Y-65426317D01*
X225386450Y-65426315D01*
X225203954Y-65328768D01*
X225005934Y-65268700D01*
X225005932Y-65268699D01*
X225005934Y-65268699D01*
X224800000Y-65248417D01*
X224594067Y-65268699D01*
X224396043Y-65328769D01*
X224285898Y-65387643D01*
X224213550Y-65426315D01*
X224213548Y-65426316D01*
X224213547Y-65426317D01*
X224053589Y-65557589D01*
X223922317Y-65717547D01*
X223824769Y-65900043D01*
X223764699Y-66098067D01*
X223744417Y-66304000D01*
X218235583Y-66304000D01*
X218215300Y-66098066D01*
X218155232Y-65900046D01*
X218057685Y-65717550D01*
X217996192Y-65642620D01*
X217926410Y-65557589D01*
X217766452Y-65426317D01*
X217766453Y-65426317D01*
X217766450Y-65426315D01*
X217583954Y-65328768D01*
X217385934Y-65268700D01*
X217385932Y-65268699D01*
X217385934Y-65268699D01*
X217180000Y-65248417D01*
X216974067Y-65268699D01*
X216776043Y-65328769D01*
X216665898Y-65387643D01*
X216593550Y-65426315D01*
X216593548Y-65426316D01*
X216593547Y-65426317D01*
X216433589Y-65557589D01*
X216302317Y-65717547D01*
X216204769Y-65900043D01*
X216144699Y-66098067D01*
X216124417Y-66304000D01*
X210687108Y-66304000D01*
X210717839Y-66189310D01*
X210717841Y-66189299D01*
X210737666Y-65962702D01*
X210737666Y-65962697D01*
X210717841Y-65736100D01*
X210717839Y-65736089D01*
X210658969Y-65516382D01*
X210658964Y-65516368D01*
X210562836Y-65310221D01*
X210562832Y-65310213D01*
X210511725Y-65237226D01*
X209832700Y-65916251D01*
X209832700Y-65910039D01*
X209805441Y-65808306D01*
X209752780Y-65717094D01*
X209678306Y-65642620D01*
X209587094Y-65589959D01*
X209485361Y-65562700D01*
X209479148Y-65562700D01*
X210158172Y-64883674D01*
X210085178Y-64832563D01*
X209879031Y-64736435D01*
X209879017Y-64736430D01*
X209659310Y-64677560D01*
X209659299Y-64677558D01*
X209432702Y-64657734D01*
X209432698Y-64657734D01*
X209206100Y-64677558D01*
X209206089Y-64677560D01*
X208986382Y-64736430D01*
X208986373Y-64736434D01*
X208780216Y-64832566D01*
X208780212Y-64832568D01*
X208707226Y-64883673D01*
X208707226Y-64883674D01*
X209386253Y-65562700D01*
X209380039Y-65562700D01*
X209278306Y-65589959D01*
X209187094Y-65642620D01*
X209112620Y-65717094D01*
X209059959Y-65808306D01*
X209032700Y-65910039D01*
X209032700Y-65916252D01*
X208353674Y-65237226D01*
X208353673Y-65237226D01*
X208302568Y-65310212D01*
X208302566Y-65310216D01*
X208206434Y-65516373D01*
X208206430Y-65516382D01*
X208147560Y-65736089D01*
X208147558Y-65736100D01*
X208127734Y-65962697D01*
X208127734Y-65962702D01*
X193492769Y-65962702D01*
X194652819Y-64802652D01*
X194714142Y-64769167D01*
X194783834Y-64774151D01*
X194839767Y-64816023D01*
X194864184Y-64881487D01*
X194864500Y-64890333D01*
X194864500Y-65259678D01*
X194879032Y-65332735D01*
X194879033Y-65332739D01*
X194879034Y-65332740D01*
X194934399Y-65415601D01*
X195015906Y-65470061D01*
X195017260Y-65470966D01*
X195017264Y-65470967D01*
X195090321Y-65485499D01*
X195090324Y-65485500D01*
X195090326Y-65485500D01*
X197339676Y-65485500D01*
X197339677Y-65485499D01*
X197412740Y-65470966D01*
X197495601Y-65415601D01*
X197550966Y-65332740D01*
X197565500Y-65259674D01*
X197565500Y-64135000D01*
X202479341Y-64135000D01*
X202499936Y-64370403D01*
X202499938Y-64370413D01*
X202561094Y-64598655D01*
X202561096Y-64598659D01*
X202561097Y-64598663D01*
X202626645Y-64739230D01*
X202660965Y-64812830D01*
X202660967Y-64812834D01*
X202715233Y-64890333D01*
X202796505Y-65006401D01*
X202963599Y-65173495D01*
X202968175Y-65176699D01*
X203157165Y-65309032D01*
X203157167Y-65309033D01*
X203157170Y-65309035D01*
X203371337Y-65408903D01*
X203371343Y-65408904D01*
X203371344Y-65408905D01*
X203426285Y-65423626D01*
X203599592Y-65470063D01*
X203776034Y-65485500D01*
X203834999Y-65490659D01*
X203835000Y-65490659D01*
X203835001Y-65490659D01*
X203893966Y-65485500D01*
X204070408Y-65470063D01*
X204298663Y-65408903D01*
X204512830Y-65309035D01*
X204706401Y-65173495D01*
X204873495Y-65006401D01*
X205009035Y-64812830D01*
X205108903Y-64598663D01*
X205111578Y-64588678D01*
X216129500Y-64588678D01*
X216144032Y-64661735D01*
X216144033Y-64661739D01*
X216144034Y-64661740D01*
X216199399Y-64744601D01*
X216281263Y-64799300D01*
X216282260Y-64799966D01*
X216282264Y-64799967D01*
X216355321Y-64814499D01*
X216355324Y-64814500D01*
X216355326Y-64814500D01*
X218004676Y-64814500D01*
X218004677Y-64814499D01*
X218077740Y-64799966D01*
X218160601Y-64744601D01*
X218215966Y-64661740D01*
X218230500Y-64588674D01*
X218230500Y-63764000D01*
X223744417Y-63764000D01*
X223764699Y-63969932D01*
X223764700Y-63969934D01*
X223824768Y-64167954D01*
X223922315Y-64350450D01*
X223922317Y-64350452D01*
X224053589Y-64510410D01*
X224148956Y-64588674D01*
X224213550Y-64641685D01*
X224396046Y-64739232D01*
X224594066Y-64799300D01*
X224594065Y-64799300D01*
X224612529Y-64801118D01*
X224800000Y-64819583D01*
X225005934Y-64799300D01*
X225203954Y-64739232D01*
X225386450Y-64641685D01*
X225546410Y-64510410D01*
X225677685Y-64350450D01*
X225775232Y-64167954D01*
X225835300Y-63969934D01*
X225855583Y-63764000D01*
X225835300Y-63558066D01*
X225775232Y-63360046D01*
X225677685Y-63177550D01*
X225611174Y-63096506D01*
X225546410Y-63017589D01*
X225386452Y-62886317D01*
X225386453Y-62886317D01*
X225386450Y-62886315D01*
X225203954Y-62788768D01*
X225005934Y-62728700D01*
X225005932Y-62728699D01*
X225005934Y-62728699D01*
X224800000Y-62708417D01*
X224594067Y-62728699D01*
X224396043Y-62788769D01*
X224285898Y-62847643D01*
X224213550Y-62886315D01*
X224213548Y-62886316D01*
X224213547Y-62886317D01*
X224053589Y-63017589D01*
X223922317Y-63177547D01*
X223824769Y-63360043D01*
X223764699Y-63558067D01*
X223744417Y-63764000D01*
X218230500Y-63764000D01*
X218230500Y-62939326D01*
X218230500Y-62939323D01*
X218230499Y-62939321D01*
X218215967Y-62866264D01*
X218215966Y-62866260D01*
X218208041Y-62854399D01*
X218160601Y-62783399D01*
X218078737Y-62728700D01*
X218077739Y-62728033D01*
X218077735Y-62728032D01*
X218004677Y-62713500D01*
X218004674Y-62713500D01*
X216355326Y-62713500D01*
X216355323Y-62713500D01*
X216282264Y-62728032D01*
X216282260Y-62728033D01*
X216199399Y-62783399D01*
X216144033Y-62866260D01*
X216144032Y-62866264D01*
X216129500Y-62939321D01*
X216129500Y-64588678D01*
X205111578Y-64588678D01*
X205170063Y-64370408D01*
X205190659Y-64135000D01*
X205170063Y-63899592D01*
X205108903Y-63671337D01*
X205009035Y-63457171D01*
X204873495Y-63263599D01*
X204873494Y-63263597D01*
X204706402Y-63096506D01*
X204706395Y-63096501D01*
X204512834Y-62960967D01*
X204512830Y-62960965D01*
X204466425Y-62939326D01*
X204298663Y-62861097D01*
X204298659Y-62861096D01*
X204298655Y-62861094D01*
X204070413Y-62799938D01*
X204070403Y-62799936D01*
X203835001Y-62779341D01*
X203834999Y-62779341D01*
X203599596Y-62799936D01*
X203599586Y-62799938D01*
X203371344Y-62861094D01*
X203371335Y-62861098D01*
X203157171Y-62960964D01*
X203157169Y-62960965D01*
X202963597Y-63096505D01*
X202796505Y-63263597D01*
X202660965Y-63457169D01*
X202660964Y-63457171D01*
X202561098Y-63671335D01*
X202561094Y-63671344D01*
X202499938Y-63899586D01*
X202499936Y-63899596D01*
X202479341Y-64134999D01*
X202479341Y-64135000D01*
X197565500Y-64135000D01*
X197565500Y-63010326D01*
X197565500Y-63010323D01*
X197565499Y-63010321D01*
X197550967Y-62937264D01*
X197550966Y-62937260D01*
X197495601Y-62854399D01*
X197414093Y-62799938D01*
X197412739Y-62799033D01*
X197412735Y-62799032D01*
X197339677Y-62784500D01*
X197339674Y-62784500D01*
X195090326Y-62784500D01*
X195090323Y-62784500D01*
X195017264Y-62799032D01*
X195017260Y-62799033D01*
X194934399Y-62854399D01*
X194879033Y-62937260D01*
X194879032Y-62937264D01*
X194864500Y-63010321D01*
X194864500Y-63506500D01*
X194844815Y-63573539D01*
X194792011Y-63619294D01*
X194740500Y-63630500D01*
X194540581Y-63630500D01*
X194450387Y-63654667D01*
X194412265Y-63664882D01*
X194370161Y-63689191D01*
X194297236Y-63731295D01*
X194297227Y-63731301D01*
X192412048Y-65616481D01*
X192350725Y-65649966D01*
X192324367Y-65652800D01*
X191557200Y-65652800D01*
X191490161Y-65633115D01*
X191444406Y-65580311D01*
X191433200Y-65528800D01*
X191433200Y-65332623D01*
X191433199Y-65332621D01*
X191418667Y-65259564D01*
X191418666Y-65259560D01*
X191363301Y-65176699D01*
X191280440Y-65121334D01*
X191280439Y-65121333D01*
X191280435Y-65121332D01*
X191207377Y-65106800D01*
X191207374Y-65106800D01*
X189558026Y-65106800D01*
X189558023Y-65106800D01*
X189484964Y-65121332D01*
X189484960Y-65121333D01*
X189402099Y-65176699D01*
X189346733Y-65259560D01*
X189346732Y-65259564D01*
X189332200Y-65332621D01*
X189332200Y-66981978D01*
X172085000Y-66981978D01*
X172085000Y-59179000D01*
X172104685Y-59111961D01*
X172157489Y-59066206D01*
X172209000Y-59055000D01*
X188214471Y-59055000D01*
X188281510Y-59074685D01*
G37*
%TD.AperFunction*%
%TD*%
M02*
