M48
; DRILL file {KiCad 8.0.0} date 2025-03-01T13:37:12-0500
; FORMAT={-:-/ absolute / inch / decimal}
; #@! TF.CreationDate,2025-03-01T13:37:12-05:00
; #@! TF.GenerationSoftware,Kicad,Pcbnew,8.0.0
; #@! TF.FileFunction,Plated,1,2,PTH
FMAT,2
INCH
; #@! TA.AperFunction,Plated,PTH,ViaDrill
T1C0.0118
; #@! TA.AperFunction,Plated,PTH,ComponentDrill
T2C0.0300
; #@! TA.AperFunction,Plated,PTH,ComponentDrill
T3C0.0315
; #@! TA.AperFunction,Plated,PTH,ComponentDrill
T4C0.0354
; #@! TA.AperFunction,Plated,PTH,ComponentDrill
T5C0.0394
; #@! TA.AperFunction,Plated,PTH,ComponentDrill
T6C0.0433
; #@! TA.AperFunction,Plated,PTH,ComponentDrill
T7C0.0472
%
G90
G05
T1
X7.425Y-3.225
X7.7378Y-2.9932
X7.743Y-3.7246
X7.9924Y-2.9083
X8.1616Y-4.4231
T2
X7.45Y-2.35
X7.5484Y-2.35
X8.2008Y-2.35
X8.2992Y-2.35
T3
X7.0213Y-4.3334
X7.0508Y-3.5066
X7.1492Y-3.5066
X7.1787Y-4.3334
X7.4954Y-2.6046
X7.4954Y-2.703
X7.54Y-3.9408
X7.54Y-4.1376
X7.56Y-3.1592
X7.56Y-3.4592
X7.66Y-3.1592
X7.66Y-3.4592
X7.76Y-3.1592
X7.76Y-3.4592
X7.86Y-3.1592
X7.86Y-3.4592
X7.88Y-3.94
X7.88Y-4.04
X7.88Y-4.14
X7.96Y-3.1592
X7.96Y-3.4592
X8.06Y-3.1592
X8.06Y-3.4592
X8.16Y-3.1592
X8.16Y-3.4592
X8.2Y-3.9408
X8.2Y-4.1376
X8.2454Y-2.597
X8.2454Y-2.6954
X8.54Y-4.44
X8.5504Y-2.5104
X8.5504Y-2.6104
X8.5504Y-2.7104
X8.5504Y-2.8104
X8.6384Y-4.44
X8.8504Y-2.5104
X8.8504Y-2.6104
X8.8504Y-2.7104
X8.8504Y-2.8104
T4
X7.8Y-4.45
X7.85Y-4.45
X7.9Y-4.45
X7.95Y-4.45
T5
X7.63Y-4.7
X7.73Y-4.7
X7.8248Y-2.3752
X7.83Y-4.7
X7.9248Y-2.3752
X7.93Y-4.7
X8.03Y-4.7
X8.13Y-4.7
T6
X7.725Y-2.525
X8.025Y-2.525
X8.5049Y-3.55
X8.5049Y-3.85
X8.66Y-3.55
X8.66Y-3.85
T7
X6.9031Y-3.3496
X7.1Y-3.3496
X7.2969Y-3.3496
X8.5031Y-3.3496
X8.7Y-3.3496
X8.8969Y-3.3496
M30
