%TF.GenerationSoftware,KiCad,Pcbnew,8.0.0*%
%TF.CreationDate,2025-03-01T13:37:18-05:00*%
%TF.ProjectId,compulator,636f6d70-756c-4617-946f-722e6b696361,rev?*%
%TF.SameCoordinates,Original*%
%TF.FileFunction,Soldermask,Bot*%
%TF.FilePolarity,Negative*%
%FSLAX46Y46*%
G04 Gerber Fmt 4.6, Leading zero omitted, Abs format (unit mm)*
G04 Created by KiCad (PCBNEW 8.0.0) date 2025-03-01 13:37:18*
%MOMM*%
%LPD*%
G01*
G04 APERTURE LIST*
%ADD10C,2.500000*%
%ADD11C,1.600000*%
%ADD12O,1.600000X1.600000*%
%ADD13R,1.600000X1.600000*%
%ADD14C,1.440000*%
%ADD15C,1.500000*%
%ADD16O,1.700000X1.700000*%
%ADD17R,1.700000X1.700000*%
%ADD18C,1.524000*%
%ADD19O,2.200000X2.200000*%
%ADD20R,2.200000X2.200000*%
%ADD21O,1.070000X1.800000*%
%ADD22R,1.070000X1.800000*%
G04 APERTURE END LIST*
D10*
%TO.C,LEVEL1*%
X175340000Y-85080000D03*
X180340000Y-85080000D03*
X185340000Y-85080000D03*
%TD*%
D11*
%TO.C,C6*%
X208280000Y-100096000D03*
X208280000Y-105096000D03*
%TD*%
D12*
%TO.C,U4*%
X192024000Y-80244000D03*
X194564000Y-80244000D03*
X197104000Y-80244000D03*
X199644000Y-80244000D03*
X202184000Y-80244000D03*
X204724000Y-80244000D03*
X207264000Y-80244000D03*
X207264000Y-87864000D03*
X204724000Y-87864000D03*
X202184000Y-87864000D03*
X199644000Y-87864000D03*
X197104000Y-87864000D03*
X194564000Y-87864000D03*
D13*
X192024000Y-87864000D03*
%TD*%
D12*
%TO.C,U1*%
X224800000Y-63764000D03*
X224800000Y-66304000D03*
X224800000Y-68844000D03*
X224800000Y-71384000D03*
X217180000Y-71384000D03*
X217180000Y-68844000D03*
X217180000Y-66304000D03*
D13*
X217180000Y-63764000D03*
%TD*%
D14*
%TO.C,P1*%
X200152000Y-100076000D03*
X200152000Y-102616000D03*
X200152000Y-105156000D03*
%TD*%
D15*
%TO.C,LDR1*%
X179090000Y-89068000D03*
X181590000Y-89068000D03*
X178340000Y-110068000D03*
X182340000Y-110068000D03*
%TD*%
D16*
%TO.C,J4*%
X206502000Y-119380000D03*
X203962000Y-119380000D03*
X201422000Y-119380000D03*
X198882000Y-119380000D03*
X196342000Y-119380000D03*
D17*
X193802000Y-119380000D03*
%TD*%
D18*
%TO.C,J3*%
X189230000Y-59690000D03*
X191730000Y-59690000D03*
%TD*%
%TO.C,J2*%
X210800000Y-59690000D03*
X208300000Y-59690000D03*
%TD*%
D16*
%TO.C,J1*%
X201290000Y-60330000D03*
D17*
X198750000Y-60330000D03*
%TD*%
D19*
%TO.C,D4*%
X216024000Y-90170000D03*
D20*
X216024000Y-97790000D03*
%TD*%
D19*
%TO.C,D3*%
X219964000Y-97790000D03*
D20*
X219964000Y-90170000D03*
%TD*%
D21*
%TO.C,D2*%
X201930000Y-113030000D03*
X200660000Y-113030000D03*
X199390000Y-113030000D03*
D22*
X198120000Y-113030000D03*
%TD*%
D19*
%TO.C,D1*%
X203835000Y-64135000D03*
D20*
X196215000Y-64135000D03*
%TD*%
D10*
%TO.C,COMP1*%
X215980000Y-85080000D03*
X220980000Y-85080000D03*
X225980000Y-85080000D03*
%TD*%
D11*
%TO.C,C5*%
X191516000Y-100096000D03*
X191516000Y-105096000D03*
%TD*%
%TO.C,C4*%
X209432700Y-65962700D03*
D13*
X209432700Y-68462700D03*
%TD*%
D11*
%TO.C,C3*%
X190382700Y-68657300D03*
D13*
X190382700Y-66157300D03*
%TD*%
D11*
%TO.C,C1*%
X219416000Y-112776000D03*
D13*
X216916000Y-112776000D03*
%TD*%
M02*
