%TF.GenerationSoftware,KiCad,Pcbnew,8.0.0*%
%TF.CreationDate,2025-03-01T13:37:18-05:00*%
%TF.ProjectId,compulator,636f6d70-756c-4617-946f-722e6b696361,rev?*%
%TF.SameCoordinates,Original*%
%TF.FileFunction,Legend,Top*%
%TF.FilePolarity,Positive*%
%FSLAX46Y46*%
G04 Gerber Fmt 4.6, Leading zero omitted, Abs format (unit mm)*
G04 Created by KiCad (PCBNEW 8.0.0) date 2025-03-01 13:37:18*
%MOMM*%
%LPD*%
G01*
G04 APERTURE LIST*
%ADD10C,0.100000*%
%ADD11C,0.150000*%
%ADD12C,0.120000*%
G04 APERTURE END LIST*
D10*
X181559925Y-94695580D02*
X182036115Y-94695580D01*
X182036115Y-94695580D02*
X182036115Y-95695580D01*
X181226591Y-95219390D02*
X180893258Y-95219390D01*
X180750401Y-94695580D02*
X181226591Y-94695580D01*
X181226591Y-94695580D02*
X181226591Y-95695580D01*
X181226591Y-95695580D02*
X180750401Y-95695580D01*
X180321829Y-94695580D02*
X180321829Y-95695580D01*
X180321829Y-95695580D02*
X180083734Y-95695580D01*
X180083734Y-95695580D02*
X179940877Y-95647961D01*
X179940877Y-95647961D02*
X179845639Y-95552723D01*
X179845639Y-95552723D02*
X179798020Y-95457485D01*
X179798020Y-95457485D02*
X179750401Y-95267009D01*
X179750401Y-95267009D02*
X179750401Y-95124152D01*
X179750401Y-95124152D02*
X179798020Y-94933676D01*
X179798020Y-94933676D02*
X179845639Y-94838438D01*
X179845639Y-94838438D02*
X179940877Y-94743200D01*
X179940877Y-94743200D02*
X180083734Y-94695580D01*
X180083734Y-94695580D02*
X180321829Y-94695580D01*
X178559924Y-95076533D02*
X177798020Y-95076533D01*
X178178972Y-94695580D02*
X178178972Y-95457485D01*
X188891027Y-60812419D02*
X189462455Y-60812419D01*
X189176741Y-61812419D02*
X189176741Y-60812419D01*
X191486265Y-61764800D02*
X191629122Y-61812419D01*
X191629122Y-61812419D02*
X191867217Y-61812419D01*
X191867217Y-61812419D02*
X191962455Y-61764800D01*
X191962455Y-61764800D02*
X192010074Y-61717180D01*
X192010074Y-61717180D02*
X192057693Y-61621942D01*
X192057693Y-61621942D02*
X192057693Y-61526704D01*
X192057693Y-61526704D02*
X192010074Y-61431466D01*
X192010074Y-61431466D02*
X191962455Y-61383847D01*
X191962455Y-61383847D02*
X191867217Y-61336228D01*
X191867217Y-61336228D02*
X191676741Y-61288609D01*
X191676741Y-61288609D02*
X191581503Y-61240990D01*
X191581503Y-61240990D02*
X191533884Y-61193371D01*
X191533884Y-61193371D02*
X191486265Y-61098133D01*
X191486265Y-61098133D02*
X191486265Y-61002895D01*
X191486265Y-61002895D02*
X191533884Y-60907657D01*
X191533884Y-60907657D02*
X191581503Y-60860038D01*
X191581503Y-60860038D02*
X191676741Y-60812419D01*
X191676741Y-60812419D02*
X191914836Y-60812419D01*
X191914836Y-60812419D02*
X192057693Y-60860038D01*
X210599122Y-60911418D02*
X211170550Y-60911418D01*
X210884836Y-61911418D02*
X210884836Y-60911418D01*
X208003884Y-61863799D02*
X208146741Y-61911418D01*
X208146741Y-61911418D02*
X208384836Y-61911418D01*
X208384836Y-61911418D02*
X208480074Y-61863799D01*
X208480074Y-61863799D02*
X208527693Y-61816179D01*
X208527693Y-61816179D02*
X208575312Y-61720941D01*
X208575312Y-61720941D02*
X208575312Y-61625703D01*
X208575312Y-61625703D02*
X208527693Y-61530465D01*
X208527693Y-61530465D02*
X208480074Y-61482846D01*
X208480074Y-61482846D02*
X208384836Y-61435227D01*
X208384836Y-61435227D02*
X208194360Y-61387608D01*
X208194360Y-61387608D02*
X208099122Y-61339989D01*
X208099122Y-61339989D02*
X208051503Y-61292370D01*
X208051503Y-61292370D02*
X208003884Y-61197132D01*
X208003884Y-61197132D02*
X208003884Y-61101894D01*
X208003884Y-61101894D02*
X208051503Y-61006656D01*
X208051503Y-61006656D02*
X208099122Y-60959037D01*
X208099122Y-60959037D02*
X208194360Y-60911418D01*
X208194360Y-60911418D02*
X208432455Y-60911418D01*
X208432455Y-60911418D02*
X208575312Y-60959037D01*
D11*
X214378819Y-98051904D02*
X213378819Y-98051904D01*
X214378819Y-97480476D02*
X213807390Y-97909047D01*
X213378819Y-97480476D02*
X213950247Y-98051904D01*
X222518819Y-90431904D02*
X221518819Y-90431904D01*
X222518819Y-89860476D02*
X221947390Y-90289047D01*
X221518819Y-89860476D02*
X222090247Y-90431904D01*
X195953095Y-62489819D02*
X195953095Y-61489819D01*
X196524523Y-62489819D02*
X196095952Y-61918390D01*
X196524523Y-61489819D02*
X195953095Y-62061247D01*
D12*
%TO.C,C6*%
X205160000Y-98976000D02*
X211400000Y-98976000D01*
X211400000Y-106216000D02*
X211400000Y-98976000D01*
X205160000Y-106216000D02*
X205160000Y-98976000D01*
X205160000Y-106216000D02*
X211400000Y-106216000D01*
%TO.C,U4*%
X190694000Y-83054000D02*
G75*
G02*
X190694000Y-85054000I0J-1000000D01*
G01*
X208594000Y-81404000D02*
X190694000Y-81404000D01*
X190694000Y-81404000D02*
X190694000Y-83054000D01*
X190694000Y-85054000D02*
X190694000Y-86704000D01*
X208594000Y-86704000D02*
X208594000Y-81404000D01*
X190694000Y-86704000D02*
X208594000Y-86704000D01*
%TO.C,U1*%
X221990000Y-62434000D02*
G75*
G02*
X219990000Y-62434000I-1000000J0D01*
G01*
X223640000Y-72714000D02*
X223640000Y-62434000D01*
X223640000Y-62434000D02*
X221990000Y-62434000D01*
X219990000Y-62434000D02*
X218340000Y-62434000D01*
X218340000Y-72714000D02*
X223640000Y-72714000D01*
X218340000Y-62434000D02*
X218340000Y-72714000D01*
%TO.C,R19*%
X195807000Y-74883064D02*
X195807000Y-74428936D01*
X194337000Y-74883064D02*
X194337000Y-74428936D01*
%TO.C,R18*%
X192759000Y-74883064D02*
X192759000Y-74428936D01*
X191289000Y-74883064D02*
X191289000Y-74428936D01*
%TO.C,R17*%
X203481000Y-74428936D02*
X203481000Y-74883064D01*
X204951000Y-74428936D02*
X204951000Y-74883064D01*
%TO.C,R16*%
X214095000Y-74883064D02*
X214095000Y-74428936D01*
X212625000Y-74883064D02*
X212625000Y-74428936D01*
%TO.C,R15*%
X209577000Y-74428936D02*
X209577000Y-74883064D01*
X211047000Y-74428936D02*
X211047000Y-74883064D01*
%TO.C,R14*%
X207999000Y-74883064D02*
X207999000Y-74428936D01*
X206529000Y-74883064D02*
X206529000Y-74428936D01*
%TO.C,R13*%
X198855000Y-74883064D02*
X198855000Y-74428936D01*
X197385000Y-74883064D02*
X197385000Y-74428936D01*
%TO.C,R12*%
X202157000Y-74883064D02*
X202157000Y-74428936D01*
X200687000Y-74883064D02*
X200687000Y-74428936D01*
%TO.C,R11*%
X206529000Y-93224936D02*
X206529000Y-93679064D01*
X207999000Y-93224936D02*
X207999000Y-93679064D01*
%TO.C,R10*%
X211047000Y-93679064D02*
X211047000Y-93224936D01*
X209577000Y-93679064D02*
X209577000Y-93224936D01*
%TO.C,R9*%
X203481000Y-93224936D02*
X203481000Y-93679064D01*
X204951000Y-93224936D02*
X204951000Y-93679064D01*
%TO.C,R8*%
X201903000Y-93679064D02*
X201903000Y-93224936D01*
X200433000Y-93679064D02*
X200433000Y-93224936D01*
%TO.C,R7*%
X198855000Y-93679064D02*
X198855000Y-93224936D01*
X197385000Y-93679064D02*
X197385000Y-93224936D01*
%TO.C,R6*%
X191289000Y-93224936D02*
X191289000Y-93679064D01*
X192759000Y-93224936D02*
X192759000Y-93679064D01*
%TO.C,R5*%
X194337000Y-93224936D02*
X194337000Y-93679064D01*
X195807000Y-93224936D02*
X195807000Y-93679064D01*
%TO.C,R4*%
X206475000Y-111987064D02*
X206475000Y-111532936D01*
X205005000Y-111987064D02*
X205005000Y-111532936D01*
%TO.C,R3*%
X202665000Y-68807064D02*
X202665000Y-68352936D01*
X201195000Y-68807064D02*
X201195000Y-68352936D01*
%TO.C,R2*%
X198020000Y-68352936D02*
X198020000Y-68807064D01*
X199490000Y-68352936D02*
X199490000Y-68807064D01*
%TO.C,R1*%
X208053000Y-111532936D02*
X208053000Y-111987064D01*
X209523000Y-111532936D02*
X209523000Y-111987064D01*
%TO.C,P1*%
X202682000Y-107501000D02*
X197612000Y-107501000D01*
X197612000Y-97731000D02*
X197612000Y-107501000D01*
X202682000Y-97731000D02*
X202682000Y-107501000D01*
X202682000Y-97731000D02*
X197612000Y-97731000D01*
%TO.C,LDR1*%
D10*
X185340000Y-105068000D02*
X175340000Y-105068000D01*
X175340000Y-94068000D01*
X185340000Y-94068000D01*
X185340000Y-105068000D01*
D12*
%TO.C,J4*%
X195072000Y-118050000D02*
X207832000Y-118050000D01*
X192472000Y-118050000D02*
X193802000Y-118050000D01*
X192472000Y-119380000D02*
X192472000Y-118050000D01*
X207832000Y-120710000D02*
X207832000Y-118050000D01*
X195072000Y-120710000D02*
X195072000Y-118050000D01*
X195072000Y-120710000D02*
X207832000Y-120710000D01*
%TO.C,J1*%
X200020000Y-59000000D02*
X202620000Y-59000000D01*
X202620000Y-61660000D02*
X202620000Y-59000000D01*
X200020000Y-61660000D02*
X200020000Y-59000000D01*
X200020000Y-61660000D02*
X202620000Y-61660000D01*
X198750000Y-61660000D02*
X197420000Y-61660000D01*
X197420000Y-61660000D02*
X197420000Y-60330000D01*
%TO.C,D4*%
X217494000Y-91260000D02*
X217364000Y-91260000D01*
X214554000Y-91260000D02*
X214684000Y-91260000D01*
X214554000Y-95680000D02*
X217494000Y-95680000D01*
X214554000Y-95800000D02*
X217494000Y-95800000D01*
X214554000Y-95920000D02*
X217494000Y-95920000D01*
X217494000Y-96700000D02*
X217494000Y-91260000D01*
X217364000Y-96700000D02*
X217494000Y-96700000D01*
X214684000Y-96700000D02*
X214554000Y-96700000D01*
X214554000Y-96700000D02*
X214554000Y-91260000D01*
%TO.C,D3*%
X218494000Y-96700000D02*
X218624000Y-96700000D01*
X221434000Y-96700000D02*
X221304000Y-96700000D01*
X221434000Y-92280000D02*
X218494000Y-92280000D01*
X221434000Y-92160000D02*
X218494000Y-92160000D01*
X221434000Y-92040000D02*
X218494000Y-92040000D01*
X218494000Y-91260000D02*
X218494000Y-96700000D01*
X218624000Y-91260000D02*
X218494000Y-91260000D01*
X221304000Y-91260000D02*
X221434000Y-91260000D01*
X221434000Y-91260000D02*
X221434000Y-96700000D01*
%TO.C,D2*%
X202812814Y-114110827D02*
G75*
G02*
X197465001Y-114574830I-2787814J1080827D01*
G01*
X202279479Y-114110429D02*
G75*
G02*
X197770316Y-114110000I-2254479J1080429D01*
G01*
X197770317Y-111950000D02*
G75*
G02*
X202279478Y-111949572I2254683J-1080000D01*
G01*
X197465001Y-111485170D02*
G75*
G02*
X202812814Y-111949173I2559999J-1544830D01*
G01*
X197465000Y-114110000D02*
X197465000Y-114575000D01*
X197465000Y-111485000D02*
X197465000Y-111950000D01*
%TO.C,D1*%
X202745000Y-65605000D02*
X202745000Y-65475000D01*
X202745000Y-62665000D02*
X202745000Y-62795000D01*
X198325000Y-62665000D02*
X198325000Y-65605000D01*
X198205000Y-62665000D02*
X198205000Y-65605000D01*
X198085000Y-62665000D02*
X198085000Y-65605000D01*
X197305000Y-65605000D02*
X202745000Y-65605000D01*
X197305000Y-65475000D02*
X197305000Y-65605000D01*
X197305000Y-62795000D02*
X197305000Y-62665000D01*
X197305000Y-62665000D02*
X202745000Y-62665000D01*
%TO.C,C8*%
X220718748Y-75411000D02*
X221241252Y-75411000D01*
X220718748Y-73941000D02*
X221241252Y-73941000D01*
%TO.C,C7*%
X188241000Y-83792748D02*
X188241000Y-84315252D01*
X189711000Y-83792748D02*
X189711000Y-84315252D01*
%TO.C,C5*%
X188396000Y-98976000D02*
X194636000Y-98976000D01*
X194636000Y-106216000D02*
X194636000Y-98976000D01*
X188396000Y-106216000D02*
X188396000Y-98976000D01*
X188396000Y-106216000D02*
X194636000Y-106216000D01*
%TO.C,C4*%
X213552700Y-67212700D02*
G75*
G02*
X205312700Y-67212700I-4120000J0D01*
G01*
X205312700Y-67212700D02*
G75*
G02*
X213552700Y-67212700I4120000J0D01*
G01*
X208899700Y-63131700D02*
X209965700Y-63131700D01*
X208664700Y-63171700D02*
X210200700Y-63171700D01*
X208484700Y-63211700D02*
X210380700Y-63211700D01*
X208334700Y-63251700D02*
X210530700Y-63251700D01*
X208203700Y-63291700D02*
X210661700Y-63291700D01*
X208086700Y-63331700D02*
X210778700Y-63331700D01*
X207979700Y-63371700D02*
X210885700Y-63371700D01*
X207880700Y-63411700D02*
X210984700Y-63411700D01*
X207787700Y-63451700D02*
X211077700Y-63451700D01*
X207701700Y-63491700D02*
X211163700Y-63491700D01*
X207619700Y-63531700D02*
X211245700Y-63531700D01*
X207542700Y-63571700D02*
X211322700Y-63571700D01*
X207468700Y-63611700D02*
X211396700Y-63611700D01*
X207398700Y-63651700D02*
X211466700Y-63651700D01*
X207330700Y-63691700D02*
X211534700Y-63691700D01*
X207266700Y-63731700D02*
X211598700Y-63731700D01*
X207204700Y-63771700D02*
X211660700Y-63771700D01*
X207145700Y-63811700D02*
X211719700Y-63811700D01*
X207087700Y-63851700D02*
X211777700Y-63851700D01*
X207032700Y-63891700D02*
X211832700Y-63891700D01*
X206978700Y-63931700D02*
X211886700Y-63931700D01*
X206927700Y-63971700D02*
X211937700Y-63971700D01*
X206876700Y-64011700D02*
X211988700Y-64011700D01*
X206828700Y-64051700D02*
X212036700Y-64051700D01*
X206781700Y-64091700D02*
X212083700Y-64091700D01*
X206735700Y-64131700D02*
X212129700Y-64131700D01*
X206691700Y-64171700D02*
X212173700Y-64171700D01*
X206648700Y-64211700D02*
X212216700Y-64211700D01*
X206606700Y-64251700D02*
X212258700Y-64251700D01*
X206565700Y-64291700D02*
X212299700Y-64291700D01*
X206525700Y-64331700D02*
X212339700Y-64331700D01*
X206487700Y-64371700D02*
X212377700Y-64371700D01*
X206449700Y-64411700D02*
X212415700Y-64411700D01*
X206413700Y-64451700D02*
X212451700Y-64451700D01*
X206377700Y-64491700D02*
X212487700Y-64491700D01*
X206342700Y-64531700D02*
X212522700Y-64531700D01*
X206308700Y-64571700D02*
X212556700Y-64571700D01*
X206276700Y-64611700D02*
X212588700Y-64611700D01*
X206243700Y-64651700D02*
X212621700Y-64651700D01*
X206212700Y-64691700D02*
X212652700Y-64691700D01*
X206182700Y-64731700D02*
X212682700Y-64731700D01*
X206152700Y-64771700D02*
X212712700Y-64771700D01*
X206123700Y-64811700D02*
X212741700Y-64811700D01*
X206094700Y-64851700D02*
X212770700Y-64851700D01*
X206067700Y-64891700D02*
X212797700Y-64891700D01*
X210472700Y-64931700D02*
X212824700Y-64931700D01*
X206040700Y-64931700D02*
X208392700Y-64931700D01*
X210472700Y-64971700D02*
X212850700Y-64971700D01*
X206014700Y-64971700D02*
X208392700Y-64971700D01*
X210472700Y-65011700D02*
X212876700Y-65011700D01*
X205988700Y-65011700D02*
X208392700Y-65011700D01*
X210472700Y-65051700D02*
X212901700Y-65051700D01*
X205963700Y-65051700D02*
X208392700Y-65051700D01*
X210472700Y-65091700D02*
X212925700Y-65091700D01*
X205939700Y-65091700D02*
X208392700Y-65091700D01*
X210472700Y-65131700D02*
X212949700Y-65131700D01*
X205915700Y-65131700D02*
X208392700Y-65131700D01*
X210472700Y-65171700D02*
X212972700Y-65171700D01*
X205892700Y-65171700D02*
X208392700Y-65171700D01*
X210472700Y-65211700D02*
X212994700Y-65211700D01*
X205870700Y-65211700D02*
X208392700Y-65211700D01*
X210472700Y-65251700D02*
X213016700Y-65251700D01*
X205848700Y-65251700D02*
X208392700Y-65251700D01*
X210472700Y-65291700D02*
X213038700Y-65291700D01*
X205826700Y-65291700D02*
X208392700Y-65291700D01*
X210472700Y-65331700D02*
X213059700Y-65331700D01*
X205805700Y-65331700D02*
X208392700Y-65331700D01*
X210472700Y-65371700D02*
X213079700Y-65371700D01*
X205785700Y-65371700D02*
X208392700Y-65371700D01*
X210472700Y-65411700D02*
X213098700Y-65411700D01*
X205766700Y-65411700D02*
X208392700Y-65411700D01*
X210472700Y-65451700D02*
X213118700Y-65451700D01*
X205746700Y-65451700D02*
X208392700Y-65451700D01*
X210472700Y-65491700D02*
X213136700Y-65491700D01*
X205728700Y-65491700D02*
X208392700Y-65491700D01*
X210472700Y-65531700D02*
X213154700Y-65531700D01*
X205710700Y-65531700D02*
X208392700Y-65531700D01*
X210472700Y-65571700D02*
X213172700Y-65571700D01*
X205692700Y-65571700D02*
X208392700Y-65571700D01*
X210472700Y-65611700D02*
X213189700Y-65611700D01*
X205675700Y-65611700D02*
X208392700Y-65611700D01*
X210472700Y-65651700D02*
X213206700Y-65651700D01*
X205658700Y-65651700D02*
X208392700Y-65651700D01*
X210472700Y-65691700D02*
X213222700Y-65691700D01*
X205642700Y-65691700D02*
X208392700Y-65691700D01*
X210472700Y-65731700D02*
X213237700Y-65731700D01*
X205627700Y-65731700D02*
X208392700Y-65731700D01*
X210472700Y-65771700D02*
X213253700Y-65771700D01*
X205611700Y-65771700D02*
X208392700Y-65771700D01*
X210472700Y-65811700D02*
X213267700Y-65811700D01*
X205597700Y-65811700D02*
X208392700Y-65811700D01*
X210472700Y-65851700D02*
X213282700Y-65851700D01*
X205582700Y-65851700D02*
X208392700Y-65851700D01*
X210472700Y-65891700D02*
X213295700Y-65891700D01*
X205569700Y-65891700D02*
X208392700Y-65891700D01*
X210472700Y-65931700D02*
X213309700Y-65931700D01*
X205555700Y-65931700D02*
X208392700Y-65931700D01*
X210472700Y-65971700D02*
X213321700Y-65971700D01*
X205543700Y-65971700D02*
X208392700Y-65971700D01*
X210472700Y-66011700D02*
X213334700Y-66011700D01*
X205530700Y-66011700D02*
X208392700Y-66011700D01*
X210472700Y-66051700D02*
X213346700Y-66051700D01*
X205518700Y-66051700D02*
X208392700Y-66051700D01*
X210472700Y-66091700D02*
X213357700Y-66091700D01*
X205507700Y-66091700D02*
X208392700Y-66091700D01*
X210472700Y-66131700D02*
X213368700Y-66131700D01*
X205496700Y-66131700D02*
X208392700Y-66131700D01*
X210472700Y-66171700D02*
X213379700Y-66171700D01*
X205485700Y-66171700D02*
X208392700Y-66171700D01*
X210472700Y-66211700D02*
X213389700Y-66211700D01*
X205475700Y-66211700D02*
X208392700Y-66211700D01*
X210472700Y-66251700D02*
X213399700Y-66251700D01*
X205465700Y-66251700D02*
X208392700Y-66251700D01*
X210472700Y-66291700D02*
X213408700Y-66291700D01*
X205456700Y-66291700D02*
X208392700Y-66291700D01*
X210472700Y-66331700D02*
X213417700Y-66331700D01*
X205447700Y-66331700D02*
X208392700Y-66331700D01*
X210472700Y-66371700D02*
X213426700Y-66371700D01*
X205438700Y-66371700D02*
X208392700Y-66371700D01*
X210472700Y-66411700D02*
X213434700Y-66411700D01*
X205430700Y-66411700D02*
X208392700Y-66411700D01*
X210472700Y-66451700D02*
X213442700Y-66451700D01*
X205422700Y-66451700D02*
X208392700Y-66451700D01*
X210472700Y-66491700D02*
X213449700Y-66491700D01*
X205415700Y-66491700D02*
X208392700Y-66491700D01*
X210472700Y-66532700D02*
X213456700Y-66532700D01*
X205408700Y-66532700D02*
X208392700Y-66532700D01*
X210472700Y-66572700D02*
X213462700Y-66572700D01*
X205402700Y-66572700D02*
X208392700Y-66572700D01*
X210472700Y-66612700D02*
X213469700Y-66612700D01*
X205395700Y-66612700D02*
X208392700Y-66612700D01*
X210472700Y-66652700D02*
X213474700Y-66652700D01*
X205390700Y-66652700D02*
X208392700Y-66652700D01*
X210472700Y-66692700D02*
X213480700Y-66692700D01*
X205384700Y-66692700D02*
X208392700Y-66692700D01*
X210472700Y-66732700D02*
X213484700Y-66732700D01*
X205380700Y-66732700D02*
X208392700Y-66732700D01*
X210472700Y-66772700D02*
X213489700Y-66772700D01*
X205375700Y-66772700D02*
X208392700Y-66772700D01*
X210472700Y-66812700D02*
X213493700Y-66812700D01*
X205371700Y-66812700D02*
X208392700Y-66812700D01*
X210472700Y-66852700D02*
X213497700Y-66852700D01*
X205367700Y-66852700D02*
X208392700Y-66852700D01*
X210472700Y-66892700D02*
X213500700Y-66892700D01*
X205364700Y-66892700D02*
X208392700Y-66892700D01*
X210472700Y-66932700D02*
X213503700Y-66932700D01*
X205361700Y-66932700D02*
X208392700Y-66932700D01*
X210472700Y-66972700D02*
X213506700Y-66972700D01*
X205358700Y-66972700D02*
X208392700Y-66972700D01*
X205356700Y-67012700D02*
X213508700Y-67012700D01*
X205355700Y-67052700D02*
X213509700Y-67052700D01*
X205353700Y-67092700D02*
X213511700Y-67092700D01*
X205352700Y-67132700D02*
X213512700Y-67132700D01*
X205352700Y-67172700D02*
X213512700Y-67172700D01*
X205352700Y-67212700D02*
X213512700Y-67212700D01*
X206717700Y-71222398D02*
X207517700Y-71222398D01*
X207117700Y-71622398D02*
X207117700Y-70822398D01*
%TO.C,C3*%
X194502700Y-67407300D02*
G75*
G02*
X186262700Y-67407300I-4120000J0D01*
G01*
X186262700Y-67407300D02*
G75*
G02*
X194502700Y-67407300I4120000J0D01*
G01*
X190915700Y-71488300D02*
X189849700Y-71488300D01*
X191150700Y-71448300D02*
X189614700Y-71448300D01*
X191330700Y-71408300D02*
X189434700Y-71408300D01*
X191480700Y-71368300D02*
X189284700Y-71368300D01*
X191611700Y-71328300D02*
X189153700Y-71328300D01*
X191728700Y-71288300D02*
X189036700Y-71288300D01*
X191835700Y-71248300D02*
X188929700Y-71248300D01*
X191934700Y-71208300D02*
X188830700Y-71208300D01*
X192027700Y-71168300D02*
X188737700Y-71168300D01*
X192113700Y-71128300D02*
X188651700Y-71128300D01*
X192195700Y-71088300D02*
X188569700Y-71088300D01*
X192272700Y-71048300D02*
X188492700Y-71048300D01*
X192346700Y-71008300D02*
X188418700Y-71008300D01*
X192416700Y-70968300D02*
X188348700Y-70968300D01*
X192484700Y-70928300D02*
X188280700Y-70928300D01*
X192548700Y-70888300D02*
X188216700Y-70888300D01*
X192610700Y-70848300D02*
X188154700Y-70848300D01*
X192669700Y-70808300D02*
X188095700Y-70808300D01*
X192727700Y-70768300D02*
X188037700Y-70768300D01*
X192782700Y-70728300D02*
X187982700Y-70728300D01*
X192836700Y-70688300D02*
X187928700Y-70688300D01*
X192887700Y-70648300D02*
X187877700Y-70648300D01*
X192938700Y-70608300D02*
X187826700Y-70608300D01*
X192986700Y-70568300D02*
X187778700Y-70568300D01*
X193033700Y-70528300D02*
X187731700Y-70528300D01*
X193079700Y-70488300D02*
X187685700Y-70488300D01*
X193123700Y-70448300D02*
X187641700Y-70448300D01*
X193166700Y-70408300D02*
X187598700Y-70408300D01*
X193208700Y-70368300D02*
X187556700Y-70368300D01*
X193249700Y-70328300D02*
X187515700Y-70328300D01*
X193289700Y-70288300D02*
X187475700Y-70288300D01*
X193327700Y-70248300D02*
X187437700Y-70248300D01*
X193365700Y-70208300D02*
X187399700Y-70208300D01*
X193401700Y-70168300D02*
X187363700Y-70168300D01*
X193437700Y-70128300D02*
X187327700Y-70128300D01*
X193472700Y-70088300D02*
X187292700Y-70088300D01*
X193506700Y-70048300D02*
X187258700Y-70048300D01*
X193538700Y-70008300D02*
X187226700Y-70008300D01*
X193571700Y-69968300D02*
X187193700Y-69968300D01*
X193602700Y-69928300D02*
X187162700Y-69928300D01*
X193632700Y-69888300D02*
X187132700Y-69888300D01*
X193662700Y-69848300D02*
X187102700Y-69848300D01*
X193691700Y-69808300D02*
X187073700Y-69808300D01*
X193720700Y-69768300D02*
X187044700Y-69768300D01*
X193747700Y-69728300D02*
X187017700Y-69728300D01*
X189342700Y-69688300D02*
X186990700Y-69688300D01*
X193774700Y-69688300D02*
X191422700Y-69688300D01*
X189342700Y-69648300D02*
X186964700Y-69648300D01*
X193800700Y-69648300D02*
X191422700Y-69648300D01*
X189342700Y-69608300D02*
X186938700Y-69608300D01*
X193826700Y-69608300D02*
X191422700Y-69608300D01*
X189342700Y-69568300D02*
X186913700Y-69568300D01*
X193851700Y-69568300D02*
X191422700Y-69568300D01*
X189342700Y-69528300D02*
X186889700Y-69528300D01*
X193875700Y-69528300D02*
X191422700Y-69528300D01*
X189342700Y-69488300D02*
X186865700Y-69488300D01*
X193899700Y-69488300D02*
X191422700Y-69488300D01*
X189342700Y-69448300D02*
X186842700Y-69448300D01*
X193922700Y-69448300D02*
X191422700Y-69448300D01*
X189342700Y-69408300D02*
X186820700Y-69408300D01*
X193944700Y-69408300D02*
X191422700Y-69408300D01*
X189342700Y-69368300D02*
X186798700Y-69368300D01*
X193966700Y-69368300D02*
X191422700Y-69368300D01*
X189342700Y-69328300D02*
X186776700Y-69328300D01*
X193988700Y-69328300D02*
X191422700Y-69328300D01*
X189342700Y-69288300D02*
X186755700Y-69288300D01*
X194009700Y-69288300D02*
X191422700Y-69288300D01*
X189342700Y-69248300D02*
X186735700Y-69248300D01*
X194029700Y-69248300D02*
X191422700Y-69248300D01*
X189342700Y-69208300D02*
X186716700Y-69208300D01*
X194048700Y-69208300D02*
X191422700Y-69208300D01*
X189342700Y-69168300D02*
X186696700Y-69168300D01*
X194068700Y-69168300D02*
X191422700Y-69168300D01*
X189342700Y-69128300D02*
X186678700Y-69128300D01*
X194086700Y-69128300D02*
X191422700Y-69128300D01*
X189342700Y-69088300D02*
X186660700Y-69088300D01*
X194104700Y-69088300D02*
X191422700Y-69088300D01*
X189342700Y-69048300D02*
X186642700Y-69048300D01*
X194122700Y-69048300D02*
X191422700Y-69048300D01*
X189342700Y-69008300D02*
X186625700Y-69008300D01*
X194139700Y-69008300D02*
X191422700Y-69008300D01*
X189342700Y-68968300D02*
X186608700Y-68968300D01*
X194156700Y-68968300D02*
X191422700Y-68968300D01*
X189342700Y-68928300D02*
X186592700Y-68928300D01*
X194172700Y-68928300D02*
X191422700Y-68928300D01*
X189342700Y-68888300D02*
X186577700Y-68888300D01*
X194187700Y-68888300D02*
X191422700Y-68888300D01*
X189342700Y-68848300D02*
X186561700Y-68848300D01*
X194203700Y-68848300D02*
X191422700Y-68848300D01*
X189342700Y-68808300D02*
X186547700Y-68808300D01*
X194217700Y-68808300D02*
X191422700Y-68808300D01*
X189342700Y-68768300D02*
X186532700Y-68768300D01*
X194232700Y-68768300D02*
X191422700Y-68768300D01*
X189342700Y-68728300D02*
X186519700Y-68728300D01*
X194245700Y-68728300D02*
X191422700Y-68728300D01*
X189342700Y-68688300D02*
X186505700Y-68688300D01*
X194259700Y-68688300D02*
X191422700Y-68688300D01*
X189342700Y-68648300D02*
X186493700Y-68648300D01*
X194271700Y-68648300D02*
X191422700Y-68648300D01*
X189342700Y-68608300D02*
X186480700Y-68608300D01*
X194284700Y-68608300D02*
X191422700Y-68608300D01*
X189342700Y-68568300D02*
X186468700Y-68568300D01*
X194296700Y-68568300D02*
X191422700Y-68568300D01*
X189342700Y-68528300D02*
X186457700Y-68528300D01*
X194307700Y-68528300D02*
X191422700Y-68528300D01*
X189342700Y-68488300D02*
X186446700Y-68488300D01*
X194318700Y-68488300D02*
X191422700Y-68488300D01*
X189342700Y-68448300D02*
X186435700Y-68448300D01*
X194329700Y-68448300D02*
X191422700Y-68448300D01*
X189342700Y-68408300D02*
X186425700Y-68408300D01*
X194339700Y-68408300D02*
X191422700Y-68408300D01*
X189342700Y-68368300D02*
X186415700Y-68368300D01*
X194349700Y-68368300D02*
X191422700Y-68368300D01*
X189342700Y-68328300D02*
X186406700Y-68328300D01*
X194358700Y-68328300D02*
X191422700Y-68328300D01*
X189342700Y-68288300D02*
X186397700Y-68288300D01*
X194367700Y-68288300D02*
X191422700Y-68288300D01*
X189342700Y-68248300D02*
X186388700Y-68248300D01*
X194376700Y-68248300D02*
X191422700Y-68248300D01*
X189342700Y-68208300D02*
X186380700Y-68208300D01*
X194384700Y-68208300D02*
X191422700Y-68208300D01*
X189342700Y-68168300D02*
X186372700Y-68168300D01*
X194392700Y-68168300D02*
X191422700Y-68168300D01*
X189342700Y-68128300D02*
X186365700Y-68128300D01*
X194399700Y-68128300D02*
X191422700Y-68128300D01*
X189342700Y-68087300D02*
X186358700Y-68087300D01*
X194406700Y-68087300D02*
X191422700Y-68087300D01*
X189342700Y-68047300D02*
X186352700Y-68047300D01*
X194412700Y-68047300D02*
X191422700Y-68047300D01*
X189342700Y-68007300D02*
X186345700Y-68007300D01*
X194419700Y-68007300D02*
X191422700Y-68007300D01*
X189342700Y-67967300D02*
X186340700Y-67967300D01*
X194424700Y-67967300D02*
X191422700Y-67967300D01*
X189342700Y-67927300D02*
X186334700Y-67927300D01*
X194430700Y-67927300D02*
X191422700Y-67927300D01*
X189342700Y-67887300D02*
X186330700Y-67887300D01*
X194434700Y-67887300D02*
X191422700Y-67887300D01*
X189342700Y-67847300D02*
X186325700Y-67847300D01*
X194439700Y-67847300D02*
X191422700Y-67847300D01*
X189342700Y-67807300D02*
X186321700Y-67807300D01*
X194443700Y-67807300D02*
X191422700Y-67807300D01*
X189342700Y-67767300D02*
X186317700Y-67767300D01*
X194447700Y-67767300D02*
X191422700Y-67767300D01*
X189342700Y-67727300D02*
X186314700Y-67727300D01*
X194450700Y-67727300D02*
X191422700Y-67727300D01*
X189342700Y-67687300D02*
X186311700Y-67687300D01*
X194453700Y-67687300D02*
X191422700Y-67687300D01*
X189342700Y-67647300D02*
X186308700Y-67647300D01*
X194456700Y-67647300D02*
X191422700Y-67647300D01*
X194458700Y-67607300D02*
X186306700Y-67607300D01*
X194459700Y-67567300D02*
X186305700Y-67567300D01*
X194461700Y-67527300D02*
X186303700Y-67527300D01*
X194462700Y-67487300D02*
X186302700Y-67487300D01*
X194462700Y-67447300D02*
X186302700Y-67447300D01*
X194462700Y-67407300D02*
X186302700Y-67407300D01*
X193097700Y-63397602D02*
X192297700Y-63397602D01*
X192697700Y-62997602D02*
X192697700Y-63797602D01*
%TO.C,C1*%
X222286000Y-112776000D02*
G75*
G02*
X214046000Y-112776000I-4120000J0D01*
G01*
X214046000Y-112776000D02*
G75*
G02*
X222286000Y-112776000I4120000J0D01*
G01*
X222247000Y-112243000D02*
X222247000Y-113309000D01*
X222207000Y-112008000D02*
X222207000Y-113544000D01*
X222167000Y-111828000D02*
X222167000Y-113724000D01*
X222127000Y-111678000D02*
X222127000Y-113874000D01*
X222087000Y-111547000D02*
X222087000Y-114005000D01*
X222047000Y-111430000D02*
X222047000Y-114122000D01*
X222007000Y-111323000D02*
X222007000Y-114229000D01*
X221967000Y-111224000D02*
X221967000Y-114328000D01*
X221927000Y-111131000D02*
X221927000Y-114421000D01*
X221887000Y-111045000D02*
X221887000Y-114507000D01*
X221847000Y-110963000D02*
X221847000Y-114589000D01*
X221807000Y-110886000D02*
X221807000Y-114666000D01*
X221767000Y-110812000D02*
X221767000Y-114740000D01*
X221727000Y-110742000D02*
X221727000Y-114810000D01*
X221687000Y-110674000D02*
X221687000Y-114878000D01*
X221647000Y-110610000D02*
X221647000Y-114942000D01*
X221607000Y-110548000D02*
X221607000Y-115004000D01*
X221567000Y-110489000D02*
X221567000Y-115063000D01*
X221527000Y-110431000D02*
X221527000Y-115121000D01*
X221487000Y-110376000D02*
X221487000Y-115176000D01*
X221447000Y-110322000D02*
X221447000Y-115230000D01*
X221407000Y-110271000D02*
X221407000Y-115281000D01*
X221367000Y-110220000D02*
X221367000Y-115332000D01*
X221327000Y-110172000D02*
X221327000Y-115380000D01*
X221287000Y-110125000D02*
X221287000Y-115427000D01*
X221247000Y-110079000D02*
X221247000Y-115473000D01*
X221207000Y-110035000D02*
X221207000Y-115517000D01*
X221167000Y-109992000D02*
X221167000Y-115560000D01*
X221127000Y-109950000D02*
X221127000Y-115602000D01*
X221087000Y-109909000D02*
X221087000Y-115643000D01*
X221047000Y-109869000D02*
X221047000Y-115683000D01*
X221007000Y-109831000D02*
X221007000Y-115721000D01*
X220967000Y-109793000D02*
X220967000Y-115759000D01*
X220927000Y-109757000D02*
X220927000Y-115795000D01*
X220887000Y-109721000D02*
X220887000Y-115831000D01*
X220847000Y-109686000D02*
X220847000Y-115866000D01*
X220807000Y-109652000D02*
X220807000Y-115900000D01*
X220767000Y-109620000D02*
X220767000Y-115932000D01*
X220727000Y-109587000D02*
X220727000Y-115965000D01*
X220687000Y-109556000D02*
X220687000Y-115996000D01*
X220647000Y-109526000D02*
X220647000Y-116026000D01*
X220607000Y-109496000D02*
X220607000Y-116056000D01*
X220567000Y-109467000D02*
X220567000Y-116085000D01*
X220527000Y-109438000D02*
X220527000Y-116114000D01*
X220487000Y-109411000D02*
X220487000Y-116141000D01*
X220447000Y-113816000D02*
X220447000Y-116168000D01*
X220447000Y-109384000D02*
X220447000Y-111736000D01*
X220407000Y-113816000D02*
X220407000Y-116194000D01*
X220407000Y-109358000D02*
X220407000Y-111736000D01*
X220367000Y-113816000D02*
X220367000Y-116220000D01*
X220367000Y-109332000D02*
X220367000Y-111736000D01*
X220327000Y-113816000D02*
X220327000Y-116245000D01*
X220327000Y-109307000D02*
X220327000Y-111736000D01*
X220287000Y-113816000D02*
X220287000Y-116269000D01*
X220287000Y-109283000D02*
X220287000Y-111736000D01*
X220247000Y-113816000D02*
X220247000Y-116293000D01*
X220247000Y-109259000D02*
X220247000Y-111736000D01*
X220207000Y-113816000D02*
X220207000Y-116316000D01*
X220207000Y-109236000D02*
X220207000Y-111736000D01*
X220167000Y-113816000D02*
X220167000Y-116338000D01*
X220167000Y-109214000D02*
X220167000Y-111736000D01*
X220127000Y-113816000D02*
X220127000Y-116360000D01*
X220127000Y-109192000D02*
X220127000Y-111736000D01*
X220087000Y-113816000D02*
X220087000Y-116382000D01*
X220087000Y-109170000D02*
X220087000Y-111736000D01*
X220047000Y-113816000D02*
X220047000Y-116403000D01*
X220047000Y-109149000D02*
X220047000Y-111736000D01*
X220007000Y-113816000D02*
X220007000Y-116423000D01*
X220007000Y-109129000D02*
X220007000Y-111736000D01*
X219967000Y-113816000D02*
X219967000Y-116442000D01*
X219967000Y-109110000D02*
X219967000Y-111736000D01*
X219927000Y-113816000D02*
X219927000Y-116462000D01*
X219927000Y-109090000D02*
X219927000Y-111736000D01*
X219887000Y-113816000D02*
X219887000Y-116480000D01*
X219887000Y-109072000D02*
X219887000Y-111736000D01*
X219847000Y-113816000D02*
X219847000Y-116498000D01*
X219847000Y-109054000D02*
X219847000Y-111736000D01*
X219807000Y-113816000D02*
X219807000Y-116516000D01*
X219807000Y-109036000D02*
X219807000Y-111736000D01*
X219767000Y-113816000D02*
X219767000Y-116533000D01*
X219767000Y-109019000D02*
X219767000Y-111736000D01*
X219727000Y-113816000D02*
X219727000Y-116550000D01*
X219727000Y-109002000D02*
X219727000Y-111736000D01*
X219687000Y-113816000D02*
X219687000Y-116566000D01*
X219687000Y-108986000D02*
X219687000Y-111736000D01*
X219647000Y-113816000D02*
X219647000Y-116581000D01*
X219647000Y-108971000D02*
X219647000Y-111736000D01*
X219607000Y-113816000D02*
X219607000Y-116597000D01*
X219607000Y-108955000D02*
X219607000Y-111736000D01*
X219567000Y-113816000D02*
X219567000Y-116611000D01*
X219567000Y-108941000D02*
X219567000Y-111736000D01*
X219527000Y-113816000D02*
X219527000Y-116626000D01*
X219527000Y-108926000D02*
X219527000Y-111736000D01*
X219487000Y-113816000D02*
X219487000Y-116639000D01*
X219487000Y-108913000D02*
X219487000Y-111736000D01*
X219447000Y-113816000D02*
X219447000Y-116653000D01*
X219447000Y-108899000D02*
X219447000Y-111736000D01*
X219407000Y-113816000D02*
X219407000Y-116665000D01*
X219407000Y-108887000D02*
X219407000Y-111736000D01*
X219367000Y-113816000D02*
X219367000Y-116678000D01*
X219367000Y-108874000D02*
X219367000Y-111736000D01*
X219327000Y-113816000D02*
X219327000Y-116690000D01*
X219327000Y-108862000D02*
X219327000Y-111736000D01*
X219287000Y-113816000D02*
X219287000Y-116701000D01*
X219287000Y-108851000D02*
X219287000Y-111736000D01*
X219247000Y-113816000D02*
X219247000Y-116712000D01*
X219247000Y-108840000D02*
X219247000Y-111736000D01*
X219207000Y-113816000D02*
X219207000Y-116723000D01*
X219207000Y-108829000D02*
X219207000Y-111736000D01*
X219167000Y-113816000D02*
X219167000Y-116733000D01*
X219167000Y-108819000D02*
X219167000Y-111736000D01*
X219127000Y-113816000D02*
X219127000Y-116743000D01*
X219127000Y-108809000D02*
X219127000Y-111736000D01*
X219087000Y-113816000D02*
X219087000Y-116752000D01*
X219087000Y-108800000D02*
X219087000Y-111736000D01*
X219047000Y-113816000D02*
X219047000Y-116761000D01*
X219047000Y-108791000D02*
X219047000Y-111736000D01*
X219007000Y-113816000D02*
X219007000Y-116770000D01*
X219007000Y-108782000D02*
X219007000Y-111736000D01*
X218967000Y-113816000D02*
X218967000Y-116778000D01*
X218967000Y-108774000D02*
X218967000Y-111736000D01*
X218927000Y-113816000D02*
X218927000Y-116786000D01*
X218927000Y-108766000D02*
X218927000Y-111736000D01*
X218887000Y-113816000D02*
X218887000Y-116793000D01*
X218887000Y-108759000D02*
X218887000Y-111736000D01*
X218846000Y-113816000D02*
X218846000Y-116800000D01*
X218846000Y-108752000D02*
X218846000Y-111736000D01*
X218806000Y-113816000D02*
X218806000Y-116806000D01*
X218806000Y-108746000D02*
X218806000Y-111736000D01*
X218766000Y-113816000D02*
X218766000Y-116813000D01*
X218766000Y-108739000D02*
X218766000Y-111736000D01*
X218726000Y-113816000D02*
X218726000Y-116818000D01*
X218726000Y-108734000D02*
X218726000Y-111736000D01*
X218686000Y-113816000D02*
X218686000Y-116824000D01*
X218686000Y-108728000D02*
X218686000Y-111736000D01*
X218646000Y-113816000D02*
X218646000Y-116828000D01*
X218646000Y-108724000D02*
X218646000Y-111736000D01*
X218606000Y-113816000D02*
X218606000Y-116833000D01*
X218606000Y-108719000D02*
X218606000Y-111736000D01*
X218566000Y-113816000D02*
X218566000Y-116837000D01*
X218566000Y-108715000D02*
X218566000Y-111736000D01*
X218526000Y-113816000D02*
X218526000Y-116841000D01*
X218526000Y-108711000D02*
X218526000Y-111736000D01*
X218486000Y-113816000D02*
X218486000Y-116844000D01*
X218486000Y-108708000D02*
X218486000Y-111736000D01*
X218446000Y-113816000D02*
X218446000Y-116847000D01*
X218446000Y-108705000D02*
X218446000Y-111736000D01*
X218406000Y-113816000D02*
X218406000Y-116850000D01*
X218406000Y-108702000D02*
X218406000Y-111736000D01*
X218366000Y-108700000D02*
X218366000Y-116852000D01*
X218326000Y-108699000D02*
X218326000Y-116853000D01*
X218286000Y-108697000D02*
X218286000Y-116855000D01*
X218246000Y-108696000D02*
X218246000Y-116856000D01*
X218206000Y-108696000D02*
X218206000Y-116856000D01*
X218166000Y-108696000D02*
X218166000Y-116856000D01*
X214156302Y-110061000D02*
X214156302Y-110861000D01*
X213756302Y-110461000D02*
X214556302Y-110461000D01*
%TD*%
M02*
