%TF.GenerationSoftware,KiCad,Pcbnew,8.0.0*%
%TF.CreationDate,2025-03-01T13:37:18-05:00*%
%TF.ProjectId,compulator,636f6d70-756c-4617-946f-722e6b696361,rev?*%
%TF.SameCoordinates,Original*%
%TF.FileFunction,Soldermask,Top*%
%TF.FilePolarity,Negative*%
%FSLAX46Y46*%
G04 Gerber Fmt 4.6, Leading zero omitted, Abs format (unit mm)*
G04 Created by KiCad (PCBNEW 8.0.0) date 2025-03-01 13:37:18*
%MOMM*%
%LPD*%
G01*
G04 APERTURE LIST*
G04 Aperture macros list*
%AMRoundRect*
0 Rectangle with rounded corners*
0 $1 Rounding radius*
0 $2 $3 $4 $5 $6 $7 $8 $9 X,Y pos of 4 corners*
0 Add a 4 corners polygon primitive as box body*
4,1,4,$2,$3,$4,$5,$6,$7,$8,$9,$2,$3,0*
0 Add four circle primitives for the rounded corners*
1,1,$1+$1,$2,$3*
1,1,$1+$1,$4,$5*
1,1,$1+$1,$6,$7*
1,1,$1+$1,$8,$9*
0 Add four rect primitives between the rounded corners*
20,1,$1+$1,$2,$3,$4,$5,0*
20,1,$1+$1,$4,$5,$6,$7,0*
20,1,$1+$1,$6,$7,$8,$9,0*
20,1,$1+$1,$8,$9,$2,$3,0*%
G04 Aperture macros list end*
%ADD10C,2.500000*%
%ADD11C,1.600000*%
%ADD12O,1.600000X1.600000*%
%ADD13R,1.600000X1.600000*%
%ADD14RoundRect,0.250000X0.450000X-0.262500X0.450000X0.262500X-0.450000X0.262500X-0.450000X-0.262500X0*%
%ADD15RoundRect,0.250000X-0.450000X0.262500X-0.450000X-0.262500X0.450000X-0.262500X0.450000X0.262500X0*%
%ADD16C,1.440000*%
%ADD17C,1.500000*%
%ADD18O,1.700000X1.700000*%
%ADD19R,1.700000X1.700000*%
%ADD20C,1.524000*%
%ADD21O,2.200000X2.200000*%
%ADD22R,2.200000X2.200000*%
%ADD23O,1.070000X1.800000*%
%ADD24R,1.070000X1.800000*%
%ADD25RoundRect,0.250000X-0.250000X-0.475000X0.250000X-0.475000X0.250000X0.475000X-0.250000X0.475000X0*%
%ADD26RoundRect,0.250000X-0.475000X0.250000X-0.475000X-0.250000X0.475000X-0.250000X0.475000X0.250000X0*%
G04 APERTURE END LIST*
D10*
%TO.C,LEVEL1*%
X175340000Y-85080000D03*
X180340000Y-85080000D03*
X185340000Y-85080000D03*
%TD*%
D11*
%TO.C,C6*%
X208280000Y-100096000D03*
X208280000Y-105096000D03*
%TD*%
D12*
%TO.C,U4*%
X192024000Y-80244000D03*
X194564000Y-80244000D03*
X197104000Y-80244000D03*
X199644000Y-80244000D03*
X202184000Y-80244000D03*
X204724000Y-80244000D03*
X207264000Y-80244000D03*
X207264000Y-87864000D03*
X204724000Y-87864000D03*
X202184000Y-87864000D03*
X199644000Y-87864000D03*
X197104000Y-87864000D03*
X194564000Y-87864000D03*
D13*
X192024000Y-87864000D03*
%TD*%
D12*
%TO.C,U1*%
X224800000Y-63764000D03*
X224800000Y-66304000D03*
X224800000Y-68844000D03*
X224800000Y-71384000D03*
X217180000Y-71384000D03*
X217180000Y-68844000D03*
X217180000Y-66304000D03*
D13*
X217180000Y-63764000D03*
%TD*%
D14*
%TO.C,R19*%
X195072000Y-73743500D03*
X195072000Y-75568500D03*
%TD*%
%TO.C,R18*%
X192024000Y-73743500D03*
X192024000Y-75568500D03*
%TD*%
D15*
%TO.C,R17*%
X204216000Y-75568500D03*
X204216000Y-73743500D03*
%TD*%
D14*
%TO.C,R16*%
X213360000Y-73743500D03*
X213360000Y-75568500D03*
%TD*%
D15*
%TO.C,R15*%
X210312000Y-75568500D03*
X210312000Y-73743500D03*
%TD*%
D14*
%TO.C,R14*%
X207264000Y-73743500D03*
X207264000Y-75568500D03*
%TD*%
%TO.C,R13*%
X198120000Y-73743500D03*
X198120000Y-75568500D03*
%TD*%
%TO.C,R12*%
X201422000Y-73743500D03*
X201422000Y-75568500D03*
%TD*%
D15*
%TO.C,R11*%
X207264000Y-94364500D03*
X207264000Y-92539500D03*
%TD*%
D14*
%TO.C,R10*%
X210312000Y-92539500D03*
X210312000Y-94364500D03*
%TD*%
D15*
%TO.C,R9*%
X204216000Y-94364500D03*
X204216000Y-92539500D03*
%TD*%
D14*
%TO.C,R8*%
X201168000Y-92539500D03*
X201168000Y-94364500D03*
%TD*%
%TO.C,R7*%
X198120000Y-92539500D03*
X198120000Y-94364500D03*
%TD*%
D15*
%TO.C,R6*%
X192024000Y-94364500D03*
X192024000Y-92539500D03*
%TD*%
%TO.C,R5*%
X195072000Y-94364500D03*
X195072000Y-92539500D03*
%TD*%
D14*
%TO.C,R4*%
X205740000Y-110847500D03*
X205740000Y-112672500D03*
%TD*%
%TO.C,R3*%
X201930000Y-67667500D03*
X201930000Y-69492500D03*
%TD*%
D15*
%TO.C,R2*%
X198755000Y-69492500D03*
X198755000Y-67667500D03*
%TD*%
%TO.C,R1*%
X208788000Y-112672500D03*
X208788000Y-110847500D03*
%TD*%
D16*
%TO.C,P1*%
X200152000Y-100076000D03*
X200152000Y-102616000D03*
X200152000Y-105156000D03*
%TD*%
D17*
%TO.C,LDR1*%
X179090000Y-89068000D03*
X181590000Y-89068000D03*
X178340000Y-110068000D03*
X182340000Y-110068000D03*
%TD*%
D18*
%TO.C,J4*%
X206502000Y-119380000D03*
X203962000Y-119380000D03*
X201422000Y-119380000D03*
X198882000Y-119380000D03*
X196342000Y-119380000D03*
D19*
X193802000Y-119380000D03*
%TD*%
D20*
%TO.C,J3*%
X189230000Y-59690000D03*
X191730000Y-59690000D03*
%TD*%
%TO.C,J2*%
X210800000Y-59690000D03*
X208300000Y-59690000D03*
%TD*%
D18*
%TO.C,J1*%
X201290000Y-60330000D03*
D19*
X198750000Y-60330000D03*
%TD*%
D21*
%TO.C,D4*%
X216024000Y-90170000D03*
D22*
X216024000Y-97790000D03*
%TD*%
D21*
%TO.C,D3*%
X219964000Y-97790000D03*
D22*
X219964000Y-90170000D03*
%TD*%
D23*
%TO.C,D2*%
X201930000Y-113030000D03*
X200660000Y-113030000D03*
X199390000Y-113030000D03*
D24*
X198120000Y-113030000D03*
%TD*%
D21*
%TO.C,D1*%
X203835000Y-64135000D03*
D22*
X196215000Y-64135000D03*
%TD*%
D10*
%TO.C,COMP1*%
X215980000Y-85080000D03*
X220980000Y-85080000D03*
X225980000Y-85080000D03*
%TD*%
D25*
%TO.C,C8*%
X221930000Y-74676000D03*
X220030000Y-74676000D03*
%TD*%
D26*
%TO.C,C7*%
X188976000Y-85004000D03*
X188976000Y-83104000D03*
%TD*%
D11*
%TO.C,C5*%
X191516000Y-100096000D03*
X191516000Y-105096000D03*
%TD*%
%TO.C,C4*%
X209432700Y-65962700D03*
D13*
X209432700Y-68462700D03*
%TD*%
D11*
%TO.C,C3*%
X190382700Y-68657300D03*
D13*
X190382700Y-66157300D03*
%TD*%
D11*
%TO.C,C1*%
X219416000Y-112776000D03*
D13*
X216916000Y-112776000D03*
%TD*%
M02*
