M48
; DRILL file {KiCad (5.1.6)-1} date 08/15/21 21:21:39
; FORMAT={-:-/ absolute / inch / decimal}
; #@! TF.CreationDate,2021-08-15T21:21:39-04:00
; #@! TF.GenerationSoftware,Kicad,Pcbnew,(5.1.6)-1
; #@! TF.FileFunction,Plated,1,2,PTH
FMAT,2
INCH
T1C0.0315
T2C0.0472
%
G90
G05
T1
X5.7461Y-3.1531
X5.8461Y-3.1531
X5.9461Y-3.1531
X6.0461Y-3.1531
X6.1461Y-3.1531
X6.2461Y-3.1531
T2
G00X5.7657Y-3.348
M15
G01X5.8091Y-3.348
M16
G05
G00X5.7657Y-3.537
M15
G01X5.8091Y-3.537
M16
G05
G00X5.7657Y-3.726
M15
G01X5.8091Y-3.726
M16
G05
G00X5.9744Y-3.348
M15
G01X6.0177Y-3.348
M16
G05
G00X5.9744Y-3.537
M15
G01X6.0177Y-3.537
M16
G05
G00X5.9744Y-3.726
M15
G01X6.0177Y-3.726
M16
G05
G00X6.1831Y-3.348
M15
G01X6.2264Y-3.348
M16
G05
G00X6.1831Y-3.537
M15
G01X6.2264Y-3.537
M16
G05
G00X6.1831Y-3.726
M15
G01X6.2264Y-3.726
M16
G05
T0
M30
