%TF.GenerationSoftware,KiCad,Pcbnew,(5.1.6)-1*%
%TF.CreationDate,2021-08-15T21:21:47-04:00*%
%TF.ProjectId,3pdt-true-bypass,33706474-2d74-4727-9565-2d6279706173,rev?*%
%TF.SameCoordinates,Original*%
%TF.FileFunction,Legend,Top*%
%TF.FilePolarity,Positive*%
%FSLAX46Y46*%
G04 Gerber Fmt 4.6, Leading zero omitted, Abs format (unit mm)*
G04 Created by KiCad (PCBNEW (5.1.6)-1) date 2021-08-15 21:21:47*
%MOMM*%
%LPD*%
G01*
G04 APERTURE LIST*
%ADD10C,0.150000*%
G04 APERTURE END LIST*
D10*
X144609524Y-81840001D02*
X144514286Y-81792381D01*
X144371429Y-81792381D01*
X144228572Y-81840001D01*
X144133334Y-81935239D01*
X144085715Y-82030477D01*
X144038096Y-82220953D01*
X144038096Y-82363810D01*
X144085715Y-82554286D01*
X144133334Y-82649524D01*
X144228572Y-82744762D01*
X144371429Y-82792381D01*
X144466667Y-82792381D01*
X144609524Y-82744762D01*
X144657143Y-82697143D01*
X144657143Y-82363810D01*
X144466667Y-82363810D01*
X145276191Y-81792381D02*
X145466667Y-81792381D01*
X145561905Y-81840001D01*
X145657143Y-81935239D01*
X145704762Y-82125715D01*
X145704762Y-82459048D01*
X145657143Y-82649524D01*
X145561905Y-82744762D01*
X145466667Y-82792381D01*
X145276191Y-82792381D01*
X145180953Y-82744762D01*
X145085715Y-82649524D01*
X145038096Y-82459048D01*
X145038096Y-82125715D01*
X145085715Y-81935239D01*
X145180953Y-81840001D01*
X145276191Y-81792381D01*
X146895239Y-82792381D02*
X146895239Y-81792381D01*
X147228572Y-82506667D01*
X147561905Y-81792381D01*
X147561905Y-82792381D01*
X147990477Y-82506667D02*
X148466667Y-82506667D01*
X147895239Y-82792381D02*
X148228572Y-81792381D01*
X148561905Y-82792381D01*
X148895239Y-82792381D02*
X148895239Y-81792381D01*
X149466667Y-82792381D02*
X149038096Y-82220953D01*
X149466667Y-81792381D02*
X148895239Y-82363810D01*
X149895239Y-82268572D02*
X150228572Y-82268572D01*
X150371429Y-82792381D02*
X149895239Y-82792381D01*
X149895239Y-81792381D01*
X150371429Y-81792381D01*
X151514286Y-82744762D02*
X151657143Y-82792381D01*
X151895239Y-82792381D01*
X151990477Y-82744762D01*
X152038096Y-82697143D01*
X152085715Y-82601905D01*
X152085715Y-82506667D01*
X152038096Y-82411429D01*
X151990477Y-82363810D01*
X151895239Y-82316191D01*
X151704762Y-82268572D01*
X151609524Y-82220953D01*
X151561905Y-82173334D01*
X151514286Y-82078096D01*
X151514286Y-81982858D01*
X151561905Y-81887620D01*
X151609524Y-81840001D01*
X151704762Y-81792381D01*
X151942858Y-81792381D01*
X152085715Y-81840001D01*
X152704762Y-81792381D02*
X152895239Y-81792381D01*
X152990477Y-81840001D01*
X153085715Y-81935239D01*
X153133334Y-82125715D01*
X153133334Y-82459048D01*
X153085715Y-82649524D01*
X152990477Y-82744762D01*
X152895239Y-82792381D01*
X152704762Y-82792381D01*
X152609524Y-82744762D01*
X152514286Y-82649524D01*
X152466667Y-82459048D01*
X152466667Y-82125715D01*
X152514286Y-81935239D01*
X152609524Y-81840001D01*
X152704762Y-81792381D01*
X153561905Y-82792381D02*
X153561905Y-81792381D01*
X153895239Y-82506667D01*
X154228572Y-81792381D01*
X154228572Y-82792381D01*
X154704762Y-82268572D02*
X155038096Y-82268572D01*
X155180953Y-82792381D02*
X154704762Y-82792381D01*
X154704762Y-81792381D01*
X155180953Y-81792381D01*
X156371429Y-82792381D02*
X156371429Y-81792381D01*
X156704762Y-82506667D01*
X157038096Y-81792381D01*
X157038096Y-82792381D01*
X157514286Y-81792381D02*
X157514286Y-82601905D01*
X157561905Y-82697143D01*
X157609524Y-82744762D01*
X157704762Y-82792381D01*
X157895239Y-82792381D01*
X157990477Y-82744762D01*
X158038096Y-82697143D01*
X158085715Y-82601905D01*
X158085715Y-81792381D01*
X158514286Y-82744762D02*
X158657143Y-82792381D01*
X158895239Y-82792381D01*
X158990477Y-82744762D01*
X159038096Y-82697143D01*
X159085715Y-82601905D01*
X159085715Y-82506667D01*
X159038096Y-82411429D01*
X158990477Y-82363810D01*
X158895239Y-82316191D01*
X158704762Y-82268572D01*
X158609524Y-82220953D01*
X158561905Y-82173334D01*
X158514286Y-82078096D01*
X158514286Y-81982858D01*
X158561905Y-81887620D01*
X158609524Y-81840001D01*
X158704762Y-81792381D01*
X158942858Y-81792381D01*
X159085715Y-81840001D01*
X159514286Y-82792381D02*
X159514286Y-81792381D01*
X160561905Y-82697143D02*
X160514286Y-82744762D01*
X160371429Y-82792381D01*
X160276191Y-82792381D01*
X160133334Y-82744762D01*
X160038096Y-82649524D01*
X159990477Y-82554286D01*
X159942858Y-82363810D01*
X159942858Y-82220953D01*
X159990477Y-82030477D01*
X160038096Y-81935239D01*
X160133334Y-81840001D01*
X160276191Y-81792381D01*
X160371429Y-81792381D01*
X160514286Y-81840001D01*
X160561905Y-81887620D01*
X151490477Y-96792381D02*
X151823810Y-97792381D01*
X152157143Y-96792381D01*
X153014286Y-97792381D02*
X152442858Y-97792381D01*
X152728572Y-97792381D02*
X152728572Y-96792381D01*
X152633334Y-96935239D01*
X152538096Y-97030477D01*
X152442858Y-97078096D01*
X145157143Y-91792381D02*
X145776191Y-91792381D01*
X145442858Y-92173334D01*
X145585715Y-92173334D01*
X145680953Y-92220953D01*
X145728572Y-92268572D01*
X145776191Y-92363810D01*
X145776191Y-92601905D01*
X145728572Y-92697143D01*
X145680953Y-92744762D01*
X145585715Y-92792381D01*
X145300001Y-92792381D01*
X145204762Y-92744762D01*
X145157143Y-92697143D01*
X146204762Y-92792381D02*
X146204762Y-91792381D01*
X146585715Y-91792381D01*
X146680953Y-91840001D01*
X146728572Y-91887620D01*
X146776191Y-91982858D01*
X146776191Y-92125715D01*
X146728572Y-92220953D01*
X146680953Y-92268572D01*
X146585715Y-92316191D01*
X146204762Y-92316191D01*
X147204762Y-92792381D02*
X147204762Y-91792381D01*
X147442858Y-91792381D01*
X147585715Y-91840001D01*
X147680953Y-91935239D01*
X147728572Y-92030477D01*
X147776191Y-92220953D01*
X147776191Y-92363810D01*
X147728572Y-92554286D01*
X147680953Y-92649524D01*
X147585715Y-92744762D01*
X147442858Y-92792381D01*
X147204762Y-92792381D01*
X148061905Y-91792381D02*
X148633334Y-91792381D01*
X148347620Y-92792381D02*
X148347620Y-91792381D01*
X149585715Y-91792381D02*
X150157143Y-91792381D01*
X149871429Y-92792381D02*
X149871429Y-91792381D01*
X151061905Y-92792381D02*
X150728572Y-92316191D01*
X150490477Y-92792381D02*
X150490477Y-91792381D01*
X150871429Y-91792381D01*
X150966667Y-91840001D01*
X151014286Y-91887620D01*
X151061905Y-91982858D01*
X151061905Y-92125715D01*
X151014286Y-92220953D01*
X150966667Y-92268572D01*
X150871429Y-92316191D01*
X150490477Y-92316191D01*
X151490477Y-91792381D02*
X151490477Y-92601905D01*
X151538096Y-92697143D01*
X151585715Y-92744762D01*
X151680953Y-92792381D01*
X151871429Y-92792381D01*
X151966667Y-92744762D01*
X152014286Y-92697143D01*
X152061905Y-92601905D01*
X152061905Y-91792381D01*
X152538096Y-92268572D02*
X152871429Y-92268572D01*
X153014286Y-92792381D02*
X152538096Y-92792381D01*
X152538096Y-91792381D01*
X153014286Y-91792381D01*
X154538096Y-92268572D02*
X154680953Y-92316191D01*
X154728572Y-92363810D01*
X154776191Y-92459048D01*
X154776191Y-92601905D01*
X154728572Y-92697143D01*
X154680953Y-92744762D01*
X154585715Y-92792381D01*
X154204762Y-92792381D01*
X154204762Y-91792381D01*
X154538096Y-91792381D01*
X154633334Y-91840001D01*
X154680953Y-91887620D01*
X154728572Y-91982858D01*
X154728572Y-92078096D01*
X154680953Y-92173334D01*
X154633334Y-92220953D01*
X154538096Y-92268572D01*
X154204762Y-92268572D01*
X155395239Y-92316191D02*
X155395239Y-92792381D01*
X155061905Y-91792381D02*
X155395239Y-92316191D01*
X155728572Y-91792381D01*
X156061905Y-92792381D02*
X156061905Y-91792381D01*
X156442858Y-91792381D01*
X156538096Y-91840001D01*
X156585715Y-91887620D01*
X156633334Y-91982858D01*
X156633334Y-92125715D01*
X156585715Y-92220953D01*
X156538096Y-92268572D01*
X156442858Y-92316191D01*
X156061905Y-92316191D01*
X157014286Y-92506667D02*
X157490477Y-92506667D01*
X156919048Y-92792381D02*
X157252381Y-91792381D01*
X157585715Y-92792381D01*
X157871429Y-92744762D02*
X158014286Y-92792381D01*
X158252381Y-92792381D01*
X158347620Y-92744762D01*
X158395239Y-92697143D01*
X158442858Y-92601905D01*
X158442858Y-92506667D01*
X158395239Y-92411429D01*
X158347620Y-92363810D01*
X158252381Y-92316191D01*
X158061905Y-92268572D01*
X157966667Y-92220953D01*
X157919048Y-92173334D01*
X157871429Y-92078096D01*
X157871429Y-91982858D01*
X157919048Y-91887620D01*
X157966667Y-91840001D01*
X158061905Y-91792381D01*
X158300001Y-91792381D01*
X158442858Y-91840001D01*
X158823810Y-92744762D02*
X158966667Y-92792381D01*
X159204762Y-92792381D01*
X159300000Y-92744762D01*
X159347620Y-92697143D01*
X159395239Y-92601905D01*
X159395239Y-92506667D01*
X159347620Y-92411429D01*
X159300000Y-92363810D01*
X159204762Y-92316191D01*
X159014286Y-92268572D01*
X158919048Y-92220953D01*
X158871429Y-92173334D01*
X158823810Y-92078096D01*
X158823810Y-91982858D01*
X158871429Y-91887620D01*
X158919048Y-91840001D01*
X159014286Y-91792381D01*
X159252381Y-91792381D01*
X159395239Y-91840001D01*
X145280953Y-86892381D02*
X145852381Y-86892381D01*
X145566667Y-87892381D02*
X145566667Y-86892381D01*
X146376191Y-86892381D02*
X146566667Y-86892381D01*
X146661905Y-86940001D01*
X146757143Y-87035239D01*
X146804762Y-87225715D01*
X146804762Y-87559048D01*
X146757143Y-87749524D01*
X146661905Y-87844762D01*
X146566667Y-87892381D01*
X146376191Y-87892381D01*
X146280953Y-87844762D01*
X146185715Y-87749524D01*
X146138096Y-87559048D01*
X146138096Y-87225715D01*
X146185715Y-87035239D01*
X146280953Y-86940001D01*
X146376191Y-86892381D01*
X147233334Y-87892381D02*
X147233334Y-86892381D01*
X147804762Y-87892381D01*
X147804762Y-86892381D01*
X148280953Y-87368572D02*
X148614286Y-87368572D01*
X148757143Y-87892381D02*
X148280953Y-87892381D01*
X148280953Y-86892381D01*
X148757143Y-86892381D01*
X149947620Y-87892381D02*
X149947620Y-86892381D01*
X150185715Y-86892381D01*
X150328572Y-86940001D01*
X150423810Y-87035239D01*
X150471429Y-87130477D01*
X150519048Y-87320953D01*
X150519048Y-87463810D01*
X150471429Y-87654286D01*
X150423810Y-87749524D01*
X150328572Y-87844762D01*
X150185715Y-87892381D01*
X149947620Y-87892381D01*
X150900001Y-87606667D02*
X151376191Y-87606667D01*
X150804762Y-87892381D02*
X151138096Y-86892381D01*
X151471429Y-87892381D01*
X151804762Y-87892381D02*
X151804762Y-86892381D01*
X152042858Y-86892381D01*
X152185715Y-86940001D01*
X152280953Y-87035239D01*
X152328572Y-87130477D01*
X152376191Y-87320953D01*
X152376191Y-87463810D01*
X152328572Y-87654286D01*
X152280953Y-87749524D01*
X152185715Y-87844762D01*
X152042858Y-87892381D01*
X151804762Y-87892381D01*
X152804762Y-87892381D02*
X152804762Y-86892381D01*
X153042858Y-86892381D01*
X153185715Y-86940001D01*
X153280953Y-87035239D01*
X153328572Y-87130477D01*
X153376191Y-87320953D01*
X153376191Y-87463810D01*
X153328572Y-87654286D01*
X153280953Y-87749524D01*
X153185715Y-87844762D01*
X153042858Y-87892381D01*
X152804762Y-87892381D01*
X153995239Y-87416191D02*
X153995239Y-87892381D01*
X153661905Y-86892381D02*
X153995239Y-87416191D01*
X154328572Y-86892381D01*
X155376191Y-87606667D02*
X155852381Y-87606667D01*
X155280953Y-87892381D02*
X155614286Y-86892381D01*
X155947620Y-87892381D01*
X156280953Y-86892381D02*
X156280953Y-87701905D01*
X156328572Y-87797143D01*
X156376191Y-87844762D01*
X156471429Y-87892381D01*
X156661905Y-87892381D01*
X156757143Y-87844762D01*
X156804762Y-87797143D01*
X156852381Y-87701905D01*
X156852381Y-86892381D01*
X157328572Y-87892381D02*
X157328572Y-86892381D01*
X157566667Y-86892381D01*
X157709524Y-86940001D01*
X157804762Y-87035239D01*
X157852381Y-87130477D01*
X157900001Y-87320953D01*
X157900001Y-87463810D01*
X157852381Y-87654286D01*
X157804762Y-87749524D01*
X157709524Y-87844762D01*
X157566667Y-87892381D01*
X157328572Y-87892381D01*
X158328572Y-87892381D02*
X158328572Y-86892381D01*
X158995239Y-86892381D02*
X159185715Y-86892381D01*
X159280953Y-86940001D01*
X159376191Y-87035239D01*
X159423810Y-87225715D01*
X159423810Y-87559048D01*
X159376191Y-87749524D01*
X159280953Y-87844762D01*
X159185715Y-87892381D01*
X158995239Y-87892381D01*
X158900001Y-87844762D01*
X158804762Y-87749524D01*
X158757143Y-87559048D01*
X158757143Y-87225715D01*
X158804762Y-87035239D01*
X158900001Y-86940001D01*
X158995239Y-86892381D01*
M02*
