%TF.GenerationSoftware,KiCad,Pcbnew,(5.1.6)-1*%
%TF.CreationDate,2021-08-15T21:21:47-04:00*%
%TF.ProjectId,3pdt-true-bypass,33706474-2d74-4727-9565-2d6279706173,rev?*%
%TF.SameCoordinates,Original*%
%TF.FileFunction,Copper,L1,Top*%
%TF.FilePolarity,Positive*%
%FSLAX46Y46*%
G04 Gerber Fmt 4.6, Leading zero omitted, Abs format (unit mm)*
G04 Created by KiCad (PCBNEW (5.1.6)-1) date 2021-08-15 21:21:47*
%MOMM*%
%LPD*%
G01*
G04 APERTURE LIST*
%TA.AperFunction,ComponentPad*%
%ADD10O,3.000000X1.800000*%
%TD*%
%TA.AperFunction,ComponentPad*%
%ADD11C,1.500000*%
%TD*%
%TA.AperFunction,Conductor*%
%ADD12C,0.750000*%
%TD*%
G04 APERTURE END LIST*
D10*
%TO.P,SW1,4*%
%TO.N,Net-(J1-Pad4)*%
X152300001Y-85040001D03*
%TO.P,SW1,5*%
%TO.N,Net-(J1-Pad3)*%
X152300001Y-89840001D03*
%TO.P,SW1,6*%
%TO.N,Net-(J1-Pad2)*%
X152300001Y-94640001D03*
%TO.P,SW1,1*%
X147000001Y-85040001D03*
%TO.P,SW1,2*%
%TO.N,Net-(J1-Pad1)*%
X147000001Y-89840001D03*
%TO.P,SW1,3*%
%TO.N,Net-(SW1-Pad3)*%
X147000001Y-94640001D03*
%TO.P,SW1,7*%
%TO.N,Net-(J1-Pad5)*%
X157600001Y-85040001D03*
%TO.P,SW1,8*%
%TO.N,Net-(J1-Pad6)*%
X157600001Y-89840001D03*
%TO.P,SW1,9*%
%TO.N,Net-(SW1-Pad3)*%
X157600001Y-94640001D03*
%TD*%
D11*
%TO.P,J1,1*%
%TO.N,Net-(J1-Pad1)*%
X145950001Y-80090001D03*
%TO.P,J1,2*%
%TO.N,Net-(J1-Pad2)*%
X148490001Y-80090001D03*
%TO.P,J1,3*%
%TO.N,Net-(J1-Pad3)*%
X151030001Y-80090001D03*
%TO.P,J1,4*%
%TO.N,Net-(J1-Pad4)*%
X153570001Y-80090001D03*
%TO.P,J1,5*%
%TO.N,Net-(J1-Pad5)*%
X156110001Y-80090001D03*
%TO.P,J1,6*%
%TO.N,Net-(J1-Pad6)*%
X158650001Y-80090001D03*
%TD*%
D12*
%TO.N,Net-(J1-Pad1)*%
X146050000Y-80240000D02*
X145950001Y-80339999D01*
X144300001Y-88840001D02*
X145300001Y-89840001D01*
X144300001Y-83840001D02*
X144300001Y-88840001D01*
X145300001Y-89840001D02*
X147000001Y-89840001D01*
X145950001Y-80240000D02*
X145950001Y-82190001D01*
X145950001Y-82190001D02*
X144300001Y-83840001D01*
%TO.N,Net-(J1-Pad2)*%
X148590000Y-80240000D02*
X148490001Y-80339999D01*
X150600001Y-94640001D02*
X152300001Y-94640001D01*
X149800001Y-93840001D02*
X150600001Y-94640001D01*
X147000001Y-85040001D02*
X147000001Y-85790001D01*
X149800001Y-88590001D02*
X149800001Y-93840001D01*
X147000001Y-85790001D02*
X149800001Y-88590001D01*
X147000001Y-83140001D02*
X147000001Y-85040001D01*
X148490001Y-80240000D02*
X148490001Y-81650001D01*
X148490001Y-81650001D02*
X147000001Y-83140001D01*
%TO.N,Net-(J1-Pad3)*%
X151130000Y-80240000D02*
X151030001Y-80339999D01*
X152300001Y-88340001D02*
X152300001Y-89840001D01*
X149800001Y-85840001D02*
X152300001Y-88340001D01*
X149800001Y-83340001D02*
X149800001Y-85840001D01*
X151030001Y-80240000D02*
X151030001Y-82110001D01*
X151030001Y-82110001D02*
X149800001Y-83340001D01*
%TO.N,Net-(J1-Pad4)*%
X153670000Y-80240000D02*
X153570001Y-80339999D01*
X152300001Y-83340001D02*
X152300001Y-85040001D01*
X153570001Y-80240000D02*
X153570001Y-82070001D01*
X153570001Y-82070001D02*
X152300001Y-83340001D01*
%TO.N,Net-(J1-Pad5)*%
X156210000Y-80240000D02*
X156110001Y-80339999D01*
X157600001Y-83140001D02*
X157600001Y-85040001D01*
X156110001Y-80240000D02*
X156110001Y-81650001D01*
X156110001Y-81650001D02*
X157600001Y-83140001D01*
%TO.N,Net-(J1-Pad6)*%
X158750000Y-80240000D02*
X158650001Y-80339999D01*
X159300001Y-89840001D02*
X157600001Y-89840001D01*
X160300001Y-88840001D02*
X159300001Y-89840001D01*
X160300001Y-83340001D02*
X160300001Y-88840001D01*
X158650001Y-80240000D02*
X158650001Y-81690001D01*
X158650001Y-81690001D02*
X160300001Y-83340001D01*
%TO.N,Net-(SW1-Pad3)*%
X157600001Y-96040001D02*
X157600001Y-94640001D01*
X156800001Y-96840001D02*
X157600001Y-96040001D01*
X147800001Y-96840001D02*
X156800001Y-96840001D01*
X147000001Y-94640001D02*
X147000001Y-96040001D01*
X147000001Y-96040001D02*
X147800001Y-96840001D01*
%TD*%
M02*
